<svg width="200" height="200" viewBox="0 0 200 200" fill="none" xmlns="http://www.w3.org/2000/svg">
<g clip-path="url(#clip0_146_132)">
<rect width="200" height="200" fill="white"/>
<path d="M63.4717 82.0889C64.3019 126.178 56 158.556 56 158.556C75.9245 162 79.2453 162 100 162C120.755 162 124.075 162 144 158.556C144 158.556 135.698 126.178 136.528 82.0889M63.4717 82.0889C74.0981 62.8 72.0503 45.1185 69.283 38H65.9623C69.5597 44.6593 70.1132 64.8667 60.9811 80.0222L63.4717 82.0889ZM136.528 82.0889C125.902 62.8 127.95 45.1185 130.717 38H134.038C130.44 44.6593 129.887 64.8667 139.019 80.0222L136.528 82.0889ZM71.7736 57.9778C80.9057 62.1111 95.0189 63.4889 100 63.4889C104.981 63.4889 119.094 62.1111 128.226 57.9778H71.7736Z" stroke="black"/>
<path d="M92.75 78.07H97.2V78.93H92.75V78.07ZM92.75 79.53H97.2V80.4H92.75V79.53ZM96.66 76.46H97.91V83.43C97.91 83.7767 97.87 84.0433 97.79 84.23C97.71 84.4233 97.5567 84.5733 97.33 84.68C97.11 84.78 96.8333 84.8433 96.5 84.87C96.1667 84.8967 95.76 84.9067 95.28 84.9C95.26 84.78 95.2267 84.6433 95.18 84.49C95.14 84.3367 95.09 84.1833 95.03 84.03C94.9767 83.8833 94.92 83.7533 94.86 83.64C95.0667 83.6533 95.2733 83.6633 95.48 83.67C95.6933 83.67 95.88 83.67 96.04 83.67C96.2067 83.6633 96.3267 83.66 96.4 83.66C96.4933 83.66 96.56 83.6433 96.6 83.61C96.64 83.5767 96.66 83.5133 96.66 83.42V76.46ZM90.5 81.19C91.0467 81.1633 91.6867 81.1333 92.42 81.1C93.16 81.0667 93.9433 81.0267 94.77 80.98C95.6033 80.9333 96.4267 80.8867 97.24 80.84L97.23 81.86C96.4567 81.9267 95.6767 81.9933 94.89 82.06C94.1033 82.12 93.3467 82.1767 92.62 82.23C91.9 82.2833 91.25 82.33 90.67 82.37L90.5 81.19ZM98.41 78.51L99.58 79.07C98.96 80.03 98.2133 80.88 97.34 81.62C96.4733 82.3533 95.5167 82.9867 94.47 83.52C93.4233 84.0467 92.3233 84.48 91.17 84.82C91.1167 84.72 91.04 84.6 90.94 84.46C90.84 84.3267 90.7367 84.1933 90.63 84.06C90.53 83.9267 90.4367 83.8133 90.35 83.72C91.5167 83.4267 92.61 83.0433 93.63 82.57C94.65 82.09 95.5667 81.5133 96.38 80.84C97.1933 80.16 97.87 79.3833 98.41 78.51ZM94.38 75.47L95.86 75.63C95.7067 75.9367 95.54 76.2367 95.36 76.53C95.1867 76.8233 95.0267 77.07 94.88 77.27L93.81 77.05C93.9233 76.8167 94.0333 76.5567 94.14 76.27C94.2467 75.9767 94.3267 75.71 94.38 75.47ZM91.98 76.46H97.06V77.49H93.19V81.73H91.98V76.46ZM101.8 75.51H102.81V84.9H101.8V75.51ZM100.49 77.35H103.68V78.4H101.37V82.82H100.49V77.35ZM103.26 77.35H104.11V81.63C104.11 81.81 104.093 81.9767 104.06 82.13C104.033 82.2833 103.967 82.4033 103.86 82.49C103.753 82.5767 103.64 82.6333 103.52 82.66C103.4 82.6867 103.25 82.7 103.07 82.7C103.063 82.5533 103.033 82.3833 102.98 82.19C102.927 81.9967 102.867 81.8333 102.8 81.7C102.887 81.7 102.963 81.7 103.03 81.7C103.103 81.7 103.153 81.7 103.18 81.7C103.233 81.7 103.26 81.6667 103.26 81.6V77.35ZM104.38 75.93H109.54V76.9H104.38V75.93ZM105.82 78.29V79.04H108.09V78.29H105.82ZM104.81 77.4H109.15V79.91H104.81V77.4ZM104.87 82.04H109.12V82.95H104.87V82.04ZM104.85 83.65H109.13V84.58H104.85V83.65ZM104.38 80.43H109.5V84.87H108.39V81.36H105.44V84.88H104.38V80.43ZM106.38 80.9H107.39V84.3H106.38V80.9Z" fill="black"/>
<path d="M136 88H64" stroke="#FF0202" stroke-linecap="round"/>
<path d="M165.99 97.27L167.19 97.55C167.07 97.8433 166.943 98.1433 166.81 98.45C166.677 98.75 166.547 99.0367 166.42 99.31C166.3 99.5833 166.18 99.8267 166.06 100.04L165.17 99.76C165.27 99.54 165.37 99.2833 165.47 98.99C165.577 98.6967 165.677 98.4 165.77 98.1C165.863 97.8 165.937 97.5233 165.99 97.27ZM167.16 98.61L168.07 98.16C168.25 98.3867 168.43 98.6333 168.61 98.9C168.79 99.16 168.953 99.4167 169.1 99.67C169.253 99.9233 169.37 100.153 169.45 100.36L168.47 100.88C168.403 100.673 168.3 100.44 168.16 100.18C168.02 99.92 167.86 99.6533 167.68 99.38C167.507 99.1067 167.333 98.85 167.16 98.61ZM167.73 102.19L168.64 101.74C168.82 101.973 168.99 102.227 169.15 102.5C169.317 102.773 169.457 103.043 169.57 103.31C169.69 103.577 169.773 103.82 169.82 104.04L168.82 104.54C168.787 104.32 168.713 104.077 168.6 103.81C168.493 103.537 168.363 103.26 168.21 102.98C168.057 102.7 167.897 102.437 167.73 102.19ZM164.28 99.36C164.633 99.3533 165.04 99.3433 165.5 99.33C165.967 99.31 166.457 99.2867 166.97 99.26C167.49 99.2333 168.013 99.21 168.54 99.19L168.52 100.13C167.813 100.19 167.103 100.247 166.39 100.3C165.677 100.353 165.04 100.4 164.48 100.44L164.28 99.36ZM165.29 95.66L166.43 95.94C166.243 96.44 166 96.92 165.7 97.38C165.4 97.8333 165.083 98.2133 164.75 98.52C164.683 98.4533 164.593 98.3733 164.48 98.28C164.367 98.1867 164.25 98.0967 164.13 98.01C164.01 97.9233 163.903 97.8533 163.81 97.8C164.137 97.5467 164.43 97.23 164.69 96.85C164.95 96.47 165.15 96.0733 165.29 95.66ZM168.09 95.65C168.223 95.87 168.383 96.0967 168.57 96.33C168.763 96.5633 168.97 96.7833 169.19 96.99C169.41 97.1967 169.62 97.3767 169.82 97.53C169.733 97.59 169.637 97.6733 169.53 97.78C169.423 97.88 169.32 97.9867 169.22 98.1C169.127 98.2067 169.05 98.3033 168.99 98.39C168.777 98.2033 168.553 97.98 168.32 97.72C168.093 97.46 167.873 97.1867 167.66 96.9C167.453 96.6067 167.27 96.3233 167.11 96.05L168.09 95.65ZM165.53 100.95L166.27 100.31C166.497 100.41 166.717 100.53 166.93 100.67C167.15 100.803 167.35 100.947 167.53 101.1C167.717 101.253 167.87 101.403 167.99 101.55L167.2 102.27C167.093 102.117 166.947 101.96 166.76 101.8C166.58 101.633 166.383 101.477 166.17 101.33C165.957 101.183 165.743 101.057 165.53 100.95ZM165.47 101.72H166.57V103.58C166.57 103.713 166.58 103.797 166.6 103.83C166.627 103.863 166.68 103.88 166.76 103.88C166.78 103.88 166.81 103.88 166.85 103.88C166.89 103.88 166.933 103.88 166.98 103.88C167.033 103.88 167.08 103.88 167.12 103.88C167.167 103.88 167.2 103.88 167.22 103.88C167.28 103.88 167.323 103.86 167.35 103.82C167.383 103.773 167.407 103.683 167.42 103.55C167.44 103.41 167.453 103.197 167.46 102.91C167.527 102.97 167.617 103.027 167.73 103.08C167.85 103.133 167.97 103.183 168.09 103.23C168.217 103.277 168.33 103.313 168.43 103.34C168.397 103.753 168.337 104.073 168.25 104.3C168.17 104.527 168.057 104.68 167.91 104.76C167.77 104.847 167.583 104.89 167.35 104.89C167.31 104.89 167.253 104.89 167.18 104.89C167.113 104.89 167.04 104.89 166.96 104.89C166.887 104.89 166.813 104.89 166.74 104.89C166.673 104.89 166.62 104.89 166.58 104.89C166.273 104.89 166.04 104.85 165.88 104.77C165.727 104.69 165.62 104.553 165.56 104.36C165.5 104.173 165.47 103.917 165.47 103.59V101.72ZM164.43 101.94L165.39 102.1C165.343 102.507 165.257 102.93 165.13 103.37C165.01 103.803 164.857 104.173 164.67 104.48L163.72 104.07C163.893 103.817 164.04 103.493 164.16 103.1C164.287 102.7 164.377 102.313 164.43 101.94ZM161.81 95.49L162.84 95.88C162.707 96.14 162.567 96.4067 162.42 96.68C162.273 96.9467 162.13 97.2033 161.99 97.45C161.85 97.6967 161.717 97.9167 161.59 98.11L160.8 97.76C160.92 97.56 161.043 97.33 161.17 97.07C161.297 96.8033 161.417 96.5333 161.53 96.26C161.643 95.9867 161.737 95.73 161.81 95.49ZM162.93 96.7L163.9 97.15C163.653 97.5233 163.387 97.9167 163.1 98.33C162.813 98.7433 162.527 99.14 162.24 99.52C161.953 99.9 161.68 100.233 161.42 100.52L160.74 100.13C160.927 99.91 161.12 99.66 161.32 99.38C161.527 99.0933 161.727 98.7967 161.92 98.49C162.113 98.1767 162.297 97.8667 162.47 97.56C162.643 97.2533 162.797 96.9667 162.93 96.7ZM160.26 97.83L160.85 97.03C161.023 97.1833 161.2 97.3567 161.38 97.55C161.56 97.7367 161.723 97.9233 161.87 98.11C162.023 98.29 162.14 98.46 162.22 98.62L161.57 99.54C161.497 99.3733 161.387 99.19 161.24 98.99C161.1 98.79 160.943 98.59 160.77 98.39C160.597 98.1833 160.427 97.9967 160.26 97.83ZM162.59 99.09L163.43 98.74C163.563 98.96 163.693 99.2 163.82 99.46C163.947 99.7133 164.06 99.9633 164.16 100.21C164.26 100.45 164.33 100.667 164.37 100.86L163.47 101.27C163.437 101.077 163.373 100.853 163.28 100.6C163.187 100.347 163.08 100.09 162.96 99.83C162.847 99.5633 162.723 99.3167 162.59 99.09ZM160.24 99.91C160.68 99.8833 161.207 99.85 161.82 99.81C162.433 99.7633 163.057 99.7167 163.69 99.67L163.7 100.59C163.127 100.657 162.55 100.72 161.97 100.78C161.397 100.84 160.873 100.897 160.4 100.95L160.24 99.91ZM162.83 101.63L163.68 101.35C163.807 101.643 163.923 101.963 164.03 102.31C164.143 102.657 164.223 102.953 164.27 103.2L163.37 103.52C163.323 103.26 163.247 102.953 163.14 102.6C163.04 102.247 162.937 101.923 162.83 101.63ZM160.65 101.37L161.62 101.53C161.56 102.01 161.477 102.483 161.37 102.95C161.27 103.41 161.15 103.8 161.01 104.12C160.943 104.08 160.857 104.033 160.75 103.98C160.643 103.927 160.533 103.873 160.42 103.82C160.313 103.767 160.22 103.727 160.14 103.7C160.287 103.407 160.4 103.05 160.48 102.63C160.56 102.21 160.617 101.79 160.65 101.37ZM161.77 100.42H162.8V104.89H161.77V100.42ZM170.57 97.31H179.45V98.48H170.57V97.31ZM172.82 98.8C173.093 99.7933 173.5 100.633 174.04 101.32C174.587 102 175.307 102.537 176.2 102.93C177.1 103.323 178.22 103.59 179.56 103.73C179.473 103.817 179.383 103.93 179.29 104.07C179.197 104.21 179.11 104.35 179.03 104.49C178.95 104.63 178.883 104.76 178.83 104.88C177.77 104.74 176.85 104.523 176.07 104.23C175.29 103.937 174.62 103.553 174.06 103.08C173.507 102.607 173.037 102.04 172.65 101.38C172.27 100.713 171.947 99.9433 171.68 99.07L172.82 98.8ZM175.41 95.67H176.74C176.733 96.4633 176.717 97.2133 176.69 97.92C176.67 98.62 176.61 99.2767 176.51 99.89C176.41 100.497 176.247 101.053 176.02 101.56C175.8 102.067 175.49 102.527 175.09 102.94C174.69 103.347 174.173 103.703 173.54 104.01C172.913 104.323 172.137 104.583 171.21 104.79C171.177 104.683 171.12 104.563 171.04 104.43C170.967 104.303 170.883 104.177 170.79 104.05C170.697 103.923 170.607 103.817 170.52 103.73C171.373 103.557 172.087 103.34 172.66 103.08C173.24 102.82 173.707 102.52 174.06 102.18C174.42 101.833 174.69 101.44 174.87 101C175.057 100.56 175.187 100.073 175.26 99.54C175.333 99 175.377 98.41 175.39 97.77C175.403 97.1233 175.41 96.4233 175.41 95.67Z" fill="black"/>
<path d="M28.02 104.48H36.04V105.41H28.02V104.48ZM28.52 105.84H35.52V106.71H28.52V105.84ZM30.29 109.68H34.82V110.34H30.29V109.68ZM30.29 110.7H34.82V111.37H30.29V110.7ZM30.28 111.74H34.94V112.59H30.28V111.74ZM27.57 107.13H36.43V108.07H27.57V107.13ZM31.37 105.16H32.6V107.88H31.37V105.16ZM29.26 103.82L30.33 103.48C30.4633 103.627 30.59 103.793 30.71 103.98C30.83 104.16 30.9167 104.323 30.97 104.47L29.86 104.88C29.8133 104.733 29.7333 104.56 29.62 104.36C29.5067 104.16 29.3867 103.98 29.26 103.82ZM33.58 103.47L34.89 103.8C34.7367 103.993 34.5867 104.177 34.44 104.35C34.3 104.517 34.1767 104.66 34.07 104.78L33.05 104.47C33.1433 104.317 33.24 104.15 33.34 103.97C33.4467 103.783 33.5267 103.617 33.58 103.47ZM29.68 107.58L30.87 107.87C30.5833 108.683 30.1967 109.427 29.71 110.1C29.2233 110.767 28.6833 111.317 28.09 111.75C28.03 111.67 27.9433 111.573 27.83 111.46C27.7233 111.347 27.61 111.233 27.49 111.12C27.3767 111.007 27.2767 110.917 27.19 110.85C27.7567 110.49 28.2567 110.027 28.69 109.46C29.1233 108.887 29.4533 108.26 29.68 107.58ZM29.63 108.47H35.58V112.88H34.32V109.32H30.82V112.88H29.63V108.47ZM37.57 105.31H46.45V106.48H37.57V105.31ZM39.82 106.8C40.0933 107.793 40.5 108.633 41.04 109.32C41.5867 110 42.3067 110.537 43.2 110.93C44.1 111.323 45.22 111.59 46.56 111.73C46.4733 111.817 46.3833 111.93 46.29 112.07C46.1967 112.21 46.11 112.35 46.03 112.49C45.95 112.63 45.8833 112.76 45.83 112.88C44.77 112.74 43.85 112.523 43.07 112.23C42.29 111.937 41.62 111.553 41.06 111.08C40.5067 110.607 40.0367 110.04 39.65 109.38C39.27 108.713 38.9467 107.943 38.68 107.07L39.82 106.8ZM42.41 103.67H43.74C43.7333 104.463 43.7167 105.213 43.69 105.92C43.67 106.62 43.61 107.277 43.51 107.89C43.41 108.497 43.2467 109.053 43.02 109.56C42.8 110.067 42.49 110.527 42.09 110.94C41.69 111.347 41.1733 111.703 40.54 112.01C39.9133 112.323 39.1367 112.583 38.21 112.79C38.1767 112.683 38.12 112.563 38.04 112.43C37.9667 112.303 37.8833 112.177 37.79 112.05C37.6967 111.923 37.6067 111.817 37.52 111.73C38.3733 111.557 39.0867 111.34 39.66 111.08C40.24 110.82 40.7067 110.52 41.06 110.18C41.42 109.833 41.69 109.44 41.87 109C42.0567 108.56 42.1867 108.073 42.26 107.54C42.3333 107 42.3767 106.41 42.39 105.77C42.4033 105.123 42.41 104.423 42.41 103.67Z" fill="black"/>
<path d="M156 160V39" stroke="#FF0202" stroke-linecap="round"/>
<path d="M51 161L51 59" stroke="#FF0202" stroke-linecap="round"/>
<path d="M123 162H165" stroke="#FF0000" stroke-width="0.5" stroke-dasharray="1 1"/>
<path d="M39 162H81" stroke="#FF0000" stroke-width="0.5" stroke-dasharray="1 1"/>
<path d="M135 38H161" stroke="#FF0000" stroke-width="0.5" stroke-dasharray="1 1"/>
<path d="M45 58H71" stroke="#FF0000" stroke-width="0.5" stroke-dasharray="1 1"/>
<path d="M160 45.9282L156 39L152 45.9282" stroke="#FF0202" stroke-linecap="round"/>
<path d="M55 65.9282L51 59L47 65.9282" stroke="#FF0202" stroke-linecap="round"/>
<path d="M47 154L51 160.928L55 154" stroke="#FF0202" stroke-linecap="round"/>
<path d="M152 154L156 160.928L160 154" stroke="#FF0202" stroke-linecap="round"/>
<path d="M70.9282 84L64 88L70.9282 92" stroke="#FF0202" stroke-linecap="round"/>
<path d="M129 84L135.928 88L129 92" stroke="#FF0202" stroke-linecap="round"/>
</g>
<defs>
<clipPath id="clip0_146_132">
<rect width="200" height="200" fill="white"/>
</clipPath>
</defs>
</svg>
