<svg width="200" height="200" viewBox="0 0 200 200" fill="none" xmlns="http://www.w3.org/2000/svg">
<g clip-path="url(#clip0_146_213)">
<rect width="200" height="200" fill="white"/>
<path d="M65.6937 121.332L60.1441 149.208L44 145.795L56.6126 55.3379C56.8773 53.5468 57.8366 50.8159 59.4903 48.4602M65.6937 121.332V80.9389C65.6937 57.2214 61.5581 49.4041 59.4903 48.4602M65.6937 121.332V157.742C80.3243 163.431 90.4144 164 100 164C109.586 164 119.676 163.431 134.306 157.742V121.332M59.4903 48.4602C60.9883 46.3264 63.0561 44.5005 65.6937 43.9597L85.0667 37.1327C88.3333 36 91.1333 36 93 36H107C108.867 36 111.667 36 114.933 37.1327L134.306 43.9597C136.944 44.5005 139.012 46.3264 140.51 48.4602M81.3333 38.8319L100 91.5044L118.667 38.8319M78.5333 39.3982L100 100.566L121.467 39.3982M134.306 121.332L139.856 149.208L156 145.795L143.387 55.3379C143.123 53.5468 142.163 50.8159 140.51 48.4602M134.306 121.332V80.9389C134.306 57.2214 138.442 49.4041 140.51 48.4602" stroke="black" stroke-linecap="round"/>
<path d="M100 101V164" stroke="black" stroke-linecap="round"/>
<circle cx="103" cy="114" r="1.5" stroke="black"/>
<circle cx="103" cy="126" r="1.5" stroke="black"/>
<circle cx="103" cy="137" r="1.5" stroke="black"/>
<circle cx="103" cy="149" r="1.5" stroke="black"/>
<path d="M163 163V37" stroke="#FF0202" stroke-linecap="round"/>
<path d="M100 164L173 164" stroke="#FF0000" stroke-width="0.5" stroke-dasharray="1 1"/>
<path d="M100 36L168 36" stroke="#FF0000" stroke-width="0.5" stroke-dasharray="1 1"/>
<path d="M159 156L163 162.928L167 156" stroke="#FF0202" stroke-linecap="round"/>
<path d="M167 42.9282L163 36L159 42.9282" stroke="#FF0202" stroke-linecap="round"/>
<path d="M16.208 85.296H22.34V93.996H20.948V86.592H17.528V94.068H16.208V85.296ZM16.916 92.1H21.704V93.432H16.916V92.1ZM16.916 88.668H21.704V89.976H16.916V88.668ZM18.536 82.812H19.904V92.976H18.536V82.812ZM12.956 89.148L14.336 87.516V94.08H12.956V89.148ZM11.54 84.948H14.912V86.232H11.54V84.948ZM12.944 82.872H14.324V85.704H12.944V82.872ZM14.228 87.996C14.316 88.076 14.444 88.208 14.612 88.392C14.78 88.568 14.956 88.764 15.14 88.98C15.332 89.196 15.508 89.396 15.668 89.58C15.828 89.756 15.94 89.888 16.004 89.976L15.176 90.948C15.08 90.788 14.956 90.604 14.804 90.396C14.66 90.18 14.508 89.96 14.348 89.736C14.188 89.504 14.028 89.292 13.868 89.1C13.716 88.9 13.588 88.732 13.484 88.596L14.228 87.996ZM14.504 84.948H14.78L15.02 84.9L15.776 85.392C15.52 86.176 15.184 86.94 14.768 87.684C14.352 88.42 13.896 89.096 13.4 89.712C12.904 90.328 12.4 90.844 11.888 91.26C11.848 91.132 11.788 90.98 11.708 90.804C11.628 90.628 11.54 90.46 11.444 90.3C11.356 90.14 11.276 90.016 11.204 89.928C11.66 89.592 12.104 89.172 12.536 88.668C12.968 88.156 13.356 87.604 13.7 87.012C14.052 86.412 14.32 85.816 14.504 85.224V84.948ZM15.524 87.372L16.376 88.008C16.152 88.28 15.924 88.56 15.692 88.848C15.468 89.136 15.26 89.38 15.068 89.58L14.396 89.052C14.572 88.828 14.768 88.56 14.984 88.248C15.208 87.928 15.388 87.636 15.524 87.372ZM23.684 84.972H34.34V86.376H23.684V84.972ZM26.384 86.76C26.712 87.952 27.2 88.96 27.848 89.784C28.504 90.6 29.368 91.244 30.44 91.716C31.52 92.188 32.864 92.508 34.472 92.676C34.368 92.78 34.26 92.916 34.148 93.084C34.036 93.252 33.932 93.42 33.836 93.588C33.74 93.756 33.66 93.912 33.596 94.056C32.324 93.888 31.22 93.628 30.284 93.276C29.348 92.924 28.544 92.464 27.872 91.896C27.208 91.328 26.644 90.648 26.18 89.856C25.724 89.056 25.336 88.132 25.016 87.084L26.384 86.76ZM29.492 83.004H31.088C31.08 83.956 31.06 84.856 31.028 85.704C31.004 86.544 30.932 87.332 30.812 88.068C30.692 88.796 30.496 89.464 30.224 90.072C29.96 90.68 29.588 91.232 29.108 91.728C28.628 92.216 28.008 92.644 27.248 93.012C26.496 93.388 25.564 93.7 24.452 93.948C24.412 93.82 24.344 93.676 24.248 93.516C24.16 93.364 24.06 93.212 23.948 93.06C23.836 92.908 23.728 92.78 23.624 92.676C24.648 92.468 25.504 92.208 26.192 91.896C26.888 91.584 27.448 91.224 27.872 90.816C28.304 90.4 28.628 89.928 28.844 89.4C29.068 88.872 29.224 88.288 29.312 87.648C29.4 87 29.452 86.292 29.468 85.524C29.484 84.748 29.492 83.908 29.492 83.004Z" fill="black"/>
<path d="M50.0059 46.9236C50.0481 46.6507 50.3035 46.4637 50.5764 46.5059C50.8493 46.5481 51.0363 46.8035 50.9941 47.0764L50.0059 46.9236ZM50.5 47L50.9941 47.0764L35.9941 144.076L35.5 144L35.0059 143.924L50.0059 46.9236L50.5 47Z" fill="#FF0000"/>
<path d="M35.5 144L33.2655 136" stroke="#FF0202" stroke-linecap="round"/>
<path d="M44.9838 53.5L50.4838 47" stroke="#FF0202" stroke-linecap="round"/>
<path d="M59.5 48.5L48 46.5M44 146L32.5 144" stroke="#FF0000" stroke-width="0.5" stroke-linecap="round" stroke-dasharray="1 1"/>
<path d="M89.68 17.092H91.108V19.396C91.108 19.86 91.084 20.376 91.036 20.944C90.996 21.504 90.916 22.076 90.796 22.66C90.684 23.244 90.52 23.812 90.304 24.364C90.088 24.916 89.804 25.416 89.452 25.864C89.364 25.784 89.244 25.688 89.092 25.576C88.948 25.472 88.796 25.372 88.636 25.276C88.476 25.18 88.336 25.108 88.216 25.06C88.552 24.652 88.816 24.208 89.008 23.728C89.208 23.24 89.356 22.74 89.452 22.228C89.548 21.716 89.608 21.216 89.632 20.728C89.664 20.24 89.68 19.788 89.68 19.372V17.092ZM90.472 17.092H98.38V19.876H90.472V18.832H96.964V18.148H90.472V17.092ZM88.936 15.328H99.076V16.588H88.936V15.328ZM91.396 20.356H97.732V21.364H92.788V26.092H91.396V20.356ZM97.096 20.356H98.524V24.76C98.524 25.08 98.476 25.328 98.38 25.504C98.292 25.68 98.132 25.816 97.9 25.912C97.676 26 97.396 26.052 97.06 26.068C96.724 26.084 96.328 26.092 95.872 26.092C95.848 25.916 95.796 25.72 95.716 25.504C95.636 25.288 95.552 25.1 95.464 24.94C95.648 24.948 95.832 24.956 96.016 24.964C96.208 24.964 96.38 24.964 96.532 24.964C96.692 24.956 96.796 24.952 96.844 24.952C96.932 24.952 96.996 24.94 97.036 24.916C97.076 24.884 97.096 24.828 97.096 24.748V20.356ZM92.068 21.892H97.792V22.792H92.068V21.892ZM92.068 23.332H97.792V24.304H92.068V23.332ZM102.16 14.812H103.372V26.08H102.16V14.812ZM100.588 17.02H104.416V18.28H101.644V23.584H100.588V17.02ZM103.912 17.02H104.932V22.156C104.932 22.372 104.912 22.572 104.872 22.756C104.84 22.94 104.76 23.084 104.632 23.188C104.504 23.292 104.368 23.36 104.224 23.392C104.08 23.424 103.9 23.44 103.684 23.44C103.676 23.264 103.64 23.06 103.576 22.828C103.512 22.596 103.44 22.4 103.36 22.24C103.464 22.24 103.556 22.24 103.636 22.24C103.724 22.24 103.784 22.24 103.816 22.24C103.88 22.24 103.912 22.2 103.912 22.12V17.02ZM105.256 15.316H111.448V16.48H105.256V15.316ZM106.984 18.148V19.048H109.708V18.148H106.984ZM105.772 17.08H110.98V20.092H105.772V17.08ZM105.844 22.648H110.944V23.74H105.844V22.648ZM105.82 24.58H110.956V25.696H105.82V24.58ZM105.256 20.716H111.4V26.044H110.068V21.832H106.528V26.056H105.256V20.716ZM107.656 21.28H108.868V25.36H107.656V21.28Z" fill="black"/>
<path d="M91.3 48.884H96.64V49.916H91.3V48.884ZM91.3 50.636H96.64V51.68H91.3V50.636ZM95.992 46.952H97.492V55.316C97.492 55.732 97.444 56.052 97.348 56.276C97.252 56.508 97.068 56.688 96.796 56.816C96.532 56.936 96.2 57.012 95.8 57.044C95.4 57.076 94.912 57.088 94.336 57.08C94.312 56.936 94.272 56.772 94.216 56.588C94.168 56.404 94.108 56.22 94.036 56.036C93.972 55.86 93.904 55.704 93.832 55.568C94.08 55.584 94.328 55.596 94.576 55.604C94.832 55.604 95.056 55.604 95.248 55.604C95.448 55.596 95.592 55.592 95.68 55.592C95.792 55.592 95.872 55.572 95.92 55.532C95.968 55.492 95.992 55.416 95.992 55.304V46.952ZM88.6 52.628C89.256 52.596 90.024 52.56 90.904 52.52C91.792 52.48 92.732 52.432 93.724 52.376C94.724 52.32 95.712 52.264 96.688 52.208L96.676 53.432C95.748 53.512 94.812 53.592 93.868 53.672C92.924 53.744 92.016 53.812 91.144 53.876C90.28 53.94 89.5 53.996 88.804 54.044L88.6 52.628ZM98.092 49.412L99.496 50.084C98.752 51.236 97.856 52.256 96.808 53.144C95.768 54.024 94.62 54.784 93.364 55.424C92.108 56.056 90.788 56.576 89.404 56.984C89.34 56.864 89.248 56.72 89.128 56.552C89.008 56.392 88.884 56.232 88.756 56.072C88.636 55.912 88.524 55.776 88.42 55.664C89.82 55.312 91.132 54.852 92.356 54.284C93.58 53.708 94.68 53.016 95.656 52.208C96.632 51.392 97.444 50.46 98.092 49.412ZM93.256 45.764L95.032 45.956C94.848 46.324 94.648 46.684 94.432 47.036C94.224 47.388 94.032 47.684 93.856 47.924L92.572 47.66C92.708 47.38 92.84 47.068 92.968 46.724C93.096 46.372 93.192 46.052 93.256 45.764ZM90.376 46.952H96.472V48.188H91.828V53.276H90.376V46.952ZM102.16 45.812H103.372V57.08H102.16V45.812ZM100.588 48.02H104.416V49.28H101.644V54.584H100.588V48.02ZM103.912 48.02H104.932V53.156C104.932 53.372 104.912 53.572 104.872 53.756C104.84 53.94 104.76 54.084 104.632 54.188C104.504 54.292 104.368 54.36 104.224 54.392C104.08 54.424 103.9 54.44 103.684 54.44C103.676 54.264 103.64 54.06 103.576 53.828C103.512 53.596 103.44 53.4 103.36 53.24C103.464 53.24 103.556 53.24 103.636 53.24C103.724 53.24 103.784 53.24 103.816 53.24C103.88 53.24 103.912 53.2 103.912 53.12V48.02ZM105.256 46.316H111.448V47.48H105.256V46.316ZM106.984 49.148V50.048H109.708V49.148H106.984ZM105.772 48.08H110.98V51.092H105.772V48.08ZM105.844 53.648H110.944V54.74H105.844V53.648ZM105.82 55.58H110.956V56.696H105.82V55.58ZM105.256 51.716H111.4V57.044H110.068V52.832H106.528V57.056H105.256V51.716ZM107.656 52.28H108.868V56.36H107.656V52.28Z" fill="black"/>
<path d="M140 30H61" stroke="#FF0202" stroke-linecap="round"/>
<path d="M132 67H66" stroke="#FF0202" stroke-linecap="round"/>
<path d="M67.9282 26L61 30L67.9282 34" stroke="#FF0202" stroke-linecap="round"/>
<path d="M72.9282 63L66 67L72.9282 71" stroke="#FF0202" stroke-linecap="round"/>
<path d="M134 26L140.928 30L134 34" stroke="#FF0202" stroke-linecap="round"/>
<path d="M125 63L131.928 67L125 71" stroke="#FF0202" stroke-linecap="round"/>
<path d="M141 49V23" stroke="#FF0000" stroke-width="0.5" stroke-linecap="round" stroke-dasharray="2 2"/>
<path d="M60 48V22" stroke="#FF0000" stroke-width="0.5" stroke-linecap="round" stroke-dasharray="2 2"/>
<path d="M170.224 90.976H179.848V92.092H170.224V90.976ZM170.824 92.608H179.224V93.652H170.824V92.608ZM172.948 97.216H178.384V98.008H172.948V97.216ZM172.948 98.44H178.384V99.244H172.948V98.44ZM172.936 99.688H178.528V100.708H172.936V99.688ZM169.684 94.156H180.316V95.284H169.684V94.156ZM174.244 91.792H175.72V95.056H174.244V91.792ZM171.712 90.184L172.996 89.776C173.156 89.952 173.308 90.152 173.452 90.376C173.596 90.592 173.7 90.788 173.764 90.964L172.432 91.456C172.376 91.28 172.28 91.072 172.144 90.832C172.008 90.592 171.864 90.376 171.712 90.184ZM176.896 89.764L178.468 90.16C178.284 90.392 178.104 90.612 177.928 90.82C177.76 91.02 177.612 91.192 177.484 91.336L176.26 90.964C176.372 90.78 176.488 90.58 176.608 90.364C176.736 90.14 176.832 89.94 176.896 89.764ZM172.216 94.696L173.644 95.044C173.3 96.02 172.836 96.912 172.252 97.72C171.668 98.52 171.02 99.18 170.308 99.7C170.236 99.604 170.132 99.488 169.996 99.352C169.868 99.216 169.732 99.08 169.588 98.944C169.452 98.808 169.332 98.7 169.228 98.62C169.908 98.188 170.508 97.632 171.028 96.952C171.548 96.264 171.944 95.512 172.216 94.696ZM172.156 95.764H179.296V101.056H177.784V96.784H173.584V101.056H172.156V95.764ZM181.684 91.972H192.34V93.376H181.684V91.972ZM184.384 93.76C184.712 94.952 185.2 95.96 185.848 96.784C186.504 97.6 187.368 98.244 188.44 98.716C189.52 99.188 190.864 99.508 192.472 99.676C192.368 99.78 192.26 99.916 192.148 100.084C192.036 100.252 191.932 100.42 191.836 100.588C191.74 100.756 191.66 100.912 191.596 101.056C190.324 100.888 189.22 100.628 188.284 100.276C187.348 99.924 186.544 99.464 185.872 98.896C185.208 98.328 184.644 97.648 184.18 96.856C183.724 96.056 183.336 95.132 183.016 94.084L184.384 93.76ZM187.492 90.004H189.088C189.08 90.956 189.06 91.856 189.028 92.704C189.004 93.544 188.932 94.332 188.812 95.068C188.692 95.796 188.496 96.464 188.224 97.072C187.96 97.68 187.588 98.232 187.108 98.728C186.628 99.216 186.008 99.644 185.248 100.012C184.496 100.388 183.564 100.7 182.452 100.948C182.412 100.82 182.344 100.676 182.248 100.516C182.16 100.364 182.06 100.212 181.948 100.06C181.836 99.908 181.728 99.78 181.624 99.676C182.648 99.468 183.504 99.208 184.192 98.896C184.888 98.584 185.448 98.224 185.872 97.816C186.304 97.4 186.628 96.928 186.844 96.4C187.068 95.872 187.224 95.288 187.312 94.648C187.4 94 187.452 93.292 187.468 92.524C187.484 91.748 187.492 90.908 187.492 90.004Z" fill="black"/>
</g>
<defs>
<clipPath id="clip0_146_213">
<rect width="200" height="200" fill="white"/>
</clipPath>
</defs>
</svg>
