<svg width="200" height="200" viewBox="0 0 200 200" fill="none" xmlns="http://www.w3.org/2000/svg">
<g clip-path="url(#clip0_147_312)">
<rect width="200" height="200" fill="white"/>
<path d="M56.4595 50.2844C58.9476 57.131 60.3345 65.0076 60.939 73.4882C61.0566 75.137 61.1445 76.8086 61.2053 78.5M71.4797 43.4597L58.8311 48.237C55.6689 49.6019 54.0878 51.6493 53.2973 53.6967L28 126.478L43.0203 131.938C46.3041 125.188 56.5119 93.5 61.2053 78.5M78.6489 38C80.3557 44.2539 84.4519 49.3165 86.5 51.1033M78.6489 38L73.1873 40.6802C70.7978 42.1692 73.6528 46.0407 75.2354 47.8275C79.8778 53.0688 81.7211 54.3791 82.0624 54.3791L86.5 51.1033M78.6489 38C80.9662 40.0474 84.1284 40.7299 86.5 40.7299C88.8716 40.7299 92.0338 40.0474 94.3511 38M86.5 51.1033C88.5481 49.3165 92.6443 44.2539 94.3511 38M86.5 51.1033L90.9376 54.3791C91.2789 54.3791 93.1222 53.0688 97.7646 47.8275C99.3472 46.0407 102.202 42.1692 99.8127 40.6802L94.3511 38M61.2053 78.5C62.4203 112.333 52.7401 154.048 50.9257 178.588C65.1554 182 80.1757 182 86.5 182C92.8243 182 107.845 182 122.074 178.588C120.26 154.048 110.58 112.333 111.795 78.5M116.541 50.2844C114.052 57.131 112.666 65.0076 112.061 73.4882C111.943 75.137 111.855 76.8086 111.795 78.5M101.52 43.4597L114.169 48.237C117.331 49.6019 118.912 51.6493 119.703 53.6967L145 126.478L129.98 131.938C126.696 125.188 116.488 93.5 111.795 78.5M88.75 52.625V182M80.3389 42.5C82.3389 43.5 84 44 86.5 44C89 44 90.6611 43.5 92.6611 42.5" stroke="black" stroke-linecap="round"/>
<circle cx="86" cy="100" r="1.5" stroke="black"/>
<circle cx="86" cy="112" r="1.5" stroke="black"/>
<circle cx="86" cy="124" r="1.5" stroke="black"/>
<circle cx="86" cy="136" r="1.5" stroke="black"/>
<circle cx="86" cy="148" r="1.5" stroke="black"/>
<path d="M47.0295 47.3309C47.1229 47.071 47.4093 46.9361 47.6691 47.0295C47.929 47.1229 48.0639 47.4093 47.9705 47.6691L47.0295 47.3309ZM47.5 47.5L47.9705 47.6691L20.4705 124.169L20 124L19.5295 123.831L47.0295 47.3309L47.5 47.5Z" fill="#FF0000"/>
<path d="M20 123.5L19 115" stroke="#FF0202" stroke-linecap="round"/>
<path d="M40.5 53.5L47.5 47.5" stroke="#FF0202" stroke-linecap="round"/>
<path d="M55 50L45 46M28 126.5L16.5 122.5" stroke="#FF0000" stroke-width="0.5" stroke-linecap="round" stroke-dasharray="1 1"/>
<path d="M15.34 75.58H20.45V82.83H19.29V76.66H16.44V82.89H15.34V75.58ZM15.93 81.25H19.92V82.36H15.93V81.25ZM15.93 78.39H19.92V79.48H15.93V78.39ZM17.28 73.51H18.42V81.98H17.28V73.51ZM12.63 78.79L13.78 77.43V82.9H12.63V78.79ZM11.45 75.29H14.26V76.36H11.45V75.29ZM12.62 73.56H13.77V75.92H12.62V73.56ZM13.69 77.83C13.7633 77.8967 13.87 78.0067 14.01 78.16C14.15 78.3067 14.2967 78.47 14.45 78.65C14.61 78.83 14.7567 78.9967 14.89 79.15C15.0233 79.2967 15.1167 79.4067 15.17 79.48L14.48 80.29C14.4 80.1567 14.2967 80.0033 14.17 79.83C14.05 79.65 13.9233 79.4667 13.79 79.28C13.6567 79.0867 13.5233 78.91 13.39 78.75C13.2633 78.5833 13.1567 78.4433 13.07 78.33L13.69 77.83ZM13.92 75.29H14.15L14.35 75.25L14.98 75.66C14.7667 76.3133 14.4867 76.95 14.14 77.57C13.7933 78.1833 13.4133 78.7467 13 79.26C12.5867 79.7733 12.1667 80.2033 11.74 80.55C11.7067 80.4433 11.6567 80.3167 11.59 80.17C11.5233 80.0233 11.45 79.8833 11.37 79.75C11.2967 79.6167 11.23 79.5133 11.17 79.44C11.55 79.16 11.92 78.81 12.28 78.39C12.64 77.9633 12.9633 77.5033 13.25 77.01C13.5433 76.51 13.7667 76.0133 13.92 75.52V75.29ZM14.77 77.31L15.48 77.84C15.2933 78.0667 15.1033 78.3 14.91 78.54C14.7233 78.78 14.55 78.9833 14.39 79.15L13.83 78.71C13.9767 78.5233 14.14 78.3 14.32 78.04C14.5067 77.7733 14.6567 77.53 14.77 77.31ZM21.57 75.31H30.45V76.48H21.57V75.31ZM23.82 76.8C24.0933 77.7933 24.5 78.6333 25.04 79.32C25.5867 80 26.3067 80.5367 27.2 80.93C28.1 81.3233 29.22 81.59 30.56 81.73C30.4733 81.8167 30.3833 81.93 30.29 82.07C30.1967 82.21 30.11 82.35 30.03 82.49C29.95 82.63 29.8833 82.76 29.83 82.88C28.77 82.74 27.85 82.5233 27.07 82.23C26.29 81.9367 25.62 81.5533 25.06 81.08C24.5067 80.6067 24.0367 80.04 23.65 79.38C23.27 78.7133 22.9467 77.9433 22.68 77.07L23.82 76.8ZM26.41 73.67H27.74C27.7333 74.4633 27.7167 75.2133 27.69 75.92C27.67 76.62 27.61 77.2767 27.51 77.89C27.41 78.4967 27.2467 79.0533 27.02 79.56C26.8 80.0667 26.49 80.5267 26.09 80.94C25.69 81.3467 25.1733 81.7033 24.54 82.01C23.9133 82.3233 23.1367 82.5833 22.21 82.79C22.1767 82.6833 22.12 82.5633 22.04 82.43C21.9667 82.3033 21.8833 82.1767 21.79 82.05C21.6967 81.9233 21.6067 81.8167 21.52 81.73C22.3733 81.5567 23.0867 81.34 23.66 81.08C24.24 80.82 24.7067 80.52 25.06 80.18C25.42 79.8333 25.69 79.44 25.87 79C26.0567 78.56 26.1867 78.0733 26.26 77.54C26.3333 77 26.3767 76.41 26.39 75.77C26.4033 75.1233 26.41 74.4233 26.41 73.67Z" fill="black"/>
<path d="M171 181V40" stroke="#FF0202" stroke-linecap="round"/>
<path d="M147 180V45" stroke="#FF0202" stroke-linecap="round"/>
<path d="M90 182L172 182" stroke="#FF0000" stroke-width="0.5" stroke-dasharray="1 1"/>
<path d="M95 38H177" stroke="#FF0000" stroke-width="0.5" stroke-dasharray="1 1"/>
<path d="M87 44H150" stroke="#FF0000" stroke-width="0.5" stroke-dasharray="1 1"/>
<path d="M175 45.9282L171 39L167 45.9282" stroke="#FF0202" stroke-linecap="round"/>
<path d="M151 51.9282L147 45L143 51.9282" stroke="#FF0202" stroke-linecap="round"/>
<path d="M167 174L171 180.928L175 174" stroke="#FF0202" stroke-linecap="round"/>
<path d="M143 174L147 180.928L151 174" stroke="#FF0202" stroke-linecap="round"/>
<path d="M178.99 104.27L180.19 104.55C180.07 104.843 179.943 105.143 179.81 105.45C179.677 105.75 179.547 106.037 179.42 106.31C179.3 106.583 179.18 106.827 179.06 107.04L178.17 106.76C178.27 106.54 178.37 106.283 178.47 105.99C178.577 105.697 178.677 105.4 178.77 105.1C178.863 104.8 178.937 104.523 178.99 104.27ZM180.16 105.61L181.07 105.16C181.25 105.387 181.43 105.633 181.61 105.9C181.79 106.16 181.953 106.417 182.1 106.67C182.253 106.923 182.37 107.153 182.45 107.36L181.47 107.88C181.403 107.673 181.3 107.44 181.16 107.18C181.02 106.92 180.86 106.653 180.68 106.38C180.507 106.107 180.333 105.85 180.16 105.61ZM180.73 109.19L181.64 108.74C181.82 108.973 181.99 109.227 182.15 109.5C182.317 109.773 182.457 110.043 182.57 110.31C182.69 110.577 182.773 110.82 182.82 111.04L181.82 111.54C181.787 111.32 181.713 111.077 181.6 110.81C181.493 110.537 181.363 110.26 181.21 109.98C181.057 109.7 180.897 109.437 180.73 109.19ZM177.28 106.36C177.633 106.353 178.04 106.343 178.5 106.33C178.967 106.31 179.457 106.287 179.97 106.26C180.49 106.233 181.013 106.21 181.54 106.19L181.52 107.13C180.813 107.19 180.103 107.247 179.39 107.3C178.677 107.353 178.04 107.4 177.48 107.44L177.28 106.36ZM178.29 102.66L179.43 102.94C179.243 103.44 179 103.92 178.7 104.38C178.4 104.833 178.083 105.213 177.75 105.52C177.683 105.453 177.593 105.373 177.48 105.28C177.367 105.187 177.25 105.097 177.13 105.01C177.01 104.923 176.903 104.853 176.81 104.8C177.137 104.547 177.43 104.23 177.69 103.85C177.95 103.47 178.15 103.073 178.29 102.66ZM181.09 102.65C181.223 102.87 181.383 103.097 181.57 103.33C181.763 103.563 181.97 103.783 182.19 103.99C182.41 104.197 182.62 104.377 182.82 104.53C182.733 104.59 182.637 104.673 182.53 104.78C182.423 104.88 182.32 104.987 182.22 105.1C182.127 105.207 182.05 105.303 181.99 105.39C181.777 105.203 181.553 104.98 181.32 104.72C181.093 104.46 180.873 104.187 180.66 103.9C180.453 103.607 180.27 103.323 180.11 103.05L181.09 102.65ZM178.53 107.95L179.27 107.31C179.497 107.41 179.717 107.53 179.93 107.67C180.15 107.803 180.35 107.947 180.53 108.1C180.717 108.253 180.87 108.403 180.99 108.55L180.2 109.27C180.093 109.117 179.947 108.96 179.76 108.8C179.58 108.633 179.383 108.477 179.17 108.33C178.957 108.183 178.743 108.057 178.53 107.95ZM178.47 108.72H179.57V110.58C179.57 110.713 179.58 110.797 179.6 110.83C179.627 110.863 179.68 110.88 179.76 110.88C179.78 110.88 179.81 110.88 179.85 110.88C179.89 110.88 179.933 110.88 179.98 110.88C180.033 110.88 180.08 110.88 180.12 110.88C180.167 110.88 180.2 110.88 180.22 110.88C180.28 110.88 180.323 110.86 180.35 110.82C180.383 110.773 180.407 110.683 180.42 110.55C180.44 110.41 180.453 110.197 180.46 109.91C180.527 109.97 180.617 110.027 180.73 110.08C180.85 110.133 180.97 110.183 181.09 110.23C181.217 110.277 181.33 110.313 181.43 110.34C181.397 110.753 181.337 111.073 181.25 111.3C181.17 111.527 181.057 111.68 180.91 111.76C180.77 111.847 180.583 111.89 180.35 111.89C180.31 111.89 180.253 111.89 180.18 111.89C180.113 111.89 180.04 111.89 179.96 111.89C179.887 111.89 179.813 111.89 179.74 111.89C179.673 111.89 179.62 111.89 179.58 111.89C179.273 111.89 179.04 111.85 178.88 111.77C178.727 111.69 178.62 111.553 178.56 111.36C178.5 111.173 178.47 110.917 178.47 110.59V108.72ZM177.43 108.94L178.39 109.1C178.343 109.507 178.257 109.93 178.13 110.37C178.01 110.803 177.857 111.173 177.67 111.48L176.72 111.07C176.893 110.817 177.04 110.493 177.16 110.1C177.287 109.7 177.377 109.313 177.43 108.94ZM174.81 102.49L175.84 102.88C175.707 103.14 175.567 103.407 175.42 103.68C175.273 103.947 175.13 104.203 174.99 104.45C174.85 104.697 174.717 104.917 174.59 105.11L173.8 104.76C173.92 104.56 174.043 104.33 174.17 104.07C174.297 103.803 174.417 103.533 174.53 103.26C174.643 102.987 174.737 102.73 174.81 102.49ZM175.93 103.7L176.9 104.15C176.653 104.523 176.387 104.917 176.1 105.33C175.813 105.743 175.527 106.14 175.24 106.52C174.953 106.9 174.68 107.233 174.42 107.52L173.74 107.13C173.927 106.91 174.12 106.66 174.32 106.38C174.527 106.093 174.727 105.797 174.92 105.49C175.113 105.177 175.297 104.867 175.47 104.56C175.643 104.253 175.797 103.967 175.93 103.7ZM173.26 104.83L173.85 104.03C174.023 104.183 174.2 104.357 174.38 104.55C174.56 104.737 174.723 104.923 174.87 105.11C175.023 105.29 175.14 105.46 175.22 105.62L174.57 106.54C174.497 106.373 174.387 106.19 174.24 105.99C174.1 105.79 173.943 105.59 173.77 105.39C173.597 105.183 173.427 104.997 173.26 104.83ZM175.59 106.09L176.43 105.74C176.563 105.96 176.693 106.2 176.82 106.46C176.947 106.713 177.06 106.963 177.16 107.21C177.26 107.45 177.33 107.667 177.37 107.86L176.47 108.27C176.437 108.077 176.373 107.853 176.28 107.6C176.187 107.347 176.08 107.09 175.96 106.83C175.847 106.563 175.723 106.317 175.59 106.09ZM173.24 106.91C173.68 106.883 174.207 106.85 174.82 106.81C175.433 106.763 176.057 106.717 176.69 106.67L176.7 107.59C176.127 107.657 175.55 107.72 174.97 107.78C174.397 107.84 173.873 107.897 173.4 107.95L173.24 106.91ZM175.83 108.63L176.68 108.35C176.807 108.643 176.923 108.963 177.03 109.31C177.143 109.657 177.223 109.953 177.27 110.2L176.37 110.52C176.323 110.26 176.247 109.953 176.14 109.6C176.04 109.247 175.937 108.923 175.83 108.63ZM173.65 108.37L174.62 108.53C174.56 109.01 174.477 109.483 174.37 109.95C174.27 110.41 174.15 110.8 174.01 111.12C173.943 111.08 173.857 111.033 173.75 110.98C173.643 110.927 173.533 110.873 173.42 110.82C173.313 110.767 173.22 110.727 173.14 110.7C173.287 110.407 173.4 110.05 173.48 109.63C173.56 109.21 173.617 108.79 173.65 108.37ZM174.77 107.42H175.8V111.89H174.77V107.42ZM183.57 104.31H192.45V105.48H183.57V104.31ZM185.82 105.8C186.093 106.793 186.5 107.633 187.04 108.32C187.587 109 188.307 109.537 189.2 109.93C190.1 110.323 191.22 110.59 192.56 110.73C192.473 110.817 192.383 110.93 192.29 111.07C192.197 111.21 192.11 111.35 192.03 111.49C191.95 111.63 191.883 111.76 191.83 111.88C190.77 111.74 189.85 111.523 189.07 111.23C188.29 110.937 187.62 110.553 187.06 110.08C186.507 109.607 186.037 109.04 185.65 108.38C185.27 107.713 184.947 106.943 184.68 106.07L185.82 105.8ZM188.41 102.67H189.74C189.733 103.463 189.717 104.213 189.69 104.92C189.67 105.62 189.61 106.277 189.51 106.89C189.41 107.497 189.247 108.053 189.02 108.56C188.8 109.067 188.49 109.527 188.09 109.94C187.69 110.347 187.173 110.703 186.54 111.01C185.913 111.323 185.137 111.583 184.21 111.79C184.177 111.683 184.12 111.563 184.04 111.43C183.967 111.303 183.883 111.177 183.79 111.05C183.697 110.923 183.607 110.817 183.52 110.73C184.373 110.557 185.087 110.34 185.66 110.08C186.24 109.82 186.707 109.52 187.06 109.18C187.42 108.833 187.69 108.44 187.87 108C188.057 107.56 188.187 107.073 188.26 106.54C188.333 106 188.377 105.41 188.39 104.77C188.403 104.123 188.41 103.423 188.41 102.67Z" fill="black"/>
<path d="M150.02 103.48H158.04V104.41H150.02V103.48ZM150.52 104.84H157.52V105.71H150.52V104.84ZM152.29 108.68H156.82V109.34H152.29V108.68ZM152.29 109.7H156.82V110.37H152.29V109.7ZM152.28 110.74H156.94V111.59H152.28V110.74ZM149.57 106.13H158.43V107.07H149.57V106.13ZM153.37 104.16H154.6V106.88H153.37V104.16ZM151.26 102.82L152.33 102.48C152.463 102.627 152.59 102.793 152.71 102.98C152.83 103.16 152.917 103.323 152.97 103.47L151.86 103.88C151.813 103.733 151.733 103.56 151.62 103.36C151.507 103.16 151.387 102.98 151.26 102.82ZM155.58 102.47L156.89 102.8C156.737 102.993 156.587 103.177 156.44 103.35C156.3 103.517 156.177 103.66 156.07 103.78L155.05 103.47C155.143 103.317 155.24 103.15 155.34 102.97C155.447 102.783 155.527 102.617 155.58 102.47ZM151.68 106.58L152.87 106.87C152.583 107.683 152.197 108.427 151.71 109.1C151.223 109.767 150.683 110.317 150.09 110.75C150.03 110.67 149.943 110.573 149.83 110.46C149.723 110.347 149.61 110.233 149.49 110.12C149.377 110.007 149.277 109.917 149.19 109.85C149.757 109.49 150.257 109.027 150.69 108.46C151.123 107.887 151.453 107.26 151.68 106.58ZM151.63 107.47H157.58V111.88H156.32V108.32H152.82V111.88H151.63V107.47ZM159.57 104.31H168.45V105.48H159.57V104.31ZM161.82 105.8C162.093 106.793 162.5 107.633 163.04 108.32C163.587 109 164.307 109.537 165.2 109.93C166.1 110.323 167.22 110.59 168.56 110.73C168.473 110.817 168.383 110.93 168.29 111.07C168.197 111.21 168.11 111.35 168.03 111.49C167.95 111.63 167.883 111.76 167.83 111.88C166.77 111.74 165.85 111.523 165.07 111.23C164.29 110.937 163.62 110.553 163.06 110.08C162.507 109.607 162.037 109.04 161.65 108.38C161.27 107.713 160.947 106.943 160.68 106.07L161.82 105.8ZM164.41 102.67H165.74C165.733 103.463 165.717 104.213 165.69 104.92C165.67 105.62 165.61 106.277 165.51 106.89C165.41 107.497 165.247 108.053 165.02 108.56C164.8 109.067 164.49 109.527 164.09 109.94C163.69 110.347 163.173 110.703 162.54 111.01C161.913 111.323 161.137 111.583 160.21 111.79C160.177 111.683 160.12 111.563 160.04 111.43C159.967 111.303 159.883 111.177 159.79 111.05C159.697 110.923 159.607 110.817 159.52 110.73C160.373 110.557 161.087 110.34 161.66 110.08C162.24 109.82 162.707 109.52 163.06 109.18C163.42 108.833 163.69 108.44 163.87 108C164.057 107.56 164.187 107.073 164.26 106.54C164.333 106 164.377 105.41 164.39 104.77C164.403 104.123 164.41 103.423 164.41 102.67Z" fill="black"/>
<path d="M78.4 22.41H79.59V24.33C79.59 24.7167 79.57 25.1467 79.53 25.62C79.4967 26.0867 79.43 26.5633 79.33 27.05C79.2367 27.5367 79.1 28.01 78.92 28.47C78.74 28.93 78.5033 29.3467 78.21 29.72C78.1367 29.6533 78.0367 29.5733 77.91 29.48C77.79 29.3933 77.6633 29.31 77.53 29.23C77.3967 29.15 77.28 29.09 77.18 29.05C77.46 28.71 77.68 28.34 77.84 27.94C78.0067 27.5333 78.13 27.1167 78.21 26.69C78.29 26.2633 78.34 25.8467 78.36 25.44C78.3867 25.0333 78.4 24.6567 78.4 24.31V22.41ZM79.06 22.41H85.65V24.73H79.06V23.86H84.47V23.29H79.06V22.41ZM77.78 20.94H86.23V21.99H77.78V20.94ZM79.83 25.13H85.11V25.97H80.99V29.91H79.83V25.13ZM84.58 25.13H85.77V28.8C85.77 29.0667 85.73 29.2733 85.65 29.42C85.5767 29.5667 85.4433 29.68 85.25 29.76C85.0633 29.8333 84.83 29.8767 84.55 29.89C84.27 29.9033 83.94 29.91 83.56 29.91C83.54 29.7633 83.4967 29.6 83.43 29.42C83.3633 29.24 83.2933 29.0833 83.22 28.95C83.3733 28.9567 83.5267 28.9633 83.68 28.97C83.84 28.97 83.9833 28.97 84.11 28.97C84.2433 28.9633 84.33 28.96 84.37 28.96C84.4433 28.96 84.4967 28.95 84.53 28.93C84.5633 28.9033 84.58 28.8567 84.58 28.79V25.13ZM80.39 26.41H85.16V27.16H80.39V26.41ZM80.39 27.61H85.16V28.42H80.39V27.61ZM88.8 20.51H89.81V29.9H88.8V20.51ZM87.49 22.35H90.68V23.4H88.37V27.82H87.49V22.35ZM90.26 22.35H91.11V26.63C91.11 26.81 91.0933 26.9767 91.06 27.13C91.0333 27.2833 90.9667 27.4033 90.86 27.49C90.7533 27.5767 90.64 27.6333 90.52 27.66C90.4 27.6867 90.25 27.7 90.07 27.7C90.0633 27.5533 90.0333 27.3833 89.98 27.19C89.9267 26.9967 89.8667 26.8333 89.8 26.7C89.8867 26.7 89.9633 26.7 90.03 26.7C90.1033 26.7 90.1533 26.7 90.18 26.7C90.2333 26.7 90.26 26.6667 90.26 26.6V22.35ZM91.38 20.93H96.54V21.9H91.38V20.93ZM92.82 23.29V24.04H95.09V23.29H92.82ZM91.81 22.4H96.15V24.91H91.81V22.4ZM91.87 27.04H96.12V27.95H91.87V27.04ZM91.85 28.65H96.13V29.58H91.85V28.65ZM91.38 25.43H96.5V29.87H95.39V26.36H92.44V29.88H91.38V25.43ZM93.38 25.9H94.39V29.3H93.38V25.9Z" fill="black"/>
<path d="M116 33L56 33" stroke="#FF0202" stroke-linecap="round"/>
<path d="M62.9282 29L56 33L62.9282 37" stroke="#FF0202" stroke-linecap="round"/>
<path d="M68.9282 71L62 75L68.9282 79" stroke="#FF0202" stroke-linecap="round"/>
<path d="M66.9282 114L60 118L66.9282 122" stroke="#FF0202" stroke-linecap="round"/>
<path d="M110 29L116.928 33L110 37" stroke="#FF0202" stroke-linecap="round"/>
<path d="M104 71L110.928 75L104 79" stroke="#FF0202" stroke-linecap="round"/>
<path d="M106 114L112.928 118L106 122" stroke="#FF0202" stroke-linecap="round"/>
<path d="M56 49V24" stroke="#FF0000" stroke-width="0.5" stroke-linecap="round" stroke-dasharray="2 2"/>
<path d="M117 50V25" stroke="#FF0000" stroke-width="0.5" stroke-linecap="round" stroke-dasharray="2 2"/>
<path d="M79.75 64.07H84.2V64.93H79.75V64.07ZM79.75 65.53H84.2V66.4H79.75V65.53ZM83.66 62.46H84.91V69.43C84.91 69.7767 84.87 70.0433 84.79 70.23C84.71 70.4233 84.5567 70.5733 84.33 70.68C84.11 70.78 83.8333 70.8433 83.5 70.87C83.1667 70.8967 82.76 70.9067 82.28 70.9C82.26 70.78 82.2267 70.6433 82.18 70.49C82.14 70.3367 82.09 70.1833 82.03 70.03C81.9767 69.8833 81.92 69.7533 81.86 69.64C82.0667 69.6533 82.2733 69.6633 82.48 69.67C82.6933 69.67 82.88 69.67 83.04 69.67C83.2067 69.6633 83.3267 69.66 83.4 69.66C83.4933 69.66 83.56 69.6433 83.6 69.61C83.64 69.5767 83.66 69.5133 83.66 69.42V62.46ZM77.5 67.19C78.0467 67.1633 78.6867 67.1333 79.42 67.1C80.16 67.0667 80.9433 67.0267 81.77 66.98C82.6033 66.9333 83.4267 66.8867 84.24 66.84L84.23 67.86C83.4567 67.9267 82.6767 67.9933 81.89 68.06C81.1033 68.12 80.3467 68.1767 79.62 68.23C78.9 68.2833 78.25 68.33 77.67 68.37L77.5 67.19ZM85.41 64.51L86.58 65.07C85.96 66.03 85.2133 66.88 84.34 67.62C83.4733 68.3533 82.5167 68.9867 81.47 69.52C80.4233 70.0467 79.3233 70.48 78.17 70.82C78.1167 70.72 78.04 70.6 77.94 70.46C77.84 70.3267 77.7367 70.1933 77.63 70.06C77.53 69.9267 77.4367 69.8133 77.35 69.72C78.5167 69.4267 79.61 69.0433 80.63 68.57C81.65 68.09 82.5667 67.5133 83.38 66.84C84.1933 66.16 84.87 65.3833 85.41 64.51ZM81.38 61.47L82.86 61.63C82.7067 61.9367 82.54 62.2367 82.36 62.53C82.1867 62.8233 82.0267 63.07 81.88 63.27L80.81 63.05C80.9233 62.8167 81.0333 62.5567 81.14 62.27C81.2467 61.9767 81.3267 61.71 81.38 61.47ZM78.98 62.46H84.06V63.49H80.19V67.73H78.98V62.46ZM88.8 61.51H89.81V70.9H88.8V61.51ZM87.49 63.35H90.68V64.4H88.37V68.82H87.49V63.35ZM90.26 63.35H91.11V67.63C91.11 67.81 91.0933 67.9767 91.06 68.13C91.0333 68.2833 90.9667 68.4033 90.86 68.49C90.7533 68.5767 90.64 68.6333 90.52 68.66C90.4 68.6867 90.25 68.7 90.07 68.7C90.0633 68.5533 90.0333 68.3833 89.98 68.19C89.9267 67.9967 89.8667 67.8333 89.8 67.7C89.8867 67.7 89.9633 67.7 90.03 67.7C90.1033 67.7 90.1533 67.7 90.18 67.7C90.2333 67.7 90.26 67.6667 90.26 67.6V63.35ZM91.38 61.93H96.54V62.9H91.38V61.93ZM92.82 64.29V65.04H95.09V64.29H92.82ZM91.81 63.4H96.15V65.91H91.81V63.4ZM91.87 68.04H96.12V68.95H91.87V68.04ZM91.85 69.65H96.13V70.58H91.85V69.65ZM91.38 66.43H96.5V70.87H95.39V67.36H92.44V70.88H91.38V66.43ZM93.38 66.9H94.39V70.3H93.38V66.9Z" fill="black"/>
<path d="M72.72 101.83C72.7 102.043 72.6833 102.217 72.67 102.35C72.6567 102.477 72.65 102.61 72.65 102.75C72.65 102.837 72.65 102.97 72.65 103.15C72.65 103.33 72.65 103.517 72.65 103.71C72.65 103.903 72.65 104.063 72.65 104.19H71.26C71.26 104.05 71.26 103.883 71.26 103.69C71.26 103.497 71.26 103.313 71.26 103.14C71.26 102.967 71.26 102.837 71.26 102.75C71.26 102.61 71.2533 102.477 71.24 102.35C71.2333 102.217 71.2133 102.043 71.18 101.83H72.72ZM76.09 103.94C76.05 104.047 76.01 104.183 75.97 104.35C75.9367 104.51 75.91 104.64 75.89 104.74C75.85 104.973 75.8 105.21 75.74 105.45C75.6867 105.69 75.62 105.93 75.54 106.17C75.4667 106.41 75.38 106.647 75.28 106.88C75.1867 107.113 75.08 107.343 74.96 107.57C74.6933 108.057 74.3533 108.5 73.94 108.9C73.5333 109.3 73.07 109.64 72.55 109.92C72.03 110.193 71.4733 110.41 70.88 110.57L69.84 109.37C70.0667 109.33 70.3067 109.277 70.56 109.21C70.8133 109.137 71.0433 109.06 71.25 108.98C71.53 108.873 71.8067 108.74 72.08 108.58C72.36 108.413 72.6233 108.22 72.87 108C73.1167 107.78 73.3333 107.537 73.52 107.27C73.6867 107.023 73.83 106.76 73.95 106.48C74.07 106.193 74.1667 105.9 74.24 105.6C74.3133 105.293 74.37 104.993 74.41 104.7H69.45C69.45 104.787 69.45 104.897 69.45 105.03C69.45 105.157 69.45 105.297 69.45 105.45C69.45 105.597 69.45 105.733 69.45 105.86C69.45 105.98 69.45 106.08 69.45 106.16C69.45 106.273 69.4533 106.4 69.46 106.54C69.4667 106.68 69.4733 106.8 69.48 106.9H68.1C68.1133 106.773 68.1233 106.637 68.13 106.49C68.1433 106.337 68.15 106.193 68.15 106.06C68.15 105.98 68.15 105.863 68.15 105.71C68.15 105.557 68.15 105.393 68.15 105.22C68.15 105.04 68.15 104.87 68.15 104.71C68.15 104.55 68.15 104.423 68.15 104.33C68.15 104.217 68.1467 104.077 68.14 103.91C68.1333 103.737 68.12 103.59 68.1 103.47C68.2733 103.49 68.44 103.503 68.6 103.51C68.76 103.517 68.9333 103.52 69.12 103.52H74.39C74.5967 103.52 74.7633 103.51 74.89 103.49C75.0233 103.463 75.1333 103.437 75.22 103.41L76.09 103.94ZM78.39 103.02C78.5233 103.033 78.68 103.047 78.86 103.06C79.04 103.073 79.2 103.08 79.34 103.08H84.78C84.9333 103.08 85.0933 103.073 85.26 103.06C85.4267 103.047 85.58 103.033 85.72 103.02V104.39C85.5733 104.377 85.4167 104.367 85.25 104.36C85.0833 104.353 84.9267 104.35 84.78 104.35H79.34C79.2067 104.35 79.0467 104.353 78.86 104.36C78.6733 104.367 78.5167 104.377 78.39 104.39V103.02ZM81.27 109.17V103.79H82.67V109.17H81.27ZM77.74 108.35C77.9 108.377 78.0667 108.397 78.24 108.41C78.4133 108.423 78.5767 108.43 78.73 108.43H85.32C85.5 108.43 85.67 108.423 85.83 108.41C85.99 108.39 86.1333 108.37 86.26 108.35V109.8C86.1133 109.78 85.95 109.767 85.77 109.76C85.59 109.753 85.44 109.75 85.32 109.75H78.73C78.5833 109.75 78.4233 109.753 78.25 109.76C78.0767 109.767 77.9067 109.78 77.74 109.8V108.35ZM95.34 103.22C95.3 103.28 95.24 103.373 95.16 103.5C95.0867 103.627 95.03 103.743 94.99 103.85C94.85 104.163 94.6767 104.513 94.47 104.9C94.27 105.287 94.04 105.677 93.78 106.07C93.5267 106.457 93.2567 106.82 92.97 107.16C92.5967 107.58 92.1833 107.997 91.73 108.41C91.2833 108.817 90.81 109.193 90.31 109.54C89.8167 109.88 89.31 110.173 88.79 110.42L87.76 109.34C88.3 109.133 88.8233 108.873 89.33 108.56C89.8367 108.247 90.3067 107.907 90.74 107.54C91.1733 107.173 91.5467 106.817 91.86 106.47C92.08 106.217 92.2867 105.947 92.48 105.66C92.68 105.373 92.8567 105.09 93.01 104.81C93.1633 104.523 93.2767 104.26 93.35 104.02C93.2833 104.02 93.1633 104.02 92.99 104.02C92.8167 104.02 92.6133 104.02 92.38 104.02C92.1533 104.02 91.9133 104.02 91.66 104.02C91.4067 104.02 91.1633 104.02 90.93 104.02C90.7033 104.02 90.5033 104.02 90.33 104.02C90.1567 104.02 90.0333 104.02 89.96 104.02C89.82 104.02 89.6733 104.027 89.52 104.04C89.3667 104.047 89.22 104.057 89.08 104.07C88.9467 104.077 88.8433 104.083 88.77 104.09V102.67C88.87 102.677 88.9933 102.687 89.14 102.7C89.2867 102.713 89.4333 102.723 89.58 102.73C89.7333 102.737 89.86 102.74 89.96 102.74C90.0467 102.74 90.1833 102.74 90.37 102.74C90.5567 102.74 90.77 102.74 91.01 102.74C91.25 102.74 91.4967 102.74 91.75 102.74C92.01 102.74 92.2567 102.74 92.49 102.74C92.73 102.74 92.9367 102.74 93.11 102.74C93.2833 102.74 93.41 102.74 93.49 102.74C93.71 102.74 93.91 102.727 94.09 102.7C94.2767 102.673 94.42 102.643 94.52 102.61L95.34 103.22ZM93.1 106.33C93.36 106.537 93.6367 106.777 93.93 107.05C94.2233 107.323 94.5133 107.607 94.8 107.9C95.0867 108.193 95.35 108.477 95.59 108.75C95.8367 109.017 96.0433 109.25 96.21 109.45L95.07 110.44C94.8233 110.1 94.54 109.747 94.22 109.38C93.9067 109.013 93.5733 108.65 93.22 108.29C92.8733 107.923 92.52 107.577 92.16 107.25L93.1 106.33ZM100.14 109.04C100.14 108.913 100.14 108.707 100.14 108.42C100.14 108.127 100.14 107.79 100.14 107.41C100.14 107.023 100.14 106.62 100.14 106.2C100.14 105.78 100.14 105.377 100.14 104.99C100.14 104.597 100.14 104.25 100.14 103.95C100.14 103.65 100.14 103.43 100.14 103.29C100.14 103.117 100.13 102.917 100.11 102.69C100.097 102.463 100.073 102.263 100.04 102.09H101.6C101.58 102.263 101.56 102.457 101.54 102.67C101.52 102.877 101.51 103.083 101.51 103.29C101.51 103.477 101.51 103.73 101.51 104.05C101.51 104.37 101.51 104.727 101.51 105.12C101.51 105.507 101.51 105.903 101.51 106.31C101.51 106.71 101.51 107.097 101.51 107.47C101.51 107.843 101.51 108.17 101.51 108.45C101.51 108.723 101.51 108.92 101.51 109.04C101.51 109.133 101.513 109.267 101.52 109.44C101.527 109.607 101.54 109.78 101.56 109.96C101.58 110.14 101.593 110.3 101.6 110.44H100.04C100.067 110.24 100.09 110.007 100.11 109.74C100.13 109.473 100.14 109.24 100.14 109.04ZM101.21 104.68C101.543 104.767 101.917 104.88 102.33 105.02C102.743 105.153 103.16 105.297 103.58 105.45C104 105.603 104.393 105.757 104.76 105.91C105.133 106.057 105.443 106.193 105.69 106.32L105.12 107.7C104.84 107.553 104.53 107.407 104.19 107.26C103.85 107.107 103.503 106.96 103.15 106.82C102.803 106.68 102.46 106.55 102.12 106.43C101.787 106.31 101.483 106.203 101.21 106.11V104.68Z" fill="black"/>
<path d="M111 75L63 75" stroke="#FF0202" stroke-linecap="round"/>
<path d="M113 118L60 118" stroke="#FF0202" stroke-linecap="round"/>
</g>
<defs>
<clipPath id="clip0_147_312">
<rect width="200" height="200" fill="white"/>
</clipPath>
</defs>
</svg>
