<svg width="200" height="200" viewBox="0 0 200 200" fill="none" xmlns="http://www.w3.org/2000/svg">
<g clip-path="url(#clip0_164_44)">
<rect width="200" height="200" fill="white"/>
<path d="M86.8829 46.6613L86.8829 37.5538M86.8829 46.6613C91.3333 49.6972 94.3667 51.7211 100 51.7211C105.633 51.7211 108.667 49.6972 113.117 46.6613M86.8829 46.6613L68.1442 52.7603M68.1442 52.7603C62.991 53.7768 60.1802 59.8757 59.7117 62.9252C59.2433 65.9747 48 134.195 48 134.195L49.7333 134.738M68.1442 52.7603V121.882M68.1442 121.882V154.409C81.7297 159.492 91.0991 160 100 160M68.1442 121.882L64.4667 138.749L62.7333 138.243M100 160L100 121.04M100 160C108.901 160 118.27 159.492 131.856 154.409V121.882M49.7333 134.738L48 143.846L61 147.134L62.7333 138.243M49.7333 134.738L62.7333 138.243M86.8829 37.5538C90.9 34.012 96.9667 33 100 33C103.033 33 109.1 34.012 113.117 37.5538M86.8829 37.5538C87.8041 38.1822 88.6646 38.7672 89.5 39.3C90.0066 39.623 90.5039 39.9268 91 40.2093M100 42.6136L100 69.9363M100 42.6136C105.633 42.6136 108.667 40.5896 113.117 37.5538M100 42.6136C96.2398 42.6136 93.638 41.7118 91 40.2093M68.8 72.4662C82.32 68.0136 84.4 68.9243 100 69.9363M100 69.9363V96.247M100 69.9363C115.6 68.9243 117.68 68.0136 131.2 72.4662M100 96.247V121.04M100 96.247C84.4 95.2351 82.32 94.3243 68.8 98.7769M100 96.247C115.6 95.2351 117.68 94.3243 131.2 98.7769M100 121.04C84.4 120.028 82.32 119.117 68.8 123.57M100 121.04C115.6 120.028 117.68 119.117 131.2 123.57M113.117 46.6613L113.117 37.5538M113.117 46.6613L131.856 52.7603M131.856 52.7603C137.009 53.7768 139.82 59.8757 140.288 62.9252C140.757 65.9747 152 134.195 152 134.195L150.267 134.738M131.856 52.7603V121.882M131.856 121.882L135.533 138.749L137.267 138.243M150.267 134.738L152 143.846L139 147.134L137.267 138.243M150.267 134.738L137.267 138.243M91 40.2093C94.6 37.6419 98.5 37.5538 100 37.5538C101.5 37.5538 105.4 37.6419 109 40.2093" stroke="black"/>
<path d="M81.75 78.07H86.2V78.93H81.75V78.07ZM81.75 79.53H86.2V80.4H81.75V79.53ZM85.66 76.46H86.91V83.43C86.91 83.7767 86.87 84.0433 86.79 84.23C86.71 84.4233 86.5567 84.5733 86.33 84.68C86.11 84.78 85.8333 84.8433 85.5 84.87C85.1667 84.8967 84.76 84.9067 84.28 84.9C84.26 84.78 84.2267 84.6433 84.18 84.49C84.14 84.3367 84.09 84.1833 84.03 84.03C83.9767 83.8833 83.92 83.7533 83.86 83.64C84.0667 83.6533 84.2733 83.6633 84.48 83.67C84.6933 83.67 84.88 83.67 85.04 83.67C85.2067 83.6633 85.3267 83.66 85.4 83.66C85.4933 83.66 85.56 83.6433 85.6 83.61C85.64 83.5767 85.66 83.5133 85.66 83.42V76.46ZM79.5 81.19C80.0467 81.1633 80.6867 81.1333 81.42 81.1C82.16 81.0667 82.9433 81.0267 83.77 80.98C84.6033 80.9333 85.4267 80.8867 86.24 80.84L86.23 81.86C85.4567 81.9267 84.6767 81.9933 83.89 82.06C83.1033 82.12 82.3467 82.1767 81.62 82.23C80.9 82.2833 80.25 82.33 79.67 82.37L79.5 81.19ZM87.41 78.51L88.58 79.07C87.96 80.03 87.2133 80.88 86.34 81.62C85.4733 82.3533 84.5167 82.9867 83.47 83.52C82.4233 84.0467 81.3233 84.48 80.17 84.82C80.1167 84.72 80.04 84.6 79.94 84.46C79.84 84.3267 79.7367 84.1933 79.63 84.06C79.53 83.9267 79.4367 83.8133 79.35 83.72C80.5167 83.4267 81.61 83.0433 82.63 82.57C83.65 82.09 84.5667 81.5133 85.38 80.84C86.1933 80.16 86.87 79.3833 87.41 78.51ZM83.38 75.47L84.86 75.63C84.7067 75.9367 84.54 76.2367 84.36 76.53C84.1867 76.8233 84.0267 77.07 83.88 77.27L82.81 77.05C82.9233 76.8167 83.0333 76.5567 83.14 76.27C83.2467 75.9767 83.3267 75.71 83.38 75.47ZM80.98 76.46H86.06V77.49H82.19V81.73H80.98V76.46ZM90.8 75.51H91.81V84.9H90.8V75.51ZM89.49 77.35H92.68V78.4H90.37V82.82H89.49V77.35ZM92.26 77.35H93.11V81.63C93.11 81.81 93.0933 81.9767 93.06 82.13C93.0333 82.2833 92.9667 82.4033 92.86 82.49C92.7533 82.5767 92.64 82.6333 92.52 82.66C92.4 82.6867 92.25 82.7 92.07 82.7C92.0633 82.5533 92.0333 82.3833 91.98 82.19C91.9267 81.9967 91.8667 81.8333 91.8 81.7C91.8867 81.7 91.9633 81.7 92.03 81.7C92.1033 81.7 92.1533 81.7 92.18 81.7C92.2333 81.7 92.26 81.6667 92.26 81.6V77.35ZM93.38 75.93H98.54V76.9H93.38V75.93ZM94.82 78.29V79.04H97.09V78.29H94.82ZM93.81 77.4H98.15V79.91H93.81V77.4ZM93.87 82.04H98.12V82.95H93.87V82.04ZM93.85 83.65H98.13V84.58H93.85V83.65ZM93.38 80.43H98.5V84.87H97.39V81.36H94.44V84.88H93.38V80.43ZM95.38 80.9H96.39V84.3H95.38V80.9Z" fill="black"/>
<path d="M98.02 57.48H106.04V58.41H98.02V57.48ZM98.52 58.84H105.52V59.71H98.52V58.84ZM100.29 62.68H104.82V63.34H100.29V62.68ZM100.29 63.7H104.82V64.37H100.29V63.7ZM100.28 64.74H104.94V65.59H100.28V64.74ZM97.57 60.13H106.43V61.07H97.57V60.13ZM101.37 58.16H102.6V60.88H101.37V58.16ZM99.26 56.82L100.33 56.48C100.463 56.6267 100.59 56.7933 100.71 56.98C100.83 57.16 100.917 57.3233 100.97 57.47L99.86 57.88C99.8133 57.7333 99.7333 57.56 99.62 57.36C99.5067 57.16 99.3867 56.98 99.26 56.82ZM103.58 56.47L104.89 56.8C104.737 56.9933 104.587 57.1767 104.44 57.35C104.3 57.5167 104.177 57.66 104.07 57.78L103.05 57.47C103.143 57.3167 103.24 57.15 103.34 56.97C103.447 56.7833 103.527 56.6167 103.58 56.47ZM99.68 60.58L100.87 60.87C100.583 61.6833 100.197 62.4267 99.71 63.1C99.2233 63.7667 98.6833 64.3167 98.09 64.75C98.03 64.67 97.9433 64.5733 97.83 64.46C97.7233 64.3467 97.61 64.2333 97.49 64.12C97.3767 64.0067 97.2767 63.9167 97.19 63.85C97.7567 63.49 98.2567 63.0267 98.69 62.46C99.1233 61.8867 99.4533 61.26 99.68 60.58ZM99.63 61.47H105.58V65.88H104.32V62.32H100.82V65.88H99.63V61.47ZM107.57 58.31H116.45V59.48H107.57V58.31ZM109.82 59.8C110.093 60.7933 110.5 61.6333 111.04 62.32C111.587 63 112.307 63.5367 113.2 63.93C114.1 64.3233 115.22 64.59 116.56 64.73C116.473 64.8167 116.383 64.93 116.29 65.07C116.197 65.21 116.11 65.35 116.03 65.49C115.95 65.63 115.883 65.76 115.83 65.88C114.77 65.74 113.85 65.5233 113.07 65.23C112.29 64.9367 111.62 64.5533 111.06 64.08C110.507 63.6067 110.037 63.04 109.65 62.38C109.27 61.7133 108.947 60.9433 108.68 60.07L109.82 59.8ZM112.41 56.67H113.74C113.733 57.4633 113.717 58.2133 113.69 58.92C113.67 59.62 113.61 60.2767 113.51 60.89C113.41 61.4967 113.247 62.0533 113.02 62.56C112.8 63.0667 112.49 63.5267 112.09 63.94C111.69 64.3467 111.173 64.7033 110.54 65.01C109.913 65.3233 109.137 65.5833 108.21 65.79C108.177 65.6833 108.12 65.5633 108.04 65.43C107.967 65.3033 107.883 65.1767 107.79 65.05C107.697 64.9233 107.607 64.8167 107.52 64.73C108.373 64.5567 109.087 64.34 109.66 64.08C110.24 63.82 110.707 63.52 111.06 63.18C111.42 62.8333 111.69 62.44 111.87 62C112.057 61.56 112.187 61.0733 112.26 60.54C112.333 60 112.377 59.41 112.39 58.77C112.403 58.1233 112.41 57.4233 112.41 56.67Z" fill="black"/>
<path d="M157.72 47.35H158.85V51.63C158.85 51.8833 158.817 52.0933 158.75 52.26C158.69 52.4333 158.57 52.5667 158.39 52.66C158.217 52.76 158.013 52.82 157.78 52.84C157.547 52.8667 157.273 52.88 156.96 52.88C156.94 52.7133 156.887 52.5167 156.8 52.29C156.72 52.07 156.637 51.8867 156.55 51.74C156.757 51.7467 156.957 51.7533 157.15 51.76C157.343 51.76 157.473 51.7567 157.54 51.75C157.66 51.75 157.72 51.7 157.72 51.6V47.35ZM155.31 45.73L156.33 46.05C156.163 46.45 155.963 46.85 155.73 47.25C155.503 47.65 155.253 48.0267 154.98 48.38C154.713 48.7333 154.437 49.04 154.15 49.3C154.117 49.22 154.067 49.1133 154 48.98C153.933 48.8467 153.857 48.7133 153.77 48.58C153.69 48.44 153.62 48.3267 153.56 48.24C153.913 47.9333 154.247 47.56 154.56 47.12C154.873 46.6733 155.123 46.21 155.31 45.73ZM155.12 43.57L156.18 43.9C156.02 44.22 155.833 44.54 155.62 44.86C155.413 45.18 155.19 45.48 154.95 45.76C154.717 46.04 154.483 46.2833 154.25 46.49C154.19 46.4167 154.113 46.33 154.02 46.23C153.927 46.1233 153.83 46.02 153.73 45.92C153.63 45.8133 153.54 45.7267 153.46 45.66C153.78 45.4 154.09 45.0833 154.39 44.71C154.69 44.3367 154.933 43.9567 155.12 43.57ZM156.4 44.17H159.54V45.24H156.4V44.17ZM156.23 46.66H159.72V47.77H156.23V46.66ZM151.48 48.79L152.49 47.59V52.91H151.48V48.79ZM150.46 45.34H152.91V46.37H150.46V45.34ZM151.48 43.55H152.49V45.73H151.48V43.55ZM152.45 47.59C152.51 47.6567 152.597 47.77 152.71 47.93C152.83 48.09 152.957 48.2667 153.09 48.46C153.23 48.6533 153.353 48.83 153.46 48.99C153.573 49.15 153.653 49.2633 153.7 49.33L153.09 50.14C153.03 50 152.95 49.8367 152.85 49.65C152.75 49.4567 152.64 49.26 152.52 49.06C152.407 48.86 152.297 48.6733 152.19 48.5C152.083 48.32 151.993 48.1767 151.92 48.07L152.45 47.59ZM152.58 45.34H152.79L152.98 45.29L153.57 45.69C153.37 46.31 153.113 46.92 152.8 47.52C152.493 48.12 152.157 48.68 151.79 49.2C151.43 49.72 151.067 50.1567 150.7 50.51C150.673 50.4167 150.627 50.3 150.56 50.16C150.5 50.0133 150.433 49.8767 150.36 49.75C150.287 49.6167 150.223 49.5167 150.17 49.45C150.497 49.1633 150.817 48.8067 151.13 48.38C151.45 47.9467 151.737 47.4867 151.99 47C152.243 46.5067 152.44 46.0233 152.58 45.55V45.34ZM153.34 47.21L154.02 47.73C153.853 47.9367 153.693 48.15 153.54 48.37C153.387 48.5833 153.247 48.7667 153.12 48.92L152.62 48.51C152.74 48.3367 152.87 48.1233 153.01 47.87C153.15 47.6167 153.26 47.3967 153.34 47.21ZM154.68 48.02L155.73 46.77V52.89H154.68V48.02ZM160.57 45.31H169.45V46.48H160.57V45.31ZM162.82 46.8C163.093 47.7933 163.5 48.6333 164.04 49.32C164.587 50 165.307 50.5367 166.2 50.93C167.1 51.3233 168.22 51.59 169.56 51.73C169.473 51.8167 169.383 51.93 169.29 52.07C169.197 52.21 169.11 52.35 169.03 52.49C168.95 52.63 168.883 52.76 168.83 52.88C167.77 52.74 166.85 52.5233 166.07 52.23C165.29 51.9367 164.62 51.5533 164.06 51.08C163.507 50.6067 163.037 50.04 162.65 49.38C162.27 48.7133 161.947 47.9433 161.68 47.07L162.82 46.8ZM165.41 43.67H166.74C166.733 44.4633 166.717 45.2133 166.69 45.92C166.67 46.62 166.61 47.2767 166.51 47.89C166.41 48.4967 166.247 49.0533 166.02 49.56C165.8 50.0667 165.49 50.5267 165.09 50.94C164.69 51.3467 164.173 51.7033 163.54 52.01C162.913 52.3233 162.137 52.5833 161.21 52.79C161.177 52.6833 161.12 52.5633 161.04 52.43C160.967 52.3033 160.883 52.1767 160.79 52.05C160.697 51.9233 160.607 51.8167 160.52 51.73C161.373 51.5567 162.087 51.34 162.66 51.08C163.24 50.82 163.707 50.52 164.06 50.18C164.42 49.8333 164.69 49.44 164.87 49C165.057 48.56 165.187 48.0733 165.26 47.54C165.333 47 165.377 46.41 165.39 45.77C165.403 45.1233 165.41 44.4233 165.41 43.67Z" fill="black"/>
<path d="M100.705 29.0439C100.453 28.9308 100.157 29.0433 100.044 29.2952C99.9308 29.5472 100.043 29.8431 100.295 29.9561L100.705 29.0439ZM138.27 46.4552L138.066 46.9113L138.099 46.9265L138.135 46.9365L138.27 46.4552ZM148 57.5L147.508 57.5883L147.509 57.5941L148 57.5ZM138.27 46.4552L138.135 46.9365C140.612 47.6323 142.827 49.5481 144.504 51.7067C146.183 53.8682 147.257 56.1874 147.508 57.5883L148 57.5L148.492 57.4117C148.203 55.7992 147.033 53.3325 145.294 51.0932C143.552 48.851 141.172 46.7511 138.406 45.9738L138.27 46.4552ZM148 57.5L147.509 57.5941L163.509 141.094L164 141L164.491 140.906L148.491 57.4059L148 57.5ZM100.5 29.5L100.295 29.9561L138.066 46.9113L138.27 46.4552L138.475 45.999L100.705 29.0439L100.5 29.5Z" fill="#FF0000"/>
<path d="M164.266 140.542L166.933 133" stroke="#FF0202" stroke-linecap="round"/>
<path d="M100 29.7917L107.841 28.2064" stroke="#FF0202" stroke-linecap="round"/>
<path d="M131.5 87L69 87" stroke="#FF0202" stroke-linecap="round"/>
<path d="M75.9282 83L69 87L75.9282 91" stroke="#FF0202" stroke-linecap="round"/>
<path d="M125 83L131.928 87L125 91" stroke="#FF0202" stroke-linecap="round"/>
<path d="M123 147L119 153.928L115 147" stroke="#FF0202" stroke-linecap="round"/>
<path d="M115 47.9282L119 41L123 47.9282" stroke="#FF0202" stroke-linecap="round"/>
<path d="M64.4 25.41H65.59V27.33C65.59 27.7167 65.57 28.1467 65.53 28.62C65.4967 29.0867 65.43 29.5633 65.33 30.05C65.2367 30.5367 65.1 31.01 64.92 31.47C64.74 31.93 64.5033 32.3467 64.21 32.72C64.1367 32.6533 64.0367 32.5733 63.91 32.48C63.79 32.3933 63.6633 32.31 63.53 32.23C63.3967 32.15 63.28 32.09 63.18 32.05C63.46 31.71 63.68 31.34 63.84 30.94C64.0067 30.5333 64.13 30.1167 64.21 29.69C64.29 29.2633 64.34 28.8467 64.36 28.44C64.3867 28.0333 64.4 27.6567 64.4 27.31V25.41ZM65.06 25.41H71.65V27.73H65.06V26.86H70.47V26.29H65.06V25.41ZM63.78 23.94H72.23V24.99H63.78V23.94ZM65.83 28.13H71.11V28.97H66.99V32.91H65.83V28.13ZM70.58 28.13H71.77V31.8C71.77 32.0667 71.73 32.2733 71.65 32.42C71.5767 32.5667 71.4433 32.68 71.25 32.76C71.0633 32.8333 70.83 32.8767 70.55 32.89C70.27 32.9033 69.94 32.91 69.56 32.91C69.54 32.7633 69.4967 32.6 69.43 32.42C69.3633 32.24 69.2933 32.0833 69.22 31.95C69.3733 31.9567 69.5267 31.9633 69.68 31.97C69.84 31.97 69.9833 31.97 70.11 31.97C70.2433 31.9633 70.33 31.96 70.37 31.96C70.4433 31.96 70.4967 31.95 70.53 31.93C70.5633 31.9033 70.58 31.8567 70.58 31.79V28.13ZM66.39 29.41H71.16V30.16H66.39V29.41ZM66.39 30.61H71.16V31.42H66.39V30.61ZM74.8 23.51H75.81V32.9H74.8V23.51ZM73.49 25.35H76.68V26.4H74.37V30.82H73.49V25.35ZM76.26 25.35H77.11V29.63C77.11 29.81 77.0933 29.9767 77.06 30.13C77.0333 30.2833 76.9667 30.4033 76.86 30.49C76.7533 30.5767 76.64 30.6333 76.52 30.66C76.4 30.6867 76.25 30.7 76.07 30.7C76.0633 30.5533 76.0333 30.3833 75.98 30.19C75.9267 29.9967 75.8667 29.8333 75.8 29.7C75.8867 29.7 75.9633 29.7 76.03 29.7C76.1033 29.7 76.1533 29.7 76.18 29.7C76.2333 29.7 76.26 29.6667 76.26 29.6V25.35ZM77.38 23.93H82.54V24.9H77.38V23.93ZM78.82 26.29V27.04H81.09V26.29H78.82ZM77.81 25.4H82.15V27.91H77.81V25.4ZM77.87 30.04H82.12V30.95H77.87V30.04ZM77.85 31.65H82.13V32.58H77.85V31.65ZM77.38 28.43H82.5V32.87H81.39V29.36H78.44V32.88H77.38V28.43ZM79.38 28.9H80.39V32.3H79.38V28.9ZM88.0533 30.9915L83.8097 26.755L84.7401 25.8139L88.9872 30.0611L88.0533 30.9915ZM84.7401 30.9915L83.8097 30.0611L88.0533 25.8139L88.9872 26.755L84.7401 30.9915ZM90.3864 32V30.892L92.9751 28.495C93.1953 28.282 93.38 28.0902 93.5291 27.9197C93.6806 27.7493 93.7955 27.5824 93.8736 27.419C93.9517 27.2533 93.9908 27.0746 93.9908 26.8828C93.9908 26.6697 93.9422 26.4863 93.8452 26.3324C93.7481 26.1761 93.6155 26.0566 93.4474 25.9737C93.2794 25.8885 93.0888 25.8459 92.8757 25.8459C92.6532 25.8459 92.459 25.8909 92.2933 25.9808C92.1276 26.0708 91.9998 26.1998 91.9098 26.3679C91.8198 26.536 91.7749 26.736 91.7749 26.968H90.3153C90.3153 26.4922 90.4231 26.0791 90.6385 25.7287C90.8539 25.3783 91.1558 25.1072 91.544 24.9155C91.9323 24.7237 92.3797 24.6278 92.8864 24.6278C93.4072 24.6278 93.8606 24.7202 94.2464 24.9048C94.6347 25.0871 94.9366 25.3404 95.152 25.6648C95.3674 25.9891 95.4751 26.3608 95.4751 26.7798C95.4751 27.0545 95.4207 27.3255 95.3118 27.593C95.2053 27.8606 95.0147 28.1577 94.7401 28.4844C94.4654 28.8087 94.0784 29.1982 93.5788 29.6527L92.517 30.6932V30.7429H95.571V32H90.3864Z" fill="black"/>
<path d="M69 38.5V50" stroke="#FF0000" stroke-linecap="round"/>
<path d="M69 40L76 37.5" stroke="#FF0000" stroke-linecap="round"/>
<path d="M99.5 39.5L92 37" stroke="#FF0000" stroke-linecap="round"/>
<path d="M100 40L69 40" stroke="#FF0202" stroke-linecap="round"/>
<path d="M33.34 87.58H38.45V94.83H37.29V88.66H34.44V94.89H33.34V87.58ZM33.93 93.25H37.92V94.36H33.93V93.25ZM33.93 90.39H37.92V91.48H33.93V90.39ZM35.28 85.51H36.42V93.98H35.28V85.51ZM30.63 90.79L31.78 89.43V94.9H30.63V90.79ZM29.45 87.29H32.26V88.36H29.45V87.29ZM30.62 85.56H31.77V87.92H30.62V85.56ZM31.69 89.83C31.7633 89.8967 31.87 90.0067 32.01 90.16C32.15 90.3067 32.2967 90.47 32.45 90.65C32.61 90.83 32.7567 90.9967 32.89 91.15C33.0233 91.2967 33.1167 91.4067 33.17 91.48L32.48 92.29C32.4 92.1567 32.2967 92.0033 32.17 91.83C32.05 91.65 31.9233 91.4667 31.79 91.28C31.6567 91.0867 31.5233 90.91 31.39 90.75C31.2633 90.5833 31.1567 90.4433 31.07 90.33L31.69 89.83ZM31.92 87.29H32.15L32.35 87.25L32.98 87.66C32.7667 88.3133 32.4867 88.95 32.14 89.57C31.7933 90.1833 31.4133 90.7467 31 91.26C30.5867 91.7733 30.1667 92.2033 29.74 92.55C29.7067 92.4433 29.6567 92.3167 29.59 92.17C29.5233 92.0233 29.45 91.8833 29.37 91.75C29.2967 91.6167 29.23 91.5133 29.17 91.44C29.55 91.16 29.92 90.81 30.28 90.39C30.64 89.9633 30.9633 89.5033 31.25 89.01C31.5433 88.51 31.7667 88.0133 31.92 87.52V87.29ZM32.77 89.31L33.48 89.84C33.2933 90.0667 33.1033 90.3 32.91 90.54C32.7233 90.78 32.55 90.9833 32.39 91.15L31.83 90.71C31.9767 90.5233 32.14 90.3 32.32 90.04C32.5067 89.7733 32.6567 89.53 32.77 89.31ZM39.57 87.31H48.45V88.48H39.57V87.31ZM41.82 88.8C42.0933 89.7933 42.5 90.6333 43.04 91.32C43.5867 92 44.3067 92.5367 45.2 92.93C46.1 93.3233 47.22 93.59 48.56 93.73C48.4733 93.8167 48.3833 93.93 48.29 94.07C48.1967 94.21 48.11 94.35 48.03 94.49C47.95 94.63 47.8833 94.76 47.83 94.88C46.77 94.74 45.85 94.5233 45.07 94.23C44.29 93.9367 43.62 93.5533 43.06 93.08C42.5067 92.6067 42.0367 92.04 41.65 91.38C41.27 90.7133 40.9467 89.9433 40.68 89.07L41.82 88.8ZM44.41 85.67H45.74C45.7333 86.4633 45.7167 87.2133 45.69 87.92C45.67 88.62 45.61 89.2767 45.51 89.89C45.41 90.4967 45.2467 91.0533 45.02 91.56C44.8 92.0667 44.49 92.5267 44.09 92.94C43.69 93.3467 43.1733 93.7033 42.54 94.01C41.9133 94.3233 41.1367 94.5833 40.21 94.79C40.1767 94.6833 40.12 94.5633 40.04 94.43C39.9667 94.3033 39.8833 94.1767 39.79 94.05C39.6967 93.9233 39.6067 93.8167 39.52 93.73C40.3733 93.5567 41.0867 93.34 41.66 93.08C42.24 92.82 42.7067 92.52 43.06 92.18C43.42 91.8333 43.69 91.44 43.87 91C44.0567 90.56 44.1867 90.0733 44.26 89.54C44.3333 89 44.3767 88.41 44.39 87.77C44.4033 87.1233 44.41 86.4233 44.41 85.67Z" fill="black"/>
<path d="M66.5 52.5L53 49" stroke="#FF0000" stroke-width="0.5" stroke-linecap="round" stroke-dasharray="1 1"/>
<path d="M47.5 143.5L34 140" stroke="#FF0000" stroke-width="0.5" stroke-linecap="round" stroke-dasharray="1 1"/>
<path d="M57.5086 50.9077C57.5596 50.6363 57.8209 50.4576 58.0923 50.5086C58.3637 50.5596 58.5424 50.8209 58.4914 51.0923L57.5086 50.9077ZM58 51L58.4914 51.0923L41.4914 141.592L41 141.5L40.5086 141.408L57.5086 50.9077L58 51Z" fill="#FF0000"/>
<path d="M41 141.5L38.7655 134" stroke="#FF0202" stroke-linecap="round"/>
<path d="M51.9838 57.5L57.4838 51" stroke="#FF0202" stroke-linecap="round"/>
<path d="M109 40H132" stroke="#FF0000" stroke-width="0.5" stroke-dasharray="1 1"/>
<path d="M109 155H132" stroke="#FF0000" stroke-width="0.5" stroke-dasharray="1 1"/>
<path d="M150.5 144.5L168.5 140.5" stroke="#FF0000" stroke-width="0.5" stroke-dasharray="1 1"/>
<path d="M119 153V43" stroke="#FF0202" stroke-linecap="round"/>
<path d="M100 19V40" stroke="#6F6F6F" stroke-linecap="round" stroke-dasharray="2 2"/>
</g>
<defs>
<clipPath id="clip0_164_44">
<rect width="200" height="200" fill="white"/>
</clipPath>
</defs>
</svg>
