<svg width="200" height="200" viewBox="0 0 200 200" fill="none" xmlns="http://www.w3.org/2000/svg">
<g clip-path="url(#clip0_165_94)">
<rect width="200" height="200" fill="white"/>
<path d="M47.0295 47.3309C47.1229 47.071 47.4093 46.9361 47.6691 47.0295C47.929 47.1229 48.0639 47.4093 47.9705 47.6691L47.0295 47.3309ZM47.5 47.5L47.9705 47.6691L20.4705 124.169L20 124L19.5295 123.831L47.0295 47.3309L47.5 47.5Z" fill="#FF0000"/>
<path d="M20 123.5L19 115" stroke="#FF0202" stroke-linecap="round"/>
<path d="M40.5 53.5L47.5 47.5" stroke="#FF0202" stroke-linecap="round"/>
<path d="M55 50L45 46M28 126.5L16.5 122.5" stroke="#FF0000" stroke-width="0.5" stroke-linecap="round" stroke-dasharray="1 1"/>
<path d="M15.34 75.58H20.45V82.83H19.29V76.66H16.44V82.89H15.34V75.58ZM15.93 81.25H19.92V82.36H15.93V81.25ZM15.93 78.39H19.92V79.48H15.93V78.39ZM17.28 73.51H18.42V81.98H17.28V73.51ZM12.63 78.79L13.78 77.43V82.9H12.63V78.79ZM11.45 75.29H14.26V76.36H11.45V75.29ZM12.62 73.56H13.77V75.92H12.62V73.56ZM13.69 77.83C13.7633 77.8967 13.87 78.0067 14.01 78.16C14.15 78.3067 14.2967 78.47 14.45 78.65C14.61 78.83 14.7567 78.9967 14.89 79.15C15.0233 79.2967 15.1167 79.4067 15.17 79.48L14.48 80.29C14.4 80.1567 14.2967 80.0033 14.17 79.83C14.05 79.65 13.9233 79.4667 13.79 79.28C13.6567 79.0867 13.5233 78.91 13.39 78.75C13.2633 78.5833 13.1567 78.4433 13.07 78.33L13.69 77.83ZM13.92 75.29H14.15L14.35 75.25L14.98 75.66C14.7667 76.3133 14.4867 76.95 14.14 77.57C13.7933 78.1833 13.4133 78.7467 13 79.26C12.5867 79.7733 12.1667 80.2033 11.74 80.55C11.7067 80.4433 11.6567 80.3167 11.59 80.17C11.5233 80.0233 11.45 79.8833 11.37 79.75C11.2967 79.6167 11.23 79.5133 11.17 79.44C11.55 79.16 11.92 78.81 12.28 78.39C12.64 77.9633 12.9633 77.5033 13.25 77.01C13.5433 76.51 13.7667 76.0133 13.92 75.52V75.29ZM14.77 77.31L15.48 77.84C15.2933 78.0667 15.1033 78.3 14.91 78.54C14.7233 78.78 14.55 78.9833 14.39 79.15L13.83 78.71C13.9767 78.5233 14.14 78.3 14.32 78.04C14.5067 77.7733 14.6567 77.53 14.77 77.31ZM21.57 75.31H30.45V76.48H21.57V75.31ZM23.82 76.8C24.0933 77.7933 24.5 78.6333 25.04 79.32C25.5867 80 26.3067 80.5367 27.2 80.93C28.1 81.3233 29.22 81.59 30.56 81.73C30.4733 81.8167 30.3833 81.93 30.29 82.07C30.1967 82.21 30.11 82.35 30.03 82.49C29.95 82.63 29.8833 82.76 29.83 82.88C28.77 82.74 27.85 82.5233 27.07 82.23C26.29 81.9367 25.62 81.5533 25.06 81.08C24.5067 80.6067 24.0367 80.04 23.65 79.38C23.27 78.7133 22.9467 77.9433 22.68 77.07L23.82 76.8ZM26.41 73.67H27.74C27.7333 74.4633 27.7167 75.2133 27.69 75.92C27.67 76.62 27.61 77.2767 27.51 77.89C27.41 78.4967 27.2467 79.0533 27.02 79.56C26.8 80.0667 26.49 80.5267 26.09 80.94C25.69 81.3467 25.1733 81.7033 24.54 82.01C23.9133 82.3233 23.1367 82.5833 22.21 82.79C22.1767 82.6833 22.12 82.5633 22.04 82.43C21.9667 82.3033 21.8833 82.1767 21.79 82.05C21.6967 81.9233 21.6067 81.8167 21.52 81.73C22.3733 81.5567 23.0867 81.34 23.66 81.08C24.24 80.82 24.7067 80.52 25.06 80.18C25.42 79.8333 25.69 79.44 25.87 79C26.0567 78.56 26.1867 78.0733 26.26 77.54C26.3333 77 26.3767 76.41 26.39 75.77C26.4033 75.1233 26.41 74.4233 26.41 73.67Z" fill="black"/>
<path d="M171 181V40" stroke="#FF0202" stroke-linecap="round"/>
<path d="M147 180V45" stroke="#FF0202" stroke-linecap="round"/>
<path d="M90 182L172 182" stroke="#FF0000" stroke-width="0.5" stroke-dasharray="1 1"/>
<path d="M95 38H177" stroke="#FF0000" stroke-width="0.5" stroke-dasharray="1 1"/>
<path d="M87 44H150" stroke="#FF0000" stroke-width="0.5" stroke-dasharray="1 1"/>
<path d="M175 45.9282L171 39L167 45.9282" stroke="#FF0202" stroke-linecap="round"/>
<path d="M151 51.9282L147 45L143 51.9282" stroke="#FF0202" stroke-linecap="round"/>
<path d="M167 174L171 180.928L175 174" stroke="#FF0202" stroke-linecap="round"/>
<path d="M143 174L147 180.928L151 174" stroke="#FF0202" stroke-linecap="round"/>
<path d="M178.99 104.27L180.19 104.55C180.07 104.843 179.943 105.143 179.81 105.45C179.677 105.75 179.547 106.037 179.42 106.31C179.3 106.583 179.18 106.827 179.06 107.04L178.17 106.76C178.27 106.54 178.37 106.283 178.47 105.99C178.577 105.697 178.677 105.4 178.77 105.1C178.863 104.8 178.937 104.523 178.99 104.27ZM180.16 105.61L181.07 105.16C181.25 105.387 181.43 105.633 181.61 105.9C181.79 106.16 181.953 106.417 182.1 106.67C182.253 106.923 182.37 107.153 182.45 107.36L181.47 107.88C181.403 107.673 181.3 107.44 181.16 107.18C181.02 106.92 180.86 106.653 180.68 106.38C180.507 106.107 180.333 105.85 180.16 105.61ZM180.73 109.19L181.64 108.74C181.82 108.973 181.99 109.227 182.15 109.5C182.317 109.773 182.457 110.043 182.57 110.31C182.69 110.577 182.773 110.82 182.82 111.04L181.82 111.54C181.787 111.32 181.713 111.077 181.6 110.81C181.493 110.537 181.363 110.26 181.21 109.98C181.057 109.7 180.897 109.437 180.73 109.19ZM177.28 106.36C177.633 106.353 178.04 106.343 178.5 106.33C178.967 106.31 179.457 106.287 179.97 106.26C180.49 106.233 181.013 106.21 181.54 106.19L181.52 107.13C180.813 107.19 180.103 107.247 179.39 107.3C178.677 107.353 178.04 107.4 177.48 107.44L177.28 106.36ZM178.29 102.66L179.43 102.94C179.243 103.44 179 103.92 178.7 104.38C178.4 104.833 178.083 105.213 177.75 105.52C177.683 105.453 177.593 105.373 177.48 105.28C177.367 105.187 177.25 105.097 177.13 105.01C177.01 104.923 176.903 104.853 176.81 104.8C177.137 104.547 177.43 104.23 177.69 103.85C177.95 103.47 178.15 103.073 178.29 102.66ZM181.09 102.65C181.223 102.87 181.383 103.097 181.57 103.33C181.763 103.563 181.97 103.783 182.19 103.99C182.41 104.197 182.62 104.377 182.82 104.53C182.733 104.59 182.637 104.673 182.53 104.78C182.423 104.88 182.32 104.987 182.22 105.1C182.127 105.207 182.05 105.303 181.99 105.39C181.777 105.203 181.553 104.98 181.32 104.72C181.093 104.46 180.873 104.187 180.66 103.9C180.453 103.607 180.27 103.323 180.11 103.05L181.09 102.65ZM178.53 107.95L179.27 107.31C179.497 107.41 179.717 107.53 179.93 107.67C180.15 107.803 180.35 107.947 180.53 108.1C180.717 108.253 180.87 108.403 180.99 108.55L180.2 109.27C180.093 109.117 179.947 108.96 179.76 108.8C179.58 108.633 179.383 108.477 179.17 108.33C178.957 108.183 178.743 108.057 178.53 107.95ZM178.47 108.72H179.57V110.58C179.57 110.713 179.58 110.797 179.6 110.83C179.627 110.863 179.68 110.88 179.76 110.88C179.78 110.88 179.81 110.88 179.85 110.88C179.89 110.88 179.933 110.88 179.98 110.88C180.033 110.88 180.08 110.88 180.12 110.88C180.167 110.88 180.2 110.88 180.22 110.88C180.28 110.88 180.323 110.86 180.35 110.82C180.383 110.773 180.407 110.683 180.42 110.55C180.44 110.41 180.453 110.197 180.46 109.91C180.527 109.97 180.617 110.027 180.73 110.08C180.85 110.133 180.97 110.183 181.09 110.23C181.217 110.277 181.33 110.313 181.43 110.34C181.397 110.753 181.337 111.073 181.25 111.3C181.17 111.527 181.057 111.68 180.91 111.76C180.77 111.847 180.583 111.89 180.35 111.89C180.31 111.89 180.253 111.89 180.18 111.89C180.113 111.89 180.04 111.89 179.96 111.89C179.887 111.89 179.813 111.89 179.74 111.89C179.673 111.89 179.62 111.89 179.58 111.89C179.273 111.89 179.04 111.85 178.88 111.77C178.727 111.69 178.62 111.553 178.56 111.36C178.5 111.173 178.47 110.917 178.47 110.59V108.72ZM177.43 108.94L178.39 109.1C178.343 109.507 178.257 109.93 178.13 110.37C178.01 110.803 177.857 111.173 177.67 111.48L176.72 111.07C176.893 110.817 177.04 110.493 177.16 110.1C177.287 109.7 177.377 109.313 177.43 108.94ZM174.81 102.49L175.84 102.88C175.707 103.14 175.567 103.407 175.42 103.68C175.273 103.947 175.13 104.203 174.99 104.45C174.85 104.697 174.717 104.917 174.59 105.11L173.8 104.76C173.92 104.56 174.043 104.33 174.17 104.07C174.297 103.803 174.417 103.533 174.53 103.26C174.643 102.987 174.737 102.73 174.81 102.49ZM175.93 103.7L176.9 104.15C176.653 104.523 176.387 104.917 176.1 105.33C175.813 105.743 175.527 106.14 175.24 106.52C174.953 106.9 174.68 107.233 174.42 107.52L173.74 107.13C173.927 106.91 174.12 106.66 174.32 106.38C174.527 106.093 174.727 105.797 174.92 105.49C175.113 105.177 175.297 104.867 175.47 104.56C175.643 104.253 175.797 103.967 175.93 103.7ZM173.26 104.83L173.85 104.03C174.023 104.183 174.2 104.357 174.38 104.55C174.56 104.737 174.723 104.923 174.87 105.11C175.023 105.29 175.14 105.46 175.22 105.62L174.57 106.54C174.497 106.373 174.387 106.19 174.24 105.99C174.1 105.79 173.943 105.59 173.77 105.39C173.597 105.183 173.427 104.997 173.26 104.83ZM175.59 106.09L176.43 105.74C176.563 105.96 176.693 106.2 176.82 106.46C176.947 106.713 177.06 106.963 177.16 107.21C177.26 107.45 177.33 107.667 177.37 107.86L176.47 108.27C176.437 108.077 176.373 107.853 176.28 107.6C176.187 107.347 176.08 107.09 175.96 106.83C175.847 106.563 175.723 106.317 175.59 106.09ZM173.24 106.91C173.68 106.883 174.207 106.85 174.82 106.81C175.433 106.763 176.057 106.717 176.69 106.67L176.7 107.59C176.127 107.657 175.55 107.72 174.97 107.78C174.397 107.84 173.873 107.897 173.4 107.95L173.24 106.91ZM175.83 108.63L176.68 108.35C176.807 108.643 176.923 108.963 177.03 109.31C177.143 109.657 177.223 109.953 177.27 110.2L176.37 110.52C176.323 110.26 176.247 109.953 176.14 109.6C176.04 109.247 175.937 108.923 175.83 108.63ZM173.65 108.37L174.62 108.53C174.56 109.01 174.477 109.483 174.37 109.95C174.27 110.41 174.15 110.8 174.01 111.12C173.943 111.08 173.857 111.033 173.75 110.98C173.643 110.927 173.533 110.873 173.42 110.82C173.313 110.767 173.22 110.727 173.14 110.7C173.287 110.407 173.4 110.05 173.48 109.63C173.56 109.21 173.617 108.79 173.65 108.37ZM174.77 107.42H175.8V111.89H174.77V107.42ZM183.57 104.31H192.45V105.48H183.57V104.31ZM185.82 105.8C186.093 106.793 186.5 107.633 187.04 108.32C187.587 109 188.307 109.537 189.2 109.93C190.1 110.323 191.22 110.59 192.56 110.73C192.473 110.817 192.383 110.93 192.29 111.07C192.197 111.21 192.11 111.35 192.03 111.49C191.95 111.63 191.883 111.76 191.83 111.88C190.77 111.74 189.85 111.523 189.07 111.23C188.29 110.937 187.62 110.553 187.06 110.08C186.507 109.607 186.037 109.04 185.65 108.38C185.27 107.713 184.947 106.943 184.68 106.07L185.82 105.8ZM188.41 102.67H189.74C189.733 103.463 189.717 104.213 189.69 104.92C189.67 105.62 189.61 106.277 189.51 106.89C189.41 107.497 189.247 108.053 189.02 108.56C188.8 109.067 188.49 109.527 188.09 109.94C187.69 110.347 187.173 110.703 186.54 111.01C185.913 111.323 185.137 111.583 184.21 111.79C184.177 111.683 184.12 111.563 184.04 111.43C183.967 111.303 183.883 111.177 183.79 111.05C183.697 110.923 183.607 110.817 183.52 110.73C184.373 110.557 185.087 110.34 185.66 110.08C186.24 109.82 186.707 109.52 187.06 109.18C187.42 108.833 187.69 108.44 187.87 108C188.057 107.56 188.187 107.073 188.26 106.54C188.333 106 188.377 105.41 188.39 104.77C188.403 104.123 188.41 103.423 188.41 102.67Z" fill="black"/>
<path d="M150.02 103.48H158.04V104.41H150.02V103.48ZM150.52 104.84H157.52V105.71H150.52V104.84ZM152.29 108.68H156.82V109.34H152.29V108.68ZM152.29 109.7H156.82V110.37H152.29V109.7ZM152.28 110.74H156.94V111.59H152.28V110.74ZM149.57 106.13H158.43V107.07H149.57V106.13ZM153.37 104.16H154.6V106.88H153.37V104.16ZM151.26 102.82L152.33 102.48C152.463 102.627 152.59 102.793 152.71 102.98C152.83 103.16 152.917 103.323 152.97 103.47L151.86 103.88C151.813 103.733 151.733 103.56 151.62 103.36C151.507 103.16 151.387 102.98 151.26 102.82ZM155.58 102.47L156.89 102.8C156.737 102.993 156.587 103.177 156.44 103.35C156.3 103.517 156.177 103.66 156.07 103.78L155.05 103.47C155.143 103.317 155.24 103.15 155.34 102.97C155.447 102.783 155.527 102.617 155.58 102.47ZM151.68 106.58L152.87 106.87C152.583 107.683 152.197 108.427 151.71 109.1C151.223 109.767 150.683 110.317 150.09 110.75C150.03 110.67 149.943 110.573 149.83 110.46C149.723 110.347 149.61 110.233 149.49 110.12C149.377 110.007 149.277 109.917 149.19 109.85C149.757 109.49 150.257 109.027 150.69 108.46C151.123 107.887 151.453 107.26 151.68 106.58ZM151.63 107.47H157.58V111.88H156.32V108.32H152.82V111.88H151.63V107.47ZM159.57 104.31H168.45V105.48H159.57V104.31ZM161.82 105.8C162.093 106.793 162.5 107.633 163.04 108.32C163.587 109 164.307 109.537 165.2 109.93C166.1 110.323 167.22 110.59 168.56 110.73C168.473 110.817 168.383 110.93 168.29 111.07C168.197 111.21 168.11 111.35 168.03 111.49C167.95 111.63 167.883 111.76 167.83 111.88C166.77 111.74 165.85 111.523 165.07 111.23C164.29 110.937 163.62 110.553 163.06 110.08C162.507 109.607 162.037 109.04 161.65 108.38C161.27 107.713 160.947 106.943 160.68 106.07L161.82 105.8ZM164.41 102.67H165.74C165.733 103.463 165.717 104.213 165.69 104.92C165.67 105.62 165.61 106.277 165.51 106.89C165.41 107.497 165.247 108.053 165.02 108.56C164.8 109.067 164.49 109.527 164.09 109.94C163.69 110.347 163.173 110.703 162.54 111.01C161.913 111.323 161.137 111.583 160.21 111.79C160.177 111.683 160.12 111.563 160.04 111.43C159.967 111.303 159.883 111.177 159.79 111.05C159.697 110.923 159.607 110.817 159.52 110.73C160.373 110.557 161.087 110.34 161.66 110.08C162.24 109.82 162.707 109.52 163.06 109.18C163.42 108.833 163.69 108.44 163.87 108C164.057 107.56 164.187 107.073 164.26 106.54C164.333 106 164.377 105.41 164.39 104.77C164.403 104.123 164.41 103.423 164.41 102.67Z" fill="black"/>
<path d="M78.4 22.41H79.59V24.33C79.59 24.7167 79.57 25.1467 79.53 25.62C79.4967 26.0867 79.43 26.5633 79.33 27.05C79.2367 27.5367 79.1 28.01 78.92 28.47C78.74 28.93 78.5033 29.3467 78.21 29.72C78.1367 29.6533 78.0367 29.5733 77.91 29.48C77.79 29.3933 77.6633 29.31 77.53 29.23C77.3967 29.15 77.28 29.09 77.18 29.05C77.46 28.71 77.68 28.34 77.84 27.94C78.0067 27.5333 78.13 27.1167 78.21 26.69C78.29 26.2633 78.34 25.8467 78.36 25.44C78.3867 25.0333 78.4 24.6567 78.4 24.31V22.41ZM79.06 22.41H85.65V24.73H79.06V23.86H84.47V23.29H79.06V22.41ZM77.78 20.94H86.23V21.99H77.78V20.94ZM79.83 25.13H85.11V25.97H80.99V29.91H79.83V25.13ZM84.58 25.13H85.77V28.8C85.77 29.0667 85.73 29.2733 85.65 29.42C85.5767 29.5667 85.4433 29.68 85.25 29.76C85.0633 29.8333 84.83 29.8767 84.55 29.89C84.27 29.9033 83.94 29.91 83.56 29.91C83.54 29.7633 83.4967 29.6 83.43 29.42C83.3633 29.24 83.2933 29.0833 83.22 28.95C83.3733 28.9567 83.5267 28.9633 83.68 28.97C83.84 28.97 83.9833 28.97 84.11 28.97C84.2433 28.9633 84.33 28.96 84.37 28.96C84.4433 28.96 84.4967 28.95 84.53 28.93C84.5633 28.9033 84.58 28.8567 84.58 28.79V25.13ZM80.39 26.41H85.16V27.16H80.39V26.41ZM80.39 27.61H85.16V28.42H80.39V27.61ZM88.8 20.51H89.81V29.9H88.8V20.51ZM87.49 22.35H90.68V23.4H88.37V27.82H87.49V22.35ZM90.26 22.35H91.11V26.63C91.11 26.81 91.0933 26.9767 91.06 27.13C91.0333 27.2833 90.9667 27.4033 90.86 27.49C90.7533 27.5767 90.64 27.6333 90.52 27.66C90.4 27.6867 90.25 27.7 90.07 27.7C90.0633 27.5533 90.0333 27.3833 89.98 27.19C89.9267 26.9967 89.8667 26.8333 89.8 26.7C89.8867 26.7 89.9633 26.7 90.03 26.7C90.1033 26.7 90.1533 26.7 90.18 26.7C90.2333 26.7 90.26 26.6667 90.26 26.6V22.35ZM91.38 20.93H96.54V21.9H91.38V20.93ZM92.82 23.29V24.04H95.09V23.29H92.82ZM91.81 22.4H96.15V24.91H91.81V22.4ZM91.87 27.04H96.12V27.95H91.87V27.04ZM91.85 28.65H96.13V29.58H91.85V28.65ZM91.38 25.43H96.5V29.87H95.39V26.36H92.44V29.88H91.38V25.43ZM93.38 25.9H94.39V29.3H93.38V25.9Z" fill="black"/>
<path d="M116 33L56 33" stroke="#FF0202" stroke-linecap="round"/>
<path d="M62.9282 29L56 33L62.9282 37" stroke="#FF0202" stroke-linecap="round"/>
<path d="M68.9282 75L62 79L68.9282 83" stroke="#FF0202" stroke-linecap="round"/>
<path d="M66.9282 114L60 118L66.9282 122" stroke="#FF0202" stroke-linecap="round"/>
<path d="M110 29L116.928 33L110 37" stroke="#FF0202" stroke-linecap="round"/>
<path d="M104 75L110.928 79L104 83" stroke="#FF0202" stroke-linecap="round"/>
<path d="M106 114L112.928 118L106 122" stroke="#FF0202" stroke-linecap="round"/>
<path d="M56 49V24" stroke="#FF0000" stroke-width="0.5" stroke-linecap="round" stroke-dasharray="2 2"/>
<path d="M117 50V25" stroke="#FF0000" stroke-width="0.5" stroke-linecap="round" stroke-dasharray="2 2"/>
<path d="M78.75 68.07H83.2V68.93H78.75V68.07ZM78.75 69.53H83.2V70.4H78.75V69.53ZM82.66 66.46H83.91V73.43C83.91 73.7767 83.87 74.0433 83.79 74.23C83.71 74.4233 83.5567 74.5733 83.33 74.68C83.11 74.78 82.8333 74.8433 82.5 74.87C82.1667 74.8967 81.76 74.9067 81.28 74.9C81.26 74.78 81.2267 74.6433 81.18 74.49C81.14 74.3367 81.09 74.1833 81.03 74.03C80.9767 73.8833 80.92 73.7533 80.86 73.64C81.0667 73.6533 81.2733 73.6633 81.48 73.67C81.6933 73.67 81.88 73.67 82.04 73.67C82.2067 73.6633 82.3267 73.66 82.4 73.66C82.4933 73.66 82.56 73.6433 82.6 73.61C82.64 73.5767 82.66 73.5133 82.66 73.42V66.46ZM76.5 71.19C77.0467 71.1633 77.6867 71.1333 78.42 71.1C79.16 71.0667 79.9433 71.0267 80.77 70.98C81.6033 70.9333 82.4267 70.8867 83.24 70.84L83.23 71.86C82.4567 71.9267 81.6767 71.9933 80.89 72.06C80.1033 72.12 79.3467 72.1767 78.62 72.23C77.9 72.2833 77.25 72.33 76.67 72.37L76.5 71.19ZM84.41 68.51L85.58 69.07C84.96 70.03 84.2133 70.88 83.34 71.62C82.4733 72.3533 81.5167 72.9867 80.47 73.52C79.4233 74.0467 78.3233 74.48 77.17 74.82C77.1167 74.72 77.04 74.6 76.94 74.46C76.84 74.3267 76.7367 74.1933 76.63 74.06C76.53 73.9267 76.4367 73.8133 76.35 73.72C77.5167 73.4267 78.61 73.0433 79.63 72.57C80.65 72.09 81.5667 71.5133 82.38 70.84C83.1933 70.16 83.87 69.3833 84.41 68.51ZM80.38 65.47L81.86 65.63C81.7067 65.9367 81.54 66.2367 81.36 66.53C81.1867 66.8233 81.0267 67.07 80.88 67.27L79.81 67.05C79.9233 66.8167 80.0333 66.5567 80.14 66.27C80.2467 65.9767 80.3267 65.71 80.38 65.47ZM77.98 66.46H83.06V67.49H79.19V71.73H77.98V66.46ZM87.8 65.51H88.81V74.9H87.8V65.51ZM86.49 67.35H89.68V68.4H87.37V72.82H86.49V67.35ZM89.26 67.35H90.11V71.63C90.11 71.81 90.0933 71.9767 90.06 72.13C90.0333 72.2833 89.9667 72.4033 89.86 72.49C89.7533 72.5767 89.64 72.6333 89.52 72.66C89.4 72.6867 89.25 72.7 89.07 72.7C89.0633 72.5533 89.0333 72.3833 88.98 72.19C88.9267 71.9967 88.8667 71.8333 88.8 71.7C88.8867 71.7 88.9633 71.7 89.03 71.7C89.1033 71.7 89.1533 71.7 89.18 71.7C89.2333 71.7 89.26 71.6667 89.26 71.6V67.35ZM90.38 65.93H95.54V66.9H90.38V65.93ZM91.82 68.29V69.04H94.09V68.29H91.82ZM90.81 67.4H95.15V69.91H90.81V67.4ZM90.87 72.04H95.12V72.95H90.87V72.04ZM90.85 73.65H95.13V74.58H90.85V73.65ZM90.38 70.43H95.5V74.87H94.39V71.36H91.44V74.88H90.38V70.43ZM92.38 70.9H93.39V74.3H92.38V70.9Z" fill="black"/>
<path d="M72.72 101.83C72.7 102.043 72.6833 102.217 72.67 102.35C72.6567 102.477 72.65 102.61 72.65 102.75C72.65 102.837 72.65 102.97 72.65 103.15C72.65 103.33 72.65 103.517 72.65 103.71C72.65 103.903 72.65 104.063 72.65 104.19H71.26C71.26 104.05 71.26 103.883 71.26 103.69C71.26 103.497 71.26 103.313 71.26 103.14C71.26 102.967 71.26 102.837 71.26 102.75C71.26 102.61 71.2533 102.477 71.24 102.35C71.2333 102.217 71.2133 102.043 71.18 101.83H72.72ZM76.09 103.94C76.05 104.047 76.01 104.183 75.97 104.35C75.9367 104.51 75.91 104.64 75.89 104.74C75.85 104.973 75.8 105.21 75.74 105.45C75.6867 105.69 75.62 105.93 75.54 106.17C75.4667 106.41 75.38 106.647 75.28 106.88C75.1867 107.113 75.08 107.343 74.96 107.57C74.6933 108.057 74.3533 108.5 73.94 108.9C73.5333 109.3 73.07 109.64 72.55 109.92C72.03 110.193 71.4733 110.41 70.88 110.57L69.84 109.37C70.0667 109.33 70.3067 109.277 70.56 109.21C70.8133 109.137 71.0433 109.06 71.25 108.98C71.53 108.873 71.8067 108.74 72.08 108.58C72.36 108.413 72.6233 108.22 72.87 108C73.1167 107.78 73.3333 107.537 73.52 107.27C73.6867 107.023 73.83 106.76 73.95 106.48C74.07 106.193 74.1667 105.9 74.24 105.6C74.3133 105.293 74.37 104.993 74.41 104.7H69.45C69.45 104.787 69.45 104.897 69.45 105.03C69.45 105.157 69.45 105.297 69.45 105.45C69.45 105.597 69.45 105.733 69.45 105.86C69.45 105.98 69.45 106.08 69.45 106.16C69.45 106.273 69.4533 106.4 69.46 106.54C69.4667 106.68 69.4733 106.8 69.48 106.9H68.1C68.1133 106.773 68.1233 106.637 68.13 106.49C68.1433 106.337 68.15 106.193 68.15 106.06C68.15 105.98 68.15 105.863 68.15 105.71C68.15 105.557 68.15 105.393 68.15 105.22C68.15 105.04 68.15 104.87 68.15 104.71C68.15 104.55 68.15 104.423 68.15 104.33C68.15 104.217 68.1467 104.077 68.14 103.91C68.1333 103.737 68.12 103.59 68.1 103.47C68.2733 103.49 68.44 103.503 68.6 103.51C68.76 103.517 68.9333 103.52 69.12 103.52H74.39C74.5967 103.52 74.7633 103.51 74.89 103.49C75.0233 103.463 75.1333 103.437 75.22 103.41L76.09 103.94ZM78.39 103.02C78.5233 103.033 78.68 103.047 78.86 103.06C79.04 103.073 79.2 103.08 79.34 103.08H84.78C84.9333 103.08 85.0933 103.073 85.26 103.06C85.4267 103.047 85.58 103.033 85.72 103.02V104.39C85.5733 104.377 85.4167 104.367 85.25 104.36C85.0833 104.353 84.9267 104.35 84.78 104.35H79.34C79.2067 104.35 79.0467 104.353 78.86 104.36C78.6733 104.367 78.5167 104.377 78.39 104.39V103.02ZM81.27 109.17V103.79H82.67V109.17H81.27ZM77.74 108.35C77.9 108.377 78.0667 108.397 78.24 108.41C78.4133 108.423 78.5767 108.43 78.73 108.43H85.32C85.5 108.43 85.67 108.423 85.83 108.41C85.99 108.39 86.1333 108.37 86.26 108.35V109.8C86.1133 109.78 85.95 109.767 85.77 109.76C85.59 109.753 85.44 109.75 85.32 109.75H78.73C78.5833 109.75 78.4233 109.753 78.25 109.76C78.0767 109.767 77.9067 109.78 77.74 109.8V108.35ZM95.34 103.22C95.3 103.28 95.24 103.373 95.16 103.5C95.0867 103.627 95.03 103.743 94.99 103.85C94.85 104.163 94.6767 104.513 94.47 104.9C94.27 105.287 94.04 105.677 93.78 106.07C93.5267 106.457 93.2567 106.82 92.97 107.16C92.5967 107.58 92.1833 107.997 91.73 108.41C91.2833 108.817 90.81 109.193 90.31 109.54C89.8167 109.88 89.31 110.173 88.79 110.42L87.76 109.34C88.3 109.133 88.8233 108.873 89.33 108.56C89.8367 108.247 90.3067 107.907 90.74 107.54C91.1733 107.173 91.5467 106.817 91.86 106.47C92.08 106.217 92.2867 105.947 92.48 105.66C92.68 105.373 92.8567 105.09 93.01 104.81C93.1633 104.523 93.2767 104.26 93.35 104.02C93.2833 104.02 93.1633 104.02 92.99 104.02C92.8167 104.02 92.6133 104.02 92.38 104.02C92.1533 104.02 91.9133 104.02 91.66 104.02C91.4067 104.02 91.1633 104.02 90.93 104.02C90.7033 104.02 90.5033 104.02 90.33 104.02C90.1567 104.02 90.0333 104.02 89.96 104.02C89.82 104.02 89.6733 104.027 89.52 104.04C89.3667 104.047 89.22 104.057 89.08 104.07C88.9467 104.077 88.8433 104.083 88.77 104.09V102.67C88.87 102.677 88.9933 102.687 89.14 102.7C89.2867 102.713 89.4333 102.723 89.58 102.73C89.7333 102.737 89.86 102.74 89.96 102.74C90.0467 102.74 90.1833 102.74 90.37 102.74C90.5567 102.74 90.77 102.74 91.01 102.74C91.25 102.74 91.4967 102.74 91.75 102.74C92.01 102.74 92.2567 102.74 92.49 102.74C92.73 102.74 92.9367 102.74 93.11 102.74C93.2833 102.74 93.41 102.74 93.49 102.74C93.71 102.74 93.91 102.727 94.09 102.7C94.2767 102.673 94.42 102.643 94.52 102.61L95.34 103.22ZM93.1 106.33C93.36 106.537 93.6367 106.777 93.93 107.05C94.2233 107.323 94.5133 107.607 94.8 107.9C95.0867 108.193 95.35 108.477 95.59 108.75C95.8367 109.017 96.0433 109.25 96.21 109.45L95.07 110.44C94.8233 110.1 94.54 109.747 94.22 109.38C93.9067 109.013 93.5733 108.65 93.22 108.29C92.8733 107.923 92.52 107.577 92.16 107.25L93.1 106.33ZM100.14 109.04C100.14 108.913 100.14 108.707 100.14 108.42C100.14 108.127 100.14 107.79 100.14 107.41C100.14 107.023 100.14 106.62 100.14 106.2C100.14 105.78 100.14 105.377 100.14 104.99C100.14 104.597 100.14 104.25 100.14 103.95C100.14 103.65 100.14 103.43 100.14 103.29C100.14 103.117 100.13 102.917 100.11 102.69C100.097 102.463 100.073 102.263 100.04 102.09H101.6C101.58 102.263 101.56 102.457 101.54 102.67C101.52 102.877 101.51 103.083 101.51 103.29C101.51 103.477 101.51 103.73 101.51 104.05C101.51 104.37 101.51 104.727 101.51 105.12C101.51 105.507 101.51 105.903 101.51 106.31C101.51 106.71 101.51 107.097 101.51 107.47C101.51 107.843 101.51 108.17 101.51 108.45C101.51 108.723 101.51 108.92 101.51 109.04C101.51 109.133 101.513 109.267 101.52 109.44C101.527 109.607 101.54 109.78 101.56 109.96C101.58 110.14 101.593 110.3 101.6 110.44H100.04C100.067 110.24 100.09 110.007 100.11 109.74C100.13 109.473 100.14 109.24 100.14 109.04ZM101.21 104.68C101.543 104.767 101.917 104.88 102.33 105.02C102.743 105.153 103.16 105.297 103.58 105.45C104 105.603 104.393 105.757 104.76 105.91C105.133 106.057 105.443 106.193 105.69 106.32L105.12 107.7C104.84 107.553 104.53 107.407 104.19 107.26C103.85 107.107 103.503 106.96 103.15 106.82C102.803 106.68 102.46 106.55 102.12 106.43C101.787 106.31 101.483 106.203 101.21 106.11V104.68Z" fill="black"/>
<path d="M111 79L63 79" stroke="#FF0202" stroke-linecap="round"/>
<path d="M113 118L60 118" stroke="#FF0202" stroke-linecap="round"/>
<path d="M58.8311 48.237L58.6544 47.7692L58.6436 47.7733L58.6329 47.7779L58.8311 48.237ZM53.2973 53.6967L52.8309 53.5166L52.828 53.5239L52.8254 53.5313L53.2973 53.6967ZM28 126.478L27.5275 126.314L27.3665 126.78L27.8292 126.948L28 126.478ZM43.0203 131.938L42.8495 132.407L43.2728 132.561L43.4699 132.156L43.0203 131.938ZM60.939 73.4882L61.4378 73.4526L61.4378 73.4526L60.939 73.4882ZM56.9294 50.1136C56.8351 49.854 56.5482 49.7201 56.2887 49.8144C56.0291 49.9087 55.8952 50.1956 55.9895 50.4551L56.9294 50.1136ZM50.9257 178.588L50.427 178.551L50.3957 178.975L50.8091 179.074L50.9257 178.588ZM86.5 180.478V180.978H87V180.478H86.5ZM78.6489 38L78.98 37.6253L78.7291 37.4037L78.4286 37.5511L78.6489 38ZM86.5 51.1033H87V50.876L86.8287 50.7265L86.5 51.1033ZM73.1873 40.6802L72.967 40.2314L72.9443 40.2425L72.9228 40.2559L73.1873 40.6802ZM75.2354 47.8275L74.8611 48.159L74.8611 48.159L75.2354 47.8275ZM82.0624 54.3791V54.8791H82.227L82.3594 54.7814L82.0624 54.3791ZM80.5625 42.0528C80.3155 41.9293 80.0152 42.0294 79.8917 42.2764C79.7682 42.5234 79.8683 42.8237 80.1153 42.9472L80.5625 42.0528ZM86.5 44.5C86.7761 44.5 87 44.2761 87 44C87 43.7239 86.7761 43.5 86.5 43.5V44.5ZM44.0109 80.1993L43.539 80.034L43.5384 80.0359L44.0109 80.1993ZM58.6185 86.1993L59.0952 86.3502L59.0952 86.3502L58.6185 86.1993ZM34.8486 108C34.5725 108 34.3486 108.224 34.3486 108.5C34.3486 108.776 34.5725 109 34.8486 109V108ZM49.1343 114.883C49.3456 115.06 49.661 115.033 49.8388 114.822C50.0165 114.611 49.9894 114.295 49.7781 114.117L49.1343 114.883ZM39.2861 94.5C39.01 94.5 38.7861 94.7239 38.7861 95C38.7861 95.2761 39.01 95.5 39.2861 95.5V94.5ZM53.5718 101.383C53.7831 101.56 54.0985 101.533 54.2763 101.322C54.4541 101.111 54.4269 100.795 54.2156 100.617L53.5718 101.383ZM113.669 48.237L113.867 47.7779L113.856 47.7733L113.846 47.7692L113.669 48.237ZM119.203 53.6967L119.675 53.5313L119.672 53.5239L119.669 53.5166L119.203 53.6967ZM144.5 126.478L144.671 126.948L145.133 126.78L144.973 126.314L144.5 126.478ZM129.48 131.938L129.03 132.156L129.227 132.561L129.651 132.407L129.48 131.938ZM111.561 73.4882L111.062 73.4526L111.062 73.4526L111.561 73.4882ZM116.51 50.4551C116.605 50.1956 116.471 49.9087 116.211 49.8144C115.952 49.7201 115.665 49.854 115.571 50.1136L116.51 50.4551ZM121.574 178.588L121.691 179.074L122.104 178.975L122.073 178.551L121.574 178.588ZM86 180.478H85.5V180.978H86V180.478ZM93.8511 38L94.0714 37.5511L93.7709 37.4037L93.52 37.6253L93.8511 38ZM86 51.1033L85.6713 50.7265L85.5 50.876V51.1033H86ZM99.3127 40.6802L99.5772 40.2559L99.5557 40.2425L99.533 40.2314L99.3127 40.6802ZM97.2646 47.8275L97.6389 48.159L97.6389 48.159L97.2646 47.8275ZM90.4376 54.3791L90.1406 54.7814L90.273 54.8791H90.4376V54.3791ZM92.3847 42.9472C92.6317 42.8237 92.7318 42.5234 92.6083 42.2764C92.4848 42.0294 92.1845 41.9293 91.9375 42.0528L92.3847 42.9472ZM86 43.5C85.7239 43.5 85.5 43.7239 85.5 44C85.5 44.2761 85.7239 44.5 86 44.5V43.5ZM128.489 80.1993L128.962 80.0359L128.961 80.034L128.489 80.1993ZM113.882 86.1993L113.405 86.3502L113.405 86.3502L113.882 86.1993ZM137.651 109C137.928 109 138.151 108.776 138.151 108.5C138.151 108.224 137.928 108 137.651 108V109ZM122.722 114.117C122.511 114.295 122.483 114.611 122.661 114.822C122.839 115.033 123.154 115.06 123.366 114.883L122.722 114.117ZM133.214 95.5C133.49 95.5 133.714 95.2761 133.714 95C133.714 94.7239 133.49 94.5 133.214 94.5V95.5ZM118.284 100.617C118.073 100.795 118.046 101.111 118.224 101.322C118.402 101.533 118.717 101.56 118.928 101.383L118.284 100.617ZM58.8311 48.237L58.6329 47.7779C55.3427 49.1981 53.6678 51.3489 52.8309 53.5166L53.2973 53.6967L53.7637 53.8768C54.5078 51.9496 55.9951 50.0057 59.0292 48.696L58.8311 48.237ZM28 126.478L27.8292 126.948L42.8495 132.407L43.0203 131.938L43.1911 131.468L28.1708 126.008L28 126.478ZM56.4595 50.2844L55.9895 50.4551C58.4569 57.2448 59.8378 65.0724 60.4403 73.5237L60.939 73.4882L61.4378 73.4526C60.8311 64.9428 59.4382 57.0173 56.9294 50.1136L56.4595 50.2844ZM50.9257 178.588L50.8091 179.074C65.1153 182.505 80.2449 180.978 86.5 180.978V180.478V179.978C80.1064 179.978 65.1955 181.495 51.0423 178.101L50.9257 178.588ZM78.6489 38L78.1666 38.1316C79.9031 44.4947 84.0608 49.6388 86.1713 51.4801L86.5 51.1033L86.8287 50.7265C84.843 48.9942 80.8082 44.013 79.1313 37.8684L78.6489 38ZM78.6489 38L78.4286 37.5511L72.967 40.2314L73.1873 40.6802L73.4076 41.1291L78.8692 38.4489L78.6489 38ZM73.1873 40.6802L72.9228 40.2559C72.1816 40.7178 71.8325 41.388 71.778 42.1376C71.7258 42.856 71.9437 43.6235 72.265 44.3455C72.9094 45.7936 74.0595 47.2539 74.8611 48.159L75.2354 47.8275L75.6097 47.496C74.8287 46.6142 73.76 45.2455 73.1786 43.9389C72.887 43.2835 72.7403 42.6923 72.7754 42.2101C72.8081 41.7593 72.9982 41.3872 73.4517 41.1046L73.1873 40.6802ZM75.2354 47.8275L74.8611 48.159C77.1889 50.7871 78.8236 52.4397 79.9259 53.4392C80.4763 53.9383 80.9012 54.2811 81.2184 54.5025C81.3764 54.6128 81.5163 54.6991 81.6379 54.7598C81.7396 54.8107 81.8953 54.8791 82.0624 54.8791V54.3791V53.8791C82.1442 53.8791 82.1676 53.9067 82.0851 53.8654C82.0224 53.834 81.926 53.7769 81.7907 53.6825C81.5212 53.4944 81.131 53.1821 80.5977 52.6984C79.5324 51.7325 77.9243 50.1092 75.6097 47.496L75.2354 47.8275ZM82.0624 54.3791L82.3594 54.7814L86.797 51.5056L86.5 51.1033L86.203 50.7011L81.7655 53.9769L82.0624 54.3791ZM71.4797 43.4597L71.3031 42.992L58.6544 47.7692L58.8311 48.237L59.0077 48.7047L71.6564 43.9275L71.4797 43.4597ZM78.6489 38L78.3179 38.3747C80.7566 40.5294 84.0537 41.2299 86.5 41.2299V40.7299V40.2299C84.2031 40.2299 81.1758 39.5654 78.98 37.6253L78.6489 38ZM60.939 73.4882L60.4403 73.5237C60.5574 75.1663 60.6451 76.8321 60.7056 78.5179L61.2053 78.5L61.705 78.4821C61.644 76.7852 61.5558 75.1077 61.4378 73.4526L60.939 73.4882ZM61.2053 78.5L60.7056 78.5179C61.3114 95.3875 59.2008 114.238 56.7064 131.959C54.2153 149.657 51.3358 166.259 50.427 178.551L50.9257 178.588L51.4243 178.625C52.3299 166.377 55.1978 149.851 57.6966 132.099C60.1921 114.37 62.3142 95.4455 61.705 78.4821L61.2053 78.5ZM86.5 51.1033H86V180.478H86.5H87V51.1033H86.5ZM80.3389 42.5L80.1153 42.9472C82.1729 43.976 83.9102 44.5 86.5 44.5V44V43.5C84.0898 43.5 82.5048 43.024 80.5625 42.0528L80.3389 42.5ZM53.2973 53.6967L52.8254 53.5313L43.539 80.034L44.0109 80.1993L44.4828 80.3647L53.7692 53.862L53.2973 53.6967ZM44.0109 80.1993L43.5384 80.0359L27.5275 126.314L28 126.478L28.4725 126.641L44.4834 80.3628L44.0109 80.1993ZM43.0203 131.938L43.4699 132.156C44.9639 129.085 47.598 121.648 50.4861 113C53.3796 104.337 56.542 94.4167 59.0952 86.3502L58.6185 86.1993L58.1418 86.0485C55.5887 94.1146 52.4284 104.028 49.5376 112.684C46.6415 121.355 44.0295 128.72 42.5707 131.719L43.0203 131.938ZM58.6185 86.1993L59.0952 86.3502C59.3791 85.4532 59.9052 83.913 60.4222 82.4003C60.9369 80.8943 61.4435 79.413 61.6825 78.6493L61.2053 78.5L60.7281 78.3507C60.4941 79.0984 59.9934 80.563 59.476 82.0769C58.9609 83.584 58.43 85.1378 58.1418 86.0485L58.6185 86.1993ZM44.0109 80.1993V80.6993C46.8977 80.6993 49.8783 81.6672 52.45 82.9002C55.0184 84.1316 57.1396 85.6085 58.2966 86.5819L58.6185 86.1993L58.9404 85.8167C57.7203 84.7902 55.5282 83.2671 52.8823 81.9985C50.2398 80.7315 47.1051 79.6993 44.0109 79.6993V80.1993ZM34.8486 108.5V109C37.7354 109 40.716 109.968 43.2877 111.201C45.856 112.432 47.9773 113.909 49.1343 114.883L49.4562 114.5L49.7781 114.117C48.558 113.091 46.3659 111.568 43.72 110.299C41.0775 109.032 37.9428 108 34.8486 108V108.5ZM39.2861 95V95.5C42.1729 95.5 45.1535 96.4678 47.7252 97.7009C50.2936 98.9323 52.4148 100.409 53.5718 101.383L53.8937 101L54.2156 100.617C52.9955 99.5909 50.8034 98.0677 48.1575 96.7991C45.515 95.5322 42.3803 94.5 39.2861 94.5V95ZM61.3035 87L61.4591 87.4752C67.5513 85.48 70.2922 84.5263 73.264 84.1676C76.2396 83.8084 79.4474 84.0458 86.4724 84.499L86.5046 84L86.5368 83.501C79.5618 83.0511 76.2358 82.8016 73.1441 83.1748C70.0487 83.5484 67.1891 84.5463 61.1479 86.5248L61.3035 87ZM60.6032 104L60.7588 104.475C66.8709 102.473 69.7798 101.27 72.9459 100.662C76.0844 100.059 79.4679 100.047 86.4678 100.499L86.5 100L86.5322 99.501C79.5321 99.0495 76.0339 99.0507 72.7573 99.6802C69.5083 100.304 66.4688 101.553 60.4476 103.525L60.6032 104ZM58 127.5L58.1556 127.975C64.2271 125.987 67.8089 124.901 71.6131 124.417C75.4183 123.933 79.4659 124.047 86.4678 124.499L86.5 124L86.5322 123.501C79.5341 123.05 75.3984 122.927 71.4869 123.425C67.5745 123.923 63.9063 125.04 57.8444 127.025L58 127.5ZM55 149.5L55.1556 149.975C61.2153 147.991 65.5549 146.777 70.1163 146.167C74.677 145.557 79.4811 145.548 86.4678 145.999L86.5 145.5L86.5322 145.001C79.5189 144.549 74.6396 144.553 69.9837 145.176C65.3285 145.798 60.9181 147.036 54.8444 149.025L55 149.5ZM113.669 48.237L113.471 48.696C116.505 50.0057 117.992 51.9496 118.736 53.8768L119.203 53.6967L119.669 53.5166C118.832 51.3489 117.157 49.1981 113.867 47.7779L113.669 48.237ZM144.5 126.478L144.329 126.008L129.309 131.468L129.48 131.938L129.651 132.407L144.671 126.948L144.5 126.478ZM116.041 50.2844L115.571 50.1136C113.062 57.0173 111.669 64.9428 111.062 73.4526L111.561 73.4882L112.06 73.5237C112.662 65.0724 114.043 57.2448 116.51 50.4551L116.041 50.2844ZM121.574 178.588L121.458 178.101C107.305 181.495 92.3936 179.978 86 179.978V180.478V180.978C92.2551 180.978 107.385 182.505 121.691 179.074L121.574 178.588ZM93.8511 38L93.3687 37.8684C91.6918 44.013 87.657 48.9942 85.6713 50.7265L86 51.1033L86.3287 51.4801C88.4392 49.6388 92.5969 44.4947 94.3334 38.1316L93.8511 38ZM93.8511 38L93.6308 38.4489L99.0924 41.1291L99.3127 40.6802L99.533 40.2314L94.0714 37.5511L93.8511 38ZM99.3127 40.6802L99.0483 41.1046C99.5018 41.3872 99.6918 41.7593 99.7246 42.2101C99.7597 42.6923 99.613 43.2835 99.3214 43.9389C98.74 45.2455 97.6713 46.6142 96.8903 47.496L97.2646 47.8275L97.6389 48.159C98.4405 47.2539 99.5906 45.7936 100.235 44.3455C100.556 43.6235 100.774 42.856 100.722 42.1376C100.667 41.388 100.318 40.7178 99.5772 40.2559L99.3127 40.6802ZM97.2646 47.8275L96.8903 47.496C94.5757 50.1092 92.9676 51.7325 91.9023 52.6984C91.3689 53.1821 90.9788 53.4944 90.7093 53.6825C90.574 53.7769 90.4776 53.834 90.4149 53.8654C90.3324 53.9067 90.3558 53.8791 90.4376 53.8791V54.3791V54.8791C90.6047 54.8791 90.7604 54.8107 90.8621 54.7598C90.9837 54.6991 91.1236 54.6128 91.2816 54.5025C91.5988 54.2811 92.0237 53.9383 92.5741 53.4392C93.6764 52.4397 95.3111 50.7871 97.6389 48.159L97.2646 47.8275ZM90.4376 54.3791L90.7345 53.9769L86.297 50.7011L86 51.1033L85.703 51.5056L90.1406 54.7814L90.4376 54.3791ZM101.02 43.4597L100.844 43.9275L113.492 48.7047L113.669 48.237L113.846 47.7692L101.197 42.992L101.02 43.4597ZM93.8511 38L93.52 37.6253C91.3242 39.5654 88.2969 40.2299 86 40.2299V40.7299V41.2299C88.4463 41.2299 91.7434 40.5294 94.1821 38.3747L93.8511 38ZM111.561 73.4882L111.062 73.4526C110.944 75.1077 110.856 76.7852 110.795 78.4821L111.295 78.5L111.794 78.5179C111.855 76.8321 111.943 75.1663 112.06 73.5237L111.561 73.4882ZM111.295 78.5L110.795 78.4821C110.186 95.4455 112.308 114.37 114.803 132.099C117.302 149.851 120.17 166.377 121.076 178.625L121.574 178.588L122.073 178.551C121.164 166.259 118.285 149.657 115.794 131.959C113.299 114.238 111.189 95.3875 111.794 78.5179L111.295 78.5ZM86 51.1033H85.5V180.478H86H86.5V51.1033H86ZM92.1611 42.5L91.9375 42.0528C89.9952 43.024 88.4102 43.5 86 43.5V44V44.5C88.5898 44.5 90.3271 43.976 92.3847 42.9472L92.1611 42.5ZM119.203 53.6967L118.731 53.862L128.017 80.3647L128.489 80.1993L128.961 80.034L119.675 53.5313L119.203 53.6967ZM128.489 80.1993L128.017 80.3628L144.027 126.641L144.5 126.478L144.973 126.314L128.962 80.0359L128.489 80.1993ZM129.48 131.938L129.929 131.719C128.47 128.72 125.859 121.355 122.962 112.684C120.072 104.028 116.911 94.1146 114.358 86.0485L113.882 86.1993L113.405 86.3502C115.958 94.4167 119.12 104.337 122.014 113C124.902 121.648 127.536 129.085 129.03 132.156L129.48 131.938ZM113.882 86.1993L114.358 86.0485C114.07 85.1378 113.539 83.584 113.024 82.0769C112.507 80.563 112.006 79.0984 111.772 78.3507L111.295 78.5L110.818 78.6493C111.056 79.413 111.563 80.8943 112.078 82.4003C112.595 83.913 113.121 85.4532 113.405 86.3502L113.882 86.1993ZM128.489 80.1993V79.6993C125.395 79.6993 122.26 80.7315 119.618 81.9985C116.972 83.2671 114.78 84.7902 113.56 85.8167L113.882 86.1993L114.203 86.5819C115.36 85.6085 117.482 84.1316 120.05 82.9002C122.622 81.6672 125.602 80.6993 128.489 80.6993V80.1993ZM137.651 108.5V108C134.557 108 131.423 109.032 128.78 110.299C126.134 111.568 123.942 113.091 122.722 114.117L123.044 114.5L123.366 114.883C124.523 113.909 126.644 112.432 129.212 111.201C131.784 109.968 134.765 109 137.651 109V108.5ZM133.214 95V94.5C130.12 94.5 126.985 95.5322 124.342 96.7991C121.697 98.0677 119.505 99.5909 118.284 100.617L118.606 101L118.928 101.383C120.085 100.409 122.206 98.9323 124.775 97.7009C127.347 96.4678 130.327 95.5 133.214 95.5V95ZM111.206 87L111.361 86.5248C105.32 84.5463 102.46 83.5484 99.365 83.1748C96.2734 82.8016 92.9474 83.0511 85.9724 83.501L86.0046 84L86.0368 84.499C93.0618 84.0458 96.2696 83.8084 99.2452 84.1676C102.217 84.5263 104.958 85.48 111.05 87.4752L111.206 87ZM111.897 104L112.052 103.525C106.031 101.553 102.992 100.304 99.7427 99.6802C96.4661 99.0507 92.9679 99.0495 85.9678 99.501L86 100L86.0322 100.499C93.0321 100.047 96.4156 100.059 99.5541 100.662C102.72 101.27 105.629 102.473 111.741 104.475L111.897 104ZM114.5 127.5L114.656 127.025C108.594 125.04 104.926 123.923 101.013 123.425C97.1016 122.927 92.9659 123.05 85.9678 123.501L86 124L86.0322 124.499C93.0341 124.047 97.0817 123.933 100.887 124.417C104.691 124.901 108.273 125.987 114.344 127.975L114.5 127.5ZM117.5 149.5L117.656 149.025C111.582 147.036 107.172 145.798 102.516 145.176C97.8604 144.553 92.9811 144.549 85.9678 145.001L86 145.5L86.0322 145.999C93.0189 145.548 97.823 145.557 102.384 146.167C106.945 146.777 111.285 147.991 117.344 149.975L117.5 149.5Z" fill="black"/>
</g>
<defs>
<clipPath id="clip0_165_94">
<rect width="200" height="200" fill="white"/>
</clipPath>
</defs>
</svg>
