<svg width="200" height="200" viewBox="0 0 200 200" fill="none" xmlns="http://www.w3.org/2000/svg">
<g clip-path="url(#clip0_144_139)">
<rect width="200" height="200" fill="white"/>
<path d="M47.7873 57.0149L72.1116 46.2687M47.7873 57.0149C37.859 61.0448 37.3621 130 38.3549 160H53.2473M47.7873 57.0149C52.7509 61.0448 55.7293 67.3134 54.7365 87.0149C54.7365 89.1642 53.7437 136.567 53.2473 160M53.2473 160H77.0753M79.5574 40C77.5717 40 75.586 41.791 74.0967 44.0299L61.6863 60.1493L68.6362 63.2836M79.5574 40H95.4426M79.5574 40V46.2687M79.5574 55.6716L63.6721 67.3134L87.5 110.746M79.5574 55.6716L87.5 110.746M79.5574 55.6716V46.2687M87.5 110.746V139.851M87.5 110.746L111.328 67.3134L95.4426 55.6716M87.5 110.746L95.4426 55.6716M87.5 139.851C87.5 150.239 80.5502 157.612 77.0753 160M87.5 139.851C87.5 150.239 94.4498 157.612 97.9247 160M77.0753 160H87.5M127.213 57.0149L102.888 46.2687M127.213 57.0149C137.141 61.0448 137.638 130 136.645 160H121.753M127.213 57.0149C122.249 61.0448 119.271 67.3134 120.263 87.0149C120.263 89.1642 121.256 136.567 121.753 160M121.753 160H97.9247M95.4426 40C97.4283 40 99.414 41.791 100.903 44.0299L113.314 60.1493L106.364 63.2836M95.4426 40V46.2687M95.4426 55.6716V46.2687M97.9247 160H87.5M87.5 160L87.5 149.853M79.5574 46.2687H95.4426" stroke="black"/>
<path d="M44 54C32.7856 59.1906 30.4046 130.086 31.5 159.5" stroke="#FF0000"/>
<path d="M48 57.5L42 52M38 160H26" stroke="#FF0000" stroke-dasharray="2 2"/>
<circle cx="92" cy="120" r="1.5" stroke="black"/>
<circle cx="92" cy="132" r="1.5" stroke="black"/>
<path d="M79.4 24.41H80.59V26.33C80.59 26.7167 80.57 27.1467 80.53 27.62C80.4967 28.0867 80.43 28.5633 80.33 29.05C80.2367 29.5367 80.1 30.01 79.92 30.47C79.74 30.93 79.5033 31.3467 79.21 31.72C79.1367 31.6533 79.0367 31.5733 78.91 31.48C78.79 31.3933 78.6633 31.31 78.53 31.23C78.3967 31.15 78.28 31.09 78.18 31.05C78.46 30.71 78.68 30.34 78.84 29.94C79.0067 29.5333 79.13 29.1167 79.21 28.69C79.29 28.2633 79.34 27.8467 79.36 27.44C79.3867 27.0333 79.4 26.6567 79.4 26.31V24.41ZM80.06 24.41H86.65V26.73H80.06V25.86H85.47V25.29H80.06V24.41ZM78.78 22.94H87.23V23.99H78.78V22.94ZM80.83 27.13H86.11V27.97H81.99V31.91H80.83V27.13ZM85.58 27.13H86.77V30.8C86.77 31.0667 86.73 31.2733 86.65 31.42C86.5767 31.5667 86.4433 31.68 86.25 31.76C86.0633 31.8333 85.83 31.8767 85.55 31.89C85.27 31.9033 84.94 31.91 84.56 31.91C84.54 31.7633 84.4967 31.6 84.43 31.42C84.3633 31.24 84.2933 31.0833 84.22 30.95C84.3733 30.9567 84.5267 30.9633 84.68 30.97C84.84 30.97 84.9833 30.97 85.11 30.97C85.2433 30.9633 85.33 30.96 85.37 30.96C85.4433 30.96 85.4967 30.95 85.53 30.93C85.5633 30.9033 85.58 30.8567 85.58 30.79V27.13ZM81.39 28.41H86.16V29.16H81.39V28.41ZM81.39 29.61H86.16V30.42H81.39V29.61ZM89.8 22.51H90.81V31.9H89.8V22.51ZM88.49 24.35H91.68V25.4H89.37V29.82H88.49V24.35ZM91.26 24.35H92.11V28.63C92.11 28.81 92.0933 28.9767 92.06 29.13C92.0333 29.2833 91.9667 29.4033 91.86 29.49C91.7533 29.5767 91.64 29.6333 91.52 29.66C91.4 29.6867 91.25 29.7 91.07 29.7C91.0633 29.5533 91.0333 29.3833 90.98 29.19C90.9267 28.9967 90.8667 28.8333 90.8 28.7C90.8867 28.7 90.9633 28.7 91.03 28.7C91.1033 28.7 91.1533 28.7 91.18 28.7C91.2333 28.7 91.26 28.6667 91.26 28.6V24.35ZM92.38 22.93H97.54V23.9H92.38V22.93ZM93.82 25.29V26.04H96.09V25.29H93.82ZM92.81 24.4H97.15V26.91H92.81V24.4ZM92.87 29.04H97.12V29.95H92.87V29.04ZM92.85 30.65H97.13V31.58H92.85V30.65ZM92.38 27.43H97.5V31.87H96.39V28.36H93.44V31.88H92.38V27.43ZM94.38 27.9H95.39V31.3H94.38V27.9Z" fill="black"/>
<path d="M125 35L49 35" stroke="#FF0202" stroke-linecap="round"/>
<path d="M55.9282 31L49 35L55.9282 39" stroke="#FF0202" stroke-linecap="round"/>
<path d="M119 31L125.928 35L119 39" stroke="#FF0202" stroke-linecap="round"/>
<path d="M168 160V41" stroke="#FF0202" stroke-linecap="round"/>
<path d="M143 160V47" stroke="#FF0202" stroke-linecap="round"/>
<path d="M177.99 97.27L179.19 97.55C179.07 97.8433 178.943 98.1433 178.81 98.45C178.677 98.75 178.547 99.0367 178.42 99.31C178.3 99.5833 178.18 99.8267 178.06 100.04L177.17 99.76C177.27 99.54 177.37 99.2833 177.47 98.99C177.577 98.6967 177.677 98.4 177.77 98.1C177.863 97.8 177.937 97.5233 177.99 97.27ZM179.16 98.61L180.07 98.16C180.25 98.3867 180.43 98.6333 180.61 98.9C180.79 99.16 180.953 99.4167 181.1 99.67C181.253 99.9233 181.37 100.153 181.45 100.36L180.47 100.88C180.403 100.673 180.3 100.44 180.16 100.18C180.02 99.92 179.86 99.6533 179.68 99.38C179.507 99.1067 179.333 98.85 179.16 98.61ZM179.73 102.19L180.64 101.74C180.82 101.973 180.99 102.227 181.15 102.5C181.317 102.773 181.457 103.043 181.57 103.31C181.69 103.577 181.773 103.82 181.82 104.04L180.82 104.54C180.787 104.32 180.713 104.077 180.6 103.81C180.493 103.537 180.363 103.26 180.21 102.98C180.057 102.7 179.897 102.437 179.73 102.19ZM176.28 99.36C176.633 99.3533 177.04 99.3433 177.5 99.33C177.967 99.31 178.457 99.2867 178.97 99.26C179.49 99.2333 180.013 99.21 180.54 99.19L180.52 100.13C179.813 100.19 179.103 100.247 178.39 100.3C177.677 100.353 177.04 100.4 176.48 100.44L176.28 99.36ZM177.29 95.66L178.43 95.94C178.243 96.44 178 96.92 177.7 97.38C177.4 97.8333 177.083 98.2133 176.75 98.52C176.683 98.4533 176.593 98.3733 176.48 98.28C176.367 98.1867 176.25 98.0967 176.13 98.01C176.01 97.9233 175.903 97.8533 175.81 97.8C176.137 97.5467 176.43 97.23 176.69 96.85C176.95 96.47 177.15 96.0733 177.29 95.66ZM180.09 95.65C180.223 95.87 180.383 96.0967 180.57 96.33C180.763 96.5633 180.97 96.7833 181.19 96.99C181.41 97.1967 181.62 97.3767 181.82 97.53C181.733 97.59 181.637 97.6733 181.53 97.78C181.423 97.88 181.32 97.9867 181.22 98.1C181.127 98.2067 181.05 98.3033 180.99 98.39C180.777 98.2033 180.553 97.98 180.32 97.72C180.093 97.46 179.873 97.1867 179.66 96.9C179.453 96.6067 179.27 96.3233 179.11 96.05L180.09 95.65ZM177.53 100.95L178.27 100.31C178.497 100.41 178.717 100.53 178.93 100.67C179.15 100.803 179.35 100.947 179.53 101.1C179.717 101.253 179.87 101.403 179.99 101.55L179.2 102.27C179.093 102.117 178.947 101.96 178.76 101.8C178.58 101.633 178.383 101.477 178.17 101.33C177.957 101.183 177.743 101.057 177.53 100.95ZM177.47 101.72H178.57V103.58C178.57 103.713 178.58 103.797 178.6 103.83C178.627 103.863 178.68 103.88 178.76 103.88C178.78 103.88 178.81 103.88 178.85 103.88C178.89 103.88 178.933 103.88 178.98 103.88C179.033 103.88 179.08 103.88 179.12 103.88C179.167 103.88 179.2 103.88 179.22 103.88C179.28 103.88 179.323 103.86 179.35 103.82C179.383 103.773 179.407 103.683 179.42 103.55C179.44 103.41 179.453 103.197 179.46 102.91C179.527 102.97 179.617 103.027 179.73 103.08C179.85 103.133 179.97 103.183 180.09 103.23C180.217 103.277 180.33 103.313 180.43 103.34C180.397 103.753 180.337 104.073 180.25 104.3C180.17 104.527 180.057 104.68 179.91 104.76C179.77 104.847 179.583 104.89 179.35 104.89C179.31 104.89 179.253 104.89 179.18 104.89C179.113 104.89 179.04 104.89 178.96 104.89C178.887 104.89 178.813 104.89 178.74 104.89C178.673 104.89 178.62 104.89 178.58 104.89C178.273 104.89 178.04 104.85 177.88 104.77C177.727 104.69 177.62 104.553 177.56 104.36C177.5 104.173 177.47 103.917 177.47 103.59V101.72ZM176.43 101.94L177.39 102.1C177.343 102.507 177.257 102.93 177.13 103.37C177.01 103.803 176.857 104.173 176.67 104.48L175.72 104.07C175.893 103.817 176.04 103.493 176.16 103.1C176.287 102.7 176.377 102.313 176.43 101.94ZM173.81 95.49L174.84 95.88C174.707 96.14 174.567 96.4067 174.42 96.68C174.273 96.9467 174.13 97.2033 173.99 97.45C173.85 97.6967 173.717 97.9167 173.59 98.11L172.8 97.76C172.92 97.56 173.043 97.33 173.17 97.07C173.297 96.8033 173.417 96.5333 173.53 96.26C173.643 95.9867 173.737 95.73 173.81 95.49ZM174.93 96.7L175.9 97.15C175.653 97.5233 175.387 97.9167 175.1 98.33C174.813 98.7433 174.527 99.14 174.24 99.52C173.953 99.9 173.68 100.233 173.42 100.52L172.74 100.13C172.927 99.91 173.12 99.66 173.32 99.38C173.527 99.0933 173.727 98.7967 173.92 98.49C174.113 98.1767 174.297 97.8667 174.47 97.56C174.643 97.2533 174.797 96.9667 174.93 96.7ZM172.26 97.83L172.85 97.03C173.023 97.1833 173.2 97.3567 173.38 97.55C173.56 97.7367 173.723 97.9233 173.87 98.11C174.023 98.29 174.14 98.46 174.22 98.62L173.57 99.54C173.497 99.3733 173.387 99.19 173.24 98.99C173.1 98.79 172.943 98.59 172.77 98.39C172.597 98.1833 172.427 97.9967 172.26 97.83ZM174.59 99.09L175.43 98.74C175.563 98.96 175.693 99.2 175.82 99.46C175.947 99.7133 176.06 99.9633 176.16 100.21C176.26 100.45 176.33 100.667 176.37 100.86L175.47 101.27C175.437 101.077 175.373 100.853 175.28 100.6C175.187 100.347 175.08 100.09 174.96 99.83C174.847 99.5633 174.723 99.3167 174.59 99.09ZM172.24 99.91C172.68 99.8833 173.207 99.85 173.82 99.81C174.433 99.7633 175.057 99.7167 175.69 99.67L175.7 100.59C175.127 100.657 174.55 100.72 173.97 100.78C173.397 100.84 172.873 100.897 172.4 100.95L172.24 99.91ZM174.83 101.63L175.68 101.35C175.807 101.643 175.923 101.963 176.03 102.31C176.143 102.657 176.223 102.953 176.27 103.2L175.37 103.52C175.323 103.26 175.247 102.953 175.14 102.6C175.04 102.247 174.937 101.923 174.83 101.63ZM172.65 101.37L173.62 101.53C173.56 102.01 173.477 102.483 173.37 102.95C173.27 103.41 173.15 103.8 173.01 104.12C172.943 104.08 172.857 104.033 172.75 103.98C172.643 103.927 172.533 103.873 172.42 103.82C172.313 103.767 172.22 103.727 172.14 103.7C172.287 103.407 172.4 103.05 172.48 102.63C172.56 102.21 172.617 101.79 172.65 101.37ZM173.77 100.42H174.8V104.89H173.77V100.42ZM182.57 97.31H191.45V98.48H182.57V97.31ZM184.82 98.8C185.093 99.7933 185.5 100.633 186.04 101.32C186.587 102 187.307 102.537 188.2 102.93C189.1 103.323 190.22 103.59 191.56 103.73C191.473 103.817 191.383 103.93 191.29 104.07C191.197 104.21 191.11 104.35 191.03 104.49C190.95 104.63 190.883 104.76 190.83 104.88C189.77 104.74 188.85 104.523 188.07 104.23C187.29 103.937 186.62 103.553 186.06 103.08C185.507 102.607 185.037 102.04 184.65 101.38C184.27 100.713 183.947 99.9433 183.68 99.07L184.82 98.8ZM187.41 95.67H188.74C188.733 96.4633 188.717 97.2133 188.69 97.92C188.67 98.62 188.61 99.2767 188.51 99.89C188.41 100.497 188.247 101.053 188.02 101.56C187.8 102.067 187.49 102.527 187.09 102.94C186.69 103.347 186.173 103.703 185.54 104.01C184.913 104.323 184.137 104.583 183.21 104.79C183.177 104.683 183.12 104.563 183.04 104.43C182.967 104.303 182.883 104.177 182.79 104.05C182.697 103.923 182.607 103.817 182.52 103.73C183.373 103.557 184.087 103.34 184.66 103.08C185.24 102.82 185.707 102.52 186.06 102.18C186.42 101.833 186.69 101.44 186.87 101C187.057 100.56 187.187 100.073 187.26 99.54C187.333 99 187.377 98.41 187.39 97.77C187.403 97.1233 187.41 96.4233 187.41 95.67Z" fill="black"/>
<path d="M145.02 96.48H153.04V97.41H145.02V96.48ZM145.52 97.84H152.52V98.71H145.52V97.84ZM147.29 101.68H151.82V102.34H147.29V101.68ZM147.29 102.7H151.82V103.37H147.29V102.7ZM147.28 103.74H151.94V104.59H147.28V103.74ZM144.57 99.13H153.43V100.07H144.57V99.13ZM148.37 97.16H149.6V99.88H148.37V97.16ZM146.26 95.82L147.33 95.48C147.463 95.6267 147.59 95.7933 147.71 95.98C147.83 96.16 147.917 96.3233 147.97 96.47L146.86 96.88C146.813 96.7333 146.733 96.56 146.62 96.36C146.507 96.16 146.387 95.98 146.26 95.82ZM150.58 95.47L151.89 95.8C151.737 95.9933 151.587 96.1767 151.44 96.35C151.3 96.5167 151.177 96.66 151.07 96.78L150.05 96.47C150.143 96.3167 150.24 96.15 150.34 95.97C150.447 95.7833 150.527 95.6167 150.58 95.47ZM146.68 99.58L147.87 99.87C147.583 100.683 147.197 101.427 146.71 102.1C146.223 102.767 145.683 103.317 145.09 103.75C145.03 103.67 144.943 103.573 144.83 103.46C144.723 103.347 144.61 103.233 144.49 103.12C144.377 103.007 144.277 102.917 144.19 102.85C144.757 102.49 145.257 102.027 145.69 101.46C146.123 100.887 146.453 100.26 146.68 99.58ZM146.63 100.47H152.58V104.88H151.32V101.32H147.82V104.88H146.63V100.47ZM154.57 97.31H163.45V98.48H154.57V97.31ZM156.82 98.8C157.093 99.7933 157.5 100.633 158.04 101.32C158.587 102 159.307 102.537 160.2 102.93C161.1 103.323 162.22 103.59 163.56 103.73C163.473 103.817 163.383 103.93 163.29 104.07C163.197 104.21 163.11 104.35 163.03 104.49C162.95 104.63 162.883 104.76 162.83 104.88C161.77 104.74 160.85 104.523 160.07 104.23C159.29 103.937 158.62 103.553 158.06 103.08C157.507 102.607 157.037 102.04 156.65 101.38C156.27 100.713 155.947 99.9433 155.68 99.07L156.82 98.8ZM159.41 95.67H160.74C160.733 96.4633 160.717 97.2133 160.69 97.92C160.67 98.62 160.61 99.2767 160.51 99.89C160.41 100.497 160.247 101.053 160.02 101.56C159.8 102.067 159.49 102.527 159.09 102.94C158.69 103.347 158.173 103.703 157.54 104.01C156.913 104.323 156.137 104.583 155.21 104.79C155.177 104.683 155.12 104.563 155.04 104.43C154.967 104.303 154.883 104.177 154.79 104.05C154.697 103.923 154.607 103.817 154.52 103.73C155.373 103.557 156.087 103.34 156.66 103.08C157.24 102.82 157.707 102.52 158.06 102.18C158.42 101.833 158.69 101.44 158.87 101C159.057 100.56 159.187 100.073 159.26 99.54C159.333 99 159.377 98.41 159.39 97.77C159.403 97.1233 159.41 96.4233 159.41 95.67Z" fill="black"/>
<path d="M12.34 103.58H17.45V110.83H16.29V104.66H13.44V110.89H12.34V103.58ZM12.93 109.25H16.92V110.36H12.93V109.25ZM12.93 106.39H16.92V107.48H12.93V106.39ZM14.28 101.51H15.42V109.98H14.28V101.51ZM9.63 106.79L10.78 105.43V110.9H9.63V106.79ZM8.45 103.29H11.26V104.36H8.45V103.29ZM9.62 101.56H10.77V103.92H9.62V101.56ZM10.69 105.83C10.7633 105.897 10.87 106.007 11.01 106.16C11.15 106.307 11.2967 106.47 11.45 106.65C11.61 106.83 11.7567 106.997 11.89 107.15C12.0233 107.297 12.1167 107.407 12.17 107.48L11.48 108.29C11.4 108.157 11.2967 108.003 11.17 107.83C11.05 107.65 10.9233 107.467 10.79 107.28C10.6567 107.087 10.5233 106.91 10.39 106.75C10.2633 106.583 10.1567 106.443 10.07 106.33L10.69 105.83ZM10.92 103.29H11.15L11.35 103.25L11.98 103.66C11.7667 104.313 11.4867 104.95 11.14 105.57C10.7933 106.183 10.4133 106.747 10 107.26C9.58667 107.773 9.16667 108.203 8.74 108.55C8.70667 108.443 8.65667 108.317 8.59 108.17C8.52333 108.023 8.45 107.883 8.37 107.75C8.29667 107.617 8.23 107.513 8.17 107.44C8.55 107.16 8.92 106.81 9.28 106.39C9.64 105.963 9.96333 105.503 10.25 105.01C10.5433 104.51 10.7667 104.013 10.92 103.52V103.29ZM11.77 105.31L12.48 105.84C12.2933 106.067 12.1033 106.3 11.91 106.54C11.7233 106.78 11.55 106.983 11.39 107.15L10.83 106.71C10.9767 106.523 11.14 106.3 11.32 106.04C11.5067 105.773 11.6567 105.53 11.77 105.31ZM18.57 103.31H27.45V104.48H18.57V103.31ZM20.82 104.8C21.0933 105.793 21.5 106.633 22.04 107.32C22.5867 108 23.3067 108.537 24.2 108.93C25.1 109.323 26.22 109.59 27.56 109.73C27.4733 109.817 27.3833 109.93 27.29 110.07C27.1967 110.21 27.11 110.35 27.03 110.49C26.95 110.63 26.8833 110.76 26.83 110.88C25.77 110.74 24.85 110.523 24.07 110.23C23.29 109.937 22.62 109.553 22.06 109.08C21.5067 108.607 21.0367 108.04 20.65 107.38C20.27 106.713 19.9467 105.943 19.68 105.07L20.82 104.8ZM23.41 101.67H24.74C24.7333 102.463 24.7167 103.213 24.69 103.92C24.67 104.62 24.61 105.277 24.51 105.89C24.41 106.497 24.2467 107.053 24.02 107.56C23.8 108.067 23.49 108.527 23.09 108.94C22.69 109.347 22.1733 109.703 21.54 110.01C20.9133 110.323 20.1367 110.583 19.21 110.79C19.1767 110.683 19.12 110.563 19.04 110.43C18.9667 110.303 18.8833 110.177 18.79 110.05C18.6967 109.923 18.6067 109.817 18.52 109.73C19.3733 109.557 20.0867 109.34 20.66 109.08C21.24 108.82 21.7067 108.52 22.06 108.18C22.42 107.833 22.69 107.44 22.87 107C23.0567 106.56 23.1867 106.073 23.26 105.54C23.3333 105 23.3767 104.41 23.39 103.77C23.4033 103.123 23.41 102.423 23.41 101.67Z" fill="black"/>
<g filter="url(#filter0_d_144_139)">
<path d="M94 40L152 40" stroke="#FF0000" stroke-width="0.5" stroke-dasharray="1 1"/>
</g>
<g filter="url(#filter1_d_144_139)">
<path d="M94 40L170 40M94 46.5L145.5 46.5" stroke="#FF0000" stroke-width="0.5" stroke-dasharray="1 1"/>
</g>
<path d="M135 160H171" stroke="#FF0000" stroke-width="0.5" stroke-dasharray="1 1"/>
<path d="M164 153L168 159.928L172 153" stroke="#FF0202" stroke-linecap="round"/>
<path d="M139 153L143 159.928L147 153" stroke="#FF0202" stroke-linecap="round"/>
<path d="M172 47.9282L168 41L164 47.9282" stroke="#FF0202" stroke-linecap="round"/>
<path d="M147 53.9282L143 47L139 53.9282" stroke="#FF0202" stroke-linecap="round"/>
<path d="M48 57.5V29" stroke="#FF0000" stroke-width="0.5" stroke-linecap="round" stroke-dasharray="2 2"/>
<path d="M127 56.5V28" stroke="#FF0000" stroke-width="0.5" stroke-linecap="round" stroke-dasharray="2 2"/>
<path d="M60.75 97.07H65.2V97.93H60.75V97.07ZM60.75 98.53H65.2V99.4H60.75V98.53ZM64.66 95.46H65.91V102.43C65.91 102.777 65.87 103.043 65.79 103.23C65.71 103.423 65.5567 103.573 65.33 103.68C65.11 103.78 64.8333 103.843 64.5 103.87C64.1667 103.897 63.76 103.907 63.28 103.9C63.26 103.78 63.2267 103.643 63.18 103.49C63.14 103.337 63.09 103.183 63.03 103.03C62.9767 102.883 62.92 102.753 62.86 102.64C63.0667 102.653 63.2733 102.663 63.48 102.67C63.6933 102.67 63.88 102.67 64.04 102.67C64.2067 102.663 64.3267 102.66 64.4 102.66C64.4933 102.66 64.56 102.643 64.6 102.61C64.64 102.577 64.66 102.513 64.66 102.42V95.46ZM58.5 100.19C59.0467 100.163 59.6867 100.133 60.42 100.1C61.16 100.067 61.9433 100.027 62.77 99.98C63.6033 99.9333 64.4267 99.8867 65.24 99.84L65.23 100.86C64.4567 100.927 63.6767 100.993 62.89 101.06C62.1033 101.12 61.3467 101.177 60.62 101.23C59.9 101.283 59.25 101.33 58.67 101.37L58.5 100.19ZM66.41 97.51L67.58 98.07C66.96 99.03 66.2133 99.88 65.34 100.62C64.4733 101.353 63.5167 101.987 62.47 102.52C61.4233 103.047 60.3233 103.48 59.17 103.82C59.1167 103.72 59.04 103.6 58.94 103.46C58.84 103.327 58.7367 103.193 58.63 103.06C58.53 102.927 58.4367 102.813 58.35 102.72C59.5167 102.427 60.61 102.043 61.63 101.57C62.65 101.09 63.5667 100.513 64.38 99.84C65.1933 99.16 65.87 98.3833 66.41 97.51ZM62.38 94.47L63.86 94.63C63.7067 94.9367 63.54 95.2367 63.36 95.53C63.1867 95.8233 63.0267 96.07 62.88 96.27L61.81 96.05C61.9233 95.8167 62.0333 95.5567 62.14 95.27C62.2467 94.9767 62.3267 94.71 62.38 94.47ZM59.98 95.46H65.06V96.49H61.19V100.73H59.98V95.46ZM69.8 94.51H70.81V103.9H69.8V94.51ZM68.49 96.35H71.68V97.4H69.37V101.82H68.49V96.35ZM71.26 96.35H72.11V100.63C72.11 100.81 72.0933 100.977 72.06 101.13C72.0333 101.283 71.9667 101.403 71.86 101.49C71.7533 101.577 71.64 101.633 71.52 101.66C71.4 101.687 71.25 101.7 71.07 101.7C71.0633 101.553 71.0333 101.383 70.98 101.19C70.9267 100.997 70.8667 100.833 70.8 100.7C70.8867 100.7 70.9633 100.7 71.03 100.7C71.1033 100.7 71.1533 100.7 71.18 100.7C71.2333 100.7 71.26 100.667 71.26 100.6V96.35ZM72.38 94.93H77.54V95.9H72.38V94.93ZM73.82 97.29V98.04H76.09V97.29H73.82ZM72.81 96.4H77.15V98.91H72.81V96.4ZM72.87 101.04H77.12V101.95H72.87V101.04ZM72.85 102.65H77.13V103.58H72.85V102.65ZM72.38 99.43H77.5V103.87H76.39V100.36H73.44V103.88H72.38V99.43ZM74.38 99.9H75.39V103.3H74.38V99.9Z" fill="black"/>
<path d="M120 88H56" stroke="#FF0202" stroke-linecap="round"/>
<path d="M62.9282 84L56 88L62.9282 92" stroke="#FF0202" stroke-linecap="round"/>
<path d="M113 92L119.928 88L113 84" stroke="#FF0202" stroke-linecap="round"/>
</g>
<defs>
<filter id="filter0_d_144_139" x="90" y="39.75" width="66" height="8.5" filterUnits="userSpaceOnUse" color-interpolation-filters="sRGB">
<feFlood flood-opacity="0" result="BackgroundImageFix"/>
<feColorMatrix in="SourceAlpha" type="matrix" values="0 0 0 0 0 0 0 0 0 0 0 0 0 0 0 0 0 0 127 0" result="hardAlpha"/>
<feOffset dy="4"/>
<feGaussianBlur stdDeviation="2"/>
<feComposite in2="hardAlpha" operator="out"/>
<feColorMatrix type="matrix" values="0 0 0 0 0 0 0 0 0 0 0 0 0 0 0 0 0 0 0.25 0"/>
<feBlend mode="normal" in2="BackgroundImageFix" result="effect1_dropShadow_144_139"/>
<feBlend mode="normal" in="SourceGraphic" in2="effect1_dropShadow_144_139" result="shape"/>
</filter>
<filter id="filter1_d_144_139" x="90" y="39.75" width="84" height="15" filterUnits="userSpaceOnUse" color-interpolation-filters="sRGB">
<feFlood flood-opacity="0" result="BackgroundImageFix"/>
<feColorMatrix in="SourceAlpha" type="matrix" values="0 0 0 0 0 0 0 0 0 0 0 0 0 0 0 0 0 0 127 0" result="hardAlpha"/>
<feOffset dy="4"/>
<feGaussianBlur stdDeviation="2"/>
<feComposite in2="hardAlpha" operator="out"/>
<feColorMatrix type="matrix" values="0 0 0 0 0 0 0 0 0 0 0 0 0 0 0 0 0 0 0.25 0"/>
<feBlend mode="normal" in2="BackgroundImageFix" result="effect1_dropShadow_144_139"/>
<feBlend mode="normal" in="SourceGraphic" in2="effect1_dropShadow_144_139" result="shape"/>
</filter>
<clipPath id="clip0_144_139">
<rect width="200" height="200" fill="white"/>
</clipPath>
</defs>
</svg>
