<svg width="200" height="200" viewBox="0 0 200 200" fill="none" xmlns="http://www.w3.org/2000/svg">
<g clip-path="url(#clip0_149_403)">
<rect width="200" height="200" fill="white"/>
<path d="M62.8267 151.41L62.3361 151.313L62.241 151.794L62.7206 151.898L62.8267 151.41ZM65.1393 99.0553C65.1246 98.7796 64.8891 98.568 64.6133 98.5827C64.3376 98.5974 64.126 98.8329 64.1407 99.1086L65.1393 99.0553ZM69.1733 44L69.4151 43.5623L69.1939 43.4401L68.9643 43.5458L69.1733 44ZM56.48 59.6066L56.7647 59.1956L56.452 58.9789L56.1598 59.2225L56.48 59.6066ZM36.5333 133.967L37.0274 134.044L36.5333 133.967ZM32 153.246L31.5699 152.991L31.1556 153.69L31.9663 153.745L32 153.246ZM59.2 155.082L59.1663 155.581L59.5821 155.609L59.6846 155.205L59.2 155.082ZM72.2491 50.7776C72.4431 50.5811 72.4412 50.2645 72.2447 50.0705C72.0482 49.8764 71.7316 49.8784 71.5376 50.0749L72.2491 50.7776ZM62.3662 63.0838C62.2586 63.3381 62.3775 63.6315 62.6318 63.7391C62.8861 63.8468 63.1795 63.7279 63.2871 63.4736L62.3662 63.0838ZM78.6323 54.4083C78.8035 54.1917 78.7666 53.8772 78.55 53.706C78.3333 53.5348 78.0189 53.5717 77.8477 53.7884L78.6323 54.4083ZM72.335 68.0526C72.4364 68.3094 72.7269 68.4353 72.9837 68.3339C73.2405 68.2324 73.3665 67.942 73.265 67.6851L72.335 68.0526ZM87.7243 58.0455C87.8761 57.8148 87.8123 57.5047 87.5816 57.3529C87.351 57.201 87.0409 57.2649 86.8891 57.4955L87.7243 58.0455ZM84.0867 70.623C84.0867 70.8991 84.3105 71.123 84.5867 71.123C84.8628 71.123 85.0867 70.8991 85.0867 70.623H84.0867ZM137.173 151.41L137.279 151.898L137.759 151.794L137.664 151.313L137.173 151.41ZM135.859 99.1086C135.874 98.8329 135.662 98.5974 135.387 98.5827C135.111 98.568 134.875 98.7796 134.861 99.0553L135.859 99.1086ZM130.827 44L131.036 43.5458L130.806 43.4401L130.585 43.5623L130.827 44ZM143.52 59.6066L143.84 59.2225L143.548 58.9789L143.235 59.1956L143.52 59.6066ZM163.467 133.967L162.973 134.044L163.467 133.967ZM168 153.246L168.034 153.745L168.844 153.69L168.43 152.991L168 153.246ZM140.8 155.082L140.315 155.205L140.418 155.609L140.834 155.581L140.8 155.082ZM128.462 50.0749C128.268 49.8784 127.952 49.8764 127.755 50.0705C127.559 50.2645 127.557 50.5811 127.751 50.7776L128.462 50.0749ZM136.713 63.4736C136.821 63.7279 137.114 63.8468 137.368 63.7391C137.623 63.6315 137.741 63.3381 137.634 63.0838L136.713 63.4736ZM122.152 53.7884C121.981 53.5717 121.667 53.5348 121.45 53.706C121.233 53.8772 121.196 54.1917 121.368 54.4083L122.152 53.7884ZM126.735 67.6851C126.634 67.942 126.759 68.2324 127.016 68.3339C127.273 68.4353 127.564 68.3094 127.665 68.0526L126.735 67.6851ZM113.111 57.4955C112.959 57.2649 112.649 57.201 112.418 57.3529C112.188 57.5047 112.124 57.8148 112.276 58.0455L113.111 57.4955ZM114.913 70.623C114.913 70.8991 115.137 71.123 115.413 71.123C115.689 71.123 115.913 70.8991 115.913 70.623H114.913ZM62.8267 151.41L63.3172 151.507C65.6677 139.607 65.8044 120.162 65.4541 107.157L64.9543 107.171L64.4545 107.184C64.8049 120.194 64.6625 139.535 62.3361 151.313L62.8267 151.41ZM64.9543 107.171L65.4541 107.157C65.3697 104.022 65.2568 101.257 65.1393 99.0553L64.64 99.082L64.1407 99.1086C64.2577 101.3 64.3703 104.057 64.4545 107.184L64.9543 107.171ZM69.1733 44L68.9643 43.5458C67.9846 43.9967 67.0655 44.5153 66.2044 45.0841L66.4799 45.5013L66.7555 45.9185C67.5767 45.376 68.4516 44.8826 69.3824 44.4542L69.1733 44ZM66.4799 45.5013L66.2044 45.0841C62.1433 47.7665 59.3688 51.5683 57.6132 54.6793C56.7338 56.2375 56.1061 57.6296 55.6976 58.6337C55.4933 59.1359 55.3436 59.5416 55.2446 59.8231C55.1951 59.9639 55.1582 60.0737 55.1335 60.149C55.1211 60.1866 55.1118 60.2156 55.1055 60.2356C55.1023 60.2456 55.0999 60.2534 55.0982 60.2588C55.0973 60.2615 55.0967 60.2637 55.0962 60.2652C55.096 60.266 55.0958 60.2666 55.0956 60.2671C55.0955 60.2673 55.0955 60.2676 55.0954 60.2677C55.0954 60.2679 55.0953 60.2681 55.5733 60.4147C56.0514 60.5613 56.0513 60.5614 56.0513 60.5615C56.0513 60.5615 56.0513 60.5615 56.0513 60.5614C56.0514 60.5613 56.0514 60.5611 56.0516 60.5607C56.0518 60.5599 56.0522 60.5585 56.0528 60.5565C56.0541 60.5526 56.056 60.5464 56.0587 60.538C56.064 60.5211 56.0723 60.4952 56.0836 60.4607C56.1063 60.3919 56.1409 60.2888 56.1879 60.1549C56.2821 59.8872 56.4261 59.4966 56.6239 59.0105C57.0195 58.038 57.6294 56.6853 58.4841 55.1708C60.1964 52.1364 62.8751 48.4815 66.7555 45.9185L66.4799 45.5013ZM69.1733 44L68.9316 44.4377C79.0136 50.0059 87.2734 50.9262 100 50.9262V50.4262V49.9262C87.3399 49.9262 79.2797 49.0105 69.4151 43.5623L69.1733 44ZM62.8267 151.41L62.7206 151.898C75.4122 154.652 79.9935 156.5 100 156.5V156V155.5C80.1132 155.5 75.6278 153.676 62.9327 150.921L62.8267 151.41ZM56.48 59.6066L56.1598 59.2225C52.2081 62.5176 49.1489 67.8921 46.7354 74.2761C44.318 80.6703 42.528 88.1334 41.1475 95.6639C39.7666 103.197 38.7928 110.812 38.0126 117.514C37.231 124.227 36.6457 130.001 36.0393 133.89L36.5333 133.967L37.0274 134.044C37.6378 130.13 38.2276 124.314 39.0059 117.63C39.7854 110.934 40.7562 103.344 42.1311 95.8443C43.5064 88.342 45.2834 80.9445 47.6708 74.6297C50.062 68.3046 53.0452 63.1217 56.8002 59.9906L56.48 59.6066ZM36.5333 133.967L36.0393 133.89C34.215 145.589 34.2263 148.508 31.5699 152.991L32 153.246L32.4301 153.501C35.2137 148.803 35.225 145.602 37.0274 134.044L36.5333 133.967ZM66.4533 45.4735L66.0921 45.8192L66.1187 45.847L66.4799 45.5013L66.8411 45.1555L66.8145 45.1277L66.4533 45.4735ZM66.4799 45.5013L66.1189 45.8471C77.1345 57.346 91.7914 59.1885 100 59.1885V58.6885V58.1885C91.9019 58.1885 77.5794 56.3649 66.841 45.1554L66.4799 45.5013ZM56.48 59.6066L56.1953 60.0176C73.5442 72.0367 89.985 72.959 100 72.959V72.459V71.959C90.0683 71.959 73.8691 71.0453 56.7647 59.1956L56.48 59.6066ZM59.2 155.082L59.6846 155.205C64.292 137.063 65.729 122.415 65.4542 107.162L64.9543 107.171L64.4544 107.18C64.7276 122.345 63.3005 136.904 58.7154 154.959L59.2 155.082ZM64.9543 107.171L65.4542 107.162C65.2414 95.343 64.0007 83.1643 62.417 68.7323L61.92 68.7869L61.423 68.8414C63.0071 83.2768 64.2424 95.4128 64.4544 107.18L64.9543 107.171ZM71.8933 50.4262L71.5376 50.0749C66.4126 55.2641 63.2957 60.8877 62.3662 63.0838L62.8267 63.2787L63.2871 63.4736C64.1709 61.3855 67.2194 55.8703 72.2491 50.7776L71.8933 50.4262ZM78.24 54.0984L77.8477 53.7884C74.9158 57.4991 73.3709 60.6139 72.639 63.0183C71.9132 65.4027 71.9736 67.1378 72.335 68.0526L72.8 67.8689L73.265 67.6851C73.0219 67.0698 72.901 65.5919 73.5957 63.3095C74.2842 61.0473 75.7615 58.0419 78.6323 54.4083L78.24 54.0984ZM87.3067 57.7705L86.8891 57.4955C85.0399 60.304 84.3271 62.4429 84.09 64.4833C83.9725 65.4947 83.9733 66.4699 84.0019 67.4672C84.0307 68.4738 84.0867 69.4844 84.0867 70.623H84.5867H85.0867C85.0867 69.4665 85.0293 68.4114 85.0015 67.4386C84.9733 66.4564 84.9742 65.5381 85.0833 64.5987C85.2996 62.7375 85.9467 60.7452 87.7243 58.0455L87.3067 57.7705ZM32 153.246L31.9663 153.745L59.1663 155.581L59.2 155.082L59.2337 154.583L32.0337 152.747L32 153.246ZM137.173 151.41L137.664 151.313C135.338 139.535 135.195 120.194 135.546 107.184L135.046 107.171L134.546 107.157C134.196 120.162 134.332 139.607 136.683 151.507L137.173 151.41ZM135.046 107.171L135.546 107.184C135.63 104.057 135.742 101.3 135.859 99.1086L135.36 99.082L134.861 99.0553C134.743 101.257 134.63 104.022 134.546 107.157L135.046 107.171ZM130.827 44L130.618 44.4542C131.548 44.8826 132.423 45.376 133.244 45.9185L133.52 45.5013L133.796 45.0841C132.935 44.5153 132.015 43.9967 131.036 43.5458L130.827 44ZM133.52 45.5013L133.244 45.9185C137.125 48.4815 139.804 52.1364 141.516 55.1708C142.371 56.6853 142.98 58.038 143.376 59.0105C143.574 59.4966 143.718 59.8872 143.812 60.1549C143.859 60.2888 143.894 60.3919 143.916 60.4607C143.928 60.4952 143.936 60.5211 143.941 60.538C143.944 60.5464 143.946 60.5526 143.947 60.5565C143.948 60.5585 143.948 60.5599 143.948 60.5607C143.949 60.5611 143.949 60.5613 143.949 60.5614C143.949 60.5615 143.949 60.5615 143.949 60.5615C143.949 60.5614 143.949 60.5613 144.427 60.4147C144.905 60.2681 144.905 60.2679 144.905 60.2677C144.905 60.2676 144.904 60.2673 144.904 60.2671C144.904 60.2666 144.904 60.266 144.904 60.2652C144.903 60.2637 144.903 60.2615 144.902 60.2588C144.9 60.2534 144.898 60.2456 144.895 60.2356C144.888 60.2156 144.879 60.1866 144.867 60.149C144.842 60.0737 144.805 59.9639 144.755 59.8231C144.656 59.5416 144.507 59.1359 144.302 58.6337C143.894 57.6296 143.266 56.2375 142.387 54.6793C140.631 51.5683 137.857 47.7665 133.796 45.0841L133.52 45.5013ZM130.827 44L130.585 43.5623C120.72 49.0105 112.66 49.9262 100 49.9262V50.4262V50.9262C112.727 50.9262 120.986 50.0059 131.068 44.4377L130.827 44ZM137.173 151.41L137.067 150.921C124.372 153.676 119.887 155.5 100 155.5V156V156.5C120.007 156.5 124.588 154.652 137.279 151.898L137.173 151.41ZM143.52 59.6066L143.2 59.9906C146.955 63.1217 149.938 68.3046 152.329 74.6297C154.717 80.9445 156.494 88.342 157.869 95.8442C159.244 103.344 160.215 110.934 160.994 117.63C161.772 124.314 162.362 130.13 162.973 134.044L163.467 133.967L163.961 133.89C163.354 130.001 162.769 124.227 161.987 117.514C161.207 110.812 160.233 103.197 158.853 95.6639C157.472 88.1334 155.682 80.6703 153.265 74.2761C150.851 67.8921 147.792 62.5176 143.84 59.2225L143.52 59.6066ZM163.467 133.967L162.973 134.044C164.775 145.602 164.786 148.803 167.57 153.501L168 153.246L168.43 152.991C165.774 148.508 165.785 145.589 163.961 133.89L163.467 133.967ZM133.547 45.4735L133.185 45.1277L133.159 45.1555L133.52 45.5013L133.881 45.847L133.908 45.8192L133.547 45.4735ZM133.52 45.5013L133.159 45.1554C122.421 56.3649 108.098 58.1885 100 58.1885V58.6885V59.1885C108.209 59.1885 122.866 57.346 133.881 45.8471L133.52 45.5013ZM143.52 59.6066L143.235 59.1956C126.131 71.0453 109.932 71.959 100 71.959V72.459V72.959C110.015 72.959 126.456 72.0367 143.805 60.0176L143.52 59.6066ZM140.8 155.082L141.285 154.959C136.699 136.904 135.272 122.345 135.546 107.18L135.046 107.171L134.546 107.162C134.271 122.415 135.708 137.063 140.315 155.205L140.8 155.082ZM135.046 107.171L135.546 107.18C135.758 95.4128 136.993 83.2768 138.577 68.8414L138.08 68.7869L137.583 68.7323C135.999 83.1643 134.759 95.343 134.546 107.162L135.046 107.171ZM128.107 50.4262L127.751 50.7776C132.781 55.8703 135.829 61.3855 136.713 63.4736L137.173 63.2787L137.634 63.0838C136.704 60.8877 133.587 55.2641 128.462 50.0749L128.107 50.4262ZM121.76 54.0984L121.368 54.4083C124.239 58.0419 125.716 61.0473 126.404 63.3095C127.099 65.5919 126.978 67.0698 126.735 67.6851L127.2 67.8689L127.665 68.0526C128.026 67.1378 128.087 65.4027 127.361 63.0183C126.629 60.6139 125.084 57.4991 122.152 53.7884L121.76 54.0984ZM112.693 57.7705L112.276 58.0455C114.053 60.7452 114.7 62.7375 114.917 64.5987C115.026 65.5381 115.027 66.4564 114.999 67.4386C114.971 68.4114 114.913 69.4665 114.913 70.623H115.413H115.913C115.913 69.4844 115.969 68.4738 115.998 67.4672C116.027 66.4699 116.028 65.4947 115.91 64.4833C115.673 62.4429 114.96 60.304 113.111 57.4955L112.693 57.7705ZM168 153.246L167.966 152.747L140.766 154.583L140.8 155.082L140.834 155.581L168.034 153.745L168 153.246Z" fill="black"/>
<path d="M21 143C21.3592 145.167 23.062 151.6 23 152C25.4337 136.393 36.5 54.5 63.5 39.5L54 40.5" stroke="#FF0000" stroke-linecap="round"/>
<path d="M91.4 23.41H92.59V25.33C92.59 25.7167 92.57 26.1467 92.53 26.62C92.4967 27.0867 92.43 27.5633 92.33 28.05C92.2367 28.5367 92.1 29.01 91.92 29.47C91.74 29.93 91.5033 30.3467 91.21 30.72C91.1367 30.6533 91.0367 30.5733 90.91 30.48C90.79 30.3933 90.6633 30.31 90.53 30.23C90.3967 30.15 90.28 30.09 90.18 30.05C90.46 29.71 90.68 29.34 90.84 28.94C91.0067 28.5333 91.13 28.1167 91.21 27.69C91.29 27.2633 91.34 26.8467 91.36 26.44C91.3867 26.0333 91.4 25.6567 91.4 25.31V23.41ZM92.06 23.41H98.65V25.73H92.06V24.86H97.47V24.29H92.06V23.41ZM90.78 21.94H99.23V22.99H90.78V21.94ZM92.83 26.13H98.11V26.97H93.99V30.91H92.83V26.13ZM97.58 26.13H98.77V29.8C98.77 30.0667 98.73 30.2733 98.65 30.42C98.5767 30.5667 98.4433 30.68 98.25 30.76C98.0633 30.8333 97.83 30.8767 97.55 30.89C97.27 30.9033 96.94 30.91 96.56 30.91C96.54 30.7633 96.4967 30.6 96.43 30.42C96.3633 30.24 96.2933 30.0833 96.22 29.95C96.3733 29.9567 96.5267 29.9633 96.68 29.97C96.84 29.97 96.9833 29.97 97.11 29.97C97.2433 29.9633 97.33 29.96 97.37 29.96C97.4433 29.96 97.4967 29.95 97.53 29.93C97.5633 29.9033 97.58 29.8567 97.58 29.79V26.13ZM93.39 27.41H98.16V28.16H93.39V27.41ZM93.39 28.61H98.16V29.42H93.39V28.61ZM101.8 21.51H102.81V30.9H101.8V21.51ZM100.49 23.35H103.68V24.4H101.37V28.82H100.49V23.35ZM103.26 23.35H104.11V27.63C104.11 27.81 104.093 27.9767 104.06 28.13C104.033 28.2833 103.967 28.4033 103.86 28.49C103.753 28.5767 103.64 28.6333 103.52 28.66C103.4 28.6867 103.25 28.7 103.07 28.7C103.063 28.5533 103.033 28.3833 102.98 28.19C102.927 27.9967 102.867 27.8333 102.8 27.7C102.887 27.7 102.963 27.7 103.03 27.7C103.103 27.7 103.153 27.7 103.18 27.7C103.233 27.7 103.26 27.6667 103.26 27.6V23.35ZM104.38 21.93H109.54V22.9H104.38V21.93ZM105.82 24.29V25.04H108.09V24.29H105.82ZM104.81 23.4H109.15V25.91H104.81V23.4ZM104.87 28.04H109.12V28.95H104.87V28.04ZM104.85 29.65H109.13V30.58H104.85V29.65ZM104.38 26.43H109.5V30.87H108.39V27.36H105.44V30.88H104.38V26.43ZM106.38 26.9H107.39V30.3H106.38V26.9Z" fill="black"/>
<path d="M18.34 77.58H23.45V84.83H22.29V78.66H19.44V84.89H18.34V77.58ZM18.93 83.25H22.92V84.36H18.93V83.25ZM18.93 80.39H22.92V81.48H18.93V80.39ZM20.28 75.51H21.42V83.98H20.28V75.51ZM15.63 80.79L16.78 79.43V84.9H15.63V80.79ZM14.45 77.29H17.26V78.36H14.45V77.29ZM15.62 75.56H16.77V77.92H15.62V75.56ZM16.69 79.83C16.7633 79.8967 16.87 80.0067 17.01 80.16C17.15 80.3067 17.2967 80.47 17.45 80.65C17.61 80.83 17.7567 80.9967 17.89 81.15C18.0233 81.2967 18.1167 81.4067 18.17 81.48L17.48 82.29C17.4 82.1567 17.2967 82.0033 17.17 81.83C17.05 81.65 16.9233 81.4667 16.79 81.28C16.6567 81.0867 16.5233 80.91 16.39 80.75C16.2633 80.5833 16.1567 80.4433 16.07 80.33L16.69 79.83ZM16.92 77.29H17.15L17.35 77.25L17.98 77.66C17.7667 78.3133 17.4867 78.95 17.14 79.57C16.7933 80.1833 16.4133 80.7467 16 81.26C15.5867 81.7733 15.1667 82.2033 14.74 82.55C14.7067 82.4433 14.6567 82.3167 14.59 82.17C14.5233 82.0233 14.45 81.8833 14.37 81.75C14.2967 81.6167 14.23 81.5133 14.17 81.44C14.55 81.16 14.92 80.81 15.28 80.39C15.64 79.9633 15.9633 79.5033 16.25 79.01C16.5433 78.51 16.7667 78.0133 16.92 77.52V77.29ZM17.77 79.31L18.48 79.84C18.2933 80.0667 18.1033 80.3 17.91 80.54C17.7233 80.78 17.55 80.9833 17.39 81.15L16.83 80.71C16.9767 80.5233 17.14 80.3 17.32 80.04C17.5067 79.7733 17.6567 79.53 17.77 79.31ZM24.57 77.31H33.45V78.48H24.57V77.31ZM26.82 78.8C27.0933 79.7933 27.5 80.6333 28.04 81.32C28.5867 82 29.3067 82.5367 30.2 82.93C31.1 83.3233 32.22 83.59 33.56 83.73C33.4733 83.8167 33.3833 83.93 33.29 84.07C33.1967 84.21 33.11 84.35 33.03 84.49C32.95 84.63 32.8833 84.76 32.83 84.88C31.77 84.74 30.85 84.5233 30.07 84.23C29.29 83.9367 28.62 83.5533 28.06 83.08C27.5067 82.6067 27.0367 82.04 26.65 81.38C26.27 80.7133 25.9467 79.9433 25.68 79.07L26.82 78.8ZM29.41 75.67H30.74C30.7333 76.4633 30.7167 77.2133 30.69 77.92C30.67 78.62 30.61 79.2767 30.51 79.89C30.41 80.4967 30.2467 81.0533 30.02 81.56C29.8 82.0667 29.49 82.5267 29.09 82.94C28.69 83.3467 28.1733 83.7033 27.54 84.01C26.9133 84.3233 26.1367 84.5833 25.21 84.79C25.1767 84.6833 25.12 84.5633 25.04 84.43C24.9667 84.3033 24.8833 84.1767 24.79 84.05C24.6967 83.9233 24.6067 83.8167 24.52 83.73C25.3733 83.5567 26.0867 83.34 26.66 83.08C27.24 82.82 27.7067 82.52 28.06 82.18C28.42 81.8333 28.69 81.44 28.87 81C29.0567 80.56 29.1867 80.0733 29.26 79.54C29.3333 79 29.3767 78.41 29.39 77.77C29.4033 77.1233 29.41 76.4233 29.41 75.67Z" fill="black"/>
<path d="M129 34L70 34" stroke="#FF0202" stroke-linecap="round"/>
<path d="M76.9282 30L70 34L76.9282 38" stroke="#FF0202" stroke-linecap="round"/>
<path d="M131 44V28" stroke="#FF0000" stroke-width="0.5" stroke-linecap="round" stroke-dasharray="2 2"/>
<path d="M69 44V28" stroke="#FF0000" stroke-width="0.5" stroke-linecap="round" stroke-dasharray="2 2"/>
<path d="M69 44L58 34" stroke="#FF0000" stroke-width="0.5" stroke-linecap="round" stroke-dasharray="2 2"/>
<path d="M32 153L20 152" stroke="#FF0000" stroke-width="0.5" stroke-linecap="round" stroke-dasharray="2 2"/>
<path d="M123 30L129.928 34L123 38" stroke="#FF0202" stroke-linecap="round"/>
<path d="M168 57.9282L172 51L176 57.9282" stroke="#FF0202" stroke-linecap="round"/>
<path d="M176 148L172 154.928L168 148" stroke="#FF0202" stroke-linecap="round"/>
<path d="M172 155V51" stroke="#FF0202" stroke-linecap="round"/>
<path d="M102 156L184 156" stroke="#FF0000" stroke-width="0.5" stroke-dasharray="1 1"/>
<path d="M102 50H173" stroke="#FF0000" stroke-width="0.5" stroke-dasharray="1 1"/>
<path d="M174.02 96.48H182.04V97.41H174.02V96.48ZM174.52 97.84H181.52V98.71H174.52V97.84ZM176.29 101.68H180.82V102.34H176.29V101.68ZM176.29 102.7H180.82V103.37H176.29V102.7ZM176.28 103.74H180.94V104.59H176.28V103.74ZM173.57 99.13H182.43V100.07H173.57V99.13ZM177.37 97.16H178.6V99.88H177.37V97.16ZM175.26 95.82L176.33 95.48C176.463 95.6267 176.59 95.7933 176.71 95.98C176.83 96.16 176.917 96.3233 176.97 96.47L175.86 96.88C175.813 96.7333 175.733 96.56 175.62 96.36C175.507 96.16 175.387 95.98 175.26 95.82ZM179.58 95.47L180.89 95.8C180.737 95.9933 180.587 96.1767 180.44 96.35C180.3 96.5167 180.177 96.66 180.07 96.78L179.05 96.47C179.143 96.3167 179.24 96.15 179.34 95.97C179.447 95.7833 179.527 95.6167 179.58 95.47ZM175.68 99.58L176.87 99.87C176.583 100.683 176.197 101.427 175.71 102.1C175.223 102.767 174.683 103.317 174.09 103.75C174.03 103.67 173.943 103.573 173.83 103.46C173.723 103.347 173.61 103.233 173.49 103.12C173.377 103.007 173.277 102.917 173.19 102.85C173.757 102.49 174.257 102.027 174.69 101.46C175.123 100.887 175.453 100.26 175.68 99.58ZM175.63 100.47H181.58V104.88H180.32V101.32H176.82V104.88H175.63V100.47ZM183.57 97.31H192.45V98.48H183.57V97.31ZM185.82 98.8C186.093 99.7933 186.5 100.633 187.04 101.32C187.587 102 188.307 102.537 189.2 102.93C190.1 103.323 191.22 103.59 192.56 103.73C192.473 103.817 192.383 103.93 192.29 104.07C192.197 104.21 192.11 104.35 192.03 104.49C191.95 104.63 191.883 104.76 191.83 104.88C190.77 104.74 189.85 104.523 189.07 104.23C188.29 103.937 187.62 103.553 187.06 103.08C186.507 102.607 186.037 102.04 185.65 101.38C185.27 100.713 184.947 99.9433 184.68 99.07L185.82 98.8ZM188.41 95.67H189.74C189.733 96.4633 189.717 97.2133 189.69 97.92C189.67 98.62 189.61 99.2767 189.51 99.89C189.41 100.497 189.247 101.053 189.02 101.56C188.8 102.067 188.49 102.527 188.09 102.94C187.69 103.347 187.173 103.703 186.54 104.01C185.913 104.323 185.137 104.583 184.21 104.79C184.177 104.683 184.12 104.563 184.04 104.43C183.967 104.303 183.883 104.177 183.79 104.05C183.697 103.923 183.607 103.817 183.52 103.73C184.373 103.557 185.087 103.34 185.66 103.08C186.24 102.82 186.707 102.52 187.06 102.18C187.42 101.833 187.69 101.44 187.87 101C188.057 100.56 188.187 100.073 188.26 99.54C188.333 99 188.377 98.41 188.39 97.77C188.403 97.1233 188.41 96.4233 188.41 95.67Z" fill="black"/>
<path d="M92.75 82.07H97.2V82.93H92.75V82.07ZM92.75 83.53H97.2V84.4H92.75V83.53ZM96.66 80.46H97.91V87.43C97.91 87.7767 97.87 88.0433 97.79 88.23C97.71 88.4233 97.5567 88.5733 97.33 88.68C97.11 88.78 96.8333 88.8433 96.5 88.87C96.1667 88.8967 95.76 88.9067 95.28 88.9C95.26 88.78 95.2267 88.6433 95.18 88.49C95.14 88.3367 95.09 88.1833 95.03 88.03C94.9767 87.8833 94.92 87.7533 94.86 87.64C95.0667 87.6533 95.2733 87.6633 95.48 87.67C95.6933 87.67 95.88 87.67 96.04 87.67C96.2067 87.6633 96.3267 87.66 96.4 87.66C96.4933 87.66 96.56 87.6433 96.6 87.61C96.64 87.5767 96.66 87.5133 96.66 87.42V80.46ZM90.5 85.19C91.0467 85.1633 91.6867 85.1333 92.42 85.1C93.16 85.0667 93.9433 85.0267 94.77 84.98C95.6033 84.9333 96.4267 84.8867 97.24 84.84L97.23 85.86C96.4567 85.9267 95.6767 85.9933 94.89 86.06C94.1033 86.12 93.3467 86.1767 92.62 86.23C91.9 86.2833 91.25 86.33 90.67 86.37L90.5 85.19ZM98.41 82.51L99.58 83.07C98.96 84.03 98.2133 84.88 97.34 85.62C96.4733 86.3533 95.5167 86.9867 94.47 87.52C93.4233 88.0467 92.3233 88.48 91.17 88.82C91.1167 88.72 91.04 88.6 90.94 88.46C90.84 88.3267 90.7367 88.1933 90.63 88.06C90.53 87.9267 90.4367 87.8133 90.35 87.72C91.5167 87.4267 92.61 87.0433 93.63 86.57C94.65 86.09 95.5667 85.5133 96.38 84.84C97.1933 84.16 97.87 83.3833 98.41 82.51ZM94.38 79.47L95.86 79.63C95.7067 79.9367 95.54 80.2367 95.36 80.53C95.1867 80.8233 95.0267 81.07 94.88 81.27L93.81 81.05C93.9233 80.8167 94.0333 80.5567 94.14 80.27C94.2467 79.9767 94.3267 79.71 94.38 79.47ZM91.98 80.46H97.06V81.49H93.19V85.73H91.98V80.46ZM101.8 79.51H102.81V88.9H101.8V79.51ZM100.49 81.35H103.68V82.4H101.37V86.82H100.49V81.35ZM103.26 81.35H104.11V85.63C104.11 85.81 104.093 85.9767 104.06 86.13C104.033 86.2833 103.967 86.4033 103.86 86.49C103.753 86.5767 103.64 86.6333 103.52 86.66C103.4 86.6867 103.25 86.7 103.07 86.7C103.063 86.5533 103.033 86.3833 102.98 86.19C102.927 85.9967 102.867 85.8333 102.8 85.7C102.887 85.7 102.963 85.7 103.03 85.7C103.103 85.7 103.153 85.7 103.18 85.7C103.233 85.7 103.26 85.6667 103.26 85.6V81.35ZM104.38 79.93H109.54V80.9H104.38V79.93ZM105.82 82.29V83.04H108.09V82.29H105.82ZM104.81 81.4H109.15V83.91H104.81V81.4ZM104.87 86.04H109.12V86.95H104.87V86.04ZM104.85 87.65H109.13V88.58H104.85V87.65ZM104.38 84.43H109.5V88.87H108.39V85.36H105.44V88.88H104.38V84.43ZM106.38 84.9H107.39V88.3H106.38V84.9Z" fill="black"/>
<path d="M135 92L65 92" stroke="#FF0202" stroke-linecap="round"/>
<path d="M70.9282 88L64 92L70.9282 96" stroke="#FF0202" stroke-linecap="round"/>
<path d="M129 96L135.928 92L129 88" stroke="#FF0202" stroke-linecap="round"/>
</g>
<defs>
<clipPath id="clip0_149_403">
<rect width="200" height="200" fill="white"/>
</clipPath>
</defs>
</svg>
