<svg width="200" height="200" viewBox="0 0 200 200" fill="none" xmlns="http://www.w3.org/2000/svg">
<g clip-path="url(#clip0_142_44)">
<rect width="200" height="200" fill="white"/>
<path d="M81.6 43L74.6667 44.0751M81.6 43C84.2667 50.5546 88.5 52.2866 96 52.5C103.5 52.2866 107.733 50.5546 110.4 43M81.6 43C82 52 88 55 96 55C104 55 110 52 110.4 43M74.6667 44.0751C72.5334 44.6126 70.9334 46.2253 69.8667 47.8379L59.7334 61.8142C61.6562 65.1364 63.2959 67.0328 65.6 68.0908M74.6667 44.0751L74.6667 69.3399M74.6667 69.3399V83.3162M74.6667 69.3399C70.5282 69.3399 67.7696 69.0871 65.6 68.0908M74.6667 83.3162L56 169.862C66.6666 176.312 85.045 179 95.9999 179C106.955 179 125.333 176.312 136 169.862L117.333 83.3162M74.6667 83.3162C84.1818 88.5 96 88.5 96 88.5C96 88.5 107.818 88.5 117.333 83.3162M65.6 68.0908C70.4 66.6522 71.4666 57.5138 71.4666 53.2134C71.4666 49.7731 72.5333 48.913 73.0666 48.913M110.4 43L117.333 44.0751M117.333 44.0751C119.467 44.6126 121.067 46.2253 122.133 47.8379L132.267 61.8142C130.344 65.1364 128.704 67.0328 126.4 68.0908M117.333 44.0751L117.333 69.3399M117.333 69.3399V83.3162M117.333 69.3399C121.472 69.3399 124.23 69.0871 126.4 68.0908M126.4 68.0908C121.6 66.6522 120.533 57.5138 120.533 53.2134C120.533 49.7731 119.467 48.913 118.933 48.913" stroke="black"/>
<path d="M88.75 65.07H93.2V65.93H88.75V65.07ZM88.75 66.53H93.2V67.4H88.75V66.53ZM92.66 63.46H93.91V70.43C93.91 70.7767 93.87 71.0433 93.79 71.23C93.71 71.4233 93.5567 71.5733 93.33 71.68C93.11 71.78 92.8333 71.8433 92.5 71.87C92.1667 71.8967 91.76 71.9067 91.28 71.9C91.26 71.78 91.2267 71.6433 91.18 71.49C91.14 71.3367 91.09 71.1833 91.03 71.03C90.9767 70.8833 90.92 70.7533 90.86 70.64C91.0667 70.6533 91.2733 70.6633 91.48 70.67C91.6933 70.67 91.88 70.67 92.04 70.67C92.2067 70.6633 92.3267 70.66 92.4 70.66C92.4933 70.66 92.56 70.6433 92.6 70.61C92.64 70.5767 92.66 70.5133 92.66 70.42V63.46ZM86.5 68.19C87.0467 68.1633 87.6867 68.1333 88.42 68.1C89.16 68.0667 89.9433 68.0267 90.77 67.98C91.6033 67.9333 92.4267 67.8867 93.24 67.84L93.23 68.86C92.4567 68.9267 91.6767 68.9933 90.89 69.06C90.1033 69.12 89.3467 69.1767 88.62 69.23C87.9 69.2833 87.25 69.33 86.67 69.37L86.5 68.19ZM94.41 65.51L95.58 66.07C94.96 67.03 94.2133 67.88 93.34 68.62C92.4733 69.3533 91.5167 69.9867 90.47 70.52C89.4233 71.0467 88.3233 71.48 87.17 71.82C87.1167 71.72 87.04 71.6 86.94 71.46C86.84 71.3267 86.7367 71.1933 86.63 71.06C86.53 70.9267 86.4367 70.8133 86.35 70.72C87.5167 70.4267 88.61 70.0433 89.63 69.57C90.65 69.09 91.5667 68.5133 92.38 67.84C93.1933 67.16 93.87 66.3833 94.41 65.51ZM90.38 62.47L91.86 62.63C91.7067 62.9367 91.54 63.2367 91.36 63.53C91.1867 63.8233 91.0267 64.07 90.88 64.27L89.81 64.05C89.9233 63.8167 90.0333 63.5567 90.14 63.27C90.2467 62.9767 90.3267 62.71 90.38 62.47ZM87.98 63.46H93.06V64.49H89.19V68.73H87.98V63.46ZM97.8 62.51H98.81V71.9H97.8V62.51ZM96.49 64.35H99.68V65.4H97.37V69.82H96.49V64.35ZM99.26 64.35H100.11V68.63C100.11 68.81 100.093 68.9767 100.06 69.13C100.033 69.2833 99.9667 69.4033 99.86 69.49C99.7533 69.5767 99.64 69.6333 99.52 69.66C99.4 69.6867 99.25 69.7 99.07 69.7C99.0633 69.5533 99.0333 69.3833 98.98 69.19C98.9267 68.9967 98.8667 68.8333 98.8 68.7C98.8867 68.7 98.9633 68.7 99.03 68.7C99.1033 68.7 99.1533 68.7 99.18 68.7C99.2333 68.7 99.26 68.6667 99.26 68.6V64.35ZM100.38 62.93H105.54V63.9H100.38V62.93ZM101.82 65.29V66.04H104.09V65.29H101.82ZM100.81 64.4H105.15V66.91H100.81V64.4ZM100.87 69.04H105.12V69.95H100.87V69.04ZM100.85 70.65H105.13V71.58H100.85V70.65ZM100.38 67.43H105.5V71.87H104.39V68.36H101.44V71.88H100.38V67.43ZM102.38 67.9H103.39V71.3H102.38V67.9Z" fill="black"/>
<path d="M87.4 26.41H88.59V28.33C88.59 28.7167 88.57 29.1467 88.53 29.62C88.4967 30.0867 88.43 30.5633 88.33 31.05C88.2367 31.5367 88.1 32.01 87.92 32.47C87.74 32.93 87.5033 33.3467 87.21 33.72C87.1367 33.6533 87.0367 33.5733 86.91 33.48C86.79 33.3933 86.6633 33.31 86.53 33.23C86.3967 33.15 86.28 33.09 86.18 33.05C86.46 32.71 86.68 32.34 86.84 31.94C87.0067 31.5333 87.13 31.1167 87.21 30.69C87.29 30.2633 87.34 29.8467 87.36 29.44C87.3867 29.0333 87.4 28.6567 87.4 28.31V26.41ZM88.06 26.41H94.65V28.73H88.06V27.86H93.47V27.29H88.06V26.41ZM86.78 24.94H95.23V25.99H86.78V24.94ZM88.83 29.13H94.11V29.97H89.99V33.91H88.83V29.13ZM93.58 29.13H94.77V32.8C94.77 33.0667 94.73 33.2733 94.65 33.42C94.5767 33.5667 94.4433 33.68 94.25 33.76C94.0633 33.8333 93.83 33.8767 93.55 33.89C93.27 33.9033 92.94 33.91 92.56 33.91C92.54 33.7633 92.4967 33.6 92.43 33.42C92.3633 33.24 92.2933 33.0833 92.22 32.95C92.3733 32.9567 92.5267 32.9633 92.68 32.97C92.84 32.97 92.9833 32.97 93.11 32.97C93.2433 32.9633 93.33 32.96 93.37 32.96C93.4433 32.96 93.4967 32.95 93.53 32.93C93.5633 32.9033 93.58 32.8567 93.58 32.79V29.13ZM89.39 30.41H94.16V31.16H89.39V30.41ZM89.39 31.61H94.16V32.42H89.39V31.61ZM97.8 24.51H98.81V33.9H97.8V24.51ZM96.49 26.35H99.68V27.4H97.37V31.82H96.49V26.35ZM99.26 26.35H100.11V30.63C100.11 30.81 100.093 30.9767 100.06 31.13C100.033 31.2833 99.9667 31.4033 99.86 31.49C99.7533 31.5767 99.64 31.6333 99.52 31.66C99.4 31.6867 99.25 31.7 99.07 31.7C99.0633 31.5533 99.0333 31.3833 98.98 31.19C98.9267 30.9967 98.8667 30.8333 98.8 30.7C98.8867 30.7 98.9633 30.7 99.03 30.7C99.1033 30.7 99.1533 30.7 99.18 30.7C99.2333 30.7 99.26 30.6667 99.26 30.6V26.35ZM100.38 24.93H105.54V25.9H100.38V24.93ZM101.82 27.29V28.04H104.09V27.29H101.82ZM100.81 26.4H105.15V28.91H100.81V26.4ZM100.87 31.04H105.12V31.95H100.87V31.04ZM100.85 32.65H105.13V33.58H100.85V32.65ZM100.38 29.43H105.5V33.87H104.39V30.36H101.44V33.88H100.38V29.43ZM102.38 29.9H103.39V33.3H102.38V29.9Z" fill="black"/>
<path d="M173.99 108.27L175.19 108.55C175.07 108.843 174.943 109.143 174.81 109.45C174.677 109.75 174.547 110.037 174.42 110.31C174.3 110.583 174.18 110.827 174.06 111.04L173.17 110.76C173.27 110.54 173.37 110.283 173.47 109.99C173.577 109.697 173.677 109.4 173.77 109.1C173.863 108.8 173.937 108.523 173.99 108.27ZM175.16 109.61L176.07 109.16C176.25 109.387 176.43 109.633 176.61 109.9C176.79 110.16 176.953 110.417 177.1 110.67C177.253 110.923 177.37 111.153 177.45 111.36L176.47 111.88C176.403 111.673 176.3 111.44 176.16 111.18C176.02 110.92 175.86 110.653 175.68 110.38C175.507 110.107 175.333 109.85 175.16 109.61ZM175.73 113.19L176.64 112.74C176.82 112.973 176.99 113.227 177.15 113.5C177.317 113.773 177.457 114.043 177.57 114.31C177.69 114.577 177.773 114.82 177.82 115.04L176.82 115.54C176.787 115.32 176.713 115.077 176.6 114.81C176.493 114.537 176.363 114.26 176.21 113.98C176.057 113.7 175.897 113.437 175.73 113.19ZM172.28 110.36C172.633 110.353 173.04 110.343 173.5 110.33C173.967 110.31 174.457 110.287 174.97 110.26C175.49 110.233 176.013 110.21 176.54 110.19L176.52 111.13C175.813 111.19 175.103 111.247 174.39 111.3C173.677 111.353 173.04 111.4 172.48 111.44L172.28 110.36ZM173.29 106.66L174.43 106.94C174.243 107.44 174 107.92 173.7 108.38C173.4 108.833 173.083 109.213 172.75 109.52C172.683 109.453 172.593 109.373 172.48 109.28C172.367 109.187 172.25 109.097 172.13 109.01C172.01 108.923 171.903 108.853 171.81 108.8C172.137 108.547 172.43 108.23 172.69 107.85C172.95 107.47 173.15 107.073 173.29 106.66ZM176.09 106.65C176.223 106.87 176.383 107.097 176.57 107.33C176.763 107.563 176.97 107.783 177.19 107.99C177.41 108.197 177.62 108.377 177.82 108.53C177.733 108.59 177.637 108.673 177.53 108.78C177.423 108.88 177.32 108.987 177.22 109.1C177.127 109.207 177.05 109.303 176.99 109.39C176.777 109.203 176.553 108.98 176.32 108.72C176.093 108.46 175.873 108.187 175.66 107.9C175.453 107.607 175.27 107.323 175.11 107.05L176.09 106.65ZM173.53 111.95L174.27 111.31C174.497 111.41 174.717 111.53 174.93 111.67C175.15 111.803 175.35 111.947 175.53 112.1C175.717 112.253 175.87 112.403 175.99 112.55L175.2 113.27C175.093 113.117 174.947 112.96 174.76 112.8C174.58 112.633 174.383 112.477 174.17 112.33C173.957 112.183 173.743 112.057 173.53 111.95ZM173.47 112.72H174.57V114.58C174.57 114.713 174.58 114.797 174.6 114.83C174.627 114.863 174.68 114.88 174.76 114.88C174.78 114.88 174.81 114.88 174.85 114.88C174.89 114.88 174.933 114.88 174.98 114.88C175.033 114.88 175.08 114.88 175.12 114.88C175.167 114.88 175.2 114.88 175.22 114.88C175.28 114.88 175.323 114.86 175.35 114.82C175.383 114.773 175.407 114.683 175.42 114.55C175.44 114.41 175.453 114.197 175.46 113.91C175.527 113.97 175.617 114.027 175.73 114.08C175.85 114.133 175.97 114.183 176.09 114.23C176.217 114.277 176.33 114.313 176.43 114.34C176.397 114.753 176.337 115.073 176.25 115.3C176.17 115.527 176.057 115.68 175.91 115.76C175.77 115.847 175.583 115.89 175.35 115.89C175.31 115.89 175.253 115.89 175.18 115.89C175.113 115.89 175.04 115.89 174.96 115.89C174.887 115.89 174.813 115.89 174.74 115.89C174.673 115.89 174.62 115.89 174.58 115.89C174.273 115.89 174.04 115.85 173.88 115.77C173.727 115.69 173.62 115.553 173.56 115.36C173.5 115.173 173.47 114.917 173.47 114.59V112.72ZM172.43 112.94L173.39 113.1C173.343 113.507 173.257 113.93 173.13 114.37C173.01 114.803 172.857 115.173 172.67 115.48L171.72 115.07C171.893 114.817 172.04 114.493 172.16 114.1C172.287 113.7 172.377 113.313 172.43 112.94ZM169.81 106.49L170.84 106.88C170.707 107.14 170.567 107.407 170.42 107.68C170.273 107.947 170.13 108.203 169.99 108.45C169.85 108.697 169.717 108.917 169.59 109.11L168.8 108.76C168.92 108.56 169.043 108.33 169.17 108.07C169.297 107.803 169.417 107.533 169.53 107.26C169.643 106.987 169.737 106.73 169.81 106.49ZM170.93 107.7L171.9 108.15C171.653 108.523 171.387 108.917 171.1 109.33C170.813 109.743 170.527 110.14 170.24 110.52C169.953 110.9 169.68 111.233 169.42 111.52L168.74 111.13C168.927 110.91 169.12 110.66 169.32 110.38C169.527 110.093 169.727 109.797 169.92 109.49C170.113 109.177 170.297 108.867 170.47 108.56C170.643 108.253 170.797 107.967 170.93 107.7ZM168.26 108.83L168.85 108.03C169.023 108.183 169.2 108.357 169.38 108.55C169.56 108.737 169.723 108.923 169.87 109.11C170.023 109.29 170.14 109.46 170.22 109.62L169.57 110.54C169.497 110.373 169.387 110.19 169.24 109.99C169.1 109.79 168.943 109.59 168.77 109.39C168.597 109.183 168.427 108.997 168.26 108.83ZM170.59 110.09L171.43 109.74C171.563 109.96 171.693 110.2 171.82 110.46C171.947 110.713 172.06 110.963 172.16 111.21C172.26 111.45 172.33 111.667 172.37 111.86L171.47 112.27C171.437 112.077 171.373 111.853 171.28 111.6C171.187 111.347 171.08 111.09 170.96 110.83C170.847 110.563 170.723 110.317 170.59 110.09ZM168.24 110.91C168.68 110.883 169.207 110.85 169.82 110.81C170.433 110.763 171.057 110.717 171.69 110.67L171.7 111.59C171.127 111.657 170.55 111.72 169.97 111.78C169.397 111.84 168.873 111.897 168.4 111.95L168.24 110.91ZM170.83 112.63L171.68 112.35C171.807 112.643 171.923 112.963 172.03 113.31C172.143 113.657 172.223 113.953 172.27 114.2L171.37 114.52C171.323 114.26 171.247 113.953 171.14 113.6C171.04 113.247 170.937 112.923 170.83 112.63ZM168.65 112.37L169.62 112.53C169.56 113.01 169.477 113.483 169.37 113.95C169.27 114.41 169.15 114.8 169.01 115.12C168.943 115.08 168.857 115.033 168.75 114.98C168.643 114.927 168.533 114.873 168.42 114.82C168.313 114.767 168.22 114.727 168.14 114.7C168.287 114.407 168.4 114.05 168.48 113.63C168.56 113.21 168.617 112.79 168.65 112.37ZM169.77 111.42H170.8V115.89H169.77V111.42ZM178.57 108.31H187.45V109.48H178.57V108.31ZM180.82 109.8C181.093 110.793 181.5 111.633 182.04 112.32C182.587 113 183.307 113.537 184.2 113.93C185.1 114.323 186.22 114.59 187.56 114.73C187.473 114.817 187.383 114.93 187.29 115.07C187.197 115.21 187.11 115.35 187.03 115.49C186.95 115.63 186.883 115.76 186.83 115.88C185.77 115.74 184.85 115.523 184.07 115.23C183.29 114.937 182.62 114.553 182.06 114.08C181.507 113.607 181.037 113.04 180.65 112.38C180.27 111.713 179.947 110.943 179.68 110.07L180.82 109.8ZM183.41 106.67H184.74C184.733 107.463 184.717 108.213 184.69 108.92C184.67 109.62 184.61 110.277 184.51 110.89C184.41 111.497 184.247 112.053 184.02 112.56C183.8 113.067 183.49 113.527 183.09 113.94C182.69 114.347 182.173 114.703 181.54 115.01C180.913 115.323 180.137 115.583 179.21 115.79C179.177 115.683 179.12 115.563 179.04 115.43C178.967 115.303 178.883 115.177 178.79 115.05C178.697 114.923 178.607 114.817 178.52 114.73C179.373 114.557 180.087 114.34 180.66 114.08C181.24 113.82 181.707 113.52 182.06 113.18C182.42 112.833 182.69 112.44 182.87 112C183.057 111.56 183.187 111.073 183.26 110.54C183.333 110 183.377 109.41 183.39 108.77C183.403 108.123 183.41 107.423 183.41 106.67Z" fill="black"/>
<path d="M142.02 107.48H150.04V108.41H142.02V107.48ZM142.52 108.84H149.52V109.71H142.52V108.84ZM144.29 112.68H148.82V113.34H144.29V112.68ZM144.29 113.7H148.82V114.37H144.29V113.7ZM144.28 114.74H148.94V115.59H144.28V114.74ZM141.57 110.13H150.43V111.07H141.57V110.13ZM145.37 108.16H146.6V110.88H145.37V108.16ZM143.26 106.82L144.33 106.48C144.463 106.627 144.59 106.793 144.71 106.98C144.83 107.16 144.917 107.323 144.97 107.47L143.86 107.88C143.813 107.733 143.733 107.56 143.62 107.36C143.507 107.16 143.387 106.98 143.26 106.82ZM147.58 106.47L148.89 106.8C148.737 106.993 148.587 107.177 148.44 107.35C148.3 107.517 148.177 107.66 148.07 107.78L147.05 107.47C147.143 107.317 147.24 107.15 147.34 106.97C147.447 106.783 147.527 106.617 147.58 106.47ZM143.68 110.58L144.87 110.87C144.583 111.683 144.197 112.427 143.71 113.1C143.223 113.767 142.683 114.317 142.09 114.75C142.03 114.67 141.943 114.573 141.83 114.46C141.723 114.347 141.61 114.233 141.49 114.12C141.377 114.007 141.277 113.917 141.19 113.85C141.757 113.49 142.257 113.027 142.69 112.46C143.123 111.887 143.453 111.26 143.68 110.58ZM143.63 111.47H149.58V115.88H148.32V112.32H144.82V115.88H143.63V111.47ZM151.57 108.31H160.45V109.48H151.57V108.31ZM153.82 109.8C154.093 110.793 154.5 111.633 155.04 112.32C155.587 113 156.307 113.537 157.2 113.93C158.1 114.323 159.22 114.59 160.56 114.73C160.473 114.817 160.383 114.93 160.29 115.07C160.197 115.21 160.11 115.35 160.03 115.49C159.95 115.63 159.883 115.76 159.83 115.88C158.77 115.74 157.85 115.523 157.07 115.23C156.29 114.937 155.62 114.553 155.06 114.08C154.507 113.607 154.037 113.04 153.65 112.38C153.27 111.713 152.947 110.943 152.68 110.07L153.82 109.8ZM156.41 106.67H157.74C157.733 107.463 157.717 108.213 157.69 108.92C157.67 109.62 157.61 110.277 157.51 110.89C157.41 111.497 157.247 112.053 157.02 112.56C156.8 113.067 156.49 113.527 156.09 113.94C155.69 114.347 155.173 114.703 154.54 115.01C153.913 115.323 153.137 115.583 152.21 115.79C152.177 115.683 152.12 115.563 152.04 115.43C151.967 115.303 151.883 115.177 151.79 115.05C151.697 114.923 151.607 114.817 151.52 114.73C152.373 114.557 153.087 114.34 153.66 114.08C154.24 113.82 154.707 113.52 155.06 113.18C155.42 112.833 155.69 112.44 155.87 112C156.057 111.56 156.187 111.073 156.26 110.54C156.333 110 156.377 109.41 156.39 108.77C156.403 108.123 156.41 107.423 156.41 106.67Z" fill="black"/>
<path d="M46.34 40.58H51.45V47.83H50.29V41.66H47.44V47.89H46.34V40.58ZM46.93 46.25H50.92V47.36H46.93V46.25ZM46.93 43.39H50.92V44.48H46.93V43.39ZM48.28 38.51H49.42V46.98H48.28V38.51ZM43.63 43.79L44.78 42.43V47.9H43.63V43.79ZM42.45 40.29H45.26V41.36H42.45V40.29ZM43.62 38.56H44.77V40.92H43.62V38.56ZM44.69 42.83C44.7633 42.8967 44.87 43.0067 45.01 43.16C45.15 43.3067 45.2967 43.47 45.45 43.65C45.61 43.83 45.7567 43.9967 45.89 44.15C46.0233 44.2967 46.1167 44.4067 46.17 44.48L45.48 45.29C45.4 45.1567 45.2967 45.0033 45.17 44.83C45.05 44.65 44.9233 44.4667 44.79 44.28C44.6567 44.0867 44.5233 43.91 44.39 43.75C44.2633 43.5833 44.1567 43.4433 44.07 43.33L44.69 42.83ZM44.92 40.29H45.15L45.35 40.25L45.98 40.66C45.7667 41.3133 45.4867 41.95 45.14 42.57C44.7933 43.1833 44.4133 43.7467 44 44.26C43.5867 44.7733 43.1667 45.2033 42.74 45.55C42.7067 45.4433 42.6567 45.3167 42.59 45.17C42.5233 45.0233 42.45 44.8833 42.37 44.75C42.2967 44.6167 42.23 44.5133 42.17 44.44C42.55 44.16 42.92 43.81 43.28 43.39C43.64 42.9633 43.9633 42.5033 44.25 42.01C44.5433 41.51 44.7667 41.0133 44.92 40.52V40.29ZM45.77 42.31L46.48 42.84C46.2933 43.0667 46.1033 43.3 45.91 43.54C45.7233 43.78 45.55 43.9833 45.39 44.15L44.83 43.71C44.9767 43.5233 45.14 43.3 45.32 43.04C45.5067 42.7733 45.6567 42.53 45.77 42.31ZM52.57 40.31H61.45V41.48H52.57V40.31ZM54.82 41.8C55.0933 42.7933 55.5 43.6333 56.04 44.32C56.5867 45 57.3067 45.5367 58.2 45.93C59.1 46.3233 60.22 46.59 61.56 46.73C61.4733 46.8167 61.3833 46.93 61.29 47.07C61.1967 47.21 61.11 47.35 61.03 47.49C60.95 47.63 60.8833 47.76 60.83 47.88C59.77 47.74 58.85 47.5233 58.07 47.23C57.29 46.9367 56.62 46.5533 56.06 46.08C55.5067 45.6067 55.0367 45.04 54.65 44.38C54.27 43.7133 53.9467 42.9433 53.68 42.07L54.82 41.8ZM57.41 38.67H58.74C58.7333 39.4633 58.7167 40.2133 58.69 40.92C58.67 41.62 58.61 42.2767 58.51 42.89C58.41 43.4967 58.2467 44.0533 58.02 44.56C57.8 45.0667 57.49 45.5267 57.09 45.94C56.69 46.3467 56.1733 46.7033 55.54 47.01C54.9133 47.3233 54.1367 47.5833 53.21 47.79C53.1767 47.6833 53.12 47.5633 53.04 47.43C52.9667 47.3033 52.8833 47.1767 52.79 47.05C52.6967 46.9233 52.6067 46.8167 52.52 46.73C53.3733 46.5567 54.0867 46.34 54.66 46.08C55.24 45.82 55.7067 45.52 56.06 45.18C56.42 44.8333 56.69 44.44 56.87 44C57.0567 43.56 57.1867 43.0733 57.26 42.54C57.3333 42 57.3767 41.41 57.39 40.77C57.4033 40.1233 57.41 39.4233 57.41 38.67Z" fill="black"/>
<path d="M116.45 73L75 73" stroke="#FF0202" stroke-linecap="round"/>
<path d="M81.9282 69L75 73L81.9282 77" stroke="#FF0202" stroke-linecap="round"/>
<path d="M110 69L116.928 73L110 77" stroke="#FF0202" stroke-linecap="round"/>
<path d="M116.45 38L75 38" stroke="#FF0202" stroke-linecap="round"/>
<path d="M81.9282 34L75 38L81.9282 42" stroke="#FF0202" stroke-linecap="round"/>
<path d="M110 34L116.928 38L110 42" stroke="#FF0202" stroke-linecap="round"/>
<path d="M166 177L166 43" stroke="#FF0202" stroke-linecap="round"/>
<path d="M170 50.9282L166 44L162 50.9282" stroke="#FF0202" stroke-linecap="round"/>
<path d="M170 171L166 177.928L162 171" stroke="#FF0202" stroke-linecap="round"/>
<path d="M139 178L139 55" stroke="#FF0202" stroke-linecap="round"/>
<path d="M143 60.9282L139 54L135 60.9282" stroke="#FF0202" stroke-linecap="round"/>
<path d="M143 171L139 177.928L135 171" stroke="#FF0202" stroke-linecap="round"/>
<path d="M66.5 46L66.924 46.265L66.9172 46.2758L66.9099 46.2863L66.5 46ZM57.6272 59.5743C57.4691 59.8007 57.1574 59.856 56.931 59.6979C56.7046 59.5397 56.6493 59.228 56.8074 59.0017L57.6272 59.5743ZM59.8 60.6C60.0209 60.7657 60.0657 61.0791 59.9 61.3C59.7343 61.5209 59.4209 61.5657 59.2 61.4L59.8 60.6ZM55.2 58.4C54.9791 58.2343 54.9343 57.9209 55.1 57.7C55.2657 57.4791 55.5791 57.4343 55.8 57.6L55.2 58.4ZM75 44C75 44.2761 74.7761 44.5 74.5 44.5C74.2239 44.5 74 44.2761 74 44H75ZM74 39.5C74 39.2239 74.2239 39 74.5 39C74.7761 39 75 39.2239 75 39.5H74ZM74 40.5L74.1437 40.9789C71.7389 41.7003 69.9301 43.0249 68.7194 44.175C68.1147 44.7494 67.6622 45.2776 67.3622 45.6601C67.2123 45.8513 67.1007 46.0056 67.0276 46.1107C66.9911 46.1633 66.9642 46.2034 66.9469 46.2297C66.9383 46.2428 66.932 46.2524 66.9282 46.2584C66.9263 46.2614 66.925 46.2634 66.9243 46.2645C66.9239 46.2651 66.9237 46.2654 66.9237 46.2655C66.9237 46.2655 66.9237 46.2655 66.9237 46.2654C66.9238 46.2654 66.9238 46.2653 66.9238 46.2653C66.9239 46.2651 66.924 46.265 66.5 46C66.076 45.735 66.0761 45.7348 66.0762 45.7347C66.0763 45.7346 66.0764 45.7344 66.0765 45.7342C66.0767 45.7339 66.0769 45.7335 66.0772 45.7331C66.0778 45.7322 66.0785 45.731 66.0794 45.7297C66.0811 45.7269 66.0835 45.7232 66.0864 45.7186C66.0924 45.7093 66.1008 45.6963 66.1117 45.6797C66.1335 45.6467 66.1652 45.5994 66.2067 45.5397C66.2899 45.4201 66.4127 45.2503 66.5753 45.043C66.9003 44.6286 67.3853 44.0631 68.0306 43.45C69.3199 42.2251 71.2611 40.7997 73.8563 40.0211L74 40.5ZM66.5 46L66.9099 46.2863L57.6272 59.5743L57.2173 59.288L56.8074 59.0017L66.0901 45.7137L66.5 46ZM59.5 61L59.2 61.4L55.2 58.4L55.5 58L55.8 57.6L59.8 60.6L59.5 61ZM74.5 44H74V39.5H74.5H75V44H74.5Z" fill="#FF0000"/>
<path d="M96 179H166" stroke="#FF0000" stroke-width="0.5" stroke-dasharray="1 1"/>
<path d="M110 43L168 43" stroke="#FF0000" stroke-width="0.5" stroke-dasharray="1 1"/>
<path d="M96 53L144 53" stroke="#FF0000" stroke-width="0.5" stroke-dasharray="1 1"/>
<path d="M117 46V30" stroke="#FF0000" stroke-width="0.5" stroke-linecap="round" stroke-dasharray="2 2"/>
</g>
<defs>
<clipPath id="clip0_142_44">
<rect width="200" height="200" fill="white"/>
</clipPath>
</defs>
</svg>
