<svg width="200" height="200" viewBox="0 0 200 200" fill="none" xmlns="http://www.w3.org/2000/svg">
<g clip-path="url(#clip0_159_72)">
<rect width="200" height="200" fill="white"/>
<path d="M92.75 78.07H97.2V78.93H92.75V78.07ZM92.75 79.53H97.2V80.4H92.75V79.53ZM96.66 76.46H97.91V83.43C97.91 83.7767 97.87 84.0433 97.79 84.23C97.71 84.4233 97.5567 84.5733 97.33 84.68C97.11 84.78 96.8333 84.8433 96.5 84.87C96.1667 84.8967 95.76 84.9067 95.28 84.9C95.26 84.78 95.2267 84.6433 95.18 84.49C95.14 84.3367 95.09 84.1833 95.03 84.03C94.9767 83.8833 94.92 83.7533 94.86 83.64C95.0667 83.6533 95.2733 83.6633 95.48 83.67C95.6933 83.67 95.88 83.67 96.04 83.67C96.2067 83.6633 96.3267 83.66 96.4 83.66C96.4933 83.66 96.56 83.6433 96.6 83.61C96.64 83.5767 96.66 83.5133 96.66 83.42V76.46ZM90.5 81.19C91.0467 81.1633 91.6867 81.1333 92.42 81.1C93.16 81.0667 93.9433 81.0267 94.77 80.98C95.6033 80.9333 96.4267 80.8867 97.24 80.84L97.23 81.86C96.4567 81.9267 95.6767 81.9933 94.89 82.06C94.1033 82.12 93.3467 82.1767 92.62 82.23C91.9 82.2833 91.25 82.33 90.67 82.37L90.5 81.19ZM98.41 78.51L99.58 79.07C98.96 80.03 98.2133 80.88 97.34 81.62C96.4733 82.3533 95.5167 82.9867 94.47 83.52C93.4233 84.0467 92.3233 84.48 91.17 84.82C91.1167 84.72 91.04 84.6 90.94 84.46C90.84 84.3267 90.7367 84.1933 90.63 84.06C90.53 83.9267 90.4367 83.8133 90.35 83.72C91.5167 83.4267 92.61 83.0433 93.63 82.57C94.65 82.09 95.5667 81.5133 96.38 80.84C97.1933 80.16 97.87 79.3833 98.41 78.51ZM94.38 75.47L95.86 75.63C95.7067 75.9367 95.54 76.2367 95.36 76.53C95.1867 76.8233 95.0267 77.07 94.88 77.27L93.81 77.05C93.9233 76.8167 94.0333 76.5567 94.14 76.27C94.2467 75.9767 94.3267 75.71 94.38 75.47ZM91.98 76.46H97.06V77.49H93.19V81.73H91.98V76.46ZM101.8 75.51H102.81V84.9H101.8V75.51ZM100.49 77.35H103.68V78.4H101.37V82.82H100.49V77.35ZM103.26 77.35H104.11V81.63C104.11 81.81 104.093 81.9767 104.06 82.13C104.033 82.2833 103.967 82.4033 103.86 82.49C103.753 82.5767 103.64 82.6333 103.52 82.66C103.4 82.6867 103.25 82.7 103.07 82.7C103.063 82.5533 103.033 82.3833 102.98 82.19C102.927 81.9967 102.867 81.8333 102.8 81.7C102.887 81.7 102.963 81.7 103.03 81.7C103.103 81.7 103.153 81.7 103.18 81.7C103.233 81.7 103.26 81.6667 103.26 81.6V77.35ZM104.38 75.93H109.54V76.9H104.38V75.93ZM105.82 78.29V79.04H108.09V78.29H105.82ZM104.81 77.4H109.15V79.91H104.81V77.4ZM104.87 82.04H109.12V82.95H104.87V82.04ZM104.85 83.65H109.13V84.58H104.85V83.65ZM104.38 80.43H109.5V84.87H108.39V81.36H105.44V84.88H104.38V80.43ZM106.38 80.9H107.39V84.3H106.38V80.9Z" fill="black"/>
<path d="M121.02 66.48H129.04V67.41H121.02V66.48ZM121.52 67.84H128.52V68.71H121.52V67.84ZM123.29 71.68H127.82V72.34H123.29V71.68ZM123.29 72.7H127.82V73.37H123.29V72.7ZM123.28 73.74H127.94V74.59H123.28V73.74ZM120.57 69.13H129.43V70.07H120.57V69.13ZM124.37 67.16H125.6V69.88H124.37V67.16ZM122.26 65.82L123.33 65.48C123.463 65.6267 123.59 65.7933 123.71 65.98C123.83 66.16 123.917 66.3233 123.97 66.47L122.86 66.88C122.813 66.7333 122.733 66.56 122.62 66.36C122.507 66.16 122.387 65.98 122.26 65.82ZM126.58 65.47L127.89 65.8C127.737 65.9933 127.587 66.1767 127.44 66.35C127.3 66.5167 127.177 66.66 127.07 66.78L126.05 66.47C126.143 66.3167 126.24 66.15 126.34 65.97C126.447 65.7833 126.527 65.6167 126.58 65.47ZM122.68 69.58L123.87 69.87C123.583 70.6833 123.197 71.4267 122.71 72.1C122.223 72.7667 121.683 73.3167 121.09 73.75C121.03 73.67 120.943 73.5733 120.83 73.46C120.723 73.3467 120.61 73.2333 120.49 73.12C120.377 73.0067 120.277 72.9167 120.19 72.85C120.757 72.49 121.257 72.0267 121.69 71.46C122.123 70.8867 122.453 70.26 122.68 69.58ZM122.63 70.47H128.58V74.88H127.32V71.32H123.82V74.88H122.63V70.47ZM130.57 67.31H139.45V68.48H130.57V67.31ZM132.82 68.8C133.093 69.7933 133.5 70.6333 134.04 71.32C134.587 72 135.307 72.5367 136.2 72.93C137.1 73.3233 138.22 73.59 139.56 73.73C139.473 73.8167 139.383 73.93 139.29 74.07C139.197 74.21 139.11 74.35 139.03 74.49C138.95 74.63 138.883 74.76 138.83 74.88C137.77 74.74 136.85 74.5233 136.07 74.23C135.29 73.9367 134.62 73.5533 134.06 73.08C133.507 72.6067 133.037 72.04 132.65 71.38C132.27 70.7133 131.947 69.9433 131.68 69.07L132.82 68.8ZM135.41 65.67H136.74C136.733 66.4633 136.717 67.2133 136.69 67.92C136.67 68.62 136.61 69.2767 136.51 69.89C136.41 70.4967 136.247 71.0533 136.02 71.56C135.8 72.0667 135.49 72.5267 135.09 72.94C134.69 73.3467 134.173 73.7033 133.54 74.01C132.913 74.3233 132.137 74.5833 131.21 74.79C131.177 74.6833 131.12 74.5633 131.04 74.43C130.967 74.3033 130.883 74.1767 130.79 74.05C130.697 73.9233 130.607 73.8167 130.52 73.73C131.373 73.5567 132.087 73.34 132.66 73.08C133.24 72.82 133.707 72.52 134.06 72.18C134.42 71.8333 134.69 71.44 134.87 71C135.057 70.56 135.187 70.0733 135.26 69.54C135.333 69 135.377 68.41 135.39 67.77C135.403 67.1233 135.41 66.4233 135.41 65.67Z" fill="black"/>
<path d="M100 25V159" stroke="#6F6F6F" stroke-linecap="round" stroke-dasharray="2 2"/>
<path d="M163.22 48.6417H164.35V52.9217C164.35 53.1751 164.317 53.3851 164.25 53.5517C164.19 53.7251 164.07 53.8584 163.89 53.9517C163.717 54.0517 163.513 54.1117 163.28 54.1317C163.047 54.1584 162.773 54.1717 162.46 54.1717C162.44 54.0051 162.387 53.8084 162.3 53.5817C162.22 53.3617 162.137 53.1784 162.05 53.0317C162.257 53.0384 162.457 53.0451 162.65 53.0517C162.843 53.0517 162.973 53.0484 163.04 53.0417C163.16 53.0417 163.22 52.9917 163.22 52.8917V48.6417ZM160.81 47.0217L161.83 47.3417C161.663 47.7417 161.463 48.1417 161.23 48.5417C161.003 48.9417 160.753 49.3184 160.48 49.6717C160.213 50.0251 159.937 50.3317 159.65 50.5917C159.617 50.5117 159.567 50.4051 159.5 50.2717C159.433 50.1384 159.357 50.0051 159.27 49.8717C159.19 49.7317 159.12 49.6184 159.06 49.5317C159.413 49.2251 159.747 48.8517 160.06 48.4117C160.373 47.9651 160.623 47.5017 160.81 47.0217ZM160.62 44.8617L161.68 45.1917C161.52 45.5117 161.333 45.8317 161.12 46.1517C160.913 46.4717 160.69 46.7717 160.45 47.0517C160.217 47.3317 159.983 47.5751 159.75 47.7817C159.69 47.7084 159.613 47.6217 159.52 47.5217C159.427 47.4151 159.33 47.3117 159.23 47.2117C159.13 47.1051 159.04 47.0184 158.96 46.9517C159.28 46.6917 159.59 46.3751 159.89 46.0017C160.19 45.6284 160.433 45.2484 160.62 44.8617ZM161.9 45.4617H165.04V46.5317H161.9V45.4617ZM161.73 47.9517H165.22V49.0617H161.73V47.9517ZM156.98 50.0817L157.99 48.8817V54.2017H156.98V50.0817ZM155.96 46.6317H158.41V47.6617H155.96V46.6317ZM156.98 44.8417H157.99V47.0217H156.98V44.8417ZM157.95 48.8817C158.01 48.9484 158.097 49.0617 158.21 49.2217C158.33 49.3817 158.457 49.5584 158.59 49.7517C158.73 49.9451 158.853 50.1217 158.96 50.2817C159.073 50.4417 159.153 50.5551 159.2 50.6217L158.59 51.4317C158.53 51.2917 158.45 51.1284 158.35 50.9417C158.25 50.7484 158.14 50.5517 158.02 50.3517C157.907 50.1517 157.797 49.9651 157.69 49.7917C157.583 49.6117 157.493 49.4684 157.42 49.3617L157.95 48.8817ZM158.08 46.6317H158.29L158.48 46.5817L159.07 46.9817C158.87 47.6017 158.613 48.2117 158.3 48.8117C157.993 49.4117 157.657 49.9717 157.29 50.4917C156.93 51.0117 156.567 51.4484 156.2 51.8017C156.173 51.7084 156.127 51.5917 156.06 51.4517C156 51.3051 155.933 51.1684 155.86 51.0417C155.787 50.9084 155.723 50.8084 155.67 50.7417C155.997 50.4551 156.317 50.0984 156.63 49.6717C156.95 49.2384 157.237 48.7784 157.49 48.2917C157.743 47.7984 157.94 47.3151 158.08 46.8417V46.6317ZM158.84 48.5017L159.52 49.0217C159.353 49.2284 159.193 49.4417 159.04 49.6617C158.887 49.8751 158.747 50.0584 158.62 50.2117L158.12 49.8017C158.24 49.6284 158.37 49.4151 158.51 49.1617C158.65 48.9084 158.76 48.6884 158.84 48.5017ZM160.18 49.3117L161.23 48.0617V54.1817H160.18V49.3117ZM166.07 46.6017H174.95V47.7717H166.07V46.6017ZM168.32 48.0917C168.593 49.0851 169 49.9251 169.54 50.6117C170.087 51.2917 170.807 51.8284 171.7 52.2217C172.6 52.6151 173.72 52.8817 175.06 53.0217C174.973 53.1084 174.883 53.2217 174.79 53.3617C174.697 53.5017 174.61 53.6417 174.53 53.7817C174.45 53.9217 174.383 54.0517 174.33 54.1717C173.27 54.0317 172.35 53.8151 171.57 53.5217C170.79 53.2284 170.12 52.8451 169.56 52.3717C169.007 51.8984 168.537 51.3317 168.15 50.6717C167.77 50.0051 167.447 49.2351 167.18 48.3617L168.32 48.0917ZM170.91 44.9617H172.24C172.233 45.7551 172.217 46.5051 172.19 47.2117C172.17 47.9117 172.11 48.5684 172.01 49.1817C171.91 49.7884 171.747 50.3451 171.52 50.8517C171.3 51.3584 170.99 51.8184 170.59 52.2317C170.19 52.6384 169.673 52.9951 169.04 53.3017C168.413 53.6151 167.637 53.8751 166.71 54.0817C166.677 53.9751 166.62 53.8551 166.54 53.7217C166.467 53.5951 166.383 53.4684 166.29 53.3417C166.197 53.2151 166.107 53.1084 166.02 53.0217C166.873 52.8484 167.587 52.6317 168.16 52.3717C168.74 52.1117 169.207 51.8117 169.56 51.4717C169.92 51.1251 170.19 50.7317 170.37 50.2917C170.557 49.8517 170.687 49.3651 170.76 48.8317C170.833 48.2917 170.877 47.7017 170.89 47.0617C170.903 46.4151 170.91 45.7151 170.91 44.9617Z" fill="black"/>
<path d="M101.144 31.3128C100.879 31.2335 100.6 31.3836 100.521 31.6481C100.442 31.9126 100.592 32.1913 100.856 32.2707L101.144 31.3128ZM142.527 44.2469L142.383 44.7259L142.392 44.7283L142.527 44.2469ZM152.257 55.2917L151.765 55.38L151.765 55.3826L152.257 55.2917ZM160.913 138.799C160.641 138.847 160.46 139.107 160.508 139.379C160.556 139.651 160.815 139.832 161.087 139.784L160.913 138.799ZM169.587 138.284C169.859 138.236 170.04 137.977 169.992 137.705C169.944 137.433 169.685 137.251 169.413 137.299L169.587 138.284ZM142.527 44.2469L142.392 44.7283C144.868 45.4241 147.084 47.3399 148.761 49.4984C150.44 51.6599 151.513 53.9791 151.765 55.38L152.257 55.2917L152.749 55.2035C152.46 53.5909 151.29 51.1242 149.55 48.8849C147.808 46.6427 145.429 44.5428 142.662 43.7655L142.527 44.2469ZM152.257 55.2917L151.765 55.3826L167.008 137.883L167.5 137.792L167.992 137.701L152.748 55.2009L152.257 55.2917ZM101 31.7917L100.856 32.2707L142.383 44.7258L142.527 44.2469L142.671 43.768L101.144 31.3128L101 31.7917ZM161 139.292L161.087 139.784L169.587 138.284L169.5 137.792L169.413 137.299L160.913 138.799L161 139.292Z" fill="#FF0000"/>
<path d="M167.698 137.834L170.365 130.292" stroke="#FF0202" stroke-linecap="round"/>
<path d="M101 31.7917L108.841 30.2064" stroke="#FF0202" stroke-linecap="round"/>
<path d="M135 88L65 88" stroke="#FF0202" stroke-linecap="round"/>
<path d="M71.9282 84L65 88L71.9282 92" stroke="#FF0202" stroke-linecap="round"/>
<path d="M129 84L135.928 88L129 92" stroke="#FF0202" stroke-linecap="round"/>
<path d="M122 148L118 154.928L114 148" stroke="#FF0202" stroke-linecap="round"/>
<path d="M114 53.9282L118 47L122 53.9282" stroke="#FF0202" stroke-linecap="round"/>
<path d="M61.4 27.41H62.59V29.33C62.59 29.7167 62.57 30.1467 62.53 30.62C62.4967 31.0867 62.43 31.5633 62.33 32.05C62.2367 32.5367 62.1 33.01 61.92 33.47C61.74 33.93 61.5033 34.3467 61.21 34.72C61.1367 34.6533 61.0367 34.5733 60.91 34.48C60.79 34.3933 60.6633 34.31 60.53 34.23C60.3967 34.15 60.28 34.09 60.18 34.05C60.46 33.71 60.68 33.34 60.84 32.94C61.0067 32.5333 61.13 32.1167 61.21 31.69C61.29 31.2633 61.34 30.8467 61.36 30.44C61.3867 30.0333 61.4 29.6567 61.4 29.31V27.41ZM62.06 27.41H68.65V29.73H62.06V28.86H67.47V28.29H62.06V27.41ZM60.78 25.94H69.23V26.99H60.78V25.94ZM62.83 30.13H68.11V30.97H63.99V34.91H62.83V30.13ZM67.58 30.13H68.77V33.8C68.77 34.0667 68.73 34.2733 68.65 34.42C68.5767 34.5667 68.4433 34.68 68.25 34.76C68.0633 34.8333 67.83 34.8767 67.55 34.89C67.27 34.9033 66.94 34.91 66.56 34.91C66.54 34.7633 66.4967 34.6 66.43 34.42C66.3633 34.24 66.2933 34.0833 66.22 33.95C66.3733 33.9567 66.5267 33.9633 66.68 33.97C66.84 33.97 66.9833 33.97 67.11 33.97C67.2433 33.9633 67.33 33.96 67.37 33.96C67.4433 33.96 67.4967 33.95 67.53 33.93C67.5633 33.9033 67.58 33.8567 67.58 33.79V30.13ZM63.39 31.41H68.16V32.16H63.39V31.41ZM63.39 32.61H68.16V33.42H63.39V32.61ZM71.8 25.51H72.81V34.9H71.8V25.51ZM70.49 27.35H73.68V28.4H71.37V32.82H70.49V27.35ZM73.26 27.35H74.11V31.63C74.11 31.81 74.0933 31.9767 74.06 32.13C74.0333 32.2833 73.9667 32.4033 73.86 32.49C73.7533 32.5767 73.64 32.6333 73.52 32.66C73.4 32.6867 73.25 32.7 73.07 32.7C73.0633 32.5533 73.0333 32.3833 72.98 32.19C72.9267 31.9967 72.8667 31.8333 72.8 31.7C72.8867 31.7 72.9633 31.7 73.03 31.7C73.1033 31.7 73.1533 31.7 73.18 31.7C73.2333 31.7 73.26 31.6667 73.26 31.6V27.35ZM74.38 25.93H79.54V26.9H74.38V25.93ZM75.82 28.29V29.04H78.09V28.29H75.82ZM74.81 27.4H79.15V29.91H74.81V27.4ZM74.87 32.04H79.12V32.95H74.87V32.04ZM74.85 33.65H79.13V34.58H74.85V33.65ZM74.38 30.43H79.5V34.87H78.39V31.36H75.44V34.88H74.38V30.43ZM76.38 30.9H77.39V34.3H76.38V30.9ZM85.0533 32.9915L80.8097 28.755L81.7401 27.8139L85.9872 32.0611L85.0533 32.9915ZM81.7401 32.9915L80.8097 32.0611L85.0533 27.8139L85.9872 28.755L81.7401 32.9915ZM87.3864 34V32.892L89.9751 30.495C90.1953 30.282 90.38 30.0902 90.5291 29.9197C90.6806 29.7493 90.7955 29.5824 90.8736 29.419C90.9517 29.2533 90.9908 29.0746 90.9908 28.8828C90.9908 28.6697 90.9422 28.4863 90.8452 28.3324C90.7481 28.1761 90.6155 28.0566 90.4474 27.9737C90.2794 27.8885 90.0888 27.8459 89.8757 27.8459C89.6532 27.8459 89.459 27.8909 89.2933 27.9808C89.1276 28.0708 88.9998 28.1998 88.9098 28.3679C88.8198 28.536 88.7749 28.736 88.7749 28.968H87.3153C87.3153 28.4922 87.4231 28.0791 87.6385 27.7287C87.8539 27.3783 88.1558 27.1072 88.544 26.9155C88.9323 26.7237 89.3797 26.6278 89.8864 26.6278C90.4072 26.6278 90.8606 26.7202 91.2464 26.9048C91.6347 27.0871 91.9366 27.3404 92.152 27.6648C92.3674 27.9891 92.4751 28.3608 92.4751 28.7798C92.4751 29.0545 92.4207 29.3255 92.3118 29.593C92.2053 29.8606 92.0147 30.1577 91.7401 30.4844C91.4654 30.8087 91.0784 31.1982 90.5788 31.6527L89.517 32.6932V32.7429H92.571V34H87.3864Z" fill="black"/>
<path d="M60 39.5V51" stroke="#FF0000" stroke-linecap="round"/>
<path d="M60 41L67 38.5" stroke="#FF0000" stroke-linecap="round"/>
<path d="M100 41L92.5 38.5" stroke="#FF0000" stroke-linecap="round"/>
<path d="M100 41L60 41" stroke="#FF0202" stroke-linecap="round"/>
<path d="M24.34 88.58H29.45V95.83H28.29V89.66H25.44V95.89H24.34V88.58ZM24.93 94.25H28.92V95.36H24.93V94.25ZM24.93 91.39H28.92V92.48H24.93V91.39ZM26.28 86.51H27.42V94.98H26.28V86.51ZM21.63 91.79L22.78 90.43V95.9H21.63V91.79ZM20.45 88.29H23.26V89.36H20.45V88.29ZM21.62 86.56H22.77V88.92H21.62V86.56ZM22.69 90.83C22.7633 90.8967 22.87 91.0067 23.01 91.16C23.15 91.3067 23.2967 91.47 23.45 91.65C23.61 91.83 23.7567 91.9967 23.89 92.15C24.0233 92.2967 24.1167 92.4067 24.17 92.48L23.48 93.29C23.4 93.1567 23.2967 93.0033 23.17 92.83C23.05 92.65 22.9233 92.4667 22.79 92.28C22.6567 92.0867 22.5233 91.91 22.39 91.75C22.2633 91.5833 22.1567 91.4433 22.07 91.33L22.69 90.83ZM22.92 88.29H23.15L23.35 88.25L23.98 88.66C23.7667 89.3133 23.4867 89.95 23.14 90.57C22.7933 91.1833 22.4133 91.7467 22 92.26C21.5867 92.7733 21.1667 93.2033 20.74 93.55C20.7067 93.4433 20.6567 93.3167 20.59 93.17C20.5233 93.0233 20.45 92.8833 20.37 92.75C20.2967 92.6167 20.23 92.5133 20.17 92.44C20.55 92.16 20.92 91.81 21.28 91.39C21.64 90.9633 21.9633 90.5033 22.25 90.01C22.5433 89.51 22.7667 89.0133 22.92 88.52V88.29ZM23.77 90.31L24.48 90.84C24.2933 91.0667 24.1033 91.3 23.91 91.54C23.7233 91.78 23.55 91.9833 23.39 92.15L22.83 91.71C22.9767 91.5233 23.14 91.3 23.32 91.04C23.5067 90.7733 23.6567 90.53 23.77 90.31ZM30.57 88.31H39.45V89.48H30.57V88.31ZM32.82 89.8C33.0933 90.7933 33.5 91.6333 34.04 92.32C34.5867 93 35.3067 93.5367 36.2 93.93C37.1 94.3233 38.22 94.59 39.56 94.73C39.4733 94.8167 39.3833 94.93 39.29 95.07C39.1967 95.21 39.11 95.35 39.03 95.49C38.95 95.63 38.8833 95.76 38.83 95.88C37.77 95.74 36.85 95.5233 36.07 95.23C35.29 94.9367 34.62 94.5533 34.06 94.08C33.5067 93.6067 33.0367 93.04 32.65 92.38C32.27 91.7133 31.9467 90.9433 31.68 90.07L32.82 89.8ZM35.41 86.67H36.74C36.7333 87.4633 36.7167 88.2133 36.69 88.92C36.67 89.62 36.61 90.2767 36.51 90.89C36.41 91.4967 36.2467 92.0533 36.02 92.56C35.8 93.0667 35.49 93.5267 35.09 93.94C34.69 94.3467 34.1733 94.7033 33.54 95.01C32.9133 95.3233 32.1367 95.5833 31.21 95.79C31.1767 95.6833 31.12 95.5633 31.04 95.43C30.9667 95.3033 30.8833 95.1767 30.79 95.05C30.6967 94.9233 30.6067 94.8167 30.52 94.73C31.3733 94.5567 32.0867 94.34 32.66 94.08C33.24 93.82 33.7067 93.52 34.06 93.18C34.42 92.8333 34.69 92.44 34.87 92C35.0567 91.56 35.1867 91.0733 35.26 90.54C35.3333 90 35.3767 89.41 35.39 88.77C35.4033 88.1233 35.41 87.4233 35.41 86.67Z" fill="black"/>
<path d="M57.5 53.5L44 50" stroke="#FF0000" stroke-width="0.5" stroke-linecap="round" stroke-dasharray="1 1"/>
<path d="M48.5078 51.9123C48.5562 51.6404 48.8158 51.4593 49.0877 51.5078C49.3596 51.5562 49.5407 51.8158 49.4922 52.0877L48.5078 51.9123ZM49 52L49.4922 52.0877L33.9922 139.088L33.5 139L33.0078 138.912L48.5078 51.9123L49 52Z" fill="#FF0000"/>
<path d="M33.5 138.5L31.2655 131" stroke="#FF0202" stroke-linecap="round"/>
<path d="M42.9838 58.5L48.4838 52" stroke="#FF0202" stroke-linecap="round"/>
<path d="M84.8649 44L85.0188 43.5243L84.8756 43.478L84.7306 43.5184L84.8649 44ZM63.2433 50.0269L63.3265 50.5199L63.3523 50.5156L63.3775 50.5086L63.2433 50.0269ZM63.2433 150.475H62.7433V150.84L63.0907 150.951L63.2433 150.475ZM100 51.5337L99.9644 52.0324L100 52.0349L100.036 52.0324L100 51.5337ZM57.176 53.532C56.9176 53.4348 56.6292 53.5655 56.532 53.824C56.4348 54.0825 56.5655 54.3708 56.824 54.468L57.176 53.532ZM40 140.037L39.5119 139.928L39.4029 140.419L39.8942 140.526L40 140.037ZM55 143.286L54.8942 143.774L55.3777 143.879L55.4875 143.397L55 143.286ZM57 134.5L57.1213 134.015L57.1125 134.013L57 134.5ZM40 130.5L39.509 130.406L39.4211 130.862L39.8704 130.983L40 130.5ZM59 135L58.8787 135.485L59.3617 135.606L59.4845 135.123L59 135ZM115.135 44L115.269 43.5184L115.124 43.4779L114.981 43.5243L115.135 44ZM136.757 50.0269L136.622 50.5085L136.648 50.5156L136.673 50.5199L136.757 50.0269ZM136.757 150.475L136.909 150.951L137.257 150.84V150.475H136.757ZM160 140.037L160.106 140.526L160.597 140.419L160.488 139.928L160 140.037ZM145 143.286L144.512 143.397L144.622 143.879L145.106 143.774L145 143.286ZM143 134.5L142.888 134.013L142.879 134.015L143 134.5ZM160 130.5L160.13 130.983L160.579 130.862L160.491 130.405L160 130.5ZM141 135L140.515 135.123L140.638 135.606L141.121 135.485L141 135ZM84.8649 44L84.7306 43.5184L82.3657 44.1776L82.5 44.6592L82.6343 45.1409L84.9991 44.4817L84.8649 44ZM82.5 44.6592L82.3657 44.1776L63.109 49.5453L63.2433 50.0269L63.3775 50.5086L82.6343 45.1409L82.5 44.6592ZM63.2433 50.0269L63.16 49.5339C60.0332 50.0621 57.6362 51.9082 55.9623 53.9819C54.2931 56.0499 53.3079 58.3863 53.0214 59.9835L53.5135 60.0718L54.0057 60.16C54.2597 58.7438 55.1664 56.5601 56.7404 54.61C58.3097 52.6659 60.5073 50.9962 63.3265 50.5199L63.2433 50.0269ZM63.2433 82.6726H62.7433V118.332H63.2433H63.7433V82.6726H63.2433ZM63.2433 118.332H62.7433V150.475H63.2433H63.7433V118.332H63.2433ZM63.2433 150.475L63.0907 150.951C78.8326 155.995 89.6993 156.5 100 156.5V156V155.5C89.7601 155.5 79.0052 155 63.3958 149.999L63.2433 150.475ZM84.8649 44L84.5075 44.3497C87.217 47.119 89.2915 48.9271 91.5983 50.0962C93.9134 51.2696 96.4218 51.7792 99.9644 52.0324L100 51.5337L100.036 51.0349C96.5512 50.7859 94.1947 50.291 92.0504 49.2043C89.8977 48.1133 87.9181 46.4057 85.2223 43.6503L84.8649 44ZM63.2433 82.6726H63.7433C63.7433 72.1763 62.7342 65.1658 61.4328 60.6583C60.7822 58.4049 60.0545 56.7629 59.3329 55.6203C58.6199 54.4911 57.8789 53.7964 57.176 53.532L57 54L56.824 54.468C57.2288 54.6203 57.8221 55.1007 58.4874 56.1542C59.1442 57.1943 59.8388 58.7425 60.4721 60.9357C61.7384 65.3218 62.7433 72.2309 62.7433 82.6726H63.2433ZM84.8649 44L84.7109 44.4757C89.4367 46.005 96.5245 46 100 46V45.5V45C96.4755 45 89.5633 44.9949 85.0188 43.5243L84.8649 44ZM40 140.037L40.4881 140.145L42.4881 131.145L42 131.037L41.5119 130.928L39.5119 139.928L40 140.037ZM55 143.286L55.4875 143.397L57.4875 134.611L57 134.5L56.5125 134.389L54.5125 143.175L55 143.286ZM53.5135 60.0718L53.0214 59.9835C52.7518 61.4862 49.3745 79.0878 46.063 96.3216C44.4076 104.937 42.7691 113.458 41.5445 119.825C40.9321 123.009 40.4233 125.654 40.0675 127.503C39.8896 128.428 39.75 129.153 39.6548 129.648C39.6073 129.895 39.5708 130.084 39.5462 130.212C39.534 130.276 39.5247 130.324 39.5184 130.357C39.5153 130.373 39.5129 130.385 39.5114 130.393C39.5106 130.397 39.51 130.4 39.5096 130.402C39.5094 130.403 39.5093 130.404 39.5092 130.405C39.5091 130.405 39.509 130.406 40 130.5C40.491 130.594 40.491 130.594 40.4911 130.594C40.4912 130.593 40.4914 130.592 40.4916 130.591C40.492 130.589 40.4926 130.586 40.4934 130.582C40.4949 130.574 40.4973 130.562 40.5004 130.546C40.5066 130.513 40.5159 130.465 40.5282 130.401C40.5528 130.273 40.5892 130.084 40.6368 129.837C40.732 129.342 40.8716 128.616 41.0495 127.692C41.4053 125.843 41.9141 123.197 42.5265 120.014C43.7511 113.647 45.3897 105.126 47.0451 96.5103C50.3552 79.2833 53.7347 61.6708 54.0057 60.16L53.5135 60.0718ZM40 130.5L39.8704 130.983L41.8704 131.52L42 131.037L42.1296 130.554L40.1296 130.017L40 130.5ZM59 135L59.1213 134.515L57.1213 134.015L57 134.5L56.8787 134.985L58.8787 135.485L59 135ZM42 131.037L41.8875 131.524L56.8875 134.987L57 134.5L57.1125 134.013L42.1125 130.55L42 131.037ZM82.5 44.6592L82.1202 44.9844C87.1749 50.8891 92.8017 54.5 100 54.5V54V53.5C93.1983 53.5 87.8251 50.1109 82.8798 44.3341L82.5 44.6592ZM115.135 44L115.001 44.4816L117.366 45.1408L117.5 44.6592L117.634 44.1776L115.269 43.5184L115.135 44ZM117.5 44.6592L117.366 45.1408L136.622 50.5085L136.757 50.0269L136.891 49.5453L117.634 44.1776L117.5 44.6592ZM136.757 50.0269L136.673 50.5199C139.493 50.9962 141.69 52.6659 143.26 54.61C144.834 56.56 145.74 58.7438 145.994 60.16L146.486 60.0718L146.979 59.9835C146.692 58.3862 145.707 56.0498 144.038 53.9819C142.364 51.9081 139.967 50.0621 136.84 49.5339L136.757 50.0269ZM136.757 82.6726H136.257V118.332H136.757H137.257V82.6726H136.757ZM136.757 118.332H136.257V150.475H136.757H137.257V118.332H136.757ZM136.757 150.475L136.604 149.999C120.995 155 110.24 155.5 100 155.5V156V156.5C110.301 156.5 121.167 155.995 136.909 150.951L136.757 150.475ZM115.135 44L114.778 43.6503C112.082 46.4057 110.102 48.1132 107.95 49.2042C105.805 50.291 103.449 50.7859 99.9644 51.0349L100 51.5337L100.036 52.0324C103.578 51.7792 106.087 51.2696 108.402 50.0962C110.708 48.9271 112.783 47.119 115.493 44.3497L115.135 44ZM115.135 44L114.981 43.5243C110.437 44.9949 103.524 45 100 45V45.5V46C103.476 46 110.563 46.005 115.289 44.4757L115.135 44ZM160 140.037L160.488 139.928L158.488 130.928L158 131.037L157.512 131.145L159.512 140.145L160 140.037ZM145 143.286L145.488 143.175L143.488 134.389L143 134.5L142.512 134.611L144.512 143.397L145 143.286ZM146.486 60.0718L145.994 60.16C146.265 61.6708 149.645 79.2833 152.955 96.5103C154.61 105.125 156.249 113.647 157.474 120.014C158.086 123.197 158.595 125.843 158.951 127.692C159.128 128.616 159.268 129.342 159.363 129.837C159.411 130.084 159.447 130.273 159.472 130.401C159.484 130.465 159.493 130.513 159.5 130.546C159.503 130.562 159.505 130.574 159.507 130.582C159.507 130.586 159.508 130.589 159.508 130.591C159.509 130.592 159.509 130.593 159.509 130.594C159.509 130.594 159.509 130.594 160 130.5C160.491 130.405 160.491 130.405 160.491 130.405C160.491 130.404 160.491 130.403 160.49 130.402C160.49 130.4 160.489 130.397 160.489 130.393C160.487 130.385 160.485 130.373 160.482 130.357C160.475 130.324 160.466 130.276 160.454 130.212C160.429 130.084 160.393 129.895 160.345 129.648C160.25 129.153 160.11 128.428 159.933 127.503C159.577 125.654 159.068 123.008 158.456 119.825C157.231 113.458 155.592 104.937 153.937 96.3216C150.625 79.0878 147.248 61.4862 146.979 59.9835L146.486 60.0718ZM160 130.5L159.87 130.017L157.87 130.554L158 131.037L158.13 131.52L160.13 130.983L160 130.5ZM141 135L141.121 135.485L143.121 134.985L143 134.5L142.879 134.015L140.879 134.515L141 135ZM158 131.037L157.888 130.55L142.888 134.013L143 134.5L143.112 134.987L158.112 131.524L158 131.037ZM117.5 44.6592L117.12 44.334C112.175 50.1108 106.802 53.5 100 53.5V54V54.5C107.198 54.5 112.825 50.8891 117.88 44.9844L117.5 44.6592ZM40 140.037L39.8942 140.526L54.8942 143.774L55 143.286L55.1058 142.797L40.1058 139.548L40 140.037ZM63.2433 118.332L62.7587 118.208L58.5155 134.877L59 135L59.4845 135.123L63.7278 118.455L63.2433 118.332ZM160 140.037L159.894 139.548L144.894 142.797L145 143.286L145.106 143.774L160.106 140.526L160 140.037ZM136.757 118.332L136.272 118.455L140.515 135.123L141 135L141.485 134.877L137.241 118.208L136.757 118.332Z" fill="black"/>
<path d="M100 46H123" stroke="#FF0000" stroke-width="0.5" stroke-dasharray="1 1"/>
<path d="M100 156H123" stroke="#FF0000" stroke-width="0.5" stroke-dasharray="1 1"/>
<path d="M118 154V48" stroke="#FF0202" stroke-linecap="round"/>
</g>
<defs>
<clipPath id="clip0_159_72">
<rect width="200" height="200" fill="white"/>
</clipPath>
</defs>
</svg>
