<svg width="200" height="200" viewBox="0 0 200 200" fill="none" xmlns="http://www.w3.org/2000/svg">
<g clip-path="url(#clip0_195_114)">
<rect width="200" height="200" fill="white"/>
<path d="M78.353 85.5404C78.7185 82.5382 79.1337 79.3587 79.6052 76L92.1052 76.3078M78.353 85.5404C75.6579 107.672 75.6579 120.164 75.6578 123.702L75.4034 150.5C81.3245 151.504 85.5263 151.504 87.5 151.504C92.4635 151.504 98.0263 149.998 98.6842 149.496L100 107M78.353 85.5404H78.2894M78.353 85.5404H85.5263C88.1579 85.5404 88.1579 84.034 88.8157 83.0298L89.2221 81.014M100 98.0936L100 81.0213M100 98.0936L95.5 95.0323V81.0213M100 98.0936V107M92.1052 76.3078L100 76.5021L107.895 76.3078M92.1052 76.3078L90.7894 81.0213M90.7894 81.0213C90.2422 81.0213 89.7201 81.0188 89.2221 81.014M90.7894 81.0213H95.5M89.2221 81.014C81.5768 80.9406 79.6052 80.3313 79.6052 80.017M89.2221 81.014L90.1315 76.5021M121.647 85.5404C121.281 82.5382 120.866 79.3587 120.395 76L107.895 76.3078M121.647 85.5404C124.342 107.672 124.342 120.164 124.342 123.702L124.596 150.5C118.675 151.504 115.386 151.504 113.412 151.504C108.449 151.504 101.974 149.998 101.316 149.496L100 107M121.647 85.5404H121.71M121.647 85.5404H114.474C111.842 85.5404 111.842 84.034 111.184 83.0298L110.778 81.014M107.895 76.3078L109.21 81.0213M109.21 81.0213C109.758 81.0213 110.28 81.0188 110.778 81.014M109.21 81.0213H100M110.778 81.014C118.423 80.9406 120.395 80.3313 120.395 80.017M110.778 81.014L109.868 76.5021M100 81.0213H95.5" stroke="black"/>
<path d="M135 108V149" stroke="#FF0202" stroke-linecap="round"/>
<path d="M131 144L135 149.958L139 144" stroke="#FF0202" stroke-linecap="round"/>
<path d="M131 113.958L135 108L139 113.958" stroke="#FF0202" stroke-linecap="round"/>
<path d="M119.581 68H81.3983" stroke="#FF0202" stroke-linecap="round"/>
<path d="M86.783 64L80 68L86.783 72" stroke="#FF0202" stroke-linecap="round"/>
<path d="M113.217 64L120 68L113.217 72" stroke="#FF0202" stroke-linecap="round"/>
<path d="M121.528 101H78.5731" stroke="#FF0202" stroke-linecap="round"/>
<path d="M84.6308 97L77 101L84.6308 105" stroke="#FF0202" stroke-linecap="round"/>
<path d="M114.369 97L122 101L114.369 105" stroke="#FF0202" stroke-linecap="round"/>
<path d="M113 152H143.5" stroke="#FF0000" stroke-linecap="round" stroke-dasharray="2 2"/>
<path d="M100 107H144" stroke="#FF0000" stroke-linecap="round" stroke-dasharray="2 2"/>
<path d="M145.372 123.172H148.348V124.504H145.372V123.172ZM144.292 127.888H149.068V129.196H144.292V127.888ZM144.82 123.172H146.2V124.564C146.2 124.932 146.16 125.316 146.08 125.716C146.008 126.108 145.868 126.488 145.66 126.856C145.452 127.216 145.144 127.536 144.736 127.816C144.664 127.728 144.56 127.624 144.424 127.504C144.288 127.384 144.148 127.264 144.004 127.144C143.868 127.024 143.748 126.936 143.644 126.88C144.004 126.656 144.264 126.412 144.424 126.148C144.592 125.876 144.7 125.604 144.748 125.332C144.796 125.052 144.82 124.784 144.82 124.528V123.172ZM147.592 123.172H148.948V125.848C148.948 126.008 148.956 126.112 148.972 126.16C148.988 126.2 149.028 126.22 149.092 126.22C149.108 126.22 149.132 126.22 149.164 126.22C149.204 126.22 149.24 126.22 149.272 126.22C149.312 126.22 149.34 126.22 149.356 126.22C149.412 126.22 149.452 126.192 149.476 126.136C149.5 126.072 149.52 125.948 149.536 125.764C149.56 125.58 149.576 125.3 149.584 124.924C149.712 125.036 149.892 125.14 150.124 125.236C150.364 125.332 150.572 125.4 150.748 125.44C150.708 125.96 150.64 126.364 150.544 126.652C150.456 126.94 150.328 127.14 150.16 127.252C150 127.364 149.788 127.42 149.524 127.42C149.46 127.42 149.384 127.42 149.296 127.42C149.208 127.42 149.124 127.42 149.044 127.42C148.964 127.42 148.892 127.42 148.828 127.42C148.516 127.42 148.268 127.376 148.084 127.288C147.908 127.192 147.78 127.032 147.7 126.808C147.628 126.584 147.592 126.272 147.592 125.872V123.172ZM145.936 129.148C146.36 130.012 146.992 130.772 147.832 131.428C148.672 132.076 149.652 132.552 150.772 132.856C150.668 132.952 150.552 133.072 150.424 133.216C150.296 133.368 150.176 133.524 150.064 133.684C149.96 133.844 149.872 133.988 149.8 134.116C148.616 133.724 147.588 133.14 146.716 132.364C145.852 131.588 145.152 130.664 144.616 129.592L145.936 129.148ZM148.6 127.888H148.876L149.116 127.828L150.052 128.2C149.844 128.984 149.564 129.688 149.212 130.312C148.86 130.936 148.444 131.488 147.964 131.968C147.492 132.448 146.964 132.86 146.38 133.204C145.804 133.556 145.18 133.848 144.508 134.08C144.46 133.96 144.388 133.82 144.292 133.66C144.204 133.508 144.108 133.356 144.004 133.204C143.9 133.06 143.8 132.94 143.704 132.844C144.296 132.676 144.856 132.448 145.384 132.16C145.912 131.864 146.388 131.516 146.812 131.116C147.236 130.716 147.6 130.264 147.904 129.76C148.216 129.256 148.448 128.708 148.6 128.116V127.888ZM140.656 123.22H143.296V124.552H140.656V123.22ZM140.656 125.92H143.344V127.252H140.656V125.92ZM140.644 128.644H143.296V130.012H140.644V128.644ZM140.092 123.22H141.388V127.6C141.388 128.08 141.376 128.604 141.352 129.172C141.328 129.74 141.284 130.316 141.22 130.9C141.156 131.484 141.06 132.052 140.932 132.604C140.812 133.156 140.648 133.652 140.44 134.092C140.36 134.02 140.248 133.94 140.104 133.852C139.968 133.764 139.824 133.68 139.672 133.6C139.52 133.528 139.388 133.472 139.276 133.432C139.468 133.024 139.616 132.576 139.72 132.088C139.832 131.592 139.912 131.084 139.96 130.564C140.016 130.044 140.052 129.532 140.068 129.028C140.084 128.516 140.092 128.04 140.092 127.6V123.22ZM142.492 123.22H143.824V132.508C143.824 132.836 143.792 133.104 143.728 133.312C143.664 133.52 143.536 133.684 143.344 133.804C143.152 133.924 142.92 134 142.648 134.032C142.384 134.064 142.056 134.08 141.664 134.08C141.656 133.952 141.632 133.8 141.592 133.624C141.552 133.456 141.504 133.288 141.448 133.12C141.392 132.952 141.336 132.808 141.28 132.688C141.496 132.696 141.7 132.7 141.892 132.7C142.092 132.7 142.228 132.7 142.3 132.7C142.372 132.7 142.42 132.684 142.444 132.652C142.476 132.62 142.492 132.564 142.492 132.484V123.22ZM151.624 123.688H162.388V125.14H151.624V123.688ZM155.98 124.984H157.528V134.044H155.98V124.984ZM156.796 127.9L157.78 126.748C158.108 126.908 158.46 127.092 158.836 127.3C159.22 127.5 159.6 127.712 159.976 127.936C160.352 128.16 160.708 128.38 161.044 128.596C161.38 128.804 161.66 129.004 161.884 129.196L160.816 130.516C160.608 130.324 160.344 130.116 160.024 129.892C159.712 129.66 159.368 129.428 158.992 129.196C158.624 128.964 158.252 128.736 157.876 128.512C157.5 128.28 157.14 128.076 156.796 127.9Z" fill="black"/>
<path d="M82.864 50.196C82.84 50.452 82.82 50.66 82.804 50.82C82.788 50.972 82.78 51.132 82.78 51.3C82.78 51.404 82.78 51.564 82.78 51.78C82.78 51.996 82.78 52.22 82.78 52.452C82.78 52.684 82.78 52.876 82.78 53.028H81.112C81.112 52.86 81.112 52.66 81.112 52.428C81.112 52.196 81.112 51.976 81.112 51.768C81.112 51.56 81.112 51.404 81.112 51.3C81.112 51.132 81.104 50.972 81.088 50.82C81.08 50.66 81.056 50.452 81.016 50.196H82.864ZM86.908 52.728C86.86 52.856 86.812 53.02 86.764 53.22C86.724 53.412 86.692 53.568 86.668 53.688C86.62 53.968 86.56 54.252 86.488 54.54C86.424 54.828 86.344 55.116 86.248 55.404C86.16 55.692 86.056 55.976 85.936 56.256C85.824 56.536 85.696 56.812 85.552 57.084C85.232 57.668 84.824 58.2 84.328 58.68C83.84 59.16 83.284 59.568 82.66 59.904C82.036 60.232 81.368 60.492 80.656 60.684L79.408 59.244C79.68 59.196 79.968 59.132 80.272 59.052C80.576 58.964 80.852 58.872 81.1 58.776C81.436 58.648 81.768 58.488 82.096 58.296C82.432 58.096 82.748 57.864 83.044 57.6C83.34 57.336 83.6 57.044 83.824 56.724C84.024 56.428 84.196 56.112 84.34 55.776C84.484 55.432 84.6 55.08 84.688 54.72C84.776 54.352 84.844 53.992 84.892 53.64H78.94C78.94 53.744 78.94 53.876 78.94 54.036C78.94 54.188 78.94 54.356 78.94 54.54C78.94 54.716 78.94 54.88 78.94 55.032C78.94 55.176 78.94 55.296 78.94 55.392C78.94 55.528 78.944 55.68 78.952 55.848C78.96 56.016 78.968 56.16 78.976 56.28H77.32C77.336 56.128 77.348 55.964 77.356 55.788C77.372 55.604 77.38 55.432 77.38 55.272C77.38 55.176 77.38 55.036 77.38 54.852C77.38 54.668 77.38 54.472 77.38 54.264C77.38 54.048 77.38 53.844 77.38 53.652C77.38 53.46 77.38 53.308 77.38 53.196C77.38 53.06 77.376 52.892 77.368 52.692C77.36 52.484 77.344 52.308 77.32 52.164C77.528 52.188 77.728 52.204 77.92 52.212C78.112 52.22 78.32 52.224 78.544 52.224H84.868C85.116 52.224 85.316 52.212 85.468 52.188C85.628 52.156 85.76 52.124 85.864 52.092L86.908 52.728ZM89.668 51.624C89.828 51.64 90.016 51.656 90.232 51.672C90.448 51.688 90.64 51.696 90.808 51.696H97.336C97.52 51.696 97.712 51.688 97.912 51.672C98.112 51.656 98.296 51.64 98.464 51.624V53.268C98.288 53.252 98.1 53.24 97.9 53.232C97.7 53.224 97.512 53.22 97.336 53.22H90.808C90.648 53.22 90.456 53.224 90.232 53.232C90.008 53.24 89.82 53.252 89.668 53.268V51.624ZM93.124 59.004V52.548H94.804V59.004H93.124ZM88.888 58.02C89.08 58.052 89.28 58.076 89.488 58.092C89.696 58.108 89.892 58.116 90.076 58.116H97.984C98.2 58.116 98.404 58.108 98.596 58.092C98.788 58.068 98.96 58.044 99.112 58.02V59.76C98.936 59.736 98.74 59.72 98.524 59.712C98.308 59.704 98.128 59.7 97.984 59.7H90.076C89.9 59.7 89.708 59.704 89.5 59.712C89.292 59.72 89.088 59.736 88.888 59.76V58.02ZM110.008 51.864C109.96 51.936 109.888 52.048 109.792 52.2C109.704 52.352 109.636 52.492 109.588 52.62C109.42 52.996 109.212 53.416 108.964 53.88C108.724 54.344 108.448 54.812 108.136 55.284C107.832 55.748 107.508 56.184 107.164 56.592C106.716 57.096 106.22 57.596 105.676 58.092C105.14 58.58 104.572 59.032 103.972 59.448C103.38 59.856 102.772 60.208 102.148 60.504L100.912 59.208C101.56 58.96 102.188 58.648 102.796 58.272C103.404 57.896 103.968 57.488 104.488 57.048C105.008 56.608 105.456 56.18 105.832 55.764C106.096 55.46 106.344 55.136 106.576 54.792C106.816 54.448 107.028 54.108 107.212 53.772C107.396 53.428 107.532 53.112 107.62 52.824C107.54 52.824 107.396 52.824 107.188 52.824C106.98 52.824 106.736 52.824 106.456 52.824C106.184 52.824 105.896 52.824 105.592 52.824C105.288 52.824 104.996 52.824 104.716 52.824C104.444 52.824 104.204 52.824 103.996 52.824C103.788 52.824 103.64 52.824 103.552 52.824C103.384 52.824 103.208 52.832 103.024 52.848C102.84 52.856 102.664 52.868 102.496 52.884C102.336 52.892 102.212 52.9 102.124 52.908V51.204C102.244 51.212 102.392 51.224 102.568 51.24C102.744 51.256 102.92 51.268 103.096 51.276C103.28 51.284 103.432 51.288 103.552 51.288C103.656 51.288 103.82 51.288 104.044 51.288C104.268 51.288 104.524 51.288 104.812 51.288C105.1 51.288 105.396 51.288 105.7 51.288C106.012 51.288 106.308 51.288 106.588 51.288C106.876 51.288 107.124 51.288 107.332 51.288C107.54 51.288 107.692 51.288 107.788 51.288C108.052 51.288 108.292 51.272 108.508 51.24C108.732 51.208 108.904 51.172 109.024 51.132L110.008 51.864ZM107.32 55.596C107.632 55.844 107.964 56.132 108.316 56.46C108.668 56.788 109.016 57.128 109.36 57.48C109.704 57.832 110.02 58.172 110.308 58.5C110.604 58.82 110.852 59.1 111.052 59.34L109.684 60.528C109.388 60.12 109.048 59.696 108.664 59.256C108.288 58.816 107.888 58.38 107.464 57.948C107.048 57.508 106.624 57.092 106.192 56.7L107.32 55.596ZM115.768 58.848C115.768 58.696 115.768 58.448 115.768 58.104C115.768 57.752 115.768 57.348 115.768 56.892C115.768 56.428 115.768 55.944 115.768 55.44C115.768 54.936 115.768 54.452 115.768 53.988C115.768 53.516 115.768 53.1 115.768 52.74C115.768 52.38 115.768 52.116 115.768 51.948C115.768 51.74 115.756 51.5 115.732 51.228C115.716 50.956 115.688 50.716 115.648 50.508H117.52C117.496 50.716 117.472 50.948 117.448 51.204C117.424 51.452 117.412 51.7 117.412 51.948C117.412 52.172 117.412 52.476 117.412 52.86C117.412 53.244 117.412 53.672 117.412 54.144C117.412 54.608 117.412 55.084 117.412 55.572C117.412 56.052 117.412 56.516 117.412 56.964C117.412 57.412 117.412 57.804 117.412 58.14C117.412 58.468 117.412 58.704 117.412 58.848C117.412 58.96 117.416 59.12 117.424 59.328C117.432 59.528 117.448 59.736 117.472 59.952C117.496 60.168 117.512 60.36 117.52 60.528H115.648C115.68 60.288 115.708 60.008 115.732 59.688C115.756 59.368 115.768 59.088 115.768 58.848ZM117.052 53.616C117.452 53.72 117.9 53.856 118.396 54.024C118.892 54.184 119.392 54.356 119.896 54.54C120.4 54.724 120.872 54.908 121.312 55.092C121.76 55.268 122.132 55.432 122.428 55.584L121.744 57.24C121.408 57.064 121.036 56.888 120.628 56.712C120.22 56.528 119.804 56.352 119.38 56.184C118.964 56.016 118.552 55.86 118.144 55.716C117.744 55.572 117.38 55.444 117.052 55.332V53.616Z" fill="black"/>
<path d="M40.152 87.544C40.12 87.728 40.096 87.94 40.08 88.18C40.072 88.42 40.068 88.624 40.068 88.792C40.068 88.912 40.068 89.124 40.068 89.428C40.068 89.732 40.068 90.088 40.068 90.496C40.068 90.896 40.068 91.32 40.068 91.768C40.068 92.208 40.068 92.636 40.068 93.052C40.068 93.46 40.068 93.824 40.068 94.144C40.068 94.464 40.068 94.7 40.068 94.852C40.068 95.108 40.128 95.284 40.248 95.38C40.376 95.476 40.576 95.552 40.848 95.608C41.024 95.632 41.232 95.652 41.472 95.668C41.712 95.676 41.964 95.68 42.228 95.68C42.54 95.68 42.884 95.672 43.26 95.656C43.644 95.632 44.028 95.604 44.412 95.572C44.804 95.54 45.172 95.496 45.516 95.44C45.868 95.384 46.168 95.324 46.416 95.26V97.024C46.04 97.072 45.6 97.112 45.096 97.144C44.6 97.184 44.092 97.212 43.572 97.228C43.06 97.252 42.58 97.264 42.132 97.264C41.748 97.264 41.38 97.252 41.028 97.228C40.676 97.204 40.372 97.172 40.116 97.132C39.596 97.036 39.192 96.84 38.904 96.544C38.616 96.248 38.472 95.844 38.472 95.332C38.472 95.1 38.472 94.8 38.472 94.432C38.472 94.056 38.472 93.644 38.472 93.196C38.472 92.74 38.472 92.284 38.472 91.828C38.472 91.364 38.472 90.928 38.472 90.52C38.472 90.104 38.472 89.744 38.472 89.44C38.472 89.136 38.472 88.92 38.472 88.792C38.472 88.672 38.468 88.536 38.46 88.384C38.452 88.232 38.44 88.08 38.424 87.928C38.408 87.768 38.392 87.64 38.376 87.544H40.152ZM39.36 91.228C39.744 91.148 40.156 91.048 40.596 90.928C41.036 90.808 41.476 90.68 41.916 90.544C42.364 90.408 42.788 90.268 43.188 90.124C43.588 89.98 43.944 89.844 44.256 89.716C44.472 89.628 44.684 89.532 44.892 89.428C45.108 89.324 45.332 89.204 45.564 89.068L46.212 90.58C45.98 90.676 45.736 90.776 45.48 90.88C45.232 90.984 45.008 91.076 44.808 91.156C44.456 91.292 44.052 91.436 43.596 91.588C43.14 91.74 42.664 91.892 42.168 92.044C41.68 92.188 41.192 92.328 40.704 92.464C40.224 92.592 39.78 92.704 39.372 92.8L39.36 91.228ZM54.06 89.872C54.116 90 54.188 90.184 54.276 90.424C54.372 90.656 54.472 90.908 54.576 91.18C54.68 91.444 54.772 91.696 54.852 91.936C54.932 92.176 54.996 92.364 55.044 92.5L53.604 93.004C53.572 92.852 53.516 92.66 53.436 92.428C53.356 92.196 53.268 91.952 53.172 91.696C53.076 91.432 52.98 91.18 52.884 90.94C52.788 90.7 52.704 90.5 52.632 90.34L54.06 89.872ZM58.488 90.748C58.424 90.94 58.368 91.104 58.32 91.24C58.28 91.376 58.24 91.504 58.2 91.624C58.048 92.232 57.84 92.84 57.576 93.448C57.312 94.048 56.976 94.612 56.568 95.14C56.008 95.86 55.372 96.472 54.66 96.976C53.956 97.472 53.252 97.852 52.548 98.116L51.288 96.832C51.728 96.712 52.192 96.536 52.68 96.304C53.168 96.064 53.64 95.776 54.096 95.44C54.552 95.104 54.944 94.732 55.272 94.324C55.544 93.98 55.784 93.588 55.992 93.148C56.208 92.7 56.384 92.224 56.52 91.72C56.664 91.208 56.76 90.704 56.808 90.208L58.488 90.748ZM51.276 90.508C51.356 90.66 51.444 90.856 51.54 91.096C51.644 91.336 51.748 91.588 51.852 91.852C51.956 92.116 52.056 92.372 52.152 92.62C52.256 92.868 52.336 93.076 52.392 93.244L50.928 93.796C50.88 93.636 50.808 93.428 50.712 93.172C50.624 92.916 50.524 92.648 50.412 92.368C50.3 92.08 50.192 91.816 50.088 91.576C49.992 91.336 49.908 91.152 49.836 91.024L51.276 90.508ZM69.648 88.204C69.648 88.396 69.716 88.56 69.852 88.696C69.988 88.824 70.148 88.888 70.332 88.888C70.524 88.888 70.688 88.824 70.824 88.696C70.96 88.56 71.028 88.396 71.028 88.204C71.028 88.012 70.96 87.848 70.824 87.712C70.688 87.576 70.524 87.508 70.332 87.508C70.148 87.508 69.988 87.576 69.852 87.712C69.716 87.848 69.648 88.012 69.648 88.204ZM68.904 88.204C68.904 87.94 68.968 87.7 69.096 87.484C69.232 87.26 69.408 87.084 69.624 86.956C69.84 86.828 70.076 86.764 70.332 86.764C70.596 86.764 70.836 86.828 71.052 86.956C71.276 87.084 71.452 87.26 71.58 87.484C71.708 87.7 71.772 87.94 71.772 88.204C71.772 88.46 71.708 88.696 71.58 88.912C71.452 89.128 71.276 89.304 71.052 89.44C70.836 89.568 70.596 89.632 70.332 89.632C70.076 89.632 69.84 89.568 69.624 89.44C69.408 89.304 69.232 89.128 69.096 88.912C68.968 88.696 68.904 88.46 68.904 88.204ZM70.356 89.152C70.3 89.264 70.252 89.4 70.212 89.56C70.172 89.712 70.132 89.852 70.092 89.98C70.028 90.276 69.944 90.608 69.84 90.976C69.736 91.336 69.612 91.712 69.468 92.104C69.324 92.496 69.152 92.884 68.952 93.268C68.76 93.652 68.54 94.012 68.292 94.348C67.932 94.828 67.512 95.276 67.032 95.692C66.552 96.108 66.016 96.484 65.424 96.82C64.832 97.156 64.18 97.44 63.468 97.672L62.16 96.232C62.96 96.04 63.648 95.804 64.224 95.524C64.8 95.244 65.3 94.924 65.724 94.564C66.156 94.204 66.536 93.82 66.864 93.412C67.128 93.076 67.352 92.712 67.536 92.32C67.728 91.928 67.884 91.536 68.004 91.144C68.132 90.744 68.22 90.372 68.268 90.028C68.148 90.028 67.948 90.028 67.668 90.028C67.396 90.028 67.072 90.028 66.696 90.028C66.328 90.028 65.94 90.028 65.532 90.028C65.132 90.028 64.744 90.028 64.368 90.028C63.992 90.028 63.652 90.028 63.348 90.028C63.052 90.028 62.832 90.028 62.688 90.028C62.408 90.028 62.136 90.032 61.872 90.04C61.616 90.048 61.412 90.06 61.26 90.076V88.384C61.38 88.4 61.524 88.416 61.692 88.432C61.868 88.448 62.044 88.46 62.22 88.468C62.404 88.476 62.56 88.48 62.688 88.48C62.816 88.48 62.996 88.48 63.228 88.48C63.468 88.48 63.744 88.48 64.056 88.48C64.368 88.48 64.692 88.48 65.028 88.48C65.372 88.48 65.712 88.48 66.048 88.48C66.392 88.48 66.712 88.48 67.008 88.48C67.304 88.48 67.56 88.48 67.776 88.48C67.992 88.48 68.148 88.48 68.244 88.48C68.364 88.48 68.508 88.476 68.676 88.468C68.852 88.46 69.02 88.432 69.18 88.384L70.356 89.152Z" fill="black"/>
<path d="M79 75V63" stroke="#FF0000" stroke-width="0.5" stroke-linecap="round" stroke-dasharray="2 2"/>
<path d="M121 75V63" stroke="#FF0000" stroke-width="0.5" stroke-linecap="round" stroke-dasharray="2 2"/>
</g>
<defs>
<clipPath id="clip0_195_114">
<rect width="200" height="200" fill="white"/>
</clipPath>
</defs>
</svg>
