<svg width="200" height="200" viewBox="0 0 200 200" fill="none" xmlns="http://www.w3.org/2000/svg">
<g clip-path="url(#clip0_142_79)">
<rect width="200" height="200" fill="white"/>
<path d="M68.881 51V44H131.119V51M68.881 51C58.7884 75.1111 58.9913 89.1111 61.3116 104.667C63.9798 122.556 64.6759 134.222 62.9938 149.778C74.7685 156 85.7021 156 100 156C114.298 156 125.231 156 137.006 149.778C135.324 134.222 136.02 122.556 138.688 104.667C141.009 89.1111 141.212 75.1111 131.119 51M68.881 51H131.119" stroke="black"/>
<path d="M162.99 97.27L164.19 97.55C164.07 97.8433 163.943 98.1433 163.81 98.45C163.677 98.75 163.547 99.0367 163.42 99.31C163.3 99.5833 163.18 99.8267 163.06 100.04L162.17 99.76C162.27 99.54 162.37 99.2833 162.47 98.99C162.577 98.6967 162.677 98.4 162.77 98.1C162.863 97.8 162.937 97.5233 162.99 97.27ZM164.16 98.61L165.07 98.16C165.25 98.3867 165.43 98.6333 165.61 98.9C165.79 99.16 165.953 99.4167 166.1 99.67C166.253 99.9233 166.37 100.153 166.45 100.36L165.47 100.88C165.403 100.673 165.3 100.44 165.16 100.18C165.02 99.92 164.86 99.6533 164.68 99.38C164.507 99.1067 164.333 98.85 164.16 98.61ZM164.73 102.19L165.64 101.74C165.82 101.973 165.99 102.227 166.15 102.5C166.317 102.773 166.457 103.043 166.57 103.31C166.69 103.577 166.773 103.82 166.82 104.04L165.82 104.54C165.787 104.32 165.713 104.077 165.6 103.81C165.493 103.537 165.363 103.26 165.21 102.98C165.057 102.7 164.897 102.437 164.73 102.19ZM161.28 99.36C161.633 99.3533 162.04 99.3433 162.5 99.33C162.967 99.31 163.457 99.2867 163.97 99.26C164.49 99.2333 165.013 99.21 165.54 99.19L165.52 100.13C164.813 100.19 164.103 100.247 163.39 100.3C162.677 100.353 162.04 100.4 161.48 100.44L161.28 99.36ZM162.29 95.66L163.43 95.94C163.243 96.44 163 96.92 162.7 97.38C162.4 97.8333 162.083 98.2133 161.75 98.52C161.683 98.4533 161.593 98.3733 161.48 98.28C161.367 98.1867 161.25 98.0967 161.13 98.01C161.01 97.9233 160.903 97.8533 160.81 97.8C161.137 97.5467 161.43 97.23 161.69 96.85C161.95 96.47 162.15 96.0733 162.29 95.66ZM165.09 95.65C165.223 95.87 165.383 96.0967 165.57 96.33C165.763 96.5633 165.97 96.7833 166.19 96.99C166.41 97.1967 166.62 97.3767 166.82 97.53C166.733 97.59 166.637 97.6733 166.53 97.78C166.423 97.88 166.32 97.9867 166.22 98.1C166.127 98.2067 166.05 98.3033 165.99 98.39C165.777 98.2033 165.553 97.98 165.32 97.72C165.093 97.46 164.873 97.1867 164.66 96.9C164.453 96.6067 164.27 96.3233 164.11 96.05L165.09 95.65ZM162.53 100.95L163.27 100.31C163.497 100.41 163.717 100.53 163.93 100.67C164.15 100.803 164.35 100.947 164.53 101.1C164.717 101.253 164.87 101.403 164.99 101.55L164.2 102.27C164.093 102.117 163.947 101.96 163.76 101.8C163.58 101.633 163.383 101.477 163.17 101.33C162.957 101.183 162.743 101.057 162.53 100.95ZM162.47 101.72H163.57V103.58C163.57 103.713 163.58 103.797 163.6 103.83C163.627 103.863 163.68 103.88 163.76 103.88C163.78 103.88 163.81 103.88 163.85 103.88C163.89 103.88 163.933 103.88 163.98 103.88C164.033 103.88 164.08 103.88 164.12 103.88C164.167 103.88 164.2 103.88 164.22 103.88C164.28 103.88 164.323 103.86 164.35 103.82C164.383 103.773 164.407 103.683 164.42 103.55C164.44 103.41 164.453 103.197 164.46 102.91C164.527 102.97 164.617 103.027 164.73 103.08C164.85 103.133 164.97 103.183 165.09 103.23C165.217 103.277 165.33 103.313 165.43 103.34C165.397 103.753 165.337 104.073 165.25 104.3C165.17 104.527 165.057 104.68 164.91 104.76C164.77 104.847 164.583 104.89 164.35 104.89C164.31 104.89 164.253 104.89 164.18 104.89C164.113 104.89 164.04 104.89 163.96 104.89C163.887 104.89 163.813 104.89 163.74 104.89C163.673 104.89 163.62 104.89 163.58 104.89C163.273 104.89 163.04 104.85 162.88 104.77C162.727 104.69 162.62 104.553 162.56 104.36C162.5 104.173 162.47 103.917 162.47 103.59V101.72ZM161.43 101.94L162.39 102.1C162.343 102.507 162.257 102.93 162.13 103.37C162.01 103.803 161.857 104.173 161.67 104.48L160.72 104.07C160.893 103.817 161.04 103.493 161.16 103.1C161.287 102.7 161.377 102.313 161.43 101.94ZM158.81 95.49L159.84 95.88C159.707 96.14 159.567 96.4067 159.42 96.68C159.273 96.9467 159.13 97.2033 158.99 97.45C158.85 97.6967 158.717 97.9167 158.59 98.11L157.8 97.76C157.92 97.56 158.043 97.33 158.17 97.07C158.297 96.8033 158.417 96.5333 158.53 96.26C158.643 95.9867 158.737 95.73 158.81 95.49ZM159.93 96.7L160.9 97.15C160.653 97.5233 160.387 97.9167 160.1 98.33C159.813 98.7433 159.527 99.14 159.24 99.52C158.953 99.9 158.68 100.233 158.42 100.52L157.74 100.13C157.927 99.91 158.12 99.66 158.32 99.38C158.527 99.0933 158.727 98.7967 158.92 98.49C159.113 98.1767 159.297 97.8667 159.47 97.56C159.643 97.2533 159.797 96.9667 159.93 96.7ZM157.26 97.83L157.85 97.03C158.023 97.1833 158.2 97.3567 158.38 97.55C158.56 97.7367 158.723 97.9233 158.87 98.11C159.023 98.29 159.14 98.46 159.22 98.62L158.57 99.54C158.497 99.3733 158.387 99.19 158.24 98.99C158.1 98.79 157.943 98.59 157.77 98.39C157.597 98.1833 157.427 97.9967 157.26 97.83ZM159.59 99.09L160.43 98.74C160.563 98.96 160.693 99.2 160.82 99.46C160.947 99.7133 161.06 99.9633 161.16 100.21C161.26 100.45 161.33 100.667 161.37 100.86L160.47 101.27C160.437 101.077 160.373 100.853 160.28 100.6C160.187 100.347 160.08 100.09 159.96 99.83C159.847 99.5633 159.723 99.3167 159.59 99.09ZM157.24 99.91C157.68 99.8833 158.207 99.85 158.82 99.81C159.433 99.7633 160.057 99.7167 160.69 99.67L160.7 100.59C160.127 100.657 159.55 100.72 158.97 100.78C158.397 100.84 157.873 100.897 157.4 100.95L157.24 99.91ZM159.83 101.63L160.68 101.35C160.807 101.643 160.923 101.963 161.03 102.31C161.143 102.657 161.223 102.953 161.27 103.2L160.37 103.52C160.323 103.26 160.247 102.953 160.14 102.6C160.04 102.247 159.937 101.923 159.83 101.63ZM157.65 101.37L158.62 101.53C158.56 102.01 158.477 102.483 158.37 102.95C158.27 103.41 158.15 103.8 158.01 104.12C157.943 104.08 157.857 104.033 157.75 103.98C157.643 103.927 157.533 103.873 157.42 103.82C157.313 103.767 157.22 103.727 157.14 103.7C157.287 103.407 157.4 103.05 157.48 102.63C157.56 102.21 157.617 101.79 157.65 101.37ZM158.77 100.42H159.8V104.89H158.77V100.42ZM167.57 97.31H176.45V98.48H167.57V97.31ZM169.82 98.8C170.093 99.7933 170.5 100.633 171.04 101.32C171.587 102 172.307 102.537 173.2 102.93C174.1 103.323 175.22 103.59 176.56 103.73C176.473 103.817 176.383 103.93 176.29 104.07C176.197 104.21 176.11 104.35 176.03 104.49C175.95 104.63 175.883 104.76 175.83 104.88C174.77 104.74 173.85 104.523 173.07 104.23C172.29 103.937 171.62 103.553 171.06 103.08C170.507 102.607 170.037 102.04 169.65 101.38C169.27 100.713 168.947 99.9433 168.68 99.07L169.82 98.8ZM172.41 95.67H173.74C173.733 96.4633 173.717 97.2133 173.69 97.92C173.67 98.62 173.61 99.2767 173.51 99.89C173.41 100.497 173.247 101.053 173.02 101.56C172.8 102.067 172.49 102.527 172.09 102.94C171.69 103.347 171.173 103.703 170.54 104.01C169.913 104.323 169.137 104.583 168.21 104.79C168.177 104.683 168.12 104.563 168.04 104.43C167.967 104.303 167.883 104.177 167.79 104.05C167.697 103.923 167.607 103.817 167.52 103.73C168.373 103.557 169.087 103.34 169.66 103.08C170.24 102.82 170.707 102.52 171.06 102.18C171.42 101.833 171.69 101.44 171.87 101C172.057 100.56 172.187 100.073 172.26 99.54C172.333 99 172.377 98.41 172.39 97.77C172.403 97.1233 172.41 96.4233 172.41 95.67Z" fill="black"/>
<path d="M154 150V44" stroke="#FF0202" stroke-linecap="round"/>
<path d="M136 150H157" stroke="#FF0000" stroke-width="0.5" stroke-dasharray="1 1"/>
<path d="M131 44H157" stroke="#FF0000" stroke-width="0.5" stroke-dasharray="1 1"/>
<path d="M158 50.9282L154 44L150 50.9282" stroke="#FF0202" stroke-linecap="round"/>
<path d="M150 143L154 149.928L158 143" stroke="#FF0202" stroke-linecap="round"/>
<path d="M140 89H60" stroke="#FF0202" stroke-linecap="round"/>
<path d="M131 36H69" stroke="#FF0202" stroke-linecap="round"/>
<path d="M66.9282 85L60 89L66.9282 93" stroke="#FF0202" stroke-linecap="round"/>
<path d="M74.9282 32L68 36L74.9282 40" stroke="#FF0202" stroke-linecap="round"/>
<path d="M133 85L139.928 89L133 93" stroke="#FF0202" stroke-linecap="round"/>
<path d="M124 32L130.928 36L124 40" stroke="#FF0202" stroke-linecap="round"/>
<path d="M88.46 77.12C88.4333 77.2733 88.4133 77.45 88.4 77.65C88.3933 77.85 88.39 78.02 88.39 78.16C88.39 78.26 88.39 78.4367 88.39 78.69C88.39 78.9433 88.39 79.24 88.39 79.58C88.39 79.9133 88.39 80.2667 88.39 80.64C88.39 81.0067 88.39 81.3633 88.39 81.71C88.39 82.05 88.39 82.3533 88.39 82.62C88.39 82.8867 88.39 83.0833 88.39 83.21C88.39 83.4233 88.44 83.57 88.54 83.65C88.6467 83.73 88.8133 83.7933 89.04 83.84C89.1867 83.86 89.36 83.8767 89.56 83.89C89.76 83.8967 89.97 83.9 90.19 83.9C90.45 83.9 90.7367 83.8933 91.05 83.88C91.37 83.86 91.69 83.8367 92.01 83.81C92.3367 83.7833 92.6433 83.7467 92.93 83.7C93.2233 83.6533 93.4733 83.6033 93.68 83.55V85.02C93.3667 85.06 93 85.0933 92.58 85.12C92.1667 85.1533 91.7433 85.1767 91.31 85.19C90.8833 85.21 90.4833 85.22 90.11 85.22C89.79 85.22 89.4833 85.21 89.19 85.19C88.8967 85.17 88.6433 85.1433 88.43 85.11C87.9967 85.03 87.66 84.8667 87.42 84.62C87.18 84.3733 87.06 84.0367 87.06 83.61C87.06 83.4167 87.06 83.1667 87.06 82.86C87.06 82.5467 87.06 82.2033 87.06 81.83C87.06 81.45 87.06 81.07 87.06 80.69C87.06 80.3033 87.06 79.94 87.06 79.6C87.06 79.2533 87.06 78.9533 87.06 78.7C87.06 78.4467 87.06 78.2667 87.06 78.16C87.06 78.06 87.0567 77.9467 87.05 77.82C87.0433 77.6933 87.0333 77.5667 87.02 77.44C87.0067 77.3067 86.9933 77.2 86.98 77.12H88.46ZM87.8 80.19C88.12 80.1233 88.4633 80.04 88.83 79.94C89.1967 79.84 89.5633 79.7333 89.93 79.62C90.3033 79.5067 90.6567 79.39 90.99 79.27C91.3233 79.15 91.62 79.0367 91.88 78.93C92.06 78.8567 92.2367 78.7767 92.41 78.69C92.59 78.6033 92.7767 78.5033 92.97 78.39L93.51 79.65C93.3167 79.73 93.1133 79.8133 92.9 79.9C92.6933 79.9867 92.5067 80.0633 92.34 80.13C92.0467 80.2433 91.71 80.3633 91.33 80.49C90.95 80.6167 90.5533 80.7433 90.14 80.87C89.7333 80.99 89.3267 81.1067 88.92 81.22C88.52 81.3267 88.15 81.42 87.81 81.5L87.8 80.19ZM100.05 79.06C100.097 79.1667 100.157 79.32 100.23 79.52C100.31 79.7133 100.393 79.9233 100.48 80.15C100.567 80.37 100.643 80.58 100.71 80.78C100.777 80.98 100.83 81.1367 100.87 81.25L99.67 81.67C99.6433 81.5433 99.5967 81.3833 99.53 81.19C99.4633 80.9967 99.39 80.7933 99.31 80.58C99.23 80.36 99.15 80.15 99.07 79.95C98.99 79.75 98.92 79.5833 98.86 79.45L100.05 79.06ZM103.74 79.79C103.687 79.95 103.64 80.0867 103.6 80.2C103.567 80.3133 103.533 80.42 103.5 80.52C103.373 81.0267 103.2 81.5333 102.98 82.04C102.76 82.54 102.48 83.01 102.14 83.45C101.673 84.05 101.143 84.56 100.55 84.98C99.9633 85.3933 99.3767 85.71 98.79 85.93L97.74 84.86C98.1067 84.76 98.4933 84.6133 98.9 84.42C99.3067 84.22 99.7 83.98 100.08 83.7C100.46 83.42 100.787 83.11 101.06 82.77C101.287 82.4833 101.487 82.1567 101.66 81.79C101.84 81.4167 101.987 81.02 102.1 80.6C102.22 80.1733 102.3 79.7533 102.34 79.34L103.74 79.79ZM97.73 79.59C97.7967 79.7167 97.87 79.88 97.95 80.08C98.0367 80.28 98.1233 80.49 98.21 80.71C98.2967 80.93 98.38 81.1433 98.46 81.35C98.5467 81.5567 98.6133 81.73 98.66 81.87L97.44 82.33C97.4 82.1967 97.34 82.0233 97.26 81.81C97.1867 81.5967 97.1033 81.3733 97.01 81.14C96.9167 80.9 96.8267 80.68 96.74 80.48C96.66 80.28 96.59 80.1267 96.53 80.02L97.73 79.59ZM113.04 77.67C113.04 77.83 113.097 77.9667 113.21 78.08C113.323 78.1867 113.457 78.24 113.61 78.24C113.77 78.24 113.907 78.1867 114.02 78.08C114.133 77.9667 114.19 77.83 114.19 77.67C114.19 77.51 114.133 77.3733 114.02 77.26C113.907 77.1467 113.77 77.09 113.61 77.09C113.457 77.09 113.323 77.1467 113.21 77.26C113.097 77.3733 113.04 77.51 113.04 77.67ZM112.42 77.67C112.42 77.45 112.473 77.25 112.58 77.07C112.693 76.8833 112.84 76.7367 113.02 76.63C113.2 76.5233 113.397 76.47 113.61 76.47C113.83 76.47 114.03 76.5233 114.21 76.63C114.397 76.7367 114.543 76.8833 114.65 77.07C114.757 77.25 114.81 77.45 114.81 77.67C114.81 77.8833 114.757 78.08 114.65 78.26C114.543 78.44 114.397 78.5867 114.21 78.7C114.03 78.8067 113.83 78.86 113.61 78.86C113.397 78.86 113.2 78.8067 113.02 78.7C112.84 78.5867 112.693 78.44 112.58 78.26C112.473 78.08 112.42 77.8833 112.42 77.67ZM113.63 78.46C113.583 78.5533 113.543 78.6667 113.51 78.8C113.477 78.9267 113.443 79.0433 113.41 79.15C113.357 79.3967 113.287 79.6733 113.2 79.98C113.113 80.28 113.01 80.5933 112.89 80.92C112.77 81.2467 112.627 81.57 112.46 81.89C112.3 82.21 112.117 82.51 111.91 82.79C111.61 83.19 111.26 83.5633 110.86 83.91C110.46 84.2567 110.013 84.57 109.52 84.85C109.027 85.13 108.483 85.3667 107.89 85.56L106.8 84.36C107.467 84.2 108.04 84.0033 108.52 83.77C109 83.5367 109.417 83.27 109.77 82.97C110.13 82.67 110.447 82.35 110.72 82.01C110.94 81.73 111.127 81.4267 111.28 81.1C111.44 80.7733 111.57 80.4467 111.67 80.12C111.777 79.7867 111.85 79.4767 111.89 79.19C111.79 79.19 111.623 79.19 111.39 79.19C111.163 79.19 110.893 79.19 110.58 79.19C110.273 79.19 109.95 79.19 109.61 79.19C109.277 79.19 108.953 79.19 108.64 79.19C108.327 79.19 108.043 79.19 107.79 79.19C107.543 79.19 107.36 79.19 107.24 79.19C107.007 79.19 106.78 79.1933 106.56 79.2C106.347 79.2067 106.177 79.2167 106.05 79.23V77.82C106.15 77.8333 106.27 77.8467 106.41 77.86C106.557 77.8733 106.703 77.8833 106.85 77.89C107.003 77.8967 107.133 77.9 107.24 77.9C107.347 77.9 107.497 77.9 107.69 77.9C107.89 77.9 108.12 77.9 108.38 77.9C108.64 77.9 108.91 77.9 109.19 77.9C109.477 77.9 109.76 77.9 110.04 77.9C110.327 77.9 110.593 77.9 110.84 77.9C111.087 77.9 111.3 77.9 111.48 77.9C111.66 77.9 111.79 77.9 111.87 77.9C111.97 77.9 112.09 77.8967 112.23 77.89C112.377 77.8833 112.517 77.86 112.65 77.82L113.63 78.46Z" fill="black"/>
<path d="M85.72 23.83C85.7 24.0433 85.6833 24.2167 85.67 24.35C85.6567 24.4767 85.65 24.61 85.65 24.75C85.65 24.8367 85.65 24.97 85.65 25.15C85.65 25.33 85.65 25.5167 85.65 25.71C85.65 25.9033 85.65 26.0633 85.65 26.19H84.26C84.26 26.05 84.26 25.8833 84.26 25.69C84.26 25.4967 84.26 25.3133 84.26 25.14C84.26 24.9667 84.26 24.8367 84.26 24.75C84.26 24.61 84.2533 24.4767 84.24 24.35C84.2333 24.2167 84.2133 24.0433 84.18 23.83H85.72ZM89.09 25.94C89.05 26.0467 89.01 26.1833 88.97 26.35C88.9367 26.51 88.91 26.64 88.89 26.74C88.85 26.9733 88.8 27.21 88.74 27.45C88.6867 27.69 88.62 27.93 88.54 28.17C88.4667 28.41 88.38 28.6467 88.28 28.88C88.1867 29.1133 88.08 29.3433 87.96 29.57C87.6933 30.0567 87.3533 30.5 86.94 30.9C86.5333 31.3 86.07 31.64 85.55 31.92C85.03 32.1933 84.4733 32.41 83.88 32.57L82.84 31.37C83.0667 31.33 83.3067 31.2767 83.56 31.21C83.8133 31.1367 84.0433 31.06 84.25 30.98C84.53 30.8733 84.8067 30.74 85.08 30.58C85.36 30.4133 85.6233 30.22 85.87 30C86.1167 29.78 86.3333 29.5367 86.52 29.27C86.6867 29.0233 86.83 28.76 86.95 28.48C87.07 28.1933 87.1667 27.9 87.24 27.6C87.3133 27.2933 87.37 26.9933 87.41 26.7H82.45C82.45 26.7867 82.45 26.8967 82.45 27.03C82.45 27.1567 82.45 27.2967 82.45 27.45C82.45 27.5967 82.45 27.7333 82.45 27.86C82.45 27.98 82.45 28.08 82.45 28.16C82.45 28.2733 82.4533 28.4 82.46 28.54C82.4667 28.68 82.4733 28.8 82.48 28.9H81.1C81.1133 28.7733 81.1233 28.6367 81.13 28.49C81.1433 28.3367 81.15 28.1933 81.15 28.06C81.15 27.98 81.15 27.8633 81.15 27.71C81.15 27.5567 81.15 27.3933 81.15 27.22C81.15 27.04 81.15 26.87 81.15 26.71C81.15 26.55 81.15 26.4233 81.15 26.33C81.15 26.2167 81.1467 26.0767 81.14 25.91C81.1333 25.7367 81.12 25.59 81.1 25.47C81.2733 25.49 81.44 25.5033 81.6 25.51C81.76 25.5167 81.9333 25.52 82.12 25.52H87.39C87.5967 25.52 87.7633 25.51 87.89 25.49C88.0233 25.4633 88.1333 25.4367 88.22 25.41L89.09 25.94ZM91.39 25.02C91.5233 25.0333 91.68 25.0467 91.86 25.06C92.04 25.0733 92.2 25.08 92.34 25.08H97.78C97.9333 25.08 98.0933 25.0733 98.26 25.06C98.4267 25.0467 98.58 25.0333 98.72 25.02V26.39C98.5733 26.3767 98.4167 26.3667 98.25 26.36C98.0833 26.3533 97.9267 26.35 97.78 26.35H92.34C92.2067 26.35 92.0467 26.3533 91.86 26.36C91.6733 26.3667 91.5167 26.3767 91.39 26.39V25.02ZM94.27 31.17V25.79H95.67V31.17H94.27ZM90.74 30.35C90.9 30.3767 91.0667 30.3967 91.24 30.41C91.4133 30.4233 91.5767 30.43 91.73 30.43H98.32C98.5 30.43 98.67 30.4233 98.83 30.41C98.99 30.39 99.1333 30.37 99.26 30.35V31.8C99.1133 31.78 98.95 31.7667 98.77 31.76C98.59 31.7533 98.44 31.75 98.32 31.75H91.73C91.5833 31.75 91.4233 31.7533 91.25 31.76C91.0767 31.7667 90.9067 31.78 90.74 31.8V30.35ZM108.34 25.22C108.3 25.28 108.24 25.3733 108.16 25.5C108.087 25.6267 108.03 25.7433 107.99 25.85C107.85 26.1633 107.677 26.5133 107.47 26.9C107.27 27.2867 107.04 27.6767 106.78 28.07C106.527 28.4567 106.257 28.82 105.97 29.16C105.597 29.58 105.183 29.9967 104.73 30.41C104.283 30.8167 103.81 31.1933 103.31 31.54C102.817 31.88 102.31 32.1733 101.79 32.42L100.76 31.34C101.3 31.1333 101.823 30.8733 102.33 30.56C102.837 30.2467 103.307 29.9067 103.74 29.54C104.173 29.1733 104.547 28.8167 104.86 28.47C105.08 28.2167 105.287 27.9467 105.48 27.66C105.68 27.3733 105.857 27.09 106.01 26.81C106.163 26.5233 106.277 26.26 106.35 26.02C106.283 26.02 106.163 26.02 105.99 26.02C105.817 26.02 105.613 26.02 105.38 26.02C105.153 26.02 104.913 26.02 104.66 26.02C104.407 26.02 104.163 26.02 103.93 26.02C103.703 26.02 103.503 26.02 103.33 26.02C103.157 26.02 103.033 26.02 102.96 26.02C102.82 26.02 102.673 26.0267 102.52 26.04C102.367 26.0467 102.22 26.0567 102.08 26.07C101.947 26.0767 101.843 26.0833 101.77 26.09V24.67C101.87 24.6767 101.993 24.6867 102.14 24.7C102.287 24.7133 102.433 24.7233 102.58 24.73C102.733 24.7367 102.86 24.74 102.96 24.74C103.047 24.74 103.183 24.74 103.37 24.74C103.557 24.74 103.77 24.74 104.01 24.74C104.25 24.74 104.497 24.74 104.75 24.74C105.01 24.74 105.257 24.74 105.49 24.74C105.73 24.74 105.937 24.74 106.11 24.74C106.283 24.74 106.41 24.74 106.49 24.74C106.71 24.74 106.91 24.7267 107.09 24.7C107.277 24.6733 107.42 24.6433 107.52 24.61L108.34 25.22ZM106.1 28.33C106.36 28.5367 106.637 28.7767 106.93 29.05C107.223 29.3233 107.513 29.6067 107.8 29.9C108.087 30.1933 108.35 30.4767 108.59 30.75C108.837 31.0167 109.043 31.25 109.21 31.45L108.07 32.44C107.823 32.1 107.54 31.7467 107.22 31.38C106.907 31.0133 106.573 30.65 106.22 30.29C105.873 29.9233 105.52 29.5767 105.16 29.25L106.1 28.33ZM113.14 31.04C113.14 30.9133 113.14 30.7067 113.14 30.42C113.14 30.1267 113.14 29.79 113.14 29.41C113.14 29.0233 113.14 28.62 113.14 28.2C113.14 27.78 113.14 27.3767 113.14 26.99C113.14 26.5967 113.14 26.25 113.14 25.95C113.14 25.65 113.14 25.43 113.14 25.29C113.14 25.1167 113.13 24.9167 113.11 24.69C113.097 24.4633 113.073 24.2633 113.04 24.09H114.6C114.58 24.2633 114.56 24.4567 114.54 24.67C114.52 24.8767 114.51 25.0833 114.51 25.29C114.51 25.4767 114.51 25.73 114.51 26.05C114.51 26.37 114.51 26.7267 114.51 27.12C114.51 27.5067 114.51 27.9033 114.51 28.31C114.51 28.71 114.51 29.0967 114.51 29.47C114.51 29.8433 114.51 30.17 114.51 30.45C114.51 30.7233 114.51 30.92 114.51 31.04C114.51 31.1333 114.513 31.2667 114.52 31.44C114.527 31.6067 114.54 31.78 114.56 31.96C114.58 32.14 114.593 32.3 114.6 32.44H113.04C113.067 32.24 113.09 32.0067 113.11 31.74C113.13 31.4733 113.14 31.24 113.14 31.04ZM114.21 26.68C114.543 26.7667 114.917 26.88 115.33 27.02C115.743 27.1533 116.16 27.2967 116.58 27.45C117 27.6033 117.393 27.7567 117.76 27.91C118.133 28.0567 118.443 28.1933 118.69 28.32L118.12 29.7C117.84 29.5533 117.53 29.4067 117.19 29.26C116.85 29.1067 116.503 28.96 116.15 28.82C115.803 28.68 115.46 28.55 115.12 28.43C114.787 28.31 114.483 28.2033 114.21 28.11V26.68Z" fill="black"/>
</g>
<defs>
<clipPath id="clip0_142_79">
<rect width="200" height="200" fill="white"/>
</clipPath>
</defs>
</svg>
