<svg width="200" height="200" viewBox="0 0 200 200" fill="none" xmlns="http://www.w3.org/2000/svg">
<g clip-path="url(#clip0_39_150)">
<rect width="200" height="200" fill="white"/>
<path d="M78.353 50.5404C78.7186 47.5382 79.1338 44.3587 79.6053 41L92.1053 41.3078M78.353 50.5404C75.6579 72.6724 75.6579 85.1644 75.6579 88.7019L75 157.996C80.9211 159 84.2105 159 86.1842 159C91.1477 159 96.7105 157.494 97.3684 156.991L100 72M78.353 50.5404H78.2895M78.353 50.5404H85.5263C88.1579 50.5404 88.1579 49.034 88.8158 48.0298L89.2221 46.014M100 63.0936L100 46.0213M100 63.0936L95.5 60.0323V46.0213M100 63.0936V72M92.1053 41.3078L100 41.5021L107.895 41.3078M92.1053 41.3078L90.7895 46.0213M90.7895 46.0213C90.2423 46.0213 89.7202 46.0188 89.2221 46.014M90.7895 46.0213H95.5M89.2221 46.014C81.5769 45.9406 79.6053 45.3313 79.6053 45.017M89.2221 46.014L90.1316 41.5021M121.647 50.5404C121.281 47.5382 120.866 44.3587 120.395 41L107.895 41.3078M121.647 50.5404C124.342 72.6724 124.342 85.1644 124.342 88.7019L125 157.996C119.079 159 115.789 159 113.816 159C108.852 159 103.289 157.494 102.632 156.991L100 72M121.647 50.5404H121.711M121.647 50.5404H114.474C111.842 50.5404 111.842 49.034 111.184 48.0298L110.778 46.014M107.895 41.3078L109.211 46.0213M109.211 46.0213C109.758 46.0213 110.28 46.0188 110.778 46.014M109.211 46.0213H100M110.778 46.014C118.423 45.9406 120.395 45.3313 120.395 45.017M110.778 46.014L109.868 41.5021M100 46.0213H95.5" stroke="black"/>
<path d="M135 73V159" stroke="#FF0202" stroke-linecap="round"/>
<path d="M131 152.98L135 158.938L139 152.98" stroke="#FF0202" stroke-linecap="round"/>
<path d="M131 78.9583L135 73L139 78.9583" stroke="#FF0202" stroke-linecap="round"/>
<path d="M119.581 33H81.3983" stroke="#FF0202" stroke-linecap="round"/>
<path d="M86.783 29L80 33L86.783 37" stroke="#FF0202" stroke-linecap="round"/>
<path d="M113.217 29L120 33L113.217 37" stroke="#FF0202" stroke-linecap="round"/>
<path d="M121.528 66H78.5731" stroke="#FF0202" stroke-linecap="round"/>
<path d="M84.6308 62L77 66L84.6308 70" stroke="#FF0202" stroke-linecap="round"/>
<path d="M114.369 62L122 66L114.369 70" stroke="#FF0202" stroke-linecap="round"/>
<path d="M113 160H143.5" stroke="#FF0000" stroke-linecap="round" stroke-dasharray="2 2"/>
<path d="M100 72H144" stroke="#FF0000" stroke-linecap="round" stroke-dasharray="2 2"/>
<path d="M145.372 112.172H148.348V113.504H145.372V112.172ZM144.292 116.888H149.068V118.196H144.292V116.888ZM144.82 112.172H146.2V113.564C146.2 113.932 146.16 114.316 146.08 114.716C146.008 115.108 145.868 115.488 145.66 115.856C145.452 116.216 145.144 116.536 144.736 116.816C144.664 116.728 144.56 116.624 144.424 116.504C144.288 116.384 144.148 116.264 144.004 116.144C143.868 116.024 143.748 115.936 143.644 115.88C144.004 115.656 144.264 115.412 144.424 115.148C144.592 114.876 144.7 114.604 144.748 114.332C144.796 114.052 144.82 113.784 144.82 113.528V112.172ZM147.592 112.172H148.948V114.848C148.948 115.008 148.956 115.112 148.972 115.16C148.988 115.2 149.028 115.22 149.092 115.22C149.108 115.22 149.132 115.22 149.164 115.22C149.204 115.22 149.24 115.22 149.272 115.22C149.312 115.22 149.34 115.22 149.356 115.22C149.412 115.22 149.452 115.192 149.476 115.136C149.5 115.072 149.52 114.948 149.536 114.764C149.56 114.58 149.576 114.3 149.584 113.924C149.712 114.036 149.892 114.14 150.124 114.236C150.364 114.332 150.572 114.4 150.748 114.44C150.708 114.96 150.64 115.364 150.544 115.652C150.456 115.94 150.328 116.14 150.16 116.252C150 116.364 149.788 116.42 149.524 116.42C149.46 116.42 149.384 116.42 149.296 116.42C149.208 116.42 149.124 116.42 149.044 116.42C148.964 116.42 148.892 116.42 148.828 116.42C148.516 116.42 148.268 116.376 148.084 116.288C147.908 116.192 147.78 116.032 147.7 115.808C147.628 115.584 147.592 115.272 147.592 114.872V112.172ZM145.936 118.148C146.36 119.012 146.992 119.772 147.832 120.428C148.672 121.076 149.652 121.552 150.772 121.856C150.668 121.952 150.552 122.072 150.424 122.216C150.296 122.368 150.176 122.524 150.064 122.684C149.96 122.844 149.872 122.988 149.8 123.116C148.616 122.724 147.588 122.14 146.716 121.364C145.852 120.588 145.152 119.664 144.616 118.592L145.936 118.148ZM148.6 116.888H148.876L149.116 116.828L150.052 117.2C149.844 117.984 149.564 118.688 149.212 119.312C148.86 119.936 148.444 120.488 147.964 120.968C147.492 121.448 146.964 121.86 146.38 122.204C145.804 122.556 145.18 122.848 144.508 123.08C144.46 122.96 144.388 122.82 144.292 122.66C144.204 122.508 144.108 122.356 144.004 122.204C143.9 122.06 143.8 121.94 143.704 121.844C144.296 121.676 144.856 121.448 145.384 121.16C145.912 120.864 146.388 120.516 146.812 120.116C147.236 119.716 147.6 119.264 147.904 118.76C148.216 118.256 148.448 117.708 148.6 117.116V116.888ZM140.656 112.22H143.296V113.552H140.656V112.22ZM140.656 114.92H143.344V116.252H140.656V114.92ZM140.644 117.644H143.296V119.012H140.644V117.644ZM140.092 112.22H141.388V116.6C141.388 117.08 141.376 117.604 141.352 118.172C141.328 118.74 141.284 119.316 141.22 119.9C141.156 120.484 141.06 121.052 140.932 121.604C140.812 122.156 140.648 122.652 140.44 123.092C140.36 123.02 140.248 122.94 140.104 122.852C139.968 122.764 139.824 122.68 139.672 122.6C139.52 122.528 139.388 122.472 139.276 122.432C139.468 122.024 139.616 121.576 139.72 121.088C139.832 120.592 139.912 120.084 139.96 119.564C140.016 119.044 140.052 118.532 140.068 118.028C140.084 117.516 140.092 117.04 140.092 116.6V112.22ZM142.492 112.22H143.824V121.508C143.824 121.836 143.792 122.104 143.728 122.312C143.664 122.52 143.536 122.684 143.344 122.804C143.152 122.924 142.92 123 142.648 123.032C142.384 123.064 142.056 123.08 141.664 123.08C141.656 122.952 141.632 122.8 141.592 122.624C141.552 122.456 141.504 122.288 141.448 122.12C141.392 121.952 141.336 121.808 141.28 121.688C141.496 121.696 141.7 121.7 141.892 121.7C142.092 121.7 142.228 121.7 142.3 121.7C142.372 121.7 142.42 121.684 142.444 121.652C142.476 121.62 142.492 121.564 142.492 121.484V112.22ZM151.624 112.688H162.388V114.14H151.624V112.688ZM155.98 113.984H157.528V123.044H155.98V113.984ZM156.796 116.9L157.78 115.748C158.108 115.908 158.46 116.092 158.836 116.3C159.22 116.5 159.6 116.712 159.976 116.936C160.352 117.16 160.708 117.38 161.044 117.596C161.38 117.804 161.66 118.004 161.884 118.196L160.816 119.516C160.608 119.324 160.344 119.116 160.024 118.892C159.712 118.66 159.368 118.428 158.992 118.196C158.624 117.964 158.252 117.736 157.876 117.512C157.5 117.28 157.14 117.076 156.796 116.9Z" fill="black"/>
<path d="M82.864 15.196C82.84 15.452 82.82 15.66 82.804 15.82C82.788 15.972 82.78 16.132 82.78 16.3C82.78 16.404 82.78 16.564 82.78 16.78C82.78 16.996 82.78 17.22 82.78 17.452C82.78 17.684 82.78 17.876 82.78 18.028H81.112C81.112 17.86 81.112 17.66 81.112 17.428C81.112 17.196 81.112 16.976 81.112 16.768C81.112 16.56 81.112 16.404 81.112 16.3C81.112 16.132 81.104 15.972 81.088 15.82C81.08 15.66 81.056 15.452 81.016 15.196H82.864ZM86.908 17.728C86.86 17.856 86.812 18.02 86.764 18.22C86.724 18.412 86.692 18.568 86.668 18.688C86.62 18.968 86.56 19.252 86.488 19.54C86.424 19.828 86.344 20.116 86.248 20.404C86.16 20.692 86.056 20.976 85.936 21.256C85.824 21.536 85.696 21.812 85.552 22.084C85.232 22.668 84.824 23.2 84.328 23.68C83.84 24.16 83.284 24.568 82.66 24.904C82.036 25.232 81.368 25.492 80.656 25.684L79.408 24.244C79.68 24.196 79.968 24.132 80.272 24.052C80.576 23.964 80.852 23.872 81.1 23.776C81.436 23.648 81.768 23.488 82.096 23.296C82.432 23.096 82.748 22.864 83.044 22.6C83.34 22.336 83.6 22.044 83.824 21.724C84.024 21.428 84.196 21.112 84.34 20.776C84.484 20.432 84.6 20.08 84.688 19.72C84.776 19.352 84.844 18.992 84.892 18.64H78.94C78.94 18.744 78.94 18.876 78.94 19.036C78.94 19.188 78.94 19.356 78.94 19.54C78.94 19.716 78.94 19.88 78.94 20.032C78.94 20.176 78.94 20.296 78.94 20.392C78.94 20.528 78.944 20.68 78.952 20.848C78.96 21.016 78.968 21.16 78.976 21.28H77.32C77.336 21.128 77.348 20.964 77.356 20.788C77.372 20.604 77.38 20.432 77.38 20.272C77.38 20.176 77.38 20.036 77.38 19.852C77.38 19.668 77.38 19.472 77.38 19.264C77.38 19.048 77.38 18.844 77.38 18.652C77.38 18.46 77.38 18.308 77.38 18.196C77.38 18.06 77.376 17.892 77.368 17.692C77.36 17.484 77.344 17.308 77.32 17.164C77.528 17.188 77.728 17.204 77.92 17.212C78.112 17.22 78.32 17.224 78.544 17.224H84.868C85.116 17.224 85.316 17.212 85.468 17.188C85.628 17.156 85.76 17.124 85.864 17.092L86.908 17.728ZM89.668 16.624C89.828 16.64 90.016 16.656 90.232 16.672C90.448 16.688 90.64 16.696 90.808 16.696H97.336C97.52 16.696 97.712 16.688 97.912 16.672C98.112 16.656 98.296 16.64 98.464 16.624V18.268C98.288 18.252 98.1 18.24 97.9 18.232C97.7 18.224 97.512 18.22 97.336 18.22H90.808C90.648 18.22 90.456 18.224 90.232 18.232C90.008 18.24 89.82 18.252 89.668 18.268V16.624ZM93.124 24.004V17.548H94.804V24.004H93.124ZM88.888 23.02C89.08 23.052 89.28 23.076 89.488 23.092C89.696 23.108 89.892 23.116 90.076 23.116H97.984C98.2 23.116 98.404 23.108 98.596 23.092C98.788 23.068 98.96 23.044 99.112 23.02V24.76C98.936 24.736 98.74 24.72 98.524 24.712C98.308 24.704 98.128 24.7 97.984 24.7H90.076C89.9 24.7 89.708 24.704 89.5 24.712C89.292 24.72 89.088 24.736 88.888 24.76V23.02ZM110.008 16.864C109.96 16.936 109.888 17.048 109.792 17.2C109.704 17.352 109.636 17.492 109.588 17.62C109.42 17.996 109.212 18.416 108.964 18.88C108.724 19.344 108.448 19.812 108.136 20.284C107.832 20.748 107.508 21.184 107.164 21.592C106.716 22.096 106.22 22.596 105.676 23.092C105.14 23.58 104.572 24.032 103.972 24.448C103.38 24.856 102.772 25.208 102.148 25.504L100.912 24.208C101.56 23.96 102.188 23.648 102.796 23.272C103.404 22.896 103.968 22.488 104.488 22.048C105.008 21.608 105.456 21.18 105.832 20.764C106.096 20.46 106.344 20.136 106.576 19.792C106.816 19.448 107.028 19.108 107.212 18.772C107.396 18.428 107.532 18.112 107.62 17.824C107.54 17.824 107.396 17.824 107.188 17.824C106.98 17.824 106.736 17.824 106.456 17.824C106.184 17.824 105.896 17.824 105.592 17.824C105.288 17.824 104.996 17.824 104.716 17.824C104.444 17.824 104.204 17.824 103.996 17.824C103.788 17.824 103.64 17.824 103.552 17.824C103.384 17.824 103.208 17.832 103.024 17.848C102.84 17.856 102.664 17.868 102.496 17.884C102.336 17.892 102.212 17.9 102.124 17.908V16.204C102.244 16.212 102.392 16.224 102.568 16.24C102.744 16.256 102.92 16.268 103.096 16.276C103.28 16.284 103.432 16.288 103.552 16.288C103.656 16.288 103.82 16.288 104.044 16.288C104.268 16.288 104.524 16.288 104.812 16.288C105.1 16.288 105.396 16.288 105.7 16.288C106.012 16.288 106.308 16.288 106.588 16.288C106.876 16.288 107.124 16.288 107.332 16.288C107.54 16.288 107.692 16.288 107.788 16.288C108.052 16.288 108.292 16.272 108.508 16.24C108.732 16.208 108.904 16.172 109.024 16.132L110.008 16.864ZM107.32 20.596C107.632 20.844 107.964 21.132 108.316 21.46C108.668 21.788 109.016 22.128 109.36 22.48C109.704 22.832 110.02 23.172 110.308 23.5C110.604 23.82 110.852 24.1 111.052 24.34L109.684 25.528C109.388 25.12 109.048 24.696 108.664 24.256C108.288 23.816 107.888 23.38 107.464 22.948C107.048 22.508 106.624 22.092 106.192 21.7L107.32 20.596ZM115.768 23.848C115.768 23.696 115.768 23.448 115.768 23.104C115.768 22.752 115.768 22.348 115.768 21.892C115.768 21.428 115.768 20.944 115.768 20.44C115.768 19.936 115.768 19.452 115.768 18.988C115.768 18.516 115.768 18.1 115.768 17.74C115.768 17.38 115.768 17.116 115.768 16.948C115.768 16.74 115.756 16.5 115.732 16.228C115.716 15.956 115.688 15.716 115.648 15.508H117.52C117.496 15.716 117.472 15.948 117.448 16.204C117.424 16.452 117.412 16.7 117.412 16.948C117.412 17.172 117.412 17.476 117.412 17.86C117.412 18.244 117.412 18.672 117.412 19.144C117.412 19.608 117.412 20.084 117.412 20.572C117.412 21.052 117.412 21.516 117.412 21.964C117.412 22.412 117.412 22.804 117.412 23.14C117.412 23.468 117.412 23.704 117.412 23.848C117.412 23.96 117.416 24.12 117.424 24.328C117.432 24.528 117.448 24.736 117.472 24.952C117.496 25.168 117.512 25.36 117.52 25.528H115.648C115.68 25.288 115.708 25.008 115.732 24.688C115.756 24.368 115.768 24.088 115.768 23.848ZM117.052 18.616C117.452 18.72 117.9 18.856 118.396 19.024C118.892 19.184 119.392 19.356 119.896 19.54C120.4 19.724 120.872 19.908 121.312 20.092C121.76 20.268 122.132 20.432 122.428 20.584L121.744 22.24C121.408 22.064 121.036 21.888 120.628 21.712C120.22 21.528 119.804 21.352 119.38 21.184C118.964 21.016 118.552 20.86 118.144 20.716C117.744 20.572 117.38 20.444 117.052 20.332V18.616Z" fill="black"/>
<path d="M40.152 52.544C40.12 52.728 40.096 52.94 40.08 53.18C40.072 53.42 40.068 53.624 40.068 53.792C40.068 53.912 40.068 54.124 40.068 54.428C40.068 54.732 40.068 55.088 40.068 55.496C40.068 55.896 40.068 56.32 40.068 56.768C40.068 57.208 40.068 57.636 40.068 58.052C40.068 58.46 40.068 58.824 40.068 59.144C40.068 59.464 40.068 59.7 40.068 59.852C40.068 60.108 40.128 60.284 40.248 60.38C40.376 60.476 40.576 60.552 40.848 60.608C41.024 60.632 41.232 60.652 41.472 60.668C41.712 60.676 41.964 60.68 42.228 60.68C42.54 60.68 42.884 60.672 43.26 60.656C43.644 60.632 44.028 60.604 44.412 60.572C44.804 60.54 45.172 60.496 45.516 60.44C45.868 60.384 46.168 60.324 46.416 60.26V62.024C46.04 62.072 45.6 62.112 45.096 62.144C44.6 62.184 44.092 62.212 43.572 62.228C43.06 62.252 42.58 62.264 42.132 62.264C41.748 62.264 41.38 62.252 41.028 62.228C40.676 62.204 40.372 62.172 40.116 62.132C39.596 62.036 39.192 61.84 38.904 61.544C38.616 61.248 38.472 60.844 38.472 60.332C38.472 60.1 38.472 59.8 38.472 59.432C38.472 59.056 38.472 58.644 38.472 58.196C38.472 57.74 38.472 57.284 38.472 56.828C38.472 56.364 38.472 55.928 38.472 55.52C38.472 55.104 38.472 54.744 38.472 54.44C38.472 54.136 38.472 53.92 38.472 53.792C38.472 53.672 38.468 53.536 38.46 53.384C38.452 53.232 38.44 53.08 38.424 52.928C38.408 52.768 38.392 52.64 38.376 52.544H40.152ZM39.36 56.228C39.744 56.148 40.156 56.048 40.596 55.928C41.036 55.808 41.476 55.68 41.916 55.544C42.364 55.408 42.788 55.268 43.188 55.124C43.588 54.98 43.944 54.844 44.256 54.716C44.472 54.628 44.684 54.532 44.892 54.428C45.108 54.324 45.332 54.204 45.564 54.068L46.212 55.58C45.98 55.676 45.736 55.776 45.48 55.88C45.232 55.984 45.008 56.076 44.808 56.156C44.456 56.292 44.052 56.436 43.596 56.588C43.14 56.74 42.664 56.892 42.168 57.044C41.68 57.188 41.192 57.328 40.704 57.464C40.224 57.592 39.78 57.704 39.372 57.8L39.36 56.228ZM54.06 54.872C54.116 55 54.188 55.184 54.276 55.424C54.372 55.656 54.472 55.908 54.576 56.18C54.68 56.444 54.772 56.696 54.852 56.936C54.932 57.176 54.996 57.364 55.044 57.5L53.604 58.004C53.572 57.852 53.516 57.66 53.436 57.428C53.356 57.196 53.268 56.952 53.172 56.696C53.076 56.432 52.98 56.18 52.884 55.94C52.788 55.7 52.704 55.5 52.632 55.34L54.06 54.872ZM58.488 55.748C58.424 55.94 58.368 56.104 58.32 56.24C58.28 56.376 58.24 56.504 58.2 56.624C58.048 57.232 57.84 57.84 57.576 58.448C57.312 59.048 56.976 59.612 56.568 60.14C56.008 60.86 55.372 61.472 54.66 61.976C53.956 62.472 53.252 62.852 52.548 63.116L51.288 61.832C51.728 61.712 52.192 61.536 52.68 61.304C53.168 61.064 53.64 60.776 54.096 60.44C54.552 60.104 54.944 59.732 55.272 59.324C55.544 58.98 55.784 58.588 55.992 58.148C56.208 57.7 56.384 57.224 56.52 56.72C56.664 56.208 56.76 55.704 56.808 55.208L58.488 55.748ZM51.276 55.508C51.356 55.66 51.444 55.856 51.54 56.096C51.644 56.336 51.748 56.588 51.852 56.852C51.956 57.116 52.056 57.372 52.152 57.62C52.256 57.868 52.336 58.076 52.392 58.244L50.928 58.796C50.88 58.636 50.808 58.428 50.712 58.172C50.624 57.916 50.524 57.648 50.412 57.368C50.3 57.08 50.192 56.816 50.088 56.576C49.992 56.336 49.908 56.152 49.836 56.024L51.276 55.508ZM69.648 53.204C69.648 53.396 69.716 53.56 69.852 53.696C69.988 53.824 70.148 53.888 70.332 53.888C70.524 53.888 70.688 53.824 70.824 53.696C70.96 53.56 71.028 53.396 71.028 53.204C71.028 53.012 70.96 52.848 70.824 52.712C70.688 52.576 70.524 52.508 70.332 52.508C70.148 52.508 69.988 52.576 69.852 52.712C69.716 52.848 69.648 53.012 69.648 53.204ZM68.904 53.204C68.904 52.94 68.968 52.7 69.096 52.484C69.232 52.26 69.408 52.084 69.624 51.956C69.84 51.828 70.076 51.764 70.332 51.764C70.596 51.764 70.836 51.828 71.052 51.956C71.276 52.084 71.452 52.26 71.58 52.484C71.708 52.7 71.772 52.94 71.772 53.204C71.772 53.46 71.708 53.696 71.58 53.912C71.452 54.128 71.276 54.304 71.052 54.44C70.836 54.568 70.596 54.632 70.332 54.632C70.076 54.632 69.84 54.568 69.624 54.44C69.408 54.304 69.232 54.128 69.096 53.912C68.968 53.696 68.904 53.46 68.904 53.204ZM70.356 54.152C70.3 54.264 70.252 54.4 70.212 54.56C70.172 54.712 70.132 54.852 70.092 54.98C70.028 55.276 69.944 55.608 69.84 55.976C69.736 56.336 69.612 56.712 69.468 57.104C69.324 57.496 69.152 57.884 68.952 58.268C68.76 58.652 68.54 59.012 68.292 59.348C67.932 59.828 67.512 60.276 67.032 60.692C66.552 61.108 66.016 61.484 65.424 61.82C64.832 62.156 64.18 62.44 63.468 62.672L62.16 61.232C62.96 61.04 63.648 60.804 64.224 60.524C64.8 60.244 65.3 59.924 65.724 59.564C66.156 59.204 66.536 58.82 66.864 58.412C67.128 58.076 67.352 57.712 67.536 57.32C67.728 56.928 67.884 56.536 68.004 56.144C68.132 55.744 68.22 55.372 68.268 55.028C68.148 55.028 67.948 55.028 67.668 55.028C67.396 55.028 67.072 55.028 66.696 55.028C66.328 55.028 65.94 55.028 65.532 55.028C65.132 55.028 64.744 55.028 64.368 55.028C63.992 55.028 63.652 55.028 63.348 55.028C63.052 55.028 62.832 55.028 62.688 55.028C62.408 55.028 62.136 55.032 61.872 55.04C61.616 55.048 61.412 55.06 61.26 55.076V53.384C61.38 53.4 61.524 53.416 61.692 53.432C61.868 53.448 62.044 53.46 62.22 53.468C62.404 53.476 62.56 53.48 62.688 53.48C62.816 53.48 62.996 53.48 63.228 53.48C63.468 53.48 63.744 53.48 64.056 53.48C64.368 53.48 64.692 53.48 65.028 53.48C65.372 53.48 65.712 53.48 66.048 53.48C66.392 53.48 66.712 53.48 67.008 53.48C67.304 53.48 67.56 53.48 67.776 53.48C67.992 53.48 68.148 53.48 68.244 53.48C68.364 53.48 68.508 53.476 68.676 53.468C68.852 53.46 69.02 53.432 69.18 53.384L70.356 54.152Z" fill="black"/>
<path d="M79 40V28" stroke="#FF0000" stroke-width="0.5" stroke-linecap="round" stroke-dasharray="2 2"/>
<path d="M121 40V28" stroke="#FF0000" stroke-width="0.5" stroke-linecap="round" stroke-dasharray="2 2"/>
</g>
<defs>
<clipPath id="clip0_39_150">
<rect width="200" height="200" fill="white"/>
</clipPath>
</defs>
</svg>
