<svg width="200" height="200" viewBox="0 0 200 200" fill="none" xmlns="http://www.w3.org/2000/svg">
<g clip-path="url(#clip0_164_24)">
<rect width="200" height="200" fill="white"/>
<path d="M63.4718 158C63.4718 158 64.302 128.089 63.4718 84C74.5001 70.4111 72.0001 58.5 72.0001 48H82.0001C82.0001 59.6 93.5 66.5 100 66.5C106.5 66.5 118 59.6 118 48H128C128 58.5 125.5 70.4111 136.528 84C135.698 128.089 136.528 158 136.528 158C116.604 161.444 110 162 100 162C90 162 83.3963 161.444 63.4718 158Z" stroke="black"/>
<path d="M92.75 78.07H97.2V78.93H92.75V78.07ZM92.75 79.53H97.2V80.4H92.75V79.53ZM96.66 76.46H97.91V83.43C97.91 83.7767 97.87 84.0433 97.79 84.23C97.71 84.4233 97.5567 84.5733 97.33 84.68C97.11 84.78 96.8333 84.8433 96.5 84.87C96.1667 84.8967 95.76 84.9067 95.28 84.9C95.26 84.78 95.2267 84.6433 95.18 84.49C95.14 84.3367 95.09 84.1833 95.03 84.03C94.9767 83.8833 94.92 83.7533 94.86 83.64C95.0667 83.6533 95.2733 83.6633 95.48 83.67C95.6933 83.67 95.88 83.67 96.04 83.67C96.2067 83.6633 96.3267 83.66 96.4 83.66C96.4933 83.66 96.56 83.6433 96.6 83.61C96.64 83.5767 96.66 83.5133 96.66 83.42V76.46ZM90.5 81.19C91.0467 81.1633 91.6867 81.1333 92.42 81.1C93.16 81.0667 93.9433 81.0267 94.77 80.98C95.6033 80.9333 96.4267 80.8867 97.24 80.84L97.23 81.86C96.4567 81.9267 95.6767 81.9933 94.89 82.06C94.1033 82.12 93.3467 82.1767 92.62 82.23C91.9 82.2833 91.25 82.33 90.67 82.37L90.5 81.19ZM98.41 78.51L99.58 79.07C98.96 80.03 98.2133 80.88 97.34 81.62C96.4733 82.3533 95.5167 82.9867 94.47 83.52C93.4233 84.0467 92.3233 84.48 91.17 84.82C91.1167 84.72 91.04 84.6 90.94 84.46C90.84 84.3267 90.7367 84.1933 90.63 84.06C90.53 83.9267 90.4367 83.8133 90.35 83.72C91.5167 83.4267 92.61 83.0433 93.63 82.57C94.65 82.09 95.5667 81.5133 96.38 80.84C97.1933 80.16 97.87 79.3833 98.41 78.51ZM94.38 75.47L95.86 75.63C95.7067 75.9367 95.54 76.2367 95.36 76.53C95.1867 76.8233 95.0267 77.07 94.88 77.27L93.81 77.05C93.9233 76.8167 94.0333 76.5567 94.14 76.27C94.2467 75.9767 94.3267 75.71 94.38 75.47ZM91.98 76.46H97.06V77.49H93.19V81.73H91.98V76.46ZM101.8 75.51H102.81V84.9H101.8V75.51ZM100.49 77.35H103.68V78.4H101.37V82.82H100.49V77.35ZM103.26 77.35H104.11V81.63C104.11 81.81 104.093 81.9767 104.06 82.13C104.033 82.2833 103.967 82.4033 103.86 82.49C103.753 82.5767 103.64 82.6333 103.52 82.66C103.4 82.6867 103.25 82.7 103.07 82.7C103.063 82.5533 103.033 82.3833 102.98 82.19C102.927 81.9967 102.867 81.8333 102.8 81.7C102.887 81.7 102.963 81.7 103.03 81.7C103.103 81.7 103.153 81.7 103.18 81.7C103.233 81.7 103.26 81.6667 103.26 81.6V77.35ZM104.38 75.93H109.54V76.9H104.38V75.93ZM105.82 78.29V79.04H108.09V78.29H105.82ZM104.81 77.4H109.15V79.91H104.81V77.4ZM104.87 82.04H109.12V82.95H104.87V82.04ZM104.85 83.65H109.13V84.58H104.85V83.65ZM104.38 80.43H109.5V84.87H108.39V81.36H105.44V84.88H104.38V80.43ZM106.38 80.9H107.39V84.3H106.38V80.9Z" fill="black"/>
<path d="M136 88H64" stroke="#FF0202" stroke-linecap="round"/>
<path d="M155.02 101.48H163.04V102.41H155.02V101.48ZM155.52 102.84H162.52V103.71H155.52V102.84ZM157.29 106.68H161.82V107.34H157.29V106.68ZM157.29 107.7H161.82V108.37H157.29V107.7ZM157.28 108.74H161.94V109.59H157.28V108.74ZM154.57 104.13H163.43V105.07H154.57V104.13ZM158.37 102.16H159.6V104.88H158.37V102.16ZM156.26 100.82L157.33 100.48C157.463 100.627 157.59 100.793 157.71 100.98C157.83 101.16 157.917 101.323 157.97 101.47L156.86 101.88C156.813 101.733 156.733 101.56 156.62 101.36C156.507 101.16 156.387 100.98 156.26 100.82ZM160.58 100.47L161.89 100.8C161.737 100.993 161.587 101.177 161.44 101.35C161.3 101.517 161.177 101.66 161.07 101.78L160.05 101.47C160.143 101.317 160.24 101.15 160.34 100.97C160.447 100.783 160.527 100.617 160.58 100.47ZM156.68 104.58L157.87 104.87C157.583 105.683 157.197 106.427 156.71 107.1C156.223 107.767 155.683 108.317 155.09 108.75C155.03 108.67 154.943 108.573 154.83 108.46C154.723 108.347 154.61 108.233 154.49 108.12C154.377 108.007 154.277 107.917 154.19 107.85C154.757 107.49 155.257 107.027 155.69 106.46C156.123 105.887 156.453 105.26 156.68 104.58ZM156.63 105.47H162.58V109.88H161.32V106.32H157.82V109.88H156.63V105.47ZM164.57 102.31H173.45V103.48H164.57V102.31ZM166.82 103.8C167.093 104.793 167.5 105.633 168.04 106.32C168.587 107 169.307 107.537 170.2 107.93C171.1 108.323 172.22 108.59 173.56 108.73C173.473 108.817 173.383 108.93 173.29 109.07C173.197 109.21 173.11 109.35 173.03 109.49C172.95 109.63 172.883 109.76 172.83 109.88C171.77 109.74 170.85 109.523 170.07 109.23C169.29 108.937 168.62 108.553 168.06 108.08C167.507 107.607 167.037 107.04 166.65 106.38C166.27 105.713 165.947 104.943 165.68 104.07L166.82 103.8ZM169.41 100.67H170.74C170.733 101.463 170.717 102.213 170.69 102.92C170.67 103.62 170.61 104.277 170.51 104.89C170.41 105.497 170.247 106.053 170.02 106.56C169.8 107.067 169.49 107.527 169.09 107.94C168.69 108.347 168.173 108.703 167.54 109.01C166.913 109.323 166.137 109.583 165.21 109.79C165.177 109.683 165.12 109.563 165.04 109.43C164.967 109.303 164.883 109.177 164.79 109.05C164.697 108.923 164.607 108.817 164.52 108.73C165.373 108.557 166.087 108.34 166.66 108.08C167.24 107.82 167.707 107.52 168.06 107.18C168.42 106.833 168.69 106.44 168.87 106C169.057 105.56 169.187 105.073 169.26 104.54C169.333 104 169.377 103.41 169.39 102.77C169.403 102.123 169.41 101.423 169.41 100.67Z" fill="black"/>
<path d="M151 160V49" stroke="#FF0202" stroke-linecap="round"/>
<path d="M123 162H165" stroke="#FF0000" stroke-width="0.5" stroke-dasharray="1 1"/>
<path d="M129 48H155" stroke="#FF0000" stroke-width="0.5" stroke-dasharray="1 1"/>
<path d="M155 54.9282L151 48L147 54.9282" stroke="#FF0202" stroke-linecap="round"/>
<path d="M147 154L151 160.928L155 154" stroke="#FF0202" stroke-linecap="round"/>
<path d="M70.9282 84L64 88L70.9282 92" stroke="#FF0202" stroke-linecap="round"/>
<path d="M129 84L135.928 88L129 92" stroke="#FF0202" stroke-linecap="round"/>
<path d="M91.4 24.41H92.59V26.33C92.59 26.7167 92.57 27.1467 92.53 27.62C92.4967 28.0867 92.43 28.5633 92.33 29.05C92.2367 29.5367 92.1 30.01 91.92 30.47C91.74 30.93 91.5033 31.3467 91.21 31.72C91.1367 31.6533 91.0367 31.5733 90.91 31.48C90.79 31.3933 90.6633 31.31 90.53 31.23C90.3967 31.15 90.28 31.09 90.18 31.05C90.46 30.71 90.68 30.34 90.84 29.94C91.0067 29.5333 91.13 29.1167 91.21 28.69C91.29 28.2633 91.34 27.8467 91.36 27.44C91.3867 27.0333 91.4 26.6567 91.4 26.31V24.41ZM92.06 24.41H98.65V26.73H92.06V25.86H97.47V25.29H92.06V24.41ZM90.78 22.94H99.23V23.99H90.78V22.94ZM92.83 27.13H98.11V27.97H93.99V31.91H92.83V27.13ZM97.58 27.13H98.77V30.8C98.77 31.0667 98.73 31.2733 98.65 31.42C98.5767 31.5667 98.4433 31.68 98.25 31.76C98.0633 31.8333 97.83 31.8767 97.55 31.89C97.27 31.9033 96.94 31.91 96.56 31.91C96.54 31.7633 96.4967 31.6 96.43 31.42C96.3633 31.24 96.2933 31.0833 96.22 30.95C96.3733 30.9567 96.5267 30.9633 96.68 30.97C96.84 30.97 96.9833 30.97 97.11 30.97C97.2433 30.9633 97.33 30.96 97.37 30.96C97.4433 30.96 97.4967 30.95 97.53 30.93C97.5633 30.9033 97.58 30.8567 97.58 30.79V27.13ZM93.39 28.41H98.16V29.16H93.39V28.41ZM93.39 29.61H98.16V30.42H93.39V29.61ZM101.8 22.51H102.81V31.9H101.8V22.51ZM100.49 24.35H103.68V25.4H101.37V29.82H100.49V24.35ZM103.26 24.35H104.11V28.63C104.11 28.81 104.093 28.9767 104.06 29.13C104.033 29.2833 103.967 29.4033 103.86 29.49C103.753 29.5767 103.64 29.6333 103.52 29.66C103.4 29.6867 103.25 29.7 103.07 29.7C103.063 29.5533 103.033 29.3833 102.98 29.19C102.927 28.9967 102.867 28.8333 102.8 28.7C102.887 28.7 102.963 28.7 103.03 28.7C103.103 28.7 103.153 28.7 103.18 28.7C103.233 28.7 103.26 28.6667 103.26 28.6V24.35ZM104.38 22.93H109.54V23.9H104.38V22.93ZM105.82 25.29V26.04H108.09V25.29H105.82ZM104.81 24.4H109.15V26.91H104.81V24.4ZM104.87 29.04H109.12V29.95H104.87V29.04ZM104.85 30.65H109.13V31.58H104.85V30.65ZM104.38 27.43H109.5V31.87H108.39V28.36H105.44V31.88H104.38V27.43ZM106.38 27.9H107.39V31.3H106.38V27.9Z" fill="black"/>
<path d="M128 35L73 35" stroke="#FF0202" stroke-linecap="round"/>
<path d="M78.9282 31L72 35L78.9282 39" stroke="#FF0202" stroke-linecap="round"/>
<path d="M121 31L127.928 35L121 39" stroke="#FF0202" stroke-linecap="round"/>
<path d="M72 48V23" stroke="#FF0000" stroke-width="0.5" stroke-linecap="round" stroke-dasharray="2 2"/>
<path d="M128 48V23" stroke="#FF0000" stroke-width="0.5" stroke-linecap="round" stroke-dasharray="2 2"/>
</g>
<defs>
<clipPath id="clip0_164_24">
<rect width="200" height="200" fill="white"/>
</clipPath>
</defs>
</svg>
