<svg width="200" height="200" viewBox="0 0 200 200" fill="none" xmlns="http://www.w3.org/2000/svg">
<g clip-path="url(#clip0_39_149)">
<rect width="200" height="200" fill="white"/>
<path d="M94.2805 24.9342C91.0421 22.0556 86.9035 28.0692 90.2245 30.8792C92.9054 33.1477 97.3774 33.3915 100.667 33.3915C103.957 33.3915 109.114 33.6077 111.013 30.2847C113.565 25.8181 108.342 24.272 104.982 23.8986M105.154 22C104.856 22.4704 102.421 24.0957 102.546 24.4547C102.92 25.5277 104.115 26.3087 104.636 27.3506" stroke="#FF0000" stroke-linecap="round"/>
<path d="M135 86L65 86" stroke="#FF0202" stroke-linecap="round"/>
<path d="M71.9282 82L65 86L71.9282 90" stroke="#FF0202" stroke-linecap="round"/>
<path d="M129 82L135.928 86L129 90" stroke="#FF0202" stroke-linecap="round"/>
<path d="M99.5 48L57 48" stroke="#FF0202" stroke-linecap="round"/>
<path d="M92.75 76.07H97.2V76.93H92.75V76.07ZM92.75 77.53H97.2V78.4H92.75V77.53ZM96.66 74.46H97.91V81.43C97.91 81.7767 97.87 82.0433 97.79 82.23C97.71 82.4233 97.5567 82.5733 97.33 82.68C97.11 82.78 96.8333 82.8433 96.5 82.87C96.1667 82.8967 95.76 82.9067 95.28 82.9C95.26 82.78 95.2267 82.6433 95.18 82.49C95.14 82.3367 95.09 82.1833 95.03 82.03C94.9767 81.8833 94.92 81.7533 94.86 81.64C95.0667 81.6533 95.2733 81.6633 95.48 81.67C95.6933 81.67 95.88 81.67 96.04 81.67C96.2067 81.6633 96.3267 81.66 96.4 81.66C96.4933 81.66 96.56 81.6433 96.6 81.61C96.64 81.5767 96.66 81.5133 96.66 81.42V74.46ZM90.5 79.19C91.0467 79.1633 91.6867 79.1333 92.42 79.1C93.16 79.0667 93.9433 79.0267 94.77 78.98C95.6033 78.9333 96.4267 78.8867 97.24 78.84L97.23 79.86C96.4567 79.9267 95.6767 79.9933 94.89 80.06C94.1033 80.12 93.3467 80.1767 92.62 80.23C91.9 80.2833 91.25 80.33 90.67 80.37L90.5 79.19ZM98.41 76.51L99.58 77.07C98.96 78.03 98.2133 78.88 97.34 79.62C96.4733 80.3533 95.5167 80.9867 94.47 81.52C93.4233 82.0467 92.3233 82.48 91.17 82.82C91.1167 82.72 91.04 82.6 90.94 82.46C90.84 82.3267 90.7367 82.1933 90.63 82.06C90.53 81.9267 90.4367 81.8133 90.35 81.72C91.5167 81.4267 92.61 81.0433 93.63 80.57C94.65 80.09 95.5667 79.5133 96.38 78.84C97.1933 78.16 97.87 77.3833 98.41 76.51ZM94.38 73.47L95.86 73.63C95.7067 73.9367 95.54 74.2367 95.36 74.53C95.1867 74.8233 95.0267 75.07 94.88 75.27L93.81 75.05C93.9233 74.8167 94.0333 74.5567 94.14 74.27C94.2467 73.9767 94.3267 73.71 94.38 73.47ZM91.98 74.46H97.06V75.49H93.19V79.73H91.98V74.46ZM101.8 73.51H102.81V82.9H101.8V73.51ZM100.49 75.35H103.68V76.4H101.37V80.82H100.49V75.35ZM103.26 75.35H104.11V79.63C104.11 79.81 104.093 79.9767 104.06 80.13C104.033 80.2833 103.967 80.4033 103.86 80.49C103.753 80.5767 103.64 80.6333 103.52 80.66C103.4 80.6867 103.25 80.7 103.07 80.7C103.063 80.5533 103.033 80.3833 102.98 80.19C102.927 79.9967 102.867 79.8333 102.8 79.7C102.887 79.7 102.963 79.7 103.03 79.7C103.103 79.7 103.153 79.7 103.18 79.7C103.233 79.7 103.26 79.6667 103.26 79.6V75.35ZM104.38 73.93H109.54V74.9H104.38V73.93ZM105.82 76.29V77.04H108.09V76.29H105.82ZM104.81 75.4H109.15V77.91H104.81V75.4ZM104.87 80.04H109.12V80.95H104.87V80.04ZM104.85 81.65H109.13V82.58H104.85V81.65ZM104.38 78.43H109.5V82.87H108.39V79.36H105.44V82.88H104.38V78.43ZM106.38 78.9H107.39V82.3H106.38V78.9Z" fill="black"/>
<path d="M120.02 66.48H128.04V67.41H120.02V66.48ZM120.52 67.84H127.52V68.71H120.52V67.84ZM122.29 71.68H126.82V72.34H122.29V71.68ZM122.29 72.7H126.82V73.37H122.29V72.7ZM122.28 73.74H126.94V74.59H122.28V73.74ZM119.57 69.13H128.43V70.07H119.57V69.13ZM123.37 67.16H124.6V69.88H123.37V67.16ZM121.26 65.82L122.33 65.48C122.463 65.6267 122.59 65.7933 122.71 65.98C122.83 66.16 122.917 66.3233 122.97 66.47L121.86 66.88C121.813 66.7333 121.733 66.56 121.62 66.36C121.507 66.16 121.387 65.98 121.26 65.82ZM125.58 65.47L126.89 65.8C126.737 65.9933 126.587 66.1767 126.44 66.35C126.3 66.5167 126.177 66.66 126.07 66.78L125.05 66.47C125.143 66.3167 125.24 66.15 125.34 65.97C125.447 65.7833 125.527 65.6167 125.58 65.47ZM121.68 69.58L122.87 69.87C122.583 70.6833 122.197 71.4267 121.71 72.1C121.223 72.7667 120.683 73.3167 120.09 73.75C120.03 73.67 119.943 73.5733 119.83 73.46C119.723 73.3467 119.61 73.2333 119.49 73.12C119.377 73.0067 119.277 72.9167 119.19 72.85C119.757 72.49 120.257 72.0267 120.69 71.46C121.123 70.8867 121.453 70.26 121.68 69.58ZM121.63 70.47H127.58V74.88H126.32V71.32H122.82V74.88H121.63V70.47ZM129.57 67.31H138.45V68.48H129.57V67.31ZM131.82 68.8C132.093 69.7933 132.5 70.6333 133.04 71.32C133.587 72 134.307 72.5367 135.2 72.93C136.1 73.3233 137.22 73.59 138.56 73.73C138.473 73.8167 138.383 73.93 138.29 74.07C138.197 74.21 138.11 74.35 138.03 74.49C137.95 74.63 137.883 74.76 137.83 74.88C136.77 74.74 135.85 74.5233 135.07 74.23C134.29 73.9367 133.62 73.5533 133.06 73.08C132.507 72.6067 132.037 72.04 131.65 71.38C131.27 70.7133 130.947 69.9433 130.68 69.07L131.82 68.8ZM134.41 65.67H135.74C135.733 66.4633 135.717 67.2133 135.69 67.92C135.67 68.62 135.61 69.2767 135.51 69.89C135.41 70.4967 135.247 71.0533 135.02 71.56C134.8 72.0667 134.49 72.5267 134.09 72.94C133.69 73.3467 133.173 73.7033 132.54 74.01C131.913 74.3233 131.137 74.5833 130.21 74.79C130.177 74.6833 130.12 74.5633 130.04 74.43C129.967 74.3033 129.883 74.1767 129.79 74.05C129.697 73.9233 129.607 73.8167 129.52 73.73C130.373 73.5567 131.087 73.34 131.66 73.08C132.24 72.82 132.707 72.52 133.06 72.18C133.42 71.8333 133.69 71.44 133.87 71C134.057 70.56 134.187 70.0733 134.26 69.54C134.333 69 134.377 68.41 134.39 67.77C134.403 67.1233 134.41 66.4233 134.41 65.67Z" fill="black"/>
<path d="M58.4 34.41H59.59V36.33C59.59 36.7167 59.57 37.1467 59.53 37.62C59.4967 38.0867 59.43 38.5633 59.33 39.05C59.2367 39.5367 59.1 40.01 58.92 40.47C58.74 40.93 58.5033 41.3467 58.21 41.72C58.1367 41.6533 58.0367 41.5733 57.91 41.48C57.79 41.3933 57.6633 41.31 57.53 41.23C57.3967 41.15 57.28 41.09 57.18 41.05C57.46 40.71 57.68 40.34 57.84 39.94C58.0067 39.5333 58.13 39.1167 58.21 38.69C58.29 38.2633 58.34 37.8467 58.36 37.44C58.3867 37.0333 58.4 36.6567 58.4 36.31V34.41ZM59.06 34.41H65.65V36.73H59.06V35.86H64.47V35.29H59.06V34.41ZM57.78 32.94H66.23V33.99H57.78V32.94ZM59.83 37.13H65.11V37.97H60.99V41.91H59.83V37.13ZM64.58 37.13H65.77V40.8C65.77 41.0667 65.73 41.2733 65.65 41.42C65.5767 41.5667 65.4433 41.68 65.25 41.76C65.0633 41.8333 64.83 41.8767 64.55 41.89C64.27 41.9033 63.94 41.91 63.56 41.91C63.54 41.7633 63.4967 41.6 63.43 41.42C63.3633 41.24 63.2933 41.0833 63.22 40.95C63.3733 40.9567 63.5267 40.9633 63.68 40.97C63.84 40.97 63.9833 40.97 64.11 40.97C64.2433 40.9633 64.33 40.96 64.37 40.96C64.4433 40.96 64.4967 40.95 64.53 40.93C64.5633 40.9033 64.58 40.8567 64.58 40.79V37.13ZM60.39 38.41H65.16V39.16H60.39V38.41ZM60.39 39.61H65.16V40.42H60.39V39.61ZM68.8 32.51H69.81V41.9H68.8V32.51ZM67.49 34.35H70.68V35.4H68.37V39.82H67.49V34.35ZM70.26 34.35H71.11V38.63C71.11 38.81 71.0933 38.9767 71.06 39.13C71.0333 39.2833 70.9667 39.4033 70.86 39.49C70.7533 39.5767 70.64 39.6333 70.52 39.66C70.4 39.6867 70.25 39.7 70.07 39.7C70.0633 39.5533 70.0333 39.3833 69.98 39.19C69.9267 38.9967 69.8667 38.8333 69.8 38.7C69.8867 38.7 69.9633 38.7 70.03 38.7C70.1033 38.7 70.1533 38.7 70.18 38.7C70.2333 38.7 70.26 38.6667 70.26 38.6V34.35ZM71.38 32.93H76.54V33.9H71.38V32.93ZM72.82 35.29V36.04H75.09V35.29H72.82ZM71.81 34.4H76.15V36.91H71.81V34.4ZM71.87 39.04H76.12V39.95H71.87V39.04ZM71.85 40.65H76.13V41.58H71.85V40.65ZM71.38 37.43H76.5V41.87H75.39V38.36H72.44V41.88H71.38V37.43ZM73.38 37.9H74.39V41.3H73.38V37.9ZM82.0533 39.9915L77.8097 35.755L78.7401 34.8139L82.9872 39.0611L82.0533 39.9915ZM78.7401 39.9915L77.8097 39.0611L82.0533 34.8139L82.9872 35.755L78.7401 39.9915ZM84.3864 41V39.892L86.9751 37.495C87.1953 37.282 87.38 37.0902 87.5291 36.9197C87.6806 36.7493 87.7955 36.5824 87.8736 36.419C87.9517 36.2533 87.9908 36.0746 87.9908 35.8828C87.9908 35.6697 87.9422 35.4863 87.8452 35.3324C87.7481 35.1761 87.6155 35.0566 87.4474 34.9737C87.2794 34.8885 87.0888 34.8459 86.8757 34.8459C86.6532 34.8459 86.459 34.8909 86.2933 34.9808C86.1276 35.0708 85.9998 35.1998 85.9098 35.3679C85.8198 35.536 85.7749 35.736 85.7749 35.968H84.3153C84.3153 35.4922 84.4231 35.0791 84.6385 34.7287C84.8539 34.3783 85.1558 34.1072 85.544 33.9155C85.9323 33.7237 86.3797 33.6278 86.8864 33.6278C87.4072 33.6278 87.8606 33.7202 88.2464 33.9048C88.6347 34.0871 88.9366 34.3404 89.152 34.6648C89.3674 34.9891 89.4751 35.3608 89.4751 35.7798C89.4751 36.0545 89.4207 36.3255 89.3118 36.593C89.2053 36.8606 89.0147 37.1577 88.7401 37.4844C88.4654 37.8087 88.0784 38.1982 87.5788 38.6527L86.517 39.6932V39.7429H89.571V41H84.3864Z" fill="black"/>
<path d="M162.72 53.35H163.85V57.63C163.85 57.8833 163.817 58.0933 163.75 58.26C163.69 58.4333 163.57 58.5667 163.39 58.66C163.217 58.76 163.013 58.82 162.78 58.84C162.547 58.8667 162.273 58.88 161.96 58.88C161.94 58.7133 161.887 58.5167 161.8 58.29C161.72 58.07 161.637 57.8867 161.55 57.74C161.757 57.7467 161.957 57.7533 162.15 57.76C162.343 57.76 162.473 57.7567 162.54 57.75C162.66 57.75 162.72 57.7 162.72 57.6V53.35ZM160.31 51.73L161.33 52.05C161.163 52.45 160.963 52.85 160.73 53.25C160.503 53.65 160.253 54.0267 159.98 54.38C159.713 54.7333 159.437 55.04 159.15 55.3C159.117 55.22 159.067 55.1133 159 54.98C158.933 54.8467 158.857 54.7133 158.77 54.58C158.69 54.44 158.62 54.3267 158.56 54.24C158.913 53.9333 159.247 53.56 159.56 53.12C159.873 52.6733 160.123 52.21 160.31 51.73ZM160.12 49.57L161.18 49.9C161.02 50.22 160.833 50.54 160.62 50.86C160.413 51.18 160.19 51.48 159.95 51.76C159.717 52.04 159.483 52.2833 159.25 52.49C159.19 52.4167 159.113 52.33 159.02 52.23C158.927 52.1233 158.83 52.02 158.73 51.92C158.63 51.8133 158.54 51.7267 158.46 51.66C158.78 51.4 159.09 51.0833 159.39 50.71C159.69 50.3367 159.933 49.9567 160.12 49.57ZM161.4 50.17H164.54V51.24H161.4V50.17ZM161.23 52.66H164.72V53.77H161.23V52.66ZM156.48 54.79L157.49 53.59V58.91H156.48V54.79ZM155.46 51.34H157.91V52.37H155.46V51.34ZM156.48 49.55H157.49V51.73H156.48V49.55ZM157.45 53.59C157.51 53.6567 157.597 53.77 157.71 53.93C157.83 54.09 157.957 54.2667 158.09 54.46C158.23 54.6533 158.353 54.83 158.46 54.99C158.573 55.15 158.653 55.2633 158.7 55.33L158.09 56.14C158.03 56 157.95 55.8367 157.85 55.65C157.75 55.4567 157.64 55.26 157.52 55.06C157.407 54.86 157.297 54.6733 157.19 54.5C157.083 54.32 156.993 54.1767 156.92 54.07L157.45 53.59ZM157.58 51.34H157.79L157.98 51.29L158.57 51.69C158.37 52.31 158.113 52.92 157.8 53.52C157.493 54.12 157.157 54.68 156.79 55.2C156.43 55.72 156.067 56.1567 155.7 56.51C155.673 56.4167 155.627 56.3 155.56 56.16C155.5 56.0133 155.433 55.8767 155.36 55.75C155.287 55.6167 155.223 55.5167 155.17 55.45C155.497 55.1633 155.817 54.8067 156.13 54.38C156.45 53.9467 156.737 53.4867 156.99 53C157.243 52.5067 157.44 52.0233 157.58 51.55V51.34ZM158.34 53.21L159.02 53.73C158.853 53.9367 158.693 54.15 158.54 54.37C158.387 54.5833 158.247 54.7667 158.12 54.92L157.62 54.51C157.74 54.3367 157.87 54.1233 158.01 53.87C158.15 53.6167 158.26 53.3967 158.34 53.21ZM159.68 54.02L160.73 52.77V58.89H159.68V54.02ZM165.57 51.31H174.45V52.48H165.57V51.31ZM167.82 52.8C168.093 53.7933 168.5 54.6333 169.04 55.32C169.587 56 170.307 56.5367 171.2 56.93C172.1 57.3233 173.22 57.59 174.56 57.73C174.473 57.8167 174.383 57.93 174.29 58.07C174.197 58.21 174.11 58.35 174.03 58.49C173.95 58.63 173.883 58.76 173.83 58.88C172.77 58.74 171.85 58.5233 171.07 58.23C170.29 57.9367 169.62 57.5533 169.06 57.08C168.507 56.6067 168.037 56.04 167.65 55.38C167.27 54.7133 166.947 53.9433 166.68 53.07L167.82 52.8ZM170.41 49.67H171.74C171.733 50.4633 171.717 51.2133 171.69 51.92C171.67 52.62 171.61 53.2767 171.51 53.89C171.41 54.4967 171.247 55.0533 171.02 55.56C170.8 56.0667 170.49 56.5267 170.09 56.94C169.69 57.3467 169.173 57.7033 168.54 58.01C167.913 58.3233 167.137 58.5833 166.21 58.79C166.177 58.6833 166.12 58.5633 166.04 58.43C165.967 58.3033 165.883 58.1767 165.79 58.05C165.697 57.9233 165.607 57.8167 165.52 57.73C166.373 57.5567 167.087 57.34 167.66 57.08C168.24 56.82 168.707 56.52 169.06 56.18C169.42 55.8333 169.69 55.44 169.87 55C170.057 54.56 170.187 54.0733 170.26 53.54C170.333 53 170.377 52.41 170.39 51.77C170.403 51.1233 170.41 50.4233 170.41 49.67Z" fill="black"/>
<path d="M87.44 16.22H92.56V17.14H87.44V16.22ZM87.44 17.79H92.56V18.71H87.44V17.79ZM87.44 19.39H92.57V20.43H87.44V19.39ZM85.48 12.85H94.55V13.96H85.48V12.85ZM86.47 14.57H93.49V20.9H92.24V15.61H87.67V20.9H86.47V14.57ZM89.38 13.51L90.91 13.54C90.7967 13.86 90.6667 14.1667 90.52 14.46C90.3733 14.7467 90.2433 14.9967 90.13 15.21L88.96 15.08C89.02 14.92 89.0767 14.75 89.13 14.57C89.1833 14.39 89.23 14.2067 89.27 14.02C89.3167 13.8333 89.3533 13.6633 89.38 13.51ZM91.72 11.48L93.1 11.78C92.9067 12.0667 92.7067 12.3433 92.5 12.61C92.2933 12.87 92.1033 13.0933 91.93 13.28L90.87 12.97C90.97 12.83 91.0733 12.6733 91.18 12.5C91.2867 12.3267 91.3867 12.1533 91.48 11.98C91.58 11.8 91.66 11.6333 91.72 11.48ZM87.05 11.91L88.12 11.43C88.3067 11.6033 88.49 11.8033 88.67 12.03C88.8567 12.25 89 12.4467 89.1 12.62L87.99 13.19C87.9033 13.0167 87.77 12.81 87.59 12.57C87.41 12.3233 87.23 12.1033 87.05 11.91ZM99.05 15.29V17.03H100.81V15.29H99.05ZM97.92 14.24H102.02V18.07H97.92V14.24ZM95.71 11.84H104.3V20.89H102.99V13.07H96.96V20.89H95.71V11.84ZM96.42 19.23H103.73V20.35H96.42V19.23ZM108.61 11.97C108.577 12.09 108.54 12.24 108.5 12.42C108.46 12.6 108.42 12.79 108.38 12.99C108.34 13.1833 108.303 13.3733 108.27 13.56C108.243 13.7467 108.223 13.91 108.21 14.05C108.33 13.85 108.473 13.6567 108.64 13.47C108.807 13.2767 108.993 13.1033 109.2 12.95C109.413 12.79 109.643 12.6633 109.89 12.57C110.143 12.4767 110.41 12.43 110.69 12.43C111.157 12.43 111.577 12.5733 111.95 12.86C112.323 13.1467 112.617 13.5567 112.83 14.09C113.05 14.6233 113.16 15.2567 113.16 15.99C113.16 16.6967 113.057 17.3167 112.85 17.85C112.643 18.3767 112.347 18.8267 111.96 19.2C111.573 19.5733 111.11 19.8767 110.57 20.11C110.037 20.35 109.44 20.53 108.78 20.65L108.02 19.49C108.573 19.4033 109.08 19.2867 109.54 19.14C110.007 18.9867 110.407 18.78 110.74 18.52C111.08 18.26 111.34 17.9267 111.52 17.52C111.707 17.1067 111.8 16.6 111.8 16C111.8 15.4867 111.747 15.0533 111.64 14.7C111.533 14.34 111.377 14.0667 111.17 13.88C110.97 13.6933 110.73 13.6 110.45 13.6C110.157 13.6 109.877 13.6967 109.61 13.89C109.343 14.0833 109.103 14.3367 108.89 14.65C108.683 14.9567 108.517 15.29 108.39 15.65C108.27 16.01 108.203 16.3567 108.19 16.69C108.183 16.83 108.18 16.9833 108.18 17.15C108.187 17.3167 108.207 17.5167 108.24 17.75L107.01 17.83C106.983 17.6367 106.953 17.3967 106.92 17.11C106.893 16.8167 106.88 16.5 106.88 16.16C106.88 15.9267 106.887 15.6767 106.9 15.41C106.92 15.1433 106.94 14.8733 106.96 14.6C106.987 14.32 107.017 14.04 107.05 13.76C107.09 13.48 107.127 13.2133 107.16 12.96C107.187 12.7667 107.207 12.5767 107.22 12.39C107.233 12.2033 107.24 12.0433 107.24 11.91L108.61 11.97Z" fill="black"/>
<path d="M22.34 92.58H27.45V99.83H26.29V93.66H23.44V99.89H22.34V92.58ZM22.93 98.25H26.92V99.36H22.93V98.25ZM22.93 95.39H26.92V96.48H22.93V95.39ZM24.28 90.51H25.42V98.98H24.28V90.51ZM19.63 95.79L20.78 94.43V99.9H19.63V95.79ZM18.45 92.29H21.26V93.36H18.45V92.29ZM19.62 90.56H20.77V92.92H19.62V90.56ZM20.69 94.83C20.7633 94.8967 20.87 95.0067 21.01 95.16C21.15 95.3067 21.2967 95.47 21.45 95.65C21.61 95.83 21.7567 95.9967 21.89 96.15C22.0233 96.2967 22.1167 96.4067 22.17 96.48L21.48 97.29C21.4 97.1567 21.2967 97.0033 21.17 96.83C21.05 96.65 20.9233 96.4667 20.79 96.28C20.6567 96.0867 20.5233 95.91 20.39 95.75C20.2633 95.5833 20.1567 95.4433 20.07 95.33L20.69 94.83ZM20.92 92.29H21.15L21.35 92.25L21.98 92.66C21.7667 93.3133 21.4867 93.95 21.14 94.57C20.7933 95.1833 20.4133 95.7467 20 96.26C19.5867 96.7733 19.1667 97.2033 18.74 97.55C18.7067 97.4433 18.6567 97.3167 18.59 97.17C18.5233 97.0233 18.45 96.8833 18.37 96.75C18.2967 96.6167 18.23 96.5133 18.17 96.44C18.55 96.16 18.92 95.81 19.28 95.39C19.64 94.9633 19.9633 94.5033 20.25 94.01C20.5433 93.51 20.7667 93.0133 20.92 92.52V92.29ZM21.77 94.31L22.48 94.84C22.2933 95.0667 22.1033 95.3 21.91 95.54C21.7233 95.78 21.55 95.9833 21.39 96.15L20.83 95.71C20.9767 95.5233 21.14 95.3 21.32 95.04C21.5067 94.7733 21.6567 94.53 21.77 94.31ZM28.57 92.31H37.45V93.48H28.57V92.31ZM30.82 93.8C31.0933 94.7933 31.5 95.6333 32.04 96.32C32.5867 97 33.3067 97.5367 34.2 97.93C35.1 98.3233 36.22 98.59 37.56 98.73C37.4733 98.8167 37.3833 98.93 37.29 99.07C37.1967 99.21 37.11 99.35 37.03 99.49C36.95 99.63 36.8833 99.76 36.83 99.88C35.77 99.74 34.85 99.5233 34.07 99.23C33.29 98.9367 32.62 98.5533 32.06 98.08C31.5067 97.6067 31.0367 97.04 30.65 96.38C30.27 95.7133 29.9467 94.9433 29.68 94.07L30.82 93.8ZM33.41 90.67H34.74C34.7333 91.4633 34.7167 92.2133 34.69 92.92C34.67 93.62 34.61 94.2767 34.51 94.89C34.41 95.4967 34.2467 96.0533 34.02 96.56C33.8 97.0667 33.49 97.5267 33.09 97.94C32.69 98.3467 32.1733 98.7033 31.54 99.01C30.9133 99.3233 30.1367 99.5833 29.21 99.79C29.1767 99.6833 29.12 99.5633 29.04 99.43C28.9667 99.3033 28.8833 99.1767 28.79 99.05C28.6967 98.9233 28.6067 98.8167 28.52 98.73C29.3733 98.5567 30.0867 98.34 30.66 98.08C31.24 97.82 31.7067 97.52 32.06 97.18C32.42 96.8333 32.69 96.44 32.87 96C33.0567 95.56 33.1867 95.0733 33.26 94.54C33.3333 94 33.3767 93.41 33.39 92.77C33.4033 92.1233 33.41 91.4233 33.41 90.67Z" fill="black"/>
<path d="M84.1394 48.4802C84.4046 48.4032 84.5572 48.1258 84.4802 47.8606C84.4032 47.5954 84.1258 47.4428 83.8606 47.5198L84.1394 48.4802ZM63.2433 54.0269L63.3265 54.5199L63.355 54.5151L63.3827 54.5071L63.2433 54.0269ZM53.5135 64.0717L53.0213 63.9835L53.0205 63.9883L53.5135 64.0717ZM40 143.928L39.507 143.845L39.424 144.335L39.9142 144.421L40 143.928ZM57.2973 146.942L57.2115 147.434L57.6732 147.515L57.7833 147.059L57.2973 146.942ZM63.2433 154.475H62.7433V154.84L63.0907 154.951L63.2433 154.475ZM92.7855 64L92.3773 64.2887L92.7605 64.8306L93.1756 64.3127L92.7855 64ZM84.068 47.4805L84.5183 47.6977L84.068 47.4805ZM91.4952 41.1641L91.3479 40.6863L91.4952 41.1641ZM100 40L100.02 39.5004L100 39.4996L99.9801 39.5004L100 40ZM90.0801 45.6104L89.6099 45.7804L89.6502 45.892L89.7363 45.9735L90.0801 45.6104ZM116.139 47.5198C115.874 47.4428 115.597 47.5954 115.52 47.8606C115.443 48.1258 115.595 48.4032 115.861 48.4802L116.139 47.5198ZM136.757 54.0269L136.617 54.5071L136.645 54.5151L136.673 54.5199L136.757 54.0269ZM146.486 64.0717L146.979 63.9883L146.979 63.9835L146.486 64.0717ZM160 143.928L160.086 144.421L160.576 144.335L160.493 143.845L160 143.928ZM142.703 146.942L142.217 147.059L142.327 147.515L142.789 147.434L142.703 146.942ZM136.757 154.475L136.909 154.951L137.257 154.84V154.475H136.757ZM107.215 64L106.824 64.3127L107.24 64.8306L107.623 64.2887L107.215 64ZM115.932 47.4805L115.482 47.6977L115.932 47.4805ZM108.505 41.1641L108.652 40.6863L108.505 41.1641ZM109.92 45.6104L110.264 45.9735L110.35 45.892L110.39 45.7804L109.92 45.6104ZM84 48L83.8606 47.5198L63.1038 53.5467L63.2433 54.0269L63.3827 54.5071L84.1394 48.4802L84 48ZM53.5135 64.0717L53.0205 63.9883L39.507 143.845L40 143.928L40.493 144.012L54.0065 64.1552L53.5135 64.0717ZM40 143.928L39.9142 144.421L57.2115 147.434L57.2973 146.942L57.3831 146.449L40.0858 143.436L40 143.928ZM57.2973 146.942L57.7833 147.059L63.7293 122.449L63.2433 122.332L62.7572 122.214L56.8113 146.824L57.2973 146.942ZM63.2433 86.6726H62.7433V122.332H63.2433H63.7433V86.6726H63.2433ZM63.2433 122.332H62.7433V154.475H63.2433H63.7433V122.332H63.2433ZM63.2433 154.475L63.0907 154.951C78.8326 159.995 89.6993 160.5 100 160.5V160V159.5C89.7601 159.5 79.0052 159 63.3958 153.999L63.2433 154.475ZM100 55L99.6099 54.6873L92.3954 63.6873L92.7855 64L93.1756 64.3127L100.39 55.3127L100 55ZM92.7855 64L93.1937 63.7113C89.2351 58.1141 86.9732 54.2183 85.7526 51.6308C85.1419 50.3361 84.7978 49.3812 84.6299 48.7127C84.546 48.3781 84.5091 48.1268 84.5015 47.9476C84.4934 47.757 84.5206 47.693 84.5183 47.6977L84.068 47.4805L83.6176 47.2633C83.5151 47.4758 83.4915 47.7332 83.5024 47.9899C83.5138 48.2579 83.5655 48.5797 83.66 48.9561C83.8492 49.7097 84.2215 50.7288 84.8482 52.0575C86.1027 54.7168 88.3999 58.6651 92.3773 64.2887L92.7855 64ZM84.068 47.4805L84.5183 47.6977C86.1086 44.3999 88.4569 42.6241 91.6425 41.6419L91.4952 41.1641L91.3479 40.6863C87.9242 41.7418 85.3406 43.6902 83.6176 47.2633L84.068 47.4805ZM91.4952 41.1641L91.6425 41.6419C93.9707 40.924 96.7492 40.63 100.02 40.4996L100 40L99.9801 39.5004C96.6874 39.6317 93.8035 39.9292 91.3479 40.6863L91.4952 41.1641ZM100 55L100.344 54.6369L90.4238 45.2473L90.0801 45.6104L89.7363 45.9735L99.6563 55.3631L100 55ZM90.0801 45.6104L90.5502 45.4403C90.1422 44.312 90.2703 43.4977 90.5603 42.9059C90.8597 42.2949 91.3591 41.866 91.7795 41.5754L91.4952 41.1641L91.2109 40.7528C90.7295 41.0855 90.0704 41.633 89.6623 42.4659C89.2447 43.3181 89.1161 44.4153 89.6099 45.7804L90.0801 45.6104ZM90.0801 45.6104L90.3102 46.0543C91.4159 45.481 93.2052 45.1734 95.0814 45.0178C96.9368 44.8639 98.7962 44.8636 100 44.8636V44.3636V43.8636C98.799 43.8636 96.9008 43.8634 94.9987 44.0212C93.1173 44.1773 91.149 44.493 89.8499 45.1665L90.0801 45.6104ZM116 48L115.861 48.4802L136.617 54.5071L136.757 54.0269L136.896 53.5467L116.139 47.5198L116 48ZM136.757 54.0269L136.673 54.5199C139.493 54.9962 141.69 56.6659 143.26 58.61C144.834 60.56 145.74 62.7438 145.994 64.16L146.486 64.0717L146.979 63.9835C146.692 62.3862 145.707 60.0498 144.038 57.9819C142.364 55.9081 139.967 54.0621 136.84 53.5339L136.757 54.0269ZM146.486 64.0717L145.993 64.1552L159.507 144.012L160 143.928L160.493 143.845L146.979 63.9883L146.486 64.0717ZM160 143.928L159.914 143.436L142.617 146.449L142.703 146.942L142.789 147.434L160.086 144.421L160 143.928ZM142.703 146.942L143.189 146.824L137.243 122.214L136.757 122.332L136.271 122.449L142.217 147.059L142.703 146.942ZM136.757 86.6726H136.257V122.332H136.757H137.257V86.6726H136.757ZM136.757 122.332H136.257V154.475H136.757H137.257V122.332H136.757ZM136.757 154.475L136.604 153.999C120.995 159 110.24 159.5 100 159.5V160V160.5C110.301 160.5 121.167 159.995 136.909 154.951L136.757 154.475ZM100 55L99.6099 55.3127L106.824 64.3127L107.215 64L107.605 63.6873L100.39 54.6873L100 55ZM107.215 64L107.623 64.2887C111.6 58.6651 113.897 54.7168 115.152 52.0575C115.779 50.7288 116.151 49.7097 116.34 48.9561C116.434 48.5797 116.486 48.2579 116.498 47.9899C116.508 47.7332 116.485 47.4758 116.382 47.2633L115.932 47.4805L115.482 47.6977C115.479 47.693 115.507 47.757 115.498 47.9476C115.491 48.1268 115.454 48.3781 115.37 48.7127C115.202 49.3812 114.858 50.3361 114.247 51.6308C113.027 54.2183 110.765 58.1141 106.806 63.7113L107.215 64ZM115.932 47.4805L116.382 47.2633C114.659 43.6902 112.076 41.7418 108.652 40.6863L108.505 41.1641L108.357 41.6419C111.543 42.6241 113.891 44.3999 115.482 47.6977L115.932 47.4805ZM108.505 41.1641L108.652 40.6863C106.197 39.9292 103.313 39.6317 100.02 39.5004L100 40L99.9801 40.4996C103.251 40.63 106.029 40.924 108.357 41.6419L108.505 41.1641ZM100 55L100.344 55.3631L110.264 45.9735L109.92 45.6104L109.576 45.2473L99.6563 54.6369L100 55ZM109.92 45.6104L110.39 45.7804C110.884 44.4153 110.755 43.3181 110.338 42.4659C109.93 41.633 109.271 41.0855 108.789 40.7528L108.505 41.1641L108.22 41.5754C108.641 41.866 109.14 42.2949 109.44 42.9059C109.73 43.4977 109.858 44.312 109.45 45.4403L109.92 45.6104ZM109.92 45.6104L110.15 45.1665C108.851 44.493 106.883 44.1773 105.001 44.0212C103.099 43.8634 101.201 43.8636 100 43.8636V44.3636V44.8636C101.204 44.8636 103.063 44.8639 104.919 45.0178C106.795 45.1734 108.584 45.481 109.69 46.0543L109.92 45.6104ZM63.2433 54.0269L63.16 53.5339C60.1879 54.036 57.8748 55.729 56.2162 57.6757L56.5968 58L56.9774 58.3243C58.5287 56.5035 60.6466 54.9727 63.3265 54.5199L63.2433 54.0269ZM56.5968 58L56.2162 57.6757C54.3913 59.8176 53.3218 62.3086 53.0214 63.9835L53.5135 64.0717L54.0057 64.16C54.2725 62.6725 55.2585 60.3417 56.9774 58.3243L56.5968 58ZM63.2433 86.6726H63.7433C63.7433 76.1728 62.6328 69.1589 61.2282 64.6484C60.526 62.3932 59.7464 60.7515 58.9861 59.61C58.2344 58.4816 57.469 57.7939 56.7728 57.532L56.5968 58L56.4207 58.468C56.8323 58.6228 57.4516 59.1102 58.1538 60.1644C58.8474 61.2057 59.591 62.7542 60.2734 64.9457C61.6382 69.3286 62.7433 76.2344 62.7433 86.6726H63.2433Z" fill="black"/>
<path d="M100.644 36.0211C100.379 35.9417 100.1 36.0919 100.021 36.3564C99.9417 36.6209 100.092 36.8996 100.356 36.9789L100.644 36.0211ZM142.027 48.9552L141.883 49.4342L141.892 49.4365L142.027 48.9552ZM151.757 60L151.265 60.0883L151.265 60.0908L151.757 60ZM160.413 143.508C160.141 143.556 159.96 143.815 160.008 144.087C160.056 144.359 160.315 144.54 160.587 144.492L160.413 143.508ZM169.087 142.992C169.359 142.944 169.54 142.685 169.492 142.413C169.444 142.141 169.185 141.96 168.913 142.008L169.087 142.992ZM142.027 48.9552L141.892 49.4365C144.368 50.1323 146.584 52.0481 148.261 54.2067C149.94 56.3682 151.013 58.6874 151.265 60.0883L151.757 60L152.249 59.9117C151.96 58.2992 150.79 55.8325 149.05 53.5932C147.308 51.351 144.929 49.2511 142.162 48.4738L142.027 48.9552ZM151.757 60L151.265 60.0908L166.508 142.591L167 142.5L167.492 142.409L152.248 59.9092L151.757 60ZM100.5 36.5L100.356 36.9789L141.883 49.4341L142.027 48.9552L142.171 48.4762L100.644 36.0211L100.5 36.5ZM160.5 144L160.587 144.492L169.087 142.992L169 142.5L168.913 142.008L160.413 143.508L160.5 144Z" fill="#FF0000"/>
<path d="M39.5 143.5L31 142" stroke="#FF0000" stroke-linecap="round"/>
<path d="M56.5 58.5L48 57" stroke="#FF0000" stroke-linecap="round"/>
<path d="M48.0093 57.9042C48.0622 57.6332 48.3248 57.4563 48.5958 57.5093C48.8668 57.5622 49.0437 57.8248 48.9907 58.0958L48.0093 57.9042ZM48.5 58L48.9907 58.0958L32.4908 142.596L32 142.5L31.5093 142.404L48.0093 57.9042L48.5 58Z" fill="#FF0000"/>
<path d="M100 40V35" stroke="#FF0000" stroke-width="0.5" stroke-linecap="round"/>
<path d="M100 46V167" stroke="#6F6F6F" stroke-width="0.5" stroke-linecap="round" stroke-dasharray="2 2"/>
<path d="M167.198 142.542L169.865 135" stroke="#FF0202" stroke-linecap="round"/>
<path d="M31.9327 141.542L29.2655 134" stroke="#FF0202" stroke-linecap="round"/>
<path d="M42.9838 64.5L48.4838 58" stroke="#FF0202" stroke-linecap="round"/>
<path d="M100.5 36.5L108.341 34.9146" stroke="#FF0202" stroke-linecap="round"/>
<path d="M57 46.5V58" stroke="#FF0000" stroke-linecap="round"/>
<path d="M57 48L64 45.5" stroke="#FF0000" stroke-linecap="round"/>
<path d="M99.5 48L94 46" stroke="#FF0000" stroke-linecap="round"/>
<path d="M100 45H123" stroke="#FF0000" stroke-width="0.5" stroke-dasharray="1 1"/>
<path d="M118 159V46" stroke="#FF0202" stroke-linecap="round"/>
<path d="M100 160H123" stroke="#FF0000" stroke-width="0.5" stroke-dasharray="1 1"/>
<path d="M122 152L118 158.928L114 152" stroke="#FF0202" stroke-linecap="round"/>
<path d="M114 52.9282L118 46L122 52.9282" stroke="#FF0202" stroke-linecap="round"/>
</g>
<defs>
<clipPath id="clip0_39_149">
<rect width="200" height="200" fill="white"/>
</clipPath>
</defs>
</svg>
