<svg width="200" height="200" viewBox="0 0 200 200" fill="none" xmlns="http://www.w3.org/2000/svg">
<g clip-path="url(#clip0_150_457)">
<rect width="200" height="200" fill="white"/>
<path d="M77.3333 45.189L55.3333 55.5469C59.3333 78.6998 60.6667 100.634 48 106.118C53.8667 128.052 51.7778 151.002 50 160.954C64.7272 163.107 78.9339 163.833 94 163.973C95.1613 163.984 96.3278 163.991 97.5 163.996M77.3333 45.189C81.0667 43.2393 81.3333 39.7055 82.6667 38.4869C83.3403 38.0471 84.0695 37.6835 84.8403 37.3833M77.3333 45.189C78.9333 53.9628 82 60.2181 83.3333 62.2491C88 60.4212 90 58.5934 92.6667 55.5469L100 59.2026M84.8403 37.3833C89.4088 35.6037 95.4366 36.0497 100 36.0497C104.563 36.0497 110.591 35.6037 115.16 37.3833M84.8403 37.3833C85.6089 39.7267 86.756 42.125 88.0871 44.4362M100 59.2026C98.1502 57.9731 92.2281 51.6261 88.0871 44.4362M100 59.2026L107.333 55.5469M100 59.2026C101.85 57.9731 107.772 51.6261 111.913 44.4362M88.0871 44.4362H111.913M122.667 45.189L144.667 55.5469C140.667 78.6998 139.333 100.634 152 106.118C146.133 128.052 148.222 151.002 150 160.954C133.333 163.391 117.333 164 100 164C99.1636 164 98.3304 163.999 97.5 163.996M122.667 45.189C118.933 43.2393 118.667 39.7055 117.333 38.4869C116.66 38.0471 115.93 37.6835 115.16 37.3833M122.667 45.189C121.067 53.9628 118 60.2181 116.667 62.2491C112 60.4212 110 58.5934 107.333 55.5469M115.16 37.3833C114.391 39.7267 113.244 42.125 111.913 44.4362M107.333 55.5469C107.5 57.5 103.5 60 97.5 60V163.996" stroke="black" stroke-linecap="round"/>
<circle cx="102" cy="64" r="1.5" stroke="black"/>
<circle cx="102" cy="86" r="1.5" stroke="black"/>
<circle cx="102" cy="108" r="1.5" stroke="black"/>
<circle cx="102" cy="130" r="1.5" stroke="black"/>
<circle cx="102" cy="152" r="1.5" stroke="black"/>
<path d="M91.4 17.41H92.59V19.33C92.59 19.7167 92.57 20.1467 92.53 20.62C92.4967 21.0867 92.43 21.5633 92.33 22.05C92.2367 22.5367 92.1 23.01 91.92 23.47C91.74 23.93 91.5033 24.3467 91.21 24.72C91.1367 24.6533 91.0367 24.5733 90.91 24.48C90.79 24.3933 90.6633 24.31 90.53 24.23C90.3967 24.15 90.28 24.09 90.18 24.05C90.46 23.71 90.68 23.34 90.84 22.94C91.0067 22.5333 91.13 22.1167 91.21 21.69C91.29 21.2633 91.34 20.8467 91.36 20.44C91.3867 20.0333 91.4 19.6567 91.4 19.31V17.41ZM92.06 17.41H98.65V19.73H92.06V18.86H97.47V18.29H92.06V17.41ZM90.78 15.94H99.23V16.99H90.78V15.94ZM92.83 20.13H98.11V20.97H93.99V24.91H92.83V20.13ZM97.58 20.13H98.77V23.8C98.77 24.0667 98.73 24.2733 98.65 24.42C98.5767 24.5667 98.4433 24.68 98.25 24.76C98.0633 24.8333 97.83 24.8767 97.55 24.89C97.27 24.9033 96.94 24.91 96.56 24.91C96.54 24.7633 96.4967 24.6 96.43 24.42C96.3633 24.24 96.2933 24.0833 96.22 23.95C96.3733 23.9567 96.5267 23.9633 96.68 23.97C96.84 23.97 96.9833 23.97 97.11 23.97C97.2433 23.9633 97.33 23.96 97.37 23.96C97.4433 23.96 97.4967 23.95 97.53 23.93C97.5633 23.9033 97.58 23.8567 97.58 23.79V20.13ZM93.39 21.41H98.16V22.16H93.39V21.41ZM93.39 22.61H98.16V23.42H93.39V22.61ZM101.8 15.51H102.81V24.9H101.8V15.51ZM100.49 17.35H103.68V18.4H101.37V22.82H100.49V17.35ZM103.26 17.35H104.11V21.63C104.11 21.81 104.093 21.9767 104.06 22.13C104.033 22.2833 103.967 22.4033 103.86 22.49C103.753 22.5767 103.64 22.6333 103.52 22.66C103.4 22.6867 103.25 22.7 103.07 22.7C103.063 22.5533 103.033 22.3833 102.98 22.19C102.927 21.9967 102.867 21.8333 102.8 21.7C102.887 21.7 102.963 21.7 103.03 21.7C103.103 21.7 103.153 21.7 103.18 21.7C103.233 21.7 103.26 21.6667 103.26 21.6V17.35ZM104.38 15.93H109.54V16.9H104.38V15.93ZM105.82 18.29V19.04H108.09V18.29H105.82ZM104.81 17.4H109.15V19.91H104.81V17.4ZM104.87 22.04H109.12V22.95H104.87V22.04ZM104.85 23.65H109.13V24.58H104.85V23.65ZM104.38 20.43H109.5V24.87H108.39V21.36H105.44V24.88H104.38V20.43ZM106.38 20.9H107.39V24.3H106.38V20.9Z" fill="black"/>
<path d="M101.75 95.07H106.2V95.93H101.75V95.07ZM101.75 96.53H106.2V97.4H101.75V96.53ZM105.66 93.46H106.91V100.43C106.91 100.777 106.87 101.043 106.79 101.23C106.71 101.423 106.557 101.573 106.33 101.68C106.11 101.78 105.833 101.843 105.5 101.87C105.167 101.897 104.76 101.907 104.28 101.9C104.26 101.78 104.227 101.643 104.18 101.49C104.14 101.337 104.09 101.183 104.03 101.03C103.977 100.883 103.92 100.753 103.86 100.64C104.067 100.653 104.273 100.663 104.48 100.67C104.693 100.67 104.88 100.67 105.04 100.67C105.207 100.663 105.327 100.66 105.4 100.66C105.493 100.66 105.56 100.643 105.6 100.61C105.64 100.577 105.66 100.513 105.66 100.42V93.46ZM99.5 98.19C100.047 98.1633 100.687 98.1333 101.42 98.1C102.16 98.0667 102.943 98.0267 103.77 97.98C104.603 97.9333 105.427 97.8867 106.24 97.84L106.23 98.86C105.457 98.9267 104.677 98.9933 103.89 99.06C103.103 99.12 102.347 99.1767 101.62 99.23C100.9 99.2833 100.25 99.33 99.67 99.37L99.5 98.19ZM107.41 95.51L108.58 96.07C107.96 97.03 107.213 97.88 106.34 98.62C105.473 99.3533 104.517 99.9867 103.47 100.52C102.423 101.047 101.323 101.48 100.17 101.82C100.117 101.72 100.04 101.6 99.94 101.46C99.84 101.327 99.7367 101.193 99.63 101.06C99.53 100.927 99.4367 100.813 99.35 100.72C100.517 100.427 101.61 100.043 102.63 99.57C103.65 99.09 104.567 98.5133 105.38 97.84C106.193 97.16 106.87 96.3833 107.41 95.51ZM103.38 92.47L104.86 92.63C104.707 92.9367 104.54 93.2367 104.36 93.53C104.187 93.8233 104.027 94.07 103.88 94.27L102.81 94.05C102.923 93.8167 103.033 93.5567 103.14 93.27C103.247 92.9767 103.327 92.71 103.38 92.47ZM100.98 93.46H106.06V94.49H102.19V98.73H100.98V93.46ZM110.8 92.51H111.81V101.9H110.8V92.51ZM109.49 94.35H112.68V95.4H110.37V99.82H109.49V94.35ZM112.26 94.35H113.11V98.63C113.11 98.81 113.093 98.9767 113.06 99.13C113.033 99.2833 112.967 99.4033 112.86 99.49C112.753 99.5767 112.64 99.6333 112.52 99.66C112.4 99.6867 112.25 99.7 112.07 99.7C112.063 99.5533 112.033 99.3833 111.98 99.19C111.927 98.9967 111.867 98.8333 111.8 98.7C111.887 98.7 111.963 98.7 112.03 98.7C112.103 98.7 112.153 98.7 112.18 98.7C112.233 98.7 112.26 98.6667 112.26 98.6V94.35ZM113.38 92.93H118.54V93.9H113.38V92.93ZM114.82 95.29V96.04H117.09V95.29H114.82ZM113.81 94.4H118.15V96.91H113.81V94.4ZM113.87 99.04H118.12V99.95H113.87V99.04ZM113.85 100.65H118.13V101.58H113.85V100.65ZM113.38 97.43H118.5V101.87H117.39V98.36H114.44V101.88H113.38V97.43ZM115.38 97.9H116.39V101.3H115.38V97.9Z" fill="black"/>
<path d="M143 28L56 28" stroke="#FF0202" stroke-linecap="round"/>
<path d="M149 105L51 105" stroke="#FF0202" stroke-linecap="round"/>
<path d="M62.9282 24L56 28L62.9282 32" stroke="#FF0202" stroke-linecap="round"/>
<path d="M56.9282 101L50 105L56.9282 109" stroke="#FF0202" stroke-linecap="round"/>
<path d="M137 24L143.928 28L137 32" stroke="#FF0202" stroke-linecap="round"/>
<path d="M143 101L149.928 105L143 109" stroke="#FF0202" stroke-linecap="round"/>
<path d="M55 55V24" stroke="#FF0000" stroke-width="0.5" stroke-linecap="round" stroke-dasharray="2 2"/>
<path d="M145 55V24" stroke="#FF0000" stroke-width="0.5" stroke-linecap="round" stroke-dasharray="2 2"/>
<path d="M161 163V45" stroke="#FF0202" stroke-linecap="round"/>
<path d="M100 164L182 164" stroke="#FF0000" stroke-width="0.5" stroke-dasharray="1 1"/>
<path d="M100 44H163" stroke="#FF0000" stroke-width="0.5" stroke-dasharray="1 1"/>
<path d="M164.02 92.48H172.04V93.41H164.02V92.48ZM164.52 93.84H171.52V94.71H164.52V93.84ZM166.29 97.68H170.82V98.34H166.29V97.68ZM166.29 98.7H170.82V99.37H166.29V98.7ZM166.28 99.74H170.94V100.59H166.28V99.74ZM163.57 95.13H172.43V96.07H163.57V95.13ZM167.37 93.16H168.6V95.88H167.37V93.16ZM165.26 91.82L166.33 91.48C166.463 91.6267 166.59 91.7933 166.71 91.98C166.83 92.16 166.917 92.3233 166.97 92.47L165.86 92.88C165.813 92.7333 165.733 92.56 165.62 92.36C165.507 92.16 165.387 91.98 165.26 91.82ZM169.58 91.47L170.89 91.8C170.737 91.9933 170.587 92.1767 170.44 92.35C170.3 92.5167 170.177 92.66 170.07 92.78L169.05 92.47C169.143 92.3167 169.24 92.15 169.34 91.97C169.447 91.7833 169.527 91.6167 169.58 91.47ZM165.68 95.58L166.87 95.87C166.583 96.6833 166.197 97.4267 165.71 98.1C165.223 98.7667 164.683 99.3167 164.09 99.75C164.03 99.67 163.943 99.5733 163.83 99.46C163.723 99.3467 163.61 99.2333 163.49 99.12C163.377 99.0067 163.277 98.9167 163.19 98.85C163.757 98.49 164.257 98.0267 164.69 97.46C165.123 96.8867 165.453 96.26 165.68 95.58ZM165.63 96.47H171.58V100.88H170.32V97.32H166.82V100.88H165.63V96.47ZM173.57 93.31H182.45V94.48H173.57V93.31ZM175.82 94.8C176.093 95.7933 176.5 96.6333 177.04 97.32C177.587 98 178.307 98.5367 179.2 98.93C180.1 99.3233 181.22 99.59 182.56 99.73C182.473 99.8167 182.383 99.93 182.29 100.07C182.197 100.21 182.11 100.35 182.03 100.49C181.95 100.63 181.883 100.76 181.83 100.88C180.77 100.74 179.85 100.523 179.07 100.23C178.29 99.9367 177.62 99.5533 177.06 99.08C176.507 98.6067 176.037 98.04 175.65 97.38C175.27 96.7133 174.947 95.9433 174.68 95.07L175.82 94.8ZM178.41 91.67H179.74C179.733 92.4633 179.717 93.2133 179.69 93.92C179.67 94.62 179.61 95.2767 179.51 95.89C179.41 96.4967 179.247 97.0533 179.02 97.56C178.8 98.0667 178.49 98.5267 178.09 98.94C177.69 99.3467 177.173 99.7033 176.54 100.01C175.913 100.323 175.137 100.583 174.21 100.79C174.177 100.683 174.12 100.563 174.04 100.43C173.967 100.303 173.883 100.177 173.79 100.05C173.697 99.9233 173.607 99.8167 173.52 99.73C174.373 99.5567 175.087 99.34 175.66 99.08C176.24 98.82 176.707 98.52 177.06 98.18C177.42 97.8333 177.69 97.44 177.87 97C178.057 96.56 178.187 96.0733 178.26 95.54C178.333 95 178.377 94.41 178.39 93.77C178.403 93.1233 178.41 92.4233 178.41 91.67Z" fill="black"/>
<path d="M165 50.9282L161 44L157 50.9282" stroke="#FF0202" stroke-linecap="round"/>
<path d="M157 156L161 162.928L165 156" stroke="#FF0202" stroke-linecap="round"/>
</g>
<defs>
<clipPath id="clip0_150_457">
<rect width="200" height="200" fill="white"/>
</clipPath>
</defs>
</svg>
