<svg width="200" height="200" viewBox="0 0 200 200" fill="none" xmlns="http://www.w3.org/2000/svg">
<g clip-path="url(#clip0_242_117)">
<rect width="200" height="200" fill="white"/>
<path d="M90.004 84.281C89.99 84.4303 89.9783 84.5517 89.969 84.645C89.9597 84.7337 89.955 84.827 89.955 84.925C89.955 84.9857 89.955 85.079 89.955 85.205C89.955 85.331 89.955 85.4617 89.955 85.597C89.955 85.7323 89.955 85.8443 89.955 85.933H88.982C88.982 85.835 88.982 85.7183 88.982 85.583C88.982 85.4477 88.982 85.3193 88.982 85.198C88.982 85.0767 88.982 84.9857 88.982 84.925C88.982 84.827 88.9773 84.7337 88.968 84.645C88.9633 84.5517 88.9493 84.4303 88.926 84.281H90.004ZM92.363 85.758C92.335 85.8327 92.307 85.9283 92.279 86.045C92.2557 86.157 92.237 86.248 92.223 86.318C92.195 86.4813 92.16 86.647 92.118 86.815C92.0807 86.983 92.034 87.151 91.978 87.319C91.9267 87.487 91.866 87.6527 91.796 87.816C91.7307 87.9793 91.656 88.1403 91.572 88.299C91.3853 88.6397 91.1473 88.95 90.858 89.23C90.5733 89.51 90.249 89.748 89.885 89.944C89.521 90.1353 89.1313 90.287 88.716 90.399L87.988 89.559C88.1467 89.531 88.3147 89.4937 88.492 89.447C88.6693 89.3957 88.8303 89.342 88.975 89.286C89.171 89.2113 89.3647 89.118 89.556 89.006C89.752 88.8893 89.9363 88.754 90.109 88.6C90.2817 88.446 90.4333 88.2757 90.564 88.089C90.6807 87.9163 90.781 87.732 90.865 87.536C90.949 87.3353 91.0167 87.13 91.068 86.92C91.1193 86.7053 91.159 86.4953 91.187 86.29H87.715C87.715 86.3507 87.715 86.4277 87.715 86.521C87.715 86.6097 87.715 86.7077 87.715 86.815C87.715 86.9177 87.715 87.0133 87.715 87.102C87.715 87.186 87.715 87.256 87.715 87.312C87.715 87.3913 87.7173 87.48 87.722 87.578C87.7267 87.676 87.7313 87.76 87.736 87.83H86.77C86.7793 87.7413 86.7863 87.6457 86.791 87.543C86.8003 87.4357 86.805 87.3353 86.805 87.242C86.805 87.186 86.805 87.1043 86.805 86.997C86.805 86.8897 86.805 86.7753 86.805 86.654C86.805 86.528 86.805 86.409 86.805 86.297C86.805 86.185 86.805 86.0963 86.805 86.031C86.805 85.9517 86.8027 85.8537 86.798 85.737C86.7933 85.6157 86.784 85.513 86.77 85.429C86.8913 85.443 87.008 85.4523 87.12 85.457C87.232 85.4617 87.3533 85.464 87.484 85.464H91.173C91.3177 85.464 91.4343 85.457 91.523 85.443C91.6163 85.4243 91.6933 85.4057 91.754 85.387L92.363 85.758ZM93.973 85.114C94.0663 85.1233 94.176 85.1327 94.302 85.142C94.428 85.1513 94.54 85.156 94.638 85.156H98.446C98.5533 85.156 98.6653 85.1513 98.782 85.142C98.8987 85.1327 99.006 85.1233 99.104 85.114V86.073C99.0013 86.0637 98.8917 86.0567 98.775 86.052C98.6583 86.0473 98.5487 86.045 98.446 86.045H94.638C94.5447 86.045 94.4327 86.0473 94.302 86.052C94.1713 86.0567 94.0617 86.0637 93.973 86.073V85.114ZM95.989 89.419V85.653H96.969V89.419H95.989ZM93.518 88.845C93.63 88.8637 93.7467 88.8777 93.868 88.887C93.9893 88.8963 94.1037 88.901 94.211 88.901H98.824C98.95 88.901 99.069 88.8963 99.181 88.887C99.293 88.873 99.3933 88.859 99.482 88.845V89.86C99.3793 89.846 99.265 89.8367 99.139 89.832C99.013 89.8273 98.908 89.825 98.824 89.825H94.211C94.1083 89.825 93.9963 89.8273 93.875 89.832C93.7537 89.8367 93.6347 89.846 93.518 89.86V88.845ZM105.838 85.254C105.81 85.296 105.768 85.3613 105.712 85.45C105.661 85.5387 105.621 85.6203 105.593 85.695C105.495 85.9143 105.374 86.1593 105.229 86.43C105.089 86.7007 104.928 86.9737 104.746 87.249C104.569 87.5197 104.38 87.774 104.179 88.012C103.918 88.306 103.628 88.5977 103.311 88.887C102.998 89.1717 102.667 89.4353 102.317 89.678C101.972 89.916 101.617 90.1213 101.253 90.294L100.532 89.538C100.91 89.3933 101.276 89.2113 101.631 88.992C101.986 88.7727 102.315 88.5347 102.618 88.278C102.921 88.0213 103.183 87.7717 103.402 87.529C103.556 87.3517 103.701 87.1627 103.836 86.962C103.976 86.7613 104.1 86.563 104.207 86.367C104.314 86.1663 104.394 85.982 104.445 85.814C104.398 85.814 104.314 85.814 104.193 85.814C104.072 85.814 103.929 85.814 103.766 85.814C103.607 85.814 103.439 85.814 103.262 85.814C103.085 85.814 102.914 85.814 102.751 85.814C102.592 85.814 102.452 85.814 102.331 85.814C102.21 85.814 102.123 85.814 102.072 85.814C101.974 85.814 101.871 85.8187 101.764 85.828C101.657 85.8327 101.554 85.8397 101.456 85.849C101.363 85.8537 101.29 85.8583 101.239 85.863V84.869C101.309 84.8737 101.395 84.8807 101.498 84.89C101.601 84.8993 101.703 84.9063 101.806 84.911C101.913 84.9157 102.002 84.918 102.072 84.918C102.133 84.918 102.228 84.918 102.359 84.918C102.49 84.918 102.639 84.918 102.807 84.918C102.975 84.918 103.148 84.918 103.325 84.918C103.507 84.918 103.68 84.918 103.843 84.918C104.011 84.918 104.156 84.918 104.277 84.918C104.398 84.918 104.487 84.918 104.543 84.918C104.697 84.918 104.837 84.9087 104.963 84.89C105.094 84.8713 105.194 84.8503 105.264 84.827L105.838 85.254ZM104.27 87.431C104.452 87.5757 104.646 87.7437 104.851 87.935C105.056 88.1263 105.259 88.3247 105.46 88.53C105.661 88.7353 105.845 88.9337 106.013 89.125C106.186 89.3117 106.33 89.475 106.447 89.615L105.649 90.308C105.476 90.07 105.278 89.8227 105.054 89.566C104.835 89.3093 104.601 89.055 104.354 88.803C104.111 88.5463 103.864 88.3037 103.612 88.075L104.27 87.431ZM109.198 89.328C109.198 89.2393 109.198 89.0947 109.198 88.894C109.198 88.6887 109.198 88.453 109.198 88.187C109.198 87.9163 109.198 87.634 109.198 87.34C109.198 87.046 109.198 86.7637 109.198 86.493C109.198 86.2177 109.198 85.975 109.198 85.765C109.198 85.555 109.198 85.401 109.198 85.303C109.198 85.1817 109.191 85.0417 109.177 84.883C109.168 84.7243 109.151 84.5843 109.128 84.463H110.22C110.206 84.5843 110.192 84.7197 110.178 84.869C110.164 85.0137 110.157 85.1583 110.157 85.303C110.157 85.4337 110.157 85.611 110.157 85.835C110.157 86.059 110.157 86.3087 110.157 86.584C110.157 86.8547 110.157 87.1323 110.157 87.417C110.157 87.697 110.157 87.9677 110.157 88.229C110.157 88.4903 110.157 88.719 110.157 88.915C110.157 89.1063 110.157 89.244 110.157 89.328C110.157 89.3933 110.159 89.4867 110.164 89.608C110.169 89.7247 110.178 89.846 110.192 89.972C110.206 90.098 110.215 90.21 110.22 90.308H109.128C109.147 90.168 109.163 90.0047 109.177 89.818C109.191 89.6313 109.198 89.468 109.198 89.328ZM109.947 86.276C110.18 86.3367 110.442 86.416 110.731 86.514C111.02 86.6073 111.312 86.7077 111.606 86.815C111.9 86.9223 112.175 87.0297 112.432 87.137C112.693 87.2397 112.91 87.3353 113.083 87.424L112.684 88.39C112.488 88.2873 112.271 88.1847 112.033 88.082C111.795 87.9747 111.552 87.872 111.305 87.774C111.062 87.676 110.822 87.585 110.584 87.501C110.351 87.417 110.138 87.3423 109.947 87.277V86.276Z" fill="black"/>
<path d="M91.422 103.484C91.4033 103.591 91.3893 103.715 91.38 103.855C91.3753 103.995 91.373 104.114 91.373 104.212C91.373 104.282 91.373 104.406 91.373 104.583C91.373 104.76 91.373 104.968 91.373 105.206C91.373 105.439 91.373 105.687 91.373 105.948C91.373 106.205 91.373 106.454 91.373 106.697C91.373 106.935 91.373 107.147 91.373 107.334C91.373 107.521 91.373 107.658 91.373 107.747C91.373 107.896 91.408 107.999 91.478 108.055C91.5527 108.111 91.6693 108.155 91.828 108.188C91.9307 108.202 92.052 108.214 92.192 108.223C92.332 108.228 92.479 108.23 92.633 108.23C92.815 108.23 93.0157 108.225 93.235 108.216C93.459 108.202 93.683 108.186 93.907 108.167C94.1357 108.148 94.3503 108.123 94.551 108.09C94.7563 108.057 94.9313 108.022 95.076 107.985V109.014C94.8567 109.042 94.6 109.065 94.306 109.084C94.0167 109.107 93.7203 109.124 93.417 109.133C93.1183 109.147 92.8383 109.154 92.577 109.154C92.353 109.154 92.1383 109.147 91.933 109.133C91.7277 109.119 91.5503 109.1 91.401 109.077C91.0977 109.021 90.862 108.907 90.694 108.734C90.526 108.561 90.442 108.326 90.442 108.027C90.442 107.892 90.442 107.717 90.442 107.502C90.442 107.283 90.442 107.042 90.442 106.781C90.442 106.515 90.442 106.249 90.442 105.983C90.442 105.712 90.442 105.458 90.442 105.22C90.442 104.977 90.442 104.767 90.442 104.59C90.442 104.413 90.442 104.287 90.442 104.212C90.442 104.142 90.4397 104.063 90.435 103.974C90.4303 103.885 90.4233 103.797 90.414 103.708C90.4047 103.615 90.3953 103.54 90.386 103.484H91.422ZM90.96 105.633C91.184 105.586 91.4243 105.528 91.681 105.458C91.9377 105.388 92.1943 105.313 92.451 105.234C92.7123 105.155 92.9597 105.073 93.193 104.989C93.4263 104.905 93.634 104.826 93.816 104.751C93.942 104.7 94.0657 104.644 94.187 104.583C94.313 104.522 94.4437 104.452 94.579 104.373L94.957 105.255C94.8217 105.311 94.6793 105.369 94.53 105.43C94.3853 105.491 94.2547 105.544 94.138 105.591C93.9327 105.67 93.697 105.754 93.431 105.843C93.165 105.932 92.8873 106.02 92.598 106.109C92.3133 106.193 92.0287 106.275 91.744 106.354C91.464 106.429 91.205 106.494 90.967 106.55L90.96 105.633ZM99.535 104.842C99.5677 104.917 99.6097 105.024 99.661 105.164C99.717 105.299 99.7753 105.446 99.836 105.605C99.8967 105.759 99.9503 105.906 99.997 106.046C100.044 106.186 100.081 106.296 100.109 106.375L99.269 106.669C99.2503 106.58 99.2177 106.468 99.171 106.333C99.1243 106.198 99.073 106.055 99.017 105.906C98.961 105.752 98.905 105.605 98.849 105.465C98.793 105.325 98.744 105.208 98.702 105.115L99.535 104.842ZM102.118 105.353C102.081 105.465 102.048 105.561 102.02 105.64C101.997 105.719 101.973 105.794 101.95 105.864C101.861 106.219 101.74 106.573 101.586 106.928C101.432 107.278 101.236 107.607 100.998 107.915C100.671 108.335 100.3 108.692 99.885 108.986C99.4743 109.275 99.0637 109.497 98.653 109.651L97.918 108.902C98.1747 108.832 98.4453 108.729 98.73 108.594C99.0147 108.454 99.29 108.286 99.556 108.09C99.822 107.894 100.051 107.677 100.242 107.439C100.401 107.238 100.541 107.01 100.662 106.753C100.788 106.492 100.891 106.214 100.97 105.92C101.054 105.621 101.11 105.327 101.138 105.038L102.118 105.353ZM97.911 105.213C97.9577 105.302 98.009 105.416 98.065 105.556C98.1257 105.696 98.1863 105.843 98.247 105.997C98.3077 106.151 98.366 106.3 98.422 106.445C98.4827 106.59 98.5293 106.711 98.562 106.809L97.708 107.131C97.68 107.038 97.638 106.916 97.582 106.767C97.5307 106.618 97.4723 106.461 97.407 106.298C97.3417 106.13 97.2787 105.976 97.218 105.836C97.162 105.696 97.113 105.589 97.071 105.514L97.911 105.213ZM108.628 103.869C108.628 103.981 108.668 104.077 108.747 104.156C108.826 104.231 108.92 104.268 109.027 104.268C109.139 104.268 109.235 104.231 109.314 104.156C109.393 104.077 109.433 103.981 109.433 103.869C109.433 103.757 109.393 103.661 109.314 103.582C109.235 103.503 109.139 103.463 109.027 103.463C108.92 103.463 108.826 103.503 108.747 103.582C108.668 103.661 108.628 103.757 108.628 103.869ZM108.194 103.869C108.194 103.715 108.231 103.575 108.306 103.449C108.385 103.318 108.488 103.216 108.614 103.141C108.74 103.066 108.878 103.029 109.027 103.029C109.181 103.029 109.321 103.066 109.447 103.141C109.578 103.216 109.68 103.318 109.755 103.449C109.83 103.575 109.867 103.715 109.867 103.869C109.867 104.018 109.83 104.156 109.755 104.282C109.68 104.408 109.578 104.511 109.447 104.59C109.321 104.665 109.181 104.702 109.027 104.702C108.878 104.702 108.74 104.665 108.614 104.59C108.488 104.511 108.385 104.408 108.306 104.282C108.231 104.156 108.194 104.018 108.194 103.869ZM109.041 104.422C109.008 104.487 108.98 104.567 108.957 104.66C108.934 104.749 108.91 104.83 108.887 104.905C108.85 105.078 108.801 105.271 108.74 105.486C108.679 105.696 108.607 105.915 108.523 106.144C108.439 106.373 108.339 106.599 108.222 106.823C108.11 107.047 107.982 107.257 107.837 107.453C107.627 107.733 107.382 107.994 107.102 108.237C106.822 108.48 106.509 108.699 106.164 108.895C105.819 109.091 105.438 109.257 105.023 109.392L104.26 108.552C104.727 108.44 105.128 108.302 105.464 108.139C105.8 107.976 106.092 107.789 106.339 107.579C106.591 107.369 106.813 107.145 107.004 106.907C107.158 106.711 107.289 106.499 107.396 106.27C107.508 106.041 107.599 105.813 107.669 105.584C107.744 105.351 107.795 105.134 107.823 104.933C107.753 104.933 107.636 104.933 107.473 104.933C107.314 104.933 107.125 104.933 106.906 104.933C106.691 104.933 106.465 104.933 106.227 104.933C105.994 104.933 105.767 104.933 105.548 104.933C105.329 104.933 105.13 104.933 104.953 104.933C104.78 104.933 104.652 104.933 104.568 104.933C104.405 104.933 104.246 104.935 104.092 104.94C103.943 104.945 103.824 104.952 103.735 104.961V103.974C103.805 103.983 103.889 103.993 103.987 104.002C104.09 104.011 104.192 104.018 104.295 104.023C104.402 104.028 104.493 104.03 104.568 104.03C104.643 104.03 104.748 104.03 104.883 104.03C105.023 104.03 105.184 104.03 105.366 104.03C105.548 104.03 105.737 104.03 105.933 104.03C106.134 104.03 106.332 104.03 106.528 104.03C106.729 104.03 106.915 104.03 107.088 104.03C107.261 104.03 107.41 104.03 107.536 104.03C107.662 104.03 107.753 104.03 107.809 104.03C107.879 104.03 107.963 104.028 108.061 104.023C108.164 104.018 108.262 104.002 108.355 103.974L109.041 104.422Z" fill="black"/>
<path d="M93.98 54.387H94.813V55.731C94.813 56.0017 94.799 56.3027 94.771 56.634C94.7477 56.9607 94.701 57.2943 94.631 57.635C94.5657 57.9757 94.47 58.307 94.344 58.629C94.218 58.951 94.0523 59.2427 93.847 59.504C93.7957 59.4573 93.7257 59.4013 93.637 59.336C93.553 59.2753 93.4643 59.217 93.371 59.161C93.2777 59.105 93.196 59.063 93.126 59.035C93.322 58.797 93.476 58.538 93.588 58.258C93.7047 57.9733 93.791 57.6817 93.847 57.383C93.903 57.0843 93.938 56.7927 93.952 56.508C93.9707 56.2233 93.98 55.9597 93.98 55.717V54.387ZM94.442 54.387H99.055V56.011H94.442V55.402H98.229V55.003H94.442V54.387ZM93.546 53.358H99.461V54.093H93.546V53.358ZM94.981 56.291H98.677V56.879H95.793V59.637H94.981V56.291ZM98.306 56.291H99.139V58.86C99.139 59.0467 99.111 59.1913 99.055 59.294C99.0037 59.3967 98.9103 59.476 98.775 59.532C98.6443 59.5833 98.481 59.6137 98.285 59.623C98.089 59.6323 97.858 59.637 97.592 59.637C97.578 59.5343 97.5477 59.42 97.501 59.294C97.4543 59.168 97.4053 59.0583 97.354 58.965C97.4613 58.9697 97.5687 58.9743 97.676 58.979C97.788 58.979 97.8883 58.979 97.977 58.979C98.0703 58.9743 98.131 58.972 98.159 58.972C98.2103 58.972 98.2477 58.965 98.271 58.951C98.2943 58.9323 98.306 58.8997 98.306 58.853V56.291ZM95.373 57.187H98.712V57.712H95.373V57.187ZM95.373 58.027H98.712V58.594H95.373V58.027ZM101.26 53.057H101.967V59.63H101.26V53.057ZM100.343 54.345H102.576V55.08H100.959V58.174H100.343V54.345ZM102.282 54.345H102.877V57.341C102.877 57.467 102.865 57.5837 102.842 57.691C102.823 57.7983 102.777 57.8823 102.702 57.943C102.627 58.0037 102.548 58.0433 102.464 58.062C102.38 58.0807 102.275 58.09 102.149 58.09C102.144 57.9873 102.123 57.8683 102.086 57.733C102.049 57.5977 102.007 57.4833 101.96 57.39C102.021 57.39 102.074 57.39 102.121 57.39C102.172 57.39 102.207 57.39 102.226 57.39C102.263 57.39 102.282 57.3667 102.282 57.32V54.345ZM103.066 53.351H106.678V54.03H103.066V53.351ZM104.074 55.003V55.528H105.663V55.003H104.074ZM103.367 54.38H106.405V56.137H103.367V54.38ZM103.409 57.628H106.384V58.265H103.409V57.628ZM103.395 58.755H106.391V59.406H103.395V58.755ZM103.066 56.501H106.65V59.609H105.873V57.152H103.808V59.616H103.066V56.501ZM104.466 56.83H105.173V59.21H104.466V56.83Z" fill="black"/>
<path d="M93.931 68.295H95.331V69.058H93.931V68.295ZM96.213 72.572H98.173V73.209H96.213V72.572ZM93.882 69.898H95.163V70.654H93.882V69.898ZM93.875 71.529H95.163V72.306H93.875V71.529ZM93.567 68.295H94.281V70.843C94.281 71.1183 94.2763 71.4217 94.267 71.753C94.2577 72.0797 94.2367 72.4133 94.204 72.754C94.1713 73.0947 94.1223 73.426 94.057 73.748C93.9963 74.0653 93.9147 74.3523 93.812 74.609C93.7653 74.5717 93.7023 74.5297 93.623 74.483C93.5437 74.4363 93.462 74.3897 93.378 74.343C93.2987 74.301 93.2287 74.2707 93.168 74.252C93.2613 74.014 93.3337 73.7503 93.385 73.461C93.441 73.1717 93.4807 72.8753 93.504 72.572C93.532 72.264 93.5483 71.963 93.553 71.669C93.5623 71.375 93.567 71.0997 93.567 70.843V68.295ZM94.785 68.295H95.527V73.748C95.527 73.9253 95.5107 74.0723 95.478 74.189C95.4453 74.3057 95.3753 74.399 95.268 74.469C95.1653 74.5343 95.044 74.574 94.904 74.588C94.764 74.6067 94.5913 74.616 94.386 74.616C94.3767 74.5133 94.351 74.385 94.309 74.231C94.2717 74.077 94.2297 73.9463 94.183 73.839C94.2857 73.8437 94.386 73.8483 94.484 73.853C94.582 73.853 94.6497 73.853 94.687 73.853C94.7243 73.853 94.75 73.8437 94.764 73.825C94.778 73.8063 94.785 73.776 94.785 73.734V68.295ZM96.367 68.918H99.314V69.674H96.367V68.918ZM98.95 68.918H99.706C99.706 68.918 99.706 68.9437 99.706 68.995C99.706 69.0417 99.706 69.0953 99.706 69.156C99.706 69.2167 99.7037 69.2633 99.699 69.296C99.685 70.1453 99.6663 70.8617 99.643 71.445C99.6243 72.0283 99.601 72.509 99.573 72.887C99.5497 73.2603 99.517 73.552 99.475 73.762C99.433 73.9673 99.377 74.1143 99.307 74.203C99.223 74.3337 99.132 74.4247 99.034 74.476C98.9407 74.5273 98.8287 74.5647 98.698 74.588C98.572 74.6067 98.4157 74.616 98.229 74.616C98.0423 74.616 97.8533 74.6113 97.662 74.602C97.6573 74.4993 97.6317 74.3757 97.585 74.231C97.543 74.0863 97.4893 73.958 97.424 73.846C97.62 73.8647 97.802 73.8763 97.97 73.881C98.138 73.8857 98.264 73.888 98.348 73.888C98.4647 73.888 98.5557 73.846 98.621 73.762C98.677 73.6967 98.7213 73.566 98.754 73.37C98.7913 73.174 98.8217 72.8963 98.845 72.537C98.8683 72.173 98.887 71.7087 98.901 71.144C98.915 70.5747 98.9313 69.891 98.95 69.093V68.918ZM96.381 68.05L97.207 68.239C97.0763 68.6963 96.9037 69.1327 96.689 69.548C96.4743 69.9587 96.2363 70.3017 95.975 70.577C95.9283 70.5257 95.8653 70.465 95.786 70.395C95.7067 70.325 95.6227 70.2573 95.534 70.192C95.45 70.122 95.3777 70.066 95.317 70.024C95.5597 69.7907 95.772 69.499 95.954 69.149C96.1407 68.799 96.283 68.4327 96.381 68.05ZM95.828 70.514H96.451V73.741H95.828V70.514ZM97.963 70.514H98.586V73.503H97.963V70.514ZM97.263 70.038L97.809 70.129C97.725 70.619 97.6083 71.081 97.459 71.515C97.3097 71.949 97.1253 72.3153 96.906 72.614C96.8593 72.5673 96.7893 72.5113 96.696 72.446C96.6027 72.376 96.521 72.3223 96.451 72.285C96.661 72.0143 96.8313 71.6807 96.962 71.284C97.0927 70.8873 97.193 70.472 97.263 70.038ZM96.451 70.99L96.752 70.535C96.9153 70.647 97.0787 70.773 97.242 70.913C97.4053 71.0483 97.5547 71.1837 97.69 71.319C97.83 71.4543 97.942 71.5803 98.026 71.697L97.69 72.215C97.6107 72.0983 97.501 71.9677 97.361 71.823C97.2257 71.6783 97.0787 71.5337 96.92 71.389C96.7613 71.2397 96.605 71.1067 96.451 70.99ZM101.687 70.066H105.341V70.731H101.687V70.066ZM101.631 71.354H105.369V72.04H101.631V71.354ZM103.906 69.359H104.641V73.314H103.906V69.359ZM102.429 69.359H103.136V71.137C103.136 71.4497 103.113 71.7483 103.066 72.033C103.024 72.3177 102.933 72.5813 102.793 72.824C102.653 73.0667 102.438 73.2813 102.149 73.468C102.112 73.412 102.063 73.3513 102.002 73.286C101.941 73.216 101.878 73.1483 101.813 73.083C101.748 73.013 101.687 72.9593 101.631 72.922C101.864 72.7727 102.037 72.6047 102.149 72.418C102.261 72.2313 102.336 72.0283 102.373 71.809C102.41 71.5897 102.429 71.3633 102.429 71.13V69.359ZM100.511 68.358H106.51V74.644H105.628V69.135H101.351V74.644H100.511V68.358ZM101.001 73.559H105.964V74.336H101.001V73.559Z" fill="black"/>
<path d="M136.31 146.81H138.79V147.92H136.31V146.81ZM135.41 150.74H139.39V151.83H135.41V150.74ZM135.85 146.81H137V147.97C137 148.277 136.967 148.597 136.9 148.93C136.84 149.257 136.723 149.573 136.55 149.88C136.377 150.18 136.12 150.447 135.78 150.68C135.72 150.607 135.633 150.52 135.52 150.42C135.407 150.32 135.29 150.22 135.17 150.12C135.057 150.02 134.957 149.947 134.87 149.9C135.17 149.713 135.387 149.51 135.52 149.29C135.66 149.063 135.75 148.837 135.79 148.61C135.83 148.377 135.85 148.153 135.85 147.94V146.81ZM138.16 146.81H139.29V149.04C139.29 149.173 139.297 149.26 139.31 149.3C139.323 149.333 139.357 149.35 139.41 149.35C139.423 149.35 139.443 149.35 139.47 149.35C139.503 149.35 139.533 149.35 139.56 149.35C139.593 149.35 139.617 149.35 139.63 149.35C139.677 149.35 139.71 149.327 139.73 149.28C139.75 149.227 139.767 149.123 139.78 148.97C139.8 148.817 139.813 148.583 139.82 148.27C139.927 148.363 140.077 148.45 140.27 148.53C140.47 148.61 140.643 148.667 140.79 148.7C140.757 149.133 140.7 149.47 140.62 149.71C140.547 149.95 140.44 150.117 140.3 150.21C140.167 150.303 139.99 150.35 139.77 150.35C139.717 150.35 139.653 150.35 139.58 150.35C139.507 150.35 139.437 150.35 139.37 150.35C139.303 150.35 139.243 150.35 139.19 150.35C138.93 150.35 138.723 150.313 138.57 150.24C138.423 150.16 138.317 150.027 138.25 149.84C138.19 149.653 138.16 149.393 138.16 149.06V146.81ZM136.78 151.79C137.133 152.51 137.66 153.143 138.36 153.69C139.06 154.23 139.877 154.627 140.81 154.88C140.723 154.96 140.627 155.06 140.52 155.18C140.413 155.307 140.313 155.437 140.22 155.57C140.133 155.703 140.06 155.823 140 155.93C139.013 155.603 138.157 155.117 137.43 154.47C136.71 153.823 136.127 153.053 135.68 152.16L136.78 151.79ZM139 150.74H139.23L139.43 150.69L140.21 151C140.037 151.653 139.803 152.24 139.51 152.76C139.217 153.28 138.87 153.74 138.47 154.14C138.077 154.54 137.637 154.883 137.15 155.17C136.67 155.463 136.15 155.707 135.59 155.9C135.55 155.8 135.49 155.683 135.41 155.55C135.337 155.423 135.257 155.297 135.17 155.17C135.083 155.05 135 154.95 134.92 154.87C135.413 154.73 135.88 154.54 136.32 154.3C136.76 154.053 137.157 153.763 137.51 153.43C137.863 153.097 138.167 152.72 138.42 152.3C138.68 151.88 138.873 151.423 139 150.93V150.74ZM132.38 146.85H134.58V147.96H132.38V146.85ZM132.38 149.1H134.62V150.21H132.38V149.1ZM132.37 151.37H134.58V152.51H132.37V151.37ZM131.91 146.85H132.99V150.5C132.99 150.9 132.98 151.337 132.96 151.81C132.94 152.283 132.903 152.763 132.85 153.25C132.797 153.737 132.717 154.21 132.61 154.67C132.51 155.13 132.373 155.543 132.2 155.91C132.133 155.85 132.04 155.783 131.92 155.71C131.807 155.637 131.687 155.567 131.56 155.5C131.433 155.44 131.323 155.393 131.23 155.36C131.39 155.02 131.513 154.647 131.6 154.24C131.693 153.827 131.76 153.403 131.8 152.97C131.847 152.537 131.877 152.11 131.89 151.69C131.903 151.263 131.91 150.867 131.91 150.5V146.85ZM133.91 146.85H135.02V154.59C135.02 154.863 134.993 155.087 134.94 155.26C134.887 155.433 134.78 155.57 134.62 155.67C134.46 155.77 134.267 155.833 134.04 155.86C133.82 155.887 133.547 155.9 133.22 155.9C133.213 155.793 133.193 155.667 133.16 155.52C133.127 155.38 133.087 155.24 133.04 155.1C132.993 154.96 132.947 154.84 132.9 154.74C133.08 154.747 133.25 154.75 133.41 154.75C133.577 154.75 133.69 154.75 133.75 154.75C133.81 154.75 133.85 154.737 133.87 154.71C133.897 154.683 133.91 154.637 133.91 154.57V146.85ZM141.52 147.24H150.49V148.45H141.52V147.24ZM145.15 148.32H146.44V155.87H145.15V148.32ZM145.83 150.75L146.65 149.79C146.923 149.923 147.217 150.077 147.53 150.25C147.85 150.417 148.167 150.593 148.48 150.78C148.793 150.967 149.09 151.15 149.37 151.33C149.65 151.503 149.883 151.67 150.07 151.83L149.18 152.93C149.007 152.77 148.787 152.597 148.52 152.41C148.26 152.217 147.973 152.023 147.66 151.83C147.353 151.637 147.043 151.447 146.73 151.26C146.417 151.067 146.117 150.897 145.83 150.75Z" fill="black"/>
<path d="M58.44 40.22H63.56V41.14H58.44V40.22ZM58.44 41.79H63.56V42.71H58.44V41.79ZM58.44 43.39H63.57V44.43H58.44V43.39ZM56.48 36.85H65.55V37.96H56.48V36.85ZM57.47 38.57H64.49V44.9H63.24V39.61H58.67V44.9H57.47V38.57ZM60.38 37.51L61.91 37.54C61.7967 37.86 61.6667 38.1667 61.52 38.46C61.3733 38.7467 61.2433 38.9967 61.13 39.21L59.96 39.08C60.02 38.92 60.0767 38.75 60.13 38.57C60.1833 38.39 60.23 38.2067 60.27 38.02C60.3167 37.8333 60.3533 37.6633 60.38 37.51ZM62.72 35.48L64.1 35.78C63.9067 36.0667 63.7067 36.3433 63.5 36.61C63.2933 36.87 63.1033 37.0933 62.93 37.28L61.87 36.97C61.97 36.83 62.0733 36.6733 62.18 36.5C62.2867 36.3267 62.3867 36.1533 62.48 35.98C62.58 35.8 62.66 35.6333 62.72 35.48ZM58.05 35.91L59.12 35.43C59.3067 35.6033 59.49 35.8033 59.67 36.03C59.8567 36.25 60 36.4467 60.1 36.62L58.99 37.19C58.9033 37.0167 58.77 36.81 58.59 36.57C58.41 36.3233 58.23 36.1033 58.05 35.91ZM70.05 39.29V41.03H71.81V39.29H70.05ZM68.92 38.24H73.02V42.07H68.92V38.24ZM66.71 35.84H75.3V44.89H73.99V37.07H67.96V44.89H66.71V35.84ZM67.42 43.23H74.73V44.35H67.42V43.23ZM79.61 35.97C79.5767 36.09 79.54 36.24 79.5 36.42C79.46 36.6 79.42 36.79 79.38 36.99C79.34 37.1833 79.3033 37.3733 79.27 37.56C79.2433 37.7467 79.2233 37.91 79.21 38.05C79.33 37.85 79.4733 37.6567 79.64 37.47C79.8067 37.2767 79.9933 37.1033 80.2 36.95C80.4133 36.79 80.6433 36.6633 80.89 36.57C81.1433 36.4767 81.41 36.43 81.69 36.43C82.1567 36.43 82.5767 36.5733 82.95 36.86C83.3233 37.1467 83.6167 37.5567 83.83 38.09C84.05 38.6233 84.16 39.2567 84.16 39.99C84.16 40.6967 84.0567 41.3167 83.85 41.85C83.6433 42.3767 83.3467 42.8267 82.96 43.2C82.5733 43.5733 82.11 43.8767 81.57 44.11C81.0367 44.35 80.44 44.53 79.78 44.65L79.02 43.49C79.5733 43.4033 80.08 43.2867 80.54 43.14C81.0067 42.9867 81.4067 42.78 81.74 42.52C82.08 42.26 82.34 41.9267 82.52 41.52C82.7067 41.1067 82.8 40.6 82.8 40C82.8 39.4867 82.7467 39.0533 82.64 38.7C82.5333 38.34 82.3767 38.0667 82.17 37.88C81.97 37.6933 81.73 37.6 81.45 37.6C81.1567 37.6 80.8767 37.6967 80.61 37.89C80.3433 38.0833 80.1033 38.3367 79.89 38.65C79.6833 38.9567 79.5167 39.29 79.39 39.65C79.27 40.01 79.2033 40.3567 79.19 40.69C79.1833 40.83 79.18 40.9833 79.18 41.15C79.1867 41.3167 79.2067 41.5167 79.24 41.75L78.01 41.83C77.9833 41.6367 77.9533 41.3967 77.92 41.11C77.8933 40.8167 77.88 40.5 77.88 40.16C77.88 39.9267 77.8867 39.6767 77.9 39.41C77.92 39.1433 77.94 38.8733 77.96 38.6C77.9867 38.32 78.0167 38.04 78.05 37.76C78.09 37.48 78.1267 37.2133 78.16 36.96C78.1867 36.7667 78.2067 36.5767 78.22 36.39C78.2333 36.2033 78.24 36.0433 78.24 35.91L79.61 35.97Z" fill="black"/>
<path d="M146.72 57.35H147.85V61.63C147.85 61.8833 147.817 62.0933 147.75 62.26C147.69 62.4333 147.57 62.5667 147.39 62.66C147.217 62.76 147.013 62.82 146.78 62.84C146.547 62.8667 146.273 62.88 145.96 62.88C145.94 62.7133 145.887 62.5167 145.8 62.29C145.72 62.07 145.637 61.8867 145.55 61.74C145.757 61.7467 145.957 61.7533 146.15 61.76C146.343 61.76 146.473 61.7567 146.54 61.75C146.66 61.75 146.72 61.7 146.72 61.6V57.35ZM144.31 55.73L145.33 56.05C145.163 56.45 144.963 56.85 144.73 57.25C144.503 57.65 144.253 58.0267 143.98 58.38C143.713 58.7333 143.437 59.04 143.15 59.3C143.117 59.22 143.067 59.1133 143 58.98C142.933 58.8467 142.857 58.7133 142.77 58.58C142.69 58.44 142.62 58.3267 142.56 58.24C142.913 57.9333 143.247 57.56 143.56 57.12C143.873 56.6733 144.123 56.21 144.31 55.73ZM144.12 53.57L145.18 53.9C145.02 54.22 144.833 54.54 144.62 54.86C144.413 55.18 144.19 55.48 143.95 55.76C143.717 56.04 143.483 56.2833 143.25 56.49C143.19 56.4167 143.113 56.33 143.02 56.23C142.927 56.1233 142.83 56.02 142.73 55.92C142.63 55.8133 142.54 55.7267 142.46 55.66C142.78 55.4 143.09 55.0833 143.39 54.71C143.69 54.3367 143.933 53.9567 144.12 53.57ZM145.4 54.17H148.54V55.24H145.4V54.17ZM145.23 56.66H148.72V57.77H145.23V56.66ZM140.48 58.79L141.49 57.59V62.91H140.48V58.79ZM139.46 55.34H141.91V56.37H139.46V55.34ZM140.48 53.55H141.49V55.73H140.48V53.55ZM141.45 57.59C141.51 57.6567 141.597 57.77 141.71 57.93C141.83 58.09 141.957 58.2667 142.09 58.46C142.23 58.6533 142.353 58.83 142.46 58.99C142.573 59.15 142.653 59.2633 142.7 59.33L142.09 60.14C142.03 60 141.95 59.8367 141.85 59.65C141.75 59.4567 141.64 59.26 141.52 59.06C141.407 58.86 141.297 58.6733 141.19 58.5C141.083 58.32 140.993 58.1767 140.92 58.07L141.45 57.59ZM141.58 55.34H141.79L141.98 55.29L142.57 55.69C142.37 56.31 142.113 56.92 141.8 57.52C141.493 58.12 141.157 58.68 140.79 59.2C140.43 59.72 140.067 60.1567 139.7 60.51C139.673 60.4167 139.627 60.3 139.56 60.16C139.5 60.0133 139.433 59.8767 139.36 59.75C139.287 59.6167 139.223 59.5167 139.17 59.45C139.497 59.1633 139.817 58.8067 140.13 58.38C140.45 57.9467 140.737 57.4867 140.99 57C141.243 56.5067 141.44 56.0233 141.58 55.55V55.34ZM142.34 57.21L143.02 57.73C142.853 57.9367 142.693 58.15 142.54 58.37C142.387 58.5833 142.247 58.7667 142.12 58.92L141.62 58.51C141.74 58.3367 141.87 58.1233 142.01 57.87C142.15 57.6167 142.26 57.3967 142.34 57.21ZM143.68 58.02L144.73 56.77V62.89H143.68V58.02ZM149.57 55.31H158.45V56.48H149.57V55.31ZM151.82 56.8C152.093 57.7933 152.5 58.6333 153.04 59.32C153.587 60 154.307 60.5367 155.2 60.93C156.1 61.3233 157.22 61.59 158.56 61.73C158.473 61.8167 158.383 61.93 158.29 62.07C158.197 62.21 158.11 62.35 158.03 62.49C157.95 62.63 157.883 62.76 157.83 62.88C156.77 62.74 155.85 62.5233 155.07 62.23C154.29 61.9367 153.62 61.5533 153.06 61.08C152.507 60.6067 152.037 60.04 151.65 59.38C151.27 58.7133 150.947 57.9433 150.68 57.07L151.82 56.8ZM154.41 53.67H155.74C155.733 54.4633 155.717 55.2133 155.69 55.92C155.67 56.62 155.61 57.2767 155.51 57.89C155.41 58.4967 155.247 59.0533 155.02 59.56C154.8 60.0667 154.49 60.5267 154.09 60.94C153.69 61.3467 153.173 61.7033 152.54 62.01C151.913 62.3233 151.137 62.5833 150.21 62.79C150.177 62.6833 150.12 62.5633 150.04 62.43C149.967 62.3033 149.883 62.1767 149.79 62.05C149.697 61.9233 149.607 61.8167 149.52 61.73C150.373 61.5567 151.087 61.34 151.66 61.08C152.24 60.82 152.707 60.52 153.06 60.18C153.42 59.8333 153.69 59.44 153.87 59C154.057 58.56 154.187 58.0733 154.26 57.54C154.333 57 154.377 56.41 154.39 55.77C154.403 55.1233 154.41 54.4233 154.41 53.67Z" fill="black"/>
<path d="M134 112L138 104" stroke="#FF0000" stroke-linecap="round"/>
<path d="M127 61L72 61" stroke="#FF0000" stroke-linecap="round"/>
<path d="M115 77L84.5 77" stroke="#FF0000" stroke-linecap="round"/>
<path d="M115.5 95L85 95" stroke="#FF0000" stroke-linecap="round"/>
<path d="M114.5 112L84 112" stroke="#FF0000" stroke-linecap="round"/>
<path d="M121 176.025L125.022 182.941L129 176" stroke="#FF0000" stroke-linecap="round"/>
<path d="M14.75 98.07H19.2V98.93H14.75V98.07ZM14.75 99.53H19.2V100.4H14.75V99.53ZM18.66 96.46H19.91V103.43C19.91 103.777 19.87 104.043 19.79 104.23C19.71 104.423 19.5567 104.573 19.33 104.68C19.11 104.78 18.8333 104.843 18.5 104.87C18.1667 104.897 17.76 104.907 17.28 104.9C17.26 104.78 17.2267 104.643 17.18 104.49C17.14 104.337 17.09 104.183 17.03 104.03C16.9767 103.883 16.92 103.753 16.86 103.64C17.0667 103.653 17.2733 103.663 17.48 103.67C17.6933 103.67 17.88 103.67 18.04 103.67C18.2067 103.663 18.3267 103.66 18.4 103.66C18.4933 103.66 18.56 103.643 18.6 103.61C18.64 103.577 18.66 103.513 18.66 103.42V96.46ZM12.5 101.19C13.0467 101.163 13.6867 101.133 14.42 101.1C15.16 101.067 15.9433 101.027 16.77 100.98C17.6033 100.933 18.4267 100.887 19.24 100.84L19.23 101.86C18.4567 101.927 17.6767 101.993 16.89 102.06C16.1033 102.12 15.3467 102.177 14.62 102.23C13.9 102.283 13.25 102.33 12.67 102.37L12.5 101.19ZM20.41 98.51L21.58 99.07C20.96 100.03 20.2133 100.88 19.34 101.62C18.4733 102.353 17.5167 102.987 16.47 103.52C15.4233 104.047 14.3233 104.48 13.17 104.82C13.1167 104.72 13.04 104.6 12.94 104.46C12.84 104.327 12.7367 104.193 12.63 104.06C12.53 103.927 12.4367 103.813 12.35 103.72C13.5167 103.427 14.61 103.043 15.63 102.57C16.65 102.09 17.5667 101.513 18.38 100.84C19.1933 100.16 19.87 99.3833 20.41 98.51ZM16.38 95.47L17.86 95.63C17.7067 95.9367 17.54 96.2367 17.36 96.53C17.1867 96.8233 17.0267 97.07 16.88 97.27L15.81 97.05C15.9233 96.8167 16.0333 96.5567 16.14 96.27C16.2467 95.9767 16.3267 95.71 16.38 95.47ZM13.98 96.46H19.06V97.49H15.19V101.73H13.98V96.46ZM22.47 100.23H31.54V101.29H22.47V100.23ZM24.8 97.35H30.21V98.28H24.8V97.35ZM24.8 98.79H30.21V99.72H24.8V98.79ZM22.91 103.74C23.3033 103.693 23.7533 103.637 24.26 103.57C24.7733 103.497 25.31 103.42 25.87 103.34C26.4367 103.26 26.9933 103.18 27.54 103.1L27.6 104.15C27.0867 104.23 26.5667 104.313 26.04 104.4C25.5133 104.487 25.0067 104.563 24.52 104.63C24.0333 104.703 23.5867 104.773 23.18 104.84L22.91 103.74ZM27.42 100.53C27.7467 101.403 28.2633 102.12 28.97 102.68C29.6767 103.24 30.5967 103.623 31.73 103.83C31.6433 103.917 31.55 104.023 31.45 104.15C31.3567 104.277 31.2667 104.407 31.18 104.54C31.0933 104.673 31.0233 104.797 30.97 104.91C30.15 104.717 29.4433 104.437 28.85 104.07C28.2567 103.71 27.7533 103.257 27.34 102.71C26.9333 102.163 26.5933 101.523 26.32 100.79L27.42 100.53ZM30.26 101.16L31.23 101.83C30.9833 102.01 30.7233 102.187 30.45 102.36C30.1833 102.527 29.9133 102.683 29.64 102.83C29.3667 102.977 29.1133 103.107 28.88 103.22L28.08 102.6C28.3133 102.48 28.5633 102.34 28.83 102.18C29.0967 102.013 29.3533 101.84 29.6 101.66C29.8533 101.48 30.0733 101.313 30.26 101.16ZM24.14 95.85H30.48V96.83H25.37V100.67H24.14V95.85ZM24.14 100.55H25.37V103.87L24.14 104V100.55Z" fill="black"/>
<path d="M44.34 84.58H49.45V91.83H48.29V85.66H45.44V91.89H44.34V84.58ZM44.93 90.25H48.92V91.36H44.93V90.25ZM44.93 87.39H48.92V88.48H44.93V87.39ZM46.28 82.51H47.42V90.98H46.28V82.51ZM41.63 87.79L42.78 86.43V91.9H41.63V87.79ZM40.45 84.29H43.26V85.36H40.45V84.29ZM41.62 82.56H42.77V84.92H41.62V82.56ZM42.69 86.83C42.7633 86.8967 42.87 87.0067 43.01 87.16C43.15 87.3067 43.2967 87.47 43.45 87.65C43.61 87.83 43.7567 87.9967 43.89 88.15C44.0233 88.2967 44.1167 88.4067 44.17 88.48L43.48 89.29C43.4 89.1567 43.2967 89.0033 43.17 88.83C43.05 88.65 42.9233 88.4667 42.79 88.28C42.6567 88.0867 42.5233 87.91 42.39 87.75C42.2633 87.5833 42.1567 87.4433 42.07 87.33L42.69 86.83ZM42.92 84.29H43.15L43.35 84.25L43.98 84.66C43.7667 85.3133 43.4867 85.95 43.14 86.57C42.7933 87.1833 42.4133 87.7467 42 88.26C41.5867 88.7733 41.1667 89.2033 40.74 89.55C40.7067 89.4433 40.6567 89.3167 40.59 89.17C40.5233 89.0233 40.45 88.8833 40.37 88.75C40.2967 88.6167 40.23 88.5133 40.17 88.44C40.55 88.16 40.92 87.81 41.28 87.39C41.64 86.9633 41.9633 86.5033 42.25 86.01C42.5433 85.51 42.7667 85.0133 42.92 84.52V84.29ZM43.77 86.31L44.48 86.84C44.2933 87.0667 44.1033 87.3 43.91 87.54C43.7233 87.78 43.55 87.9833 43.39 88.15L42.83 87.71C42.9767 87.5233 43.14 87.3 43.32 87.04C43.5067 86.7733 43.6567 86.53 43.77 86.31ZM50.57 84.31H59.45V85.48H50.57V84.31ZM52.82 85.8C53.0933 86.7933 53.5 87.6333 54.04 88.32C54.5867 89 55.3067 89.5367 56.2 89.93C57.1 90.3233 58.22 90.59 59.56 90.73C59.4733 90.8167 59.3833 90.93 59.29 91.07C59.1967 91.21 59.11 91.35 59.03 91.49C58.95 91.63 58.8833 91.76 58.83 91.88C57.77 91.74 56.85 91.5233 56.07 91.23C55.29 90.9367 54.62 90.5533 54.06 90.08C53.5067 89.6067 53.0367 89.04 52.65 88.38C52.27 87.7133 51.9467 86.9433 51.68 86.07L52.82 85.8ZM55.41 82.67H56.74C56.7333 83.4633 56.7167 84.2133 56.69 84.92C56.67 85.62 56.61 86.2767 56.51 86.89C56.41 87.4967 56.2467 88.0533 56.02 88.56C55.8 89.0667 55.49 89.5267 55.09 89.94C54.69 90.3467 54.1733 90.7033 53.54 91.01C52.9133 91.3233 52.1367 91.5833 51.21 91.79C51.1767 91.6833 51.12 91.5633 51.04 91.43C50.9667 91.3033 50.8833 91.1767 50.79 91.05C50.6967 90.9233 50.6067 90.8167 50.52 90.73C51.3733 90.5567 52.0867 90.34 52.66 90.08C53.24 89.82 53.7067 89.52 54.06 89.18C54.42 88.8333 54.69 88.44 54.87 88C55.0567 87.56 55.1867 87.0733 55.26 86.54C55.3333 86 55.3767 85.41 55.39 84.77C55.4033 84.1233 55.41 83.4233 55.41 82.67Z" fill="black"/>
<path d="M132 112H144" stroke="#FF0000" stroke-width="0.5" stroke-dasharray="1 1"/>
<path d="M100 118H127" stroke="#FF0000" stroke-width="0.5" stroke-dasharray="1 1"/>
<path d="M32 16L100 16" stroke="#FF0000" stroke-width="0.5" stroke-dasharray="1 1"/>
<path d="M32 184L128 184" stroke="#FF0000" stroke-width="0.5" stroke-dasharray="1 1"/>
<path d="M100 40V55" stroke="#6F6F6F" stroke-width="0.5" stroke-linecap="round" stroke-dasharray="2 2"/>
<path d="M100 15.5C106.854 15.5 112.5 21.7153 112.5 29.5C112.5 37.2847 106.854 43.5 100 43.5C93.1464 43.5 87.5 37.2847 87.5 29.5C87.5 21.7153 93.1464 15.5 100 15.5Z" stroke="black"/>
<path d="M98.5 119.659V177.659C98.5 179.659 96 184.159 91 184.159C87 184.159 83.5 182.159 83.5 177.659V70.1589C83.5 68.6589 81.5 68.6589 81 68.6589C80.5 68.6589 79 68.9176 79 70.1589C79 82.8256 78.5 107.459 78.5 110.659C78.5 114.159 76 116.159 73 116.159C69.5 116.159 68 113.659 68 110.659L68.5 66.6589C68.5 61.6589 71 57.2788 74.5 55.0913C78.5 52.5913 88.5 51 100 51C111.5 51 121 52.5001 125 55C128.5 57.1875 131 61.7502 131 66.7501C131.195 83.9332 131.305 93.5671 131.5 110.75C131.5 113.75 130 116.25 126.5 116.25C123.5 116.25 121 114.25 121 110.75C121 107.55 120.5 82.9168 120.5 70.2502C120.5 69.0089 119 68.7502 118.5 68.7502C118 68.7502 116 68.7502 116 70.2502V177.75C116 182.25 112.5 184.25 108.5 184.25C103.5 184.25 101.5 179.75 101.5 177.75V119.659C101.5 118.5 100.752 118.091 100 118.091C99.5 118.091 98.5 118.391 98.5 119.591" stroke="black"/>
<path d="M93 51C94.5 47.8235 95 45.7059 95 42" stroke="black"/>
<path d="M107 51C105.5 47.8235 105 45.7059 105 42" stroke="black"/>
<path d="M134 112V64C133.5 58 129.5 54.5 126.5 52.5C123.5 50.5 112 48.5 100.5 48.5L108 46.5" stroke="#FF0000" stroke-linecap="round"/>
<path d="M88 42C96 48.725 108 45.7361 112 42M112 42L110.4 45.2691M112 42H107.2" stroke="#FF0000" stroke-linecap="round"/>
<path d="M63 112V58.7888" stroke="#FF0000" stroke-linecap="round"/>
<path d="M37 183V17" stroke="#FF0000" stroke-linecap="round"/>
<path d="M125 183V120" stroke="#FF0000" stroke-linecap="round"/>
<path d="M88 74L84 77L88 80" stroke="#FF0000" stroke-linecap="round"/>
<path d="M112 80L116 77L112 74" stroke="#FF0000" stroke-linecap="round"/>
<path d="M112 98L116 95L112 92" stroke="#FF0000" stroke-linecap="round"/>
<path d="M112 115L116 112L112 109" stroke="#FF0000" stroke-linecap="round"/>
<path d="M128 123L125 119L122 123" stroke="#FF0000" stroke-linecap="round"/>
<path d="M124 64L128 61L124 58" stroke="#FF0000" stroke-linecap="round"/>
<path d="M60 109L63 113L66 109" stroke="#FF0000" stroke-linecap="round"/>
<path d="M75 58L71 61L75 64" stroke="#FF0000" stroke-linecap="round"/>
<path d="M40 20L37 16L34 20" stroke="#FF0000" stroke-linecap="round"/>
<path d="M66 62L63 58L60 62" stroke="#FF0000" stroke-linecap="round"/>
<path d="M34 180L37 184L40 180" stroke="#FF0000" stroke-linecap="round"/>
<path d="M88 92L84 95L88 98" stroke="#FF0000" stroke-linecap="round"/>
<path d="M88 109L84 112L88 115" stroke="#FF0000" stroke-linecap="round"/>
</g>
<defs>
<clipPath id="clip0_242_117">
<rect width="200" height="200" fill="white"/>
</clipPath>
</defs>
</svg>
