<svg width="80" height="80" viewBox="0 0 80 80" fill="none" xmlns="http://www.w3.org/2000/svg">
<path d="M36.4811 3.83337C46.9139 3.83337 55.3178 11.7704 55.318 21.4965C55.318 31.2227 46.914 39.1605 36.4811 39.1605C26.0483 39.1603 17.6451 31.2226 17.6451 21.4965C17.6453 11.7705 26.0484 3.83356 36.4811 3.83337Z" fill="white" stroke="black"/>
<path d="M59.2371 43.2882C60.9131 43.2882 62.3023 44.6045 62.3025 46.2648V50.1613C63.1074 50.3786 63.8755 50.6781 64.5955 51.0519L67.6169 48.215C68.8283 47.0771 70.759 47.1022 71.9382 48.2726C73.1272 49.4528 73.1 51.347 71.8787 52.4943L68.9939 55.2032C69.3683 55.8471 69.6709 56.5329 69.8962 57.2511H74.1013C75.7774 57.2511 77.1667 58.5673 77.1667 60.2277C77.1667 61.888 75.7774 63.2042 74.1013 63.2042H69.8962C69.671 63.9219 69.369 64.6076 68.9949 65.2511L71.8787 67.9601C73.1 69.1073 73.1272 71.0015 71.9382 72.1818C70.759 73.3523 68.8284 73.3782 67.6169 72.2404L64.5955 69.4025C63.8755 69.7763 63.1074 70.0757 62.3025 70.2931V74.1896C62.3025 75.85 60.9132 77.1671 59.2371 77.1671C57.5611 77.1669 56.1726 75.8499 56.1726 74.1896V70.2931C55.3671 70.0757 54.5982 69.7766 53.8777 69.4025L50.8582 72.2404C49.6467 73.3783 47.7151 73.3523 46.5359 72.1818C45.3473 71.0015 45.3752 69.1072 46.5964 67.9601L49.4792 65.2511C49.105 64.6075 48.8022 63.922 48.5769 63.2042H44.3738C42.6977 63.2042 41.3084 61.888 41.3083 60.2277C41.3083 58.5673 42.6976 57.2511 44.3738 57.2511H48.5769C48.8023 56.5327 49.1047 55.8463 49.4792 55.2023L46.5964 52.4943C45.3751 51.347 45.347 49.4528 46.5359 48.2726C47.7151 47.102 49.6467 47.077 50.8582 48.215L53.8777 51.0519C54.5982 50.6777 55.367 50.3777 56.1726 50.1603V46.2648C56.1728 44.6046 57.5612 43.2884 59.2371 43.2882ZM59.2371 54.7433C57.6034 54.7433 56.1371 55.3621 55.0789 56.3556L54.8708 56.5626C53.9335 57.5381 53.3669 58.8268 53.3669 60.2277L53.3748 60.507C53.4444 61.7944 53.9921 62.9731 54.8611 63.882L55.075 64.0939C56.1335 65.09 57.601 65.7111 59.2371 65.7111C60.911 65.711 62.4069 65.0593 63.4705 64.0226L63.6013 63.8927C64.4766 62.9823 65.0294 61.7998 65.0994 60.507L65.1072 60.2277L65.0994 59.9474C64.9437 57.0747 62.4067 54.7433 59.2371 54.7433Z" fill="white" stroke="black"/>
<path d="M36.4812 44.8499C39.3719 44.8499 42.5043 45.193 45.6511 45.8036C41.6909 49.5551 39.2448 54.7189 39.2448 60.4195C39.2451 66.6206 42.1423 72.1824 46.7318 75.9859H7.47725C6.09609 75.9859 3.33337 74.9488 3.33337 70.7971V60.4195C3.33337 52.6352 22.6695 44.8499 36.4812 44.8499Z" fill="white" stroke="black"/>
</svg>
