<svg width="24" height="24" viewBox="0 0 24 24" fill="none" xmlns="http://www.w3.org/2000/svg">
<path d="M10.9443 1.09961C14.0988 1.09961 16.6455 3.50083 16.6455 6.44922C16.6454 9.39752 14.0988 11.7979 10.9443 11.7979C7.78995 11.7978 5.24327 9.39748 5.24316 6.44922C5.24316 3.50087 7.78988 1.09967 10.9443 1.09961Z" fill="white" stroke="black" stroke-width="0.2"/>
<path d="M17.771 13.0369C18.2479 13.0369 18.6411 13.4108 18.6411 13.8796V15.0867C18.9038 15.1545 19.153 15.2531 19.3853 15.3767L20.3188 14.5007C20.6627 14.1778 21.2118 14.1852 21.5464 14.5173C21.8828 14.8513 21.8753 15.3868 21.5298 15.7117L20.6343 16.5515C20.7604 16.7619 20.8608 16.9877 20.9321 17.2253H22.23C22.7068 17.2253 23.1 17.5993 23.1001 18.0681C23.1001 18.537 22.7069 18.9109 22.23 18.9109H20.9321C20.8609 19.1482 20.7602 19.3735 20.6343 19.5837L21.5298 20.4246C21.8753 20.7494 21.8827 21.2849 21.5464 21.6189C21.2118 21.9511 20.6627 21.9585 20.3188 21.6355L19.3853 20.7585C19.1529 20.8822 18.9039 20.9807 18.6411 21.0486V22.2566C18.6411 22.7255 18.2479 23.1003 17.771 23.1003C17.2942 23.1002 16.9019 22.7254 16.9019 22.2566V21.0496C16.6383 20.9816 16.3886 20.8826 16.1558 20.7585L15.2231 21.6355C14.8793 21.9585 14.3302 21.9511 13.9956 21.6189C13.6594 21.2848 13.6675 20.7493 14.0132 20.4246L14.9077 19.5837C14.7818 19.3735 14.6811 19.1482 14.6099 18.9109H13.312C12.8351 18.9109 12.4429 18.537 12.4429 18.0681C12.443 17.5993 12.8352 17.2253 13.312 17.2253H14.6099C14.6812 16.9878 14.7816 16.7619 14.9077 16.5515L14.0132 15.7117C13.6675 15.3869 13.6593 14.8514 13.9956 14.5173C14.3302 14.1852 14.8793 14.1778 15.2231 14.5007L16.1558 15.3767C16.3886 15.2527 16.6384 15.1536 16.9019 15.0857V13.8796C16.9019 13.4108 17.2942 13.037 17.771 13.0369ZM17.771 16.3728C16.7649 16.3728 15.9605 17.1378 15.9604 18.0681L15.9692 18.241C16.0615 19.0914 16.8278 19.7634 17.771 19.7634C18.7142 19.7634 19.4805 19.0914 19.5728 18.241L19.5825 18.0681L19.5728 17.8962C19.4808 17.0454 18.7145 16.3728 17.771 16.3728Z" fill="white" stroke="black" stroke-width="0.2"/>
<path d="M10.9443 13.455C11.8115 13.455 12.7513 13.5579 13.6953 13.7411C12.5073 14.8665 11.7734 16.4157 11.7734 18.1259C11.7735 19.9862 12.6427 21.6547 14.0195 22.7958H2.24316C1.82881 22.7958 1 22.4846 1 21.2391V18.1259C1 15.7906 6.80084 13.455 10.9443 13.455Z" fill="white" stroke="black" stroke-width="0.2"/>
</svg>
