<svg width="80" height="80" viewBox="0 0 80 80" fill="none" xmlns="http://www.w3.org/2000/svg">
<circle cx="39.9999" cy="13.3333" r="6.16667" fill="white" stroke="black"/>
<rect x="33.8333" y="23.8334" width="12.3333" height="25.6667" rx="6.16667" fill="white" stroke="black"/>
<rect x="10.5" y="70.5" width="59" height="2.33333" fill="white" stroke="black"/>
<rect x="50.5" y="23.8334" width="2.33333" height="22.3333" rx="1.16667" fill="white" stroke="black"/>
<rect x="27.1667" y="23.8334" width="2.33333" height="22.3333" rx="1.16667" fill="white" stroke="black"/>
<rect x="33.8333" y="50.5" width="2.33333" height="19" rx="1.16667" fill="white" stroke="black"/>
<rect x="43.8333" y="50.5" width="2.33333" height="19" rx="1.16667" fill="white" stroke="black"/>
<rect x="59.5" y="6.16663" width="7.66667" height="64.3333" stroke="black"/>
<rect x="60" y="6.66663" width="6.66667" height="63.3333" fill="white"/>
<path d="M63.3333 10.5C63.6094 10.5 63.8333 10.2761 63.8333 10C63.8333 9.72386 63.6094 9.5 63.3333 9.5V10.5ZM63.3333 10V9.5H59.9999V10V10.5H63.3333V10Z" fill="black"/>
<path d="M63.3333 13.8334C63.6094 13.8334 63.8333 13.6095 63.8333 13.3334C63.8333 13.0572 63.6094 12.8334 63.3333 12.8334V13.8334ZM63.3333 13.3334V12.8334H59.9999V13.3334V13.8334H63.3333V13.3334Z" fill="black"/>
<path d="M63.3333 17.1666C63.6094 17.1666 63.8333 16.9428 63.8333 16.6666C63.8333 16.3905 63.6094 16.1666 63.3333 16.1666V17.1666ZM63.3333 16.6666V16.1666H59.9999V16.6666V17.1666H63.3333V16.6666Z" fill="black"/>
<path d="M63.3333 20.5C63.6094 20.5 63.8333 20.2761 63.8333 20C63.8333 19.7239 63.6094 19.5 63.3333 19.5V20.5ZM63.3333 20V19.5H59.9999V20V20.5H63.3333V20Z" fill="black"/>
<path d="M63.3333 23.8334C63.6094 23.8334 63.8333 23.6095 63.8333 23.3334C63.8333 23.0572 63.6094 22.8334 63.3333 22.8334V23.8334ZM63.3333 23.3334V22.8334H59.9999V23.3334V23.8334H63.3333V23.3334Z" fill="black"/>
<path d="M63.3333 27.1666C63.6094 27.1666 63.8333 26.9428 63.8333 26.6666C63.8333 26.3905 63.6094 26.1666 63.3333 26.1666V27.1666ZM63.3333 26.6666V26.1666H59.9999V26.6666V27.1666H63.3333V26.6666Z" fill="black"/>
<path d="M63.3333 30.5C63.6094 30.5 63.8333 30.2761 63.8333 30C63.8333 29.7239 63.6094 29.5 63.3333 29.5V30.5ZM63.3333 30V29.5H59.9999V30V30.5H63.3333V30Z" fill="black"/>
<path d="M63.3333 33.8334C63.6094 33.8334 63.8333 33.6095 63.8333 33.3334C63.8333 33.0572 63.6094 32.8334 63.3333 32.8334V33.8334ZM63.3333 33.3334V32.8334H59.9999V33.3334V33.8334H63.3333V33.3334Z" fill="black"/>
<path d="M63.3333 37.1666C63.6094 37.1666 63.8333 36.9428 63.8333 36.6666C63.8333 36.3905 63.6094 36.1666 63.3333 36.1666V37.1666ZM63.3333 36.6666V36.1666H59.9999V36.6666V37.1666H63.3333V36.6666Z" fill="black"/>
<path d="M63.3333 40.5C63.6094 40.5 63.8333 40.2761 63.8333 40C63.8333 39.7239 63.6094 39.5 63.3333 39.5V40.5ZM63.3333 40V39.5H59.9999V40V40.5H63.3333V40Z" fill="black"/>
<path d="M63.3333 43.8334C63.6094 43.8334 63.8333 43.6095 63.8333 43.3334C63.8333 43.0572 63.6094 42.8334 63.3333 42.8334V43.8334ZM63.3333 43.3334V42.8334H59.9999V43.3334V43.8334H63.3333V43.3334Z" fill="black"/>
<path d="M63.3333 47.1666C63.6094 47.1666 63.8333 46.9428 63.8333 46.6666C63.8333 46.3905 63.6094 46.1666 63.3333 46.1666V47.1666ZM63.3333 46.6666V46.1666H59.9999V46.6666V47.1666H63.3333V46.6666Z" fill="black"/>
<path d="M63.3333 50.5C63.6094 50.5 63.8333 50.2761 63.8333 50C63.8333 49.7239 63.6094 49.5 63.3333 49.5V50.5ZM63.3333 50V49.5H59.9999V50V50.5H63.3333V50Z" fill="black"/>
<path d="M63.3333 53.8334C63.6094 53.8334 63.8333 53.6095 63.8333 53.3334C63.8333 53.0572 63.6094 52.8334 63.3333 52.8334V53.8334ZM63.3333 53.3334V52.8334H59.9999V53.3334V53.8334H63.3333V53.3334Z" fill="black"/>
<path d="M63.3333 57.1666C63.6094 57.1666 63.8333 56.9428 63.8333 56.6666C63.8333 56.3905 63.6094 56.1666 63.3333 56.1666V57.1666ZM63.3333 56.6666V56.1666H59.9999V56.6666V57.1666H63.3333V56.6666Z" fill="black"/>
<path d="M63.3333 60.5C63.6094 60.5 63.8333 60.2761 63.8333 60C63.8333 59.7239 63.6094 59.5 63.3333 59.5V60.5ZM63.3333 60V59.5H59.9999V60V60.5H63.3333V60Z" fill="black"/>
<path d="M63.3333 63.8334C63.6094 63.8334 63.8333 63.6095 63.8333 63.3334C63.8333 63.0572 63.6094 62.8334 63.3333 62.8334V63.8334ZM63.3333 63.3334V62.8334H59.9999V63.3334V63.8334H63.3333V63.3334Z" fill="black"/>
<path d="M63.3333 67.1666C63.6094 67.1666 63.8333 66.9428 63.8333 66.6666C63.8333 66.3905 63.6094 66.1666 63.3333 66.1666V67.1666ZM63.3333 66.6666V66.1666H59.9999V66.6666V67.1666H63.3333V66.6666Z" fill="black"/>
</svg>
