<svg width="24" height="24" viewBox="0 0 24 24" fill="none" xmlns="http://www.w3.org/2000/svg">
<path d="M21 3L18 3.99997V20L21 21V3Z" fill="white" stroke="black" stroke-width="0.1" stroke-linecap="round"/>
<rect x="2.05" y="3.05" width="15.9" height="0.9" fill="white" stroke="black" stroke-width="0.1"/>
<rect x="17.95" y="4.05" width="15.9" height="0.9" transform="rotate(90 17.95 4.05)" fill="white" stroke="black" stroke-width="0.1"/>
<rect x="2.05" y="20.05" width="15.9" height="0.9" fill="white" stroke="black" stroke-width="0.1"/>
<rect x="2.05" y="4.05" width="6.9" height="15.9" fill="white" stroke="black" stroke-width="0.1"/>
<circle cx="7.5" cy="12.5" r="0.45" fill="white" stroke="black" stroke-width="0.1"/>
<path d="M16 5.75V6.25H9V5.75H16Z" fill="white" stroke="black" stroke-width="0.1"/>
<path d="M10.75 8V6C10.75 5.86193 10.8619 5.75 11 5.75C11.1381 5.75 11.25 5.86193 11.25 6V8C11.25 8.13807 11.1381 8.25 11 8.25C10.8619 8.25 10.75 8.13807 10.75 8Z" fill="white" stroke="black" stroke-width="0.1" stroke-linecap="round"/>
<path d="M13.75 8V6C13.75 5.86193 13.8619 5.75 14 5.75C14.1381 5.75 14.25 5.86193 14.25 6V8C14.25 8.13807 14.1381 8.25 14 8.25C13.8619 8.25 13.75 8.13807 13.75 8Z" fill="white" stroke="black" stroke-width="0.1" stroke-linecap="round"/>
<rect x="10.05" y="8.05" width="1.9" height="9.9" rx="0.95" fill="white" stroke="black" stroke-width="0.1"/>
<rect x="13.05" y="8.05" width="1.9" height="9.9" rx="0.95" fill="white" stroke="black" stroke-width="0.1"/>
</svg>
