<svg width="80" height="80" viewBox="0 0 80 80" fill="none" xmlns="http://www.w3.org/2000/svg">
<path d="M70 10L60 13.3332V66.6667L70 70V10Z" fill="white" stroke="black" stroke-linecap="round"/>
<rect x="7.16675" y="10.5" width="52.3333" height="2.33333" fill="white" stroke="black"/>
<rect x="59.5" y="13.8333" width="52.3333" height="2.33333" transform="rotate(90 59.5 13.8333)" fill="white" stroke="black"/>
<rect x="7.16675" y="67.1667" width="52.3333" height="2.33333" fill="white" stroke="black"/>
<rect x="7.16675" y="13.8333" width="22.3333" height="52.3333" fill="white" stroke="black"/>
<circle cx="24.9999" cy="41.6667" r="1.16667" fill="white" stroke="black"/>
<path d="M53.3333 19.1667V20.8334H30V19.1667H53.3333Z" fill="white" stroke="black"/>
<path d="M35.8333 26.6667V20.0001C35.8333 19.5398 36.2063 19.1667 36.6666 19.1667C37.1268 19.1667 37.4999 19.5398 37.4999 20.0001V26.6667C37.4999 27.127 37.1268 27.5001 36.6666 27.5001C36.2063 27.5001 35.8333 27.127 35.8333 26.6667Z" fill="white" stroke="black" stroke-linecap="round"/>
<path d="M45.8333 26.6667V20.0001C45.8333 19.5398 46.2063 19.1667 46.6666 19.1667C47.1268 19.1667 47.4999 19.5398 47.4999 20.0001V26.6667C47.4999 27.127 47.1268 27.5001 46.6666 27.5001C46.2063 27.5001 45.8333 27.127 45.8333 26.6667Z" fill="white" stroke="black" stroke-linecap="round"/>
<rect x="33.8333" y="27.1667" width="5.66667" height="32.3333" rx="2.83333" fill="white" stroke="black"/>
<rect x="43.8333" y="27.1667" width="5.66667" height="32.3333" rx="2.83333" fill="white" stroke="black"/>
</svg>
