<svg width="24" height="24" viewBox="0 0 24 24" fill="none" xmlns="http://www.w3.org/2000/svg">
<path d="M4.39566 2.56798L6.04412 2C6.56606 2.32984 7.16784 2.3375 7.5 2.3375C7.83216 2.3375 8.43394 2.32984 8.95588 2L10.6043 2.56798L13 5.34555L11.6714 6.57068L10.6043 5.34555V11H4.39566V5.34555L3.32863 6.57068L2 5.34555L4.39566 2.56798Z" fill="#FAFAFA"/>
<path d="M6.04412 2L4.39566 2.56798L2 5.34555L3.32863 6.57068L4.39566 5.34555V11H10.6043V5.34555L11.6714 6.57068L13 5.34555L10.6043 2.56798L8.95588 2M6.04412 2C6.47549 2.675 6.90686 2.9 7.5 2.9C8.09314 2.9 8.52451 2.675 8.95588 2M6.04412 2C6.56606 2.32984 7.16784 2.3375 7.5 2.3375C7.83216 2.3375 8.43394 2.32984 8.95588 2" stroke="black" stroke-width="0.2" stroke-linecap="round"/>
<path d="M14.3874 11.1124C14.4316 10.7624 14.4817 10.3916 14.5386 10L16.0472 10.0359L17.0001 10.0585L17.9529 10.0359L19.4616 10C19.5185 10.3916 19.5686 10.7624 19.6127 11.1124C19.938 13.6931 19.938 15.1497 19.938 15.5622L20 21.8829C19.2854 22 18.8884 22 18.6502 22C18.0511 22 17.3797 21.8244 17.3003 21.7658L17.0001 13.6147L16.6997 21.7658C16.6203 21.8244 15.9489 22 15.3498 22C15.1116 22 14.7146 22 14 21.8829L14.0622 15.5622C14.0622 15.1497 14.0622 13.6931 14.3874 11.1124Z" fill="white"/>
<path d="M14.3874 11.1124C14.4316 10.7624 14.4817 10.3916 14.5386 10L16.0472 10.0359L17.0001 10.0585L17.9529 10.0359L19.4616 10C19.5185 10.3916 19.5686 10.7624 19.6127 11.1124M14.3874 11.1124C14.0622 13.6931 14.0622 15.1497 14.0622 15.5622L14 21.8829C14.7146 22 15.1116 22 15.3498 22C15.9489 22 16.6203 21.8244 16.6997 21.7658L17.0001 13.6147M14.3874 11.1124H14.3798M14.3874 11.1124H15.2532C15.5708 11.1124 15.5708 10.9368 15.6502 10.8197L15.6993 10.5846M17.0001 12.5762L17.0001 10.5855M17.0001 12.5762L16.457 12.2192V10.5855M17.0001 12.5762V13.6147M15.6993 10.5846C15.7594 10.5852 15.8224 10.5855 15.8884 10.5855H16.457M15.6993 10.5846C14.7765 10.5761 14.5386 10.505 14.5386 10.4684M19.6127 11.1124C19.938 13.6931 19.938 15.1497 19.938 15.5622L20 21.8829C19.2854 22 18.8884 22 18.6502 22C18.0511 22 17.3797 21.8244 17.3003 21.7658L17.0001 13.6147M19.6127 11.1124H19.6204M19.6127 11.1124H18.7469C18.4293 11.1124 18.4293 10.9368 18.3499 10.8197L18.3009 10.5846M18.3009 10.5846C18.2408 10.5852 18.1778 10.5855 18.1117 10.5855H17.0001M18.3009 10.5846C19.2236 10.5761 19.4616 10.505 19.4616 10.4684M17.0001 10.5855H16.457" stroke="black" stroke-width="0.2"/>
</svg>
