<svg width="80" height="80" viewBox="0 0 80 80" fill="none" xmlns="http://www.w3.org/2000/svg">
<path d="M14.6523 8.5599L20.1471 6.66663C21.8869 7.7661 23.8929 7.79163 25.0001 7.79163C26.1073 7.79163 28.1132 7.7661 29.853 6.66663L35.3479 8.5599L43.3334 17.8185L38.9047 21.9022L35.3479 17.8185V36.6666H14.6523V17.8185L11.0955 21.9022L6.66675 17.8185L14.6523 8.5599Z" fill="#FAFAFA"/>
<path d="M20.1471 6.66663L14.6523 8.5599L6.66675 17.8185L11.0955 21.9022L14.6523 17.8185V36.6666H35.3479V17.8185L38.9047 21.9022L43.3334 17.8185L35.3479 8.5599L29.853 6.66663M20.1471 6.66663C21.585 8.91663 23.023 9.66663 25.0001 9.66663C26.9772 9.66663 28.4151 8.91663 29.853 6.66663M20.1471 6.66663C21.8869 7.7661 23.8929 7.79163 25.0001 7.79163C26.1073 7.79163 28.1132 7.7661 29.853 6.66663" stroke="black" stroke-linecap="round"/>
<path d="M47.9582 37.0415C48.1053 35.8746 48.2723 34.6388 48.462 33.3334L53.4909 33.453L56.667 33.5285L59.8431 33.453L64.872 33.3334C65.0617 34.6388 65.2287 35.8746 65.3758 37.0415C66.46 45.6437 66.46 50.499 66.46 51.874L66.6667 72.943C64.2847 73.3334 62.9613 73.3334 62.1673 73.3334C60.1704 73.3334 57.9324 72.7479 57.6678 72.5527L56.667 45.3823L55.6657 72.5527C55.4011 72.7479 53.1631 73.3334 51.1662 73.3334C50.3722 73.3334 49.0488 73.3334 46.6667 72.943L46.874 51.874C46.874 50.499 46.874 45.6437 47.9582 37.0415Z" fill="white"/>
<path d="M47.9582 37.0415C48.1053 35.8746 48.2723 34.6388 48.462 33.3334L53.4909 33.453L56.667 33.5285L59.8431 33.453L64.872 33.3334C65.0617 34.6388 65.2287 35.8746 65.3758 37.0415M47.9582 37.0415C46.874 45.6437 46.874 50.499 46.874 51.874L46.6667 72.943C49.0488 73.3334 50.3722 73.3334 51.1662 73.3334C53.1631 73.3334 55.4011 72.7479 55.6657 72.5527L56.667 45.3823M47.9582 37.0415H47.9327M47.9582 37.0415H50.8441C51.9028 37.0415 51.9028 36.456 52.1675 36.0657L52.331 35.2822M56.667 41.9206L56.667 35.285M56.667 41.9206L54.8566 40.7308V35.285M56.667 41.9206V45.3823M52.331 35.2822C52.5313 35.2841 52.7414 35.285 52.9615 35.285H54.8566M52.331 35.2822C49.2552 35.2537 48.462 35.0168 48.462 34.8947M65.3758 37.0415C66.46 45.6437 66.46 50.499 66.46 51.874L66.6667 72.943C64.2847 73.3334 62.9613 73.3334 62.1673 73.3334C60.1704 73.3334 57.9324 72.7479 57.6678 72.5527L56.667 45.3823M65.3758 37.0415H65.4013M65.3758 37.0415H62.4899C61.4312 37.0415 61.4312 36.456 61.1665 36.0657L61.003 35.2822M61.003 35.2822C60.8027 35.2841 60.5926 35.285 60.3725 35.285H56.667M61.003 35.2822C64.0788 35.2537 64.872 35.0168 64.872 34.8947M56.667 35.285H54.8566" stroke="black"/>
</svg>
