<svg width="80" height="80" viewBox="0 0 80 80" fill="none" xmlns="http://www.w3.org/2000/svg">
<g clip-path="url(#clip0_267_189)">
<path d="M25.1429 8H54.8571V15.1111H66V23.2381H62.2857L54.8571 72H25.1429L17.7143 23.2381H14V15.1111H25.1429V8Z" fill="#D9D9D9"/>
<path d="M25.1429 8H54.8571V15.1111H66V23.2381H62.2857L54.8571 72H25.1429L17.7143 23.2381H14V15.1111H25.1429V8Z" fill="#C7C7C7"/>
<path d="M25.1429 8V7.5H24.6429V8H25.1429ZM54.8571 8H55.3571V7.5H54.8571V8ZM14 15.1111V14.6111H13.5V15.1111H14ZM66 15.1111H66.5V14.6111H66V15.1111ZM66 23.2381V23.7381H66.5V23.2381H66ZM14 23.2381H13.5V23.7381H14V23.2381ZM25.1429 72L24.6486 72.0753L24.7133 72.5H25.1429V72ZM54.8571 72V72.5H55.2867L55.3514 72.0753L54.8571 72ZM40.5 31.3651C40.5 31.0889 40.2761 30.8651 40 30.8651C39.7239 30.8651 39.5 31.0889 39.5 31.3651H40.5ZM39.5 63.873C39.5 64.1492 39.7239 64.373 40 64.373C40.2761 64.373 40.5 64.1492 40.5 63.873H39.5ZM27.9582 31.2875C27.9154 31.0147 27.6595 30.8283 27.3867 30.8711C27.1139 30.914 26.9275 31.1699 26.9703 31.4427L27.9582 31.2875ZM32.0775 63.9506C32.1203 64.2234 32.3762 64.4098 32.649 64.367C32.9218 64.3241 33.1082 64.0682 33.0654 63.7954L32.0775 63.9506ZM53.0297 31.4427C53.0725 31.1699 52.8861 30.914 52.6133 30.8711C52.3405 30.8283 52.0846 31.0147 52.0418 31.2875L53.0297 31.4427ZM46.9346 63.7954C46.8918 64.0682 47.0782 64.3241 47.351 64.367C47.6238 64.4098 47.8797 64.2234 47.9225 63.9506L46.9346 63.7954ZM25.1429 8V8.5H54.8571V8V7.5H25.1429V8ZM54.8571 8H54.3571V15.1111H54.8571H55.3571V8H54.8571ZM25.1429 15.1111H25.6429V8H25.1429H24.6429V15.1111H25.1429ZM14 15.1111V15.6111H25.1429V15.1111V14.6111H14V15.1111ZM25.1429 15.1111V15.6111H54.8571V15.1111V14.6111H25.1429V15.1111ZM54.8571 15.1111V15.6111H66V15.1111V14.6111H54.8571V15.1111ZM66 15.1111H65.5V23.2381H66H66.5V15.1111H66ZM66 23.2381V22.7381H62.2857V23.2381V23.7381H66V23.2381ZM62.2857 23.2381V22.7381H17.7143V23.2381V23.7381H62.2857V23.2381ZM17.7143 23.2381V22.7381H14V23.2381V23.7381H17.7143V23.2381ZM14 23.2381H14.5V15.1111H14H13.5V23.2381H14ZM25.1429 72V72.5H54.8571V72V71.5H25.1429V72ZM25.1429 72L25.6372 71.9247L18.2086 23.1628L17.7143 23.2381L17.22 23.3134L24.6486 72.0753L25.1429 72ZM54.8571 72L55.3514 72.0753L62.78 23.3134L62.2857 23.2381L61.7914 23.1628L54.3628 71.9247L54.8571 72ZM40 31.3651H39.5V63.873H40H40.5V31.3651H40ZM27.4643 31.3651L26.9703 31.4427L32.0775 63.9506L32.5714 63.873L33.0654 63.7954L27.9582 31.2875L27.4643 31.3651ZM52.5357 31.3651L52.0418 31.2875L46.9346 63.7954L47.4286 63.873L47.9225 63.9506L53.0297 31.4427L52.5357 31.3651Z" fill="black"/>
</g>
<defs>
<clipPath id="clip0_267_189">
<rect width="80" height="80" fill="white"/>
</clipPath>
</defs>
</svg>
