<svg width="80" height="80" viewBox="0 0 80 80" fill="none" xmlns="http://www.w3.org/2000/svg">
<g clip-path="url(#clip0_262_127)">
<path d="M39.0685 6.38645C39.3997 5.53795 40.6003 5.53795 40.9315 6.38645L48.908 26.8207C49.0501 27.1848 49.3914 27.4327 49.7816 27.4553L71.6805 28.7269C72.5898 28.7797 72.9609 29.9216 72.2563 30.4988L55.287 44.3994C54.9847 44.6471 54.8543 45.0482 54.9533 45.4263L60.5112 66.6464C60.742 67.5275 59.7706 68.2333 59.0039 67.7415L40.5399 55.8983C40.2109 55.6873 39.7891 55.6873 39.4601 55.8983L20.9961 67.7415C20.2294 68.2333 19.258 67.5275 19.4888 66.6464L25.0467 45.4263C25.1457 45.0482 25.0153 44.6471 24.713 44.3994L7.74375 30.4988C7.03913 29.9216 7.41016 28.7797 8.31948 28.7269L30.2184 27.4553C30.6086 27.4327 30.9499 27.1848 31.092 26.8207L39.0685 6.38645Z" fill="#D9D9D9"/>
</g>
<defs>
<clipPath id="clip0_262_127">
<rect width="80" height="80" fill="white"/>
</clipPath>
</defs>
</svg>
