<svg width="303" height="80" viewBox="0 0 303 80" fill="none" xmlns="http://www.w3.org/2000/svg">
<g clip-path="url(#clip0_221_92)">
<rect width="303" height="80" fill="white"/>
<g clip-path="url(#clip1_221_92)">
<rect width="80" height="80" fill="white"/>
<path d="M24.1961 20.4273L32.5882 17.6C35.2454 19.2419 38.309 19.28 40 19.28C41.691 19.28 44.7546 19.2419 47.4118 17.6L55.8039 20.4273L68 34.2534L61.2361 40.3518L55.8039 34.2534V62.4H24.1961V34.2534L18.7639 40.3518L12 34.2534L24.1961 20.4273Z" fill="#FAFAFA"/>
<path d="M32.5882 17.6L24.1961 20.4273L12 34.2534L18.7639 40.3518L24.1961 34.2534V62.4H55.8039V34.2534L61.2361 40.3518L68 34.2534L55.8039 20.4273L47.4118 17.6M32.5882 17.6C34.7843 20.96 36.9804 22.08 40 22.08C43.0196 22.08 45.2157 20.96 47.4118 17.6M32.5882 17.6C35.2454 19.2419 38.309 19.28 40 19.28C41.691 19.28 44.7546 19.2419 47.4118 17.6" stroke="black" stroke-width="0.8" stroke-linecap="round"/>
<path d="M50.79 39.0777C50.1875 39.184 49.5353 39.3233 48.8301 39.4996C48.4268 39.6004 47.9457 39.7401 47.4005 39.9105C46.4611 40.2039 45.3314 40.5883 44.0815 41.0209C43.1616 41.3393 42.1767 41.6838 41.1547 42.0376C40.2718 42.3432 39.3613 42.6557 38.4411 42.9641C37.4061 43.311 36.3588 43.6528 35.325 43.974C34.2848 44.2971 33.2582 44.5993 32.2713 44.8647C31.2991 45.1262 30.3654 45.352 29.4953 45.527C29.3564 45.5549 29.2191 45.5815 29.0835 45.6068C28.2161 45.7686 27.4191 45.8748 26.7193 45.9094C26.2753 45.9313 25.8705 45.9244 25.5114 45.8845C23.7949 45.6938 22.0784 45.1021 22.0026 44.2188L22.0026 50.3261C22.0784 51.2093 23.7949 51.801 25.5114 51.9917C30.5083 52.5469 44.3885 46.7172 48.8301 45.6068C54.9374 44.08 57.0657 45.3292 57.4358 46.7172V40.61C57.1084 39.3823 55.4055 38.2631 50.79 39.0777Z" fill="#C3C3C3"/>
<path d="M24.1234 42.2756C22.5341 43.0173 21.9558 43.6736 22.0026 44.2188M22.0026 44.2188C22.0784 45.1021 23.7949 45.6938 25.5114 45.8845C25.8705 45.9244 26.2753 45.9313 26.7193 45.9094M22.0026 44.2188L22.0026 50.3261C22.0784 51.2093 23.7949 51.801 25.5114 51.9917C30.5083 52.5469 44.3885 46.7172 48.8301 45.6068C54.9374 44.08 57.0657 45.3292 57.4358 46.7172M57.4358 46.7172V40.61C57.0657 39.222 54.9374 37.9727 48.8301 39.4996C45.2107 40.4044 35.3238 44.443 29.0835 45.6068C28.2161 45.7686 27.4191 45.8748 26.7193 45.9094M57.4358 46.7172C57.88 47.6056 56.5105 48.1978 55.7703 48.3829M26.7193 45.9094V49.0714M29.4953 45.527V47.3856M35.325 43.974V45.8326M41.1547 42.0376V43.8962M47.4005 39.9105V41.7691M32.2713 44.8647V48.0267M38.4411 42.9641V46.1261M44.0815 41.0209V44.1829M50.79 39.0777V42.2397" stroke="black" stroke-width="0.400001" stroke-linecap="round"/>
</g>
<path d="M96.7031 21.875V56H90.2578V21.875H96.7031ZM110.461 36.6172V41.7031H95.0156V36.6172H110.461ZM112.266 21.875V26.9609H95.0156V21.875H112.266ZM123.516 21.875V56H117.07V21.875H123.516ZM144.422 21.875V56H138V21.875H144.422ZM155.016 21.875V26.9609H127.523V21.875H155.016ZM178.617 44.7734H185.062C184.891 47.0547 184.258 49.0781 183.164 50.8438C182.07 52.5938 180.547 53.9688 178.594 54.9688C176.641 55.9688 174.273 56.4688 171.492 56.4688C169.352 56.4688 167.422 56.0938 165.703 55.3438C164 54.5781 162.539 53.4922 161.32 52.0859C160.117 50.6641 159.195 48.9609 158.555 46.9766C157.914 44.9766 157.594 42.7344 157.594 40.25V37.6484C157.594 35.1641 157.922 32.9219 158.578 30.9219C159.234 28.9219 160.172 27.2188 161.391 25.8125C162.625 24.3906 164.102 23.2969 165.82 22.5312C167.555 21.7656 169.492 21.3828 171.633 21.3828C174.414 21.3828 176.766 21.8984 178.688 22.9297C180.609 23.9453 182.102 25.3438 183.164 27.125C184.227 28.9062 184.867 30.9531 185.086 33.2656H178.641C178.516 31.8281 178.203 30.6094 177.703 29.6094C177.219 28.6094 176.484 27.8516 175.5 27.3359C174.531 26.8047 173.242 26.5391 171.633 26.5391C170.383 26.5391 169.281 26.7734 168.328 27.2422C167.391 27.7109 166.609 28.4141 165.984 29.3516C165.359 30.2734 164.891 31.4297 164.578 32.8203C164.266 34.1953 164.109 35.7891 164.109 37.6016V40.25C164.109 41.9844 164.25 43.5391 164.531 44.9141C164.812 46.2891 165.25 47.4531 165.844 48.4062C166.438 49.3594 167.203 50.0859 168.141 50.5859C169.078 51.0859 170.195 51.3359 171.492 51.3359C173.07 51.3359 174.352 51.0859 175.336 50.5859C176.336 50.0859 177.094 49.3516 177.609 48.3828C178.141 47.4141 178.477 46.2109 178.617 44.7734ZM196.148 20V56H189.938V20H196.148ZM200.953 43.5781V43.0859C200.953 41.2266 201.219 39.5156 201.75 37.9531C202.281 36.375 203.055 35.0078 204.07 33.8516C205.086 32.6953 206.328 31.7969 207.797 31.1562C209.266 30.5 210.938 30.1719 212.812 30.1719C214.719 30.1719 216.406 30.5 217.875 31.1562C219.359 31.7969 220.609 32.6953 221.625 33.8516C222.641 35.0078 223.414 36.375 223.945 37.9531C224.477 39.5156 224.742 41.2266 224.742 43.0859V43.5781C224.742 45.4219 224.477 47.1328 223.945 48.7109C223.414 50.2734 222.641 51.6406 221.625 52.8125C220.609 53.9688 219.367 54.8672 217.898 55.5078C216.43 56.1484 214.75 56.4688 212.859 56.4688C210.984 56.4688 209.305 56.1484 207.82 55.5078C206.336 54.8672 205.086 53.9688 204.07 52.8125C203.055 51.6406 202.281 50.2734 201.75 48.7109C201.219 47.1328 200.953 45.4219 200.953 43.5781ZM207.141 43.0859V43.5781C207.141 44.6875 207.25 45.7266 207.469 46.6953C207.688 47.6641 208.023 48.5156 208.477 49.25C208.93 49.9844 209.516 50.5625 210.234 50.9844C210.969 51.3906 211.844 51.5938 212.859 51.5938C213.859 51.5938 214.719 51.3906 215.438 50.9844C216.156 50.5625 216.742 49.9844 217.195 49.25C217.664 48.5156 218.008 47.6641 218.227 46.6953C218.445 45.7266 218.555 44.6875 218.555 43.5781V43.0859C218.555 41.9922 218.445 40.9688 218.227 40.0156C218.008 39.0469 217.664 38.1953 217.195 37.4609C216.742 36.7109 216.148 36.125 215.414 35.7031C214.695 35.2656 213.828 35.0469 212.812 35.0469C211.812 35.0469 210.953 35.2656 210.234 35.7031C209.516 36.125 208.93 36.7109 208.477 37.4609C208.023 38.1953 207.688 39.0469 207.469 40.0156C207.25 40.9688 207.141 41.9922 207.141 43.0859ZM243.188 49.0625C243.188 48.5312 243.047 48.0547 242.766 47.6328C242.484 47.2109 241.953 46.8281 241.172 46.4844C240.406 46.125 239.281 45.7891 237.797 45.4766C236.484 45.1953 235.273 44.8438 234.164 44.4219C233.055 44 232.102 43.4922 231.305 42.8984C230.508 42.2891 229.883 41.5781 229.43 40.7656C228.992 39.9375 228.773 38.9844 228.773 37.9062C228.773 36.8594 229 35.875 229.453 34.9531C229.906 34.0156 230.562 33.1953 231.422 32.4922C232.281 31.7734 233.328 31.2109 234.562 30.8047C235.797 30.3828 237.188 30.1719 238.734 30.1719C240.891 30.1719 242.742 30.5234 244.289 31.2266C245.852 31.9297 247.047 32.8984 247.875 34.1328C248.703 35.3516 249.117 36.7266 249.117 38.2578H242.93C242.93 37.5859 242.773 36.9766 242.461 36.4297C242.164 35.8828 241.703 35.4453 241.078 35.1172C240.453 34.7734 239.664 34.6016 238.711 34.6016C237.852 34.6016 237.125 34.7422 236.531 35.0234C235.953 35.3047 235.516 35.6719 235.219 36.125C234.922 36.5781 234.773 37.0781 234.773 37.625C234.773 38.0312 234.852 38.3984 235.008 38.7266C235.18 39.0391 235.453 39.3281 235.828 39.5938C236.203 39.8594 236.711 40.1016 237.352 40.3203C238.008 40.5391 238.812 40.75 239.766 40.9531C241.656 41.3281 243.305 41.8281 244.711 42.4531C246.133 43.0625 247.242 43.875 248.039 44.8906C248.836 45.9062 249.234 47.2031 249.234 48.7812C249.234 49.9062 248.992 50.9375 248.508 51.875C248.023 52.7969 247.32 53.6016 246.398 54.2891C245.477 54.9766 244.375 55.5156 243.094 55.9062C241.812 56.2812 240.367 56.4688 238.758 56.4688C236.43 56.4688 234.461 56.0547 232.852 55.2266C231.242 54.3828 230.023 53.3203 229.195 52.0391C228.367 50.7422 227.953 49.3984 227.953 48.0078H233.883C233.93 48.9922 234.195 49.7812 234.68 50.375C235.164 50.9688 235.773 51.3984 236.508 51.6641C237.258 51.9141 238.047 52.0391 238.875 52.0391C239.812 52.0391 240.602 51.9141 241.242 51.6641C241.883 51.3984 242.367 51.0469 242.695 50.6094C243.023 50.1562 243.188 49.6406 243.188 49.0625ZM265.336 56.4688C263.414 56.4688 261.688 56.1562 260.156 55.5312C258.625 54.9062 257.32 54.0391 256.242 52.9297C255.18 51.8047 254.359 50.5 253.781 49.0156C253.219 47.5156 252.938 45.9062 252.938 44.1875V43.25C252.938 41.2969 253.219 39.5234 253.781 37.9297C254.344 36.3203 255.141 34.9375 256.172 33.7812C257.203 32.625 258.438 31.7344 259.875 31.1094C261.312 30.4844 262.898 30.1719 264.633 30.1719C266.43 30.1719 268.016 30.4766 269.391 31.0859C270.766 31.6797 271.914 32.5234 272.836 33.6172C273.758 34.7109 274.453 36.0234 274.922 37.5547C275.391 39.0703 275.625 40.75 275.625 42.5938V45.1953H255.75V40.9297H269.531V40.4609C269.5 39.4766 269.312 38.5781 268.969 37.7656C268.625 36.9375 268.094 36.2812 267.375 35.7969C266.656 35.2969 265.727 35.0469 264.586 35.0469C263.664 35.0469 262.859 35.25 262.172 35.6562C261.5 36.0469 260.938 36.6094 260.484 37.3438C260.047 38.0625 259.719 38.9219 259.5 39.9219C259.281 40.9219 259.172 42.0312 259.172 43.25V44.1875C259.172 45.25 259.312 46.2344 259.594 47.1406C259.891 48.0469 260.32 48.8359 260.883 49.5078C261.461 50.1641 262.148 50.6797 262.945 51.0547C263.758 51.4141 264.68 51.5938 265.711 51.5938C267.008 51.5938 268.18 51.3438 269.227 50.8438C270.289 50.3281 271.211 49.5703 271.992 48.5703L275.109 51.8047C274.578 52.5859 273.859 53.3359 272.953 54.0547C272.062 54.7734 270.984 55.3594 269.719 55.8125C268.453 56.25 266.992 56.4688 265.336 56.4688ZM291.773 30.6406V35.0938H277.242V30.6406H291.773ZM281.133 24.4062H287.344V48.6875C287.344 49.4375 287.445 50.0156 287.648 50.4219C287.852 50.8281 288.156 51.1016 288.562 51.2422C288.969 51.3828 289.453 51.4531 290.016 51.4531C290.422 51.4531 290.797 51.4297 291.141 51.3828C291.484 51.3359 291.773 51.2891 292.008 51.2422L292.031 55.8828C291.516 56.0547 290.93 56.1953 290.273 56.3047C289.633 56.4141 288.906 56.4688 288.094 56.4688C286.703 56.4688 285.484 56.2344 284.438 55.7656C283.391 55.2812 282.578 54.5078 282 53.4453C281.422 52.3672 281.133 50.9453 281.133 49.1797V24.4062Z" fill="black"/>
</g>
<defs>
<clipPath id="clip0_221_92">
<rect width="303" height="80" fill="white"/>
</clipPath>
<clipPath id="clip1_221_92">
<rect width="80" height="80" fill="white"/>
</clipPath>
</defs>
</svg>
