<svg width="80" height="80" viewBox="0 0 80 80" fill="none" xmlns="http://www.w3.org/2000/svg">
<rect x="18.5" y="12.5" width="43" height="55" rx="3.5" fill="white" stroke="black"/>
<path d="M45.5191 9.5426L21.5191 12.4489C19.5107 12.6921 18 14.3967 18 16.4198V63.5802C18 65.6033 19.5107 67.3079 21.5191 67.5511L45.5191 70.4574C47.9016 70.7459 50 68.8862 50 66.4864V13.5136C50 11.1138 47.9016 9.25411 45.5191 9.5426Z" fill="white" stroke="black"/>
<path d="M76.2188 40L65.5 48.9326V43.8301H55.5V36.1699H65.5V31.0674L76.2188 40Z" fill="white" stroke="black"/>
<path d="M43 37.5C43.3331 37.5 43.6957 37.7027 43.998 38.1562C44.298 38.6063 44.5 39.2566 44.5 40C44.5 40.7434 44.298 41.3937 43.998 41.8438C43.6957 42.2973 43.3331 42.5 43 42.5C42.6669 42.5 42.3043 42.2973 42.002 41.8438C41.702 41.3937 41.5 40.7434 41.5 40C41.5 39.2566 41.702 38.6063 42.002 38.1562C42.3043 37.7027 42.6669 37.5 43 37.5Z" fill="white" stroke="black"/>
</svg>
