<svg width="46" height="43" viewBox="0 0 46 43" fill="none" xmlns="http://www.w3.org/2000/svg">
<path d="M22.0642 1.48475C22.3893 0.621362 23.6107 0.621363 23.9358 1.48475L28.9691 14.8487C29.1099 15.2226 29.4598 15.4768 29.8589 15.4952L44.1241 16.1524C45.0457 16.1948 45.4231 17.3564 44.7025 17.9324L33.548 26.849C33.2359 27.0985 33.1022 27.5098 33.2081 27.895L36.9912 41.6652C37.2356 42.5548 36.2476 43.2726 35.477 42.7653L23.5499 34.9121C23.2162 34.6924 22.7838 34.6924 22.4501 34.9121L10.523 42.7653C9.75241 43.2726 8.76435 42.5548 9.00877 41.6652L12.7919 27.895C12.8978 27.5098 12.7641 27.0985 12.452 26.849L1.29754 17.9324C0.576891 17.3564 0.954296 16.1948 1.87591 16.1524L16.1411 15.4952C16.5402 15.4768 16.8901 15.2226 17.0309 14.8487L22.0642 1.48475Z" fill="#F59E0B"/>
</svg>
