<svg width="80" height="80" viewBox="0 0 80 80" fill="none" xmlns="http://www.w3.org/2000/svg">
<g clip-path="url(#clip0_265_135)">
<path d="M20.8095 21.4079L31 18C34.2265 19.979 37.9467 20.025 40 20.025C42.0533 20.025 45.7735 19.979 49 18L59.1905 21.4079L74 38.0733L65.7867 45.4241L59.1905 38.0733V72H20.8095V38.0733L14.2133 45.4241L6 38.0733L20.8095 21.4079Z" fill="white"/>
<path d="M31 18L20.8095 21.4079L6 38.0733L14.2133 45.4241L20.8095 38.0733V72H59.1905V38.0733L65.7867 45.4241L74 38.0733L59.1905 21.4079L49 18M31 18C33.6667 22.05 36.3333 23.4 40 23.4C43.6667 23.4 46.3333 22.05 49 18M31 18C34.2265 19.979 37.9467 20.025 40 20.025C42.0533 20.025 45.7735 19.979 49 18" stroke="black" stroke-width="0.8" stroke-linecap="round"/>
<path d="M40 16.1429L40 13.8571C42.9166 13.2857 43.5 12.1429 43.5 10.4286C43.5 8.71429 42.3333 6.99994 40 7C37.6667 7.00006 36.5 8.14286 36.5 10.4286M40 16.1429L33 19M40 16.1429L47 19" stroke="black" stroke-linecap="round"/>
</g>
<defs>
<clipPath id="clip0_265_135">
<rect width="80" height="80" fill="white"/>
</clipPath>
</defs>
</svg>
