<svg width="26" height="26" viewBox="0 0 26 26" fill="none" xmlns="http://www.w3.org/2000/svg">
<path d="M24.2929 25.7071C24.6834 26.0976 25.3166 26.0976 25.7071 25.7071C26.0976 25.3166 26.0976 24.6834 25.7071 24.2929L24.2929 25.7071ZM21.5714 11.2857H20.5714C20.5714 16.4141 16.4141 20.5714 11.2857 20.5714V21.5714V22.5714C17.5186 22.5714 22.5714 17.5186 22.5714 11.2857H21.5714ZM11.2857 21.5714V20.5714C6.15736 20.5714 2 16.4141 2 11.2857H1H0C0 17.5186 5.05279 22.5714 11.2857 22.5714V21.5714ZM1 11.2857H2C2 6.15736 6.15736 2 11.2857 2V1V0C5.05279 0 0 5.05279 0 11.2857H1ZM11.2857 1V2C16.4141 2 20.5714 6.15736 20.5714 11.2857H21.5714H22.5714C22.5714 5.05279 17.5186 0 11.2857 0V1ZM19 19L18.2929 19.7071L24.2929 25.7071L25 25L25.7071 24.2929L19.7071 18.2929L19 19Z" fill="white"/>
</svg>
