<svg width="80" height="80" viewBox="0 0 80 80" fill="none" xmlns="http://www.w3.org/2000/svg">
<path d="M17.3617 13.1554L26.7279 10C29.6935 11.8325 33.1127 11.875 35 11.875C36.8873 11.875 40.3065 11.8325 43.2721 10L52.6383 13.1554L66.25 28.5864L58.701 35.3927L52.6383 28.5864V60H17.3617V28.5864L11.299 35.3927L3.75 28.5864L17.3617 13.1554Z" fill="#FAFAFA"/>
<path d="M26.7279 10L17.3617 13.1554L3.75 28.5864L11.299 35.3927L17.3617 28.5864V60H52.6383V28.5864L58.701 35.3927L66.25 28.5864L52.6383 13.1554L43.2721 10M26.7279 10C29.1789 13.75 31.6299 15 35 15C38.3701 15 40.8211 13.75 43.2721 10M26.7279 10C29.6935 11.8325 33.1127 11.875 35 11.875C36.8873 11.875 40.3065 11.8325 43.2721 10" stroke="black" stroke-linecap="round"/>
<rect x="69.5" y="12.8334" width="7.66667" height="47.6667" stroke="black"/>
<rect x="70" y="13.3334" width="6.66667" height="46.6667" fill="white"/>
<path d="M73.3333 17.1666C73.6094 17.1666 73.8333 16.9428 73.8333 16.6666C73.8333 16.3905 73.6094 16.1666 73.3333 16.1666V17.1666ZM73.3333 16.6666V16.1666H69.9999V16.6666V17.1666H73.3333V16.6666Z" fill="black"/>
<path d="M73.3333 20.5C73.6094 20.5 73.8333 20.2761 73.8333 20C73.8333 19.7239 73.6094 19.5 73.3333 19.5V20.5ZM73.3333 20V19.5H69.9999V20V20.5H73.3333V20Z" fill="black"/>
<path d="M73.3333 23.8334C73.6094 23.8334 73.8333 23.6095 73.8333 23.3334C73.8333 23.0572 73.6094 22.8334 73.3333 22.8334V23.8334ZM73.3333 23.3334V22.8334H69.9999V23.3334V23.8334H73.3333V23.3334Z" fill="black"/>
<path d="M73.3333 27.1666C73.6094 27.1666 73.8333 26.9428 73.8333 26.6666C73.8333 26.3905 73.6094 26.1666 73.3333 26.1666V27.1666ZM73.3333 26.6666V26.1666H69.9999V26.6666V27.1666H73.3333V26.6666Z" fill="black"/>
<path d="M73.3333 30.5C73.6094 30.5 73.8333 30.2761 73.8333 30C73.8333 29.7239 73.6094 29.5 73.3333 29.5V30.5ZM73.3333 30V29.5H69.9999V30V30.5H73.3333V30Z" fill="black"/>
<path d="M73.3333 33.8334C73.6094 33.8334 73.8333 33.6095 73.8333 33.3334C73.8333 33.0572 73.6094 32.8334 73.3333 32.8334V33.8334ZM73.3333 33.3334V32.8334H69.9999V33.3334V33.8334H73.3333V33.3334Z" fill="black"/>
<path d="M73.3333 37.1666C73.6094 37.1666 73.8333 36.9428 73.8333 36.6666C73.8333 36.3905 73.6094 36.1666 73.3333 36.1666V37.1666ZM73.3333 36.6666V36.1666H69.9999V36.6666V37.1666H73.3333V36.6666Z" fill="black"/>
<path d="M73.3333 40.5C73.6094 40.5 73.8333 40.2761 73.8333 40C73.8333 39.7239 73.6094 39.5 73.3333 39.5V40.5ZM73.3333 40V39.5H69.9999V40V40.5H73.3333V40Z" fill="black"/>
<path d="M73.3333 43.8334C73.6094 43.8334 73.8333 43.6095 73.8333 43.3334C73.8333 43.0572 73.6094 42.8334 73.3333 42.8334V43.8334ZM73.3333 43.3334V42.8334H69.9999V43.3334V43.8334H73.3333V43.3334Z" fill="black"/>
<path d="M73.3333 47.1666C73.6094 47.1666 73.8333 46.9428 73.8333 46.6666C73.8333 46.3905 73.6094 46.1666 73.3333 46.1666V47.1666ZM73.3333 46.6666V46.1666H69.9999V46.6666V47.1666H73.3333V46.6666Z" fill="black"/>
<path d="M73.3333 50.5C73.6094 50.5 73.8333 50.2761 73.8333 50C73.8333 49.7239 73.6094 49.5 73.3333 49.5V50.5ZM73.3333 50V49.5H69.9999V50V50.5H73.3333V50Z" fill="black"/>
<path d="M73.3333 53.8334C73.6094 53.8334 73.8333 53.6095 73.8333 53.3334C73.8333 53.0572 73.6094 52.8334 73.3333 52.8334V53.8334ZM73.3333 53.3334V52.8334H69.9999V53.3334V53.8334H73.3333V53.3334Z" fill="black"/>
<path d="M73.3333 57.1666C73.6094 57.1666 73.8333 56.9428 73.8333 56.6666C73.8333 56.3905 73.6094 56.1666 73.3333 56.1666V57.1666ZM73.3333 56.6666V56.1666H69.9999V56.6666V57.1666H73.3333V56.6666Z" fill="black"/>
<rect x="63.8333" y="62.8334" width="7.66667" height="47.6667" transform="rotate(90 63.8333 62.8334)" stroke="black"/>
<rect x="63.3333" y="63.3334" width="6.66667" height="46.6667" transform="rotate(90 63.3333 63.3334)" fill="white"/>
<path d="M59.5 66.6666C59.5 66.9428 59.7239 67.1666 60 67.1666C60.2761 67.1666 60.5 66.9428 60.5 66.6666H59.5ZM60 66.6666H60.5V63.3333H60H59.5V66.6666H60Z" fill="black"/>
<path d="M56.1667 66.6666C56.1667 66.9428 56.3906 67.1666 56.6667 67.1666C56.9429 67.1666 57.1667 66.9428 57.1667 66.6666H56.1667ZM56.6667 66.6666H57.1667V63.3333H56.6667H56.1667V66.6666H56.6667Z" fill="black"/>
<path d="M52.8333 66.6666C52.8333 66.9428 53.0571 67.1666 53.3333 67.1666C53.6094 67.1666 53.8333 66.9428 53.8333 66.6666H52.8333ZM53.3333 66.6666H53.8333V63.3333H53.3333H52.8333V66.6666H53.3333Z" fill="black"/>
<path d="M49.5 66.6666C49.5 66.9428 49.7239 67.1666 50 67.1666C50.2761 67.1666 50.5 66.9428 50.5 66.6666H49.5ZM50 66.6666H50.5V63.3333H50H49.5V66.6666H50Z" fill="black"/>
<path d="M46.1667 66.6666C46.1667 66.9428 46.3906 67.1666 46.6667 67.1666C46.9429 67.1666 47.1667 66.9428 47.1667 66.6666H46.1667ZM46.6667 66.6666H47.1667V63.3333H46.6667H46.1667V66.6666H46.6667Z" fill="black"/>
<path d="M42.8333 66.6666C42.8333 66.9428 43.0571 67.1666 43.3333 67.1666C43.6094 67.1666 43.8333 66.9428 43.8333 66.6666H42.8333ZM43.3333 66.6666H43.8333V63.3333H43.3333H42.8333V66.6666H43.3333Z" fill="black"/>
<path d="M39.5 66.6666C39.5 66.9428 39.7239 67.1666 40 67.1666C40.2761 67.1666 40.5 66.9428 40.5 66.6666H39.5ZM40 66.6666H40.5V63.3333H40H39.5V66.6666H40Z" fill="black"/>
<path d="M36.1667 66.6666C36.1667 66.9428 36.3906 67.1666 36.6667 67.1666C36.9429 67.1666 37.1667 66.9428 37.1667 66.6666H36.1667ZM36.6667 66.6666H37.1667V63.3333H36.6667H36.1667V66.6666H36.6667Z" fill="black"/>
<path d="M32.8333 66.6666C32.8333 66.9428 33.0571 67.1666 33.3333 67.1666C33.6094 67.1666 33.8333 66.9428 33.8333 66.6666H32.8333ZM33.3333 66.6666H33.8333V63.3333H33.3333H32.8333V66.6666H33.3333Z" fill="black"/>
<path d="M29.5 66.6666C29.5 66.9428 29.7239 67.1666 30 67.1666C30.2761 67.1666 30.5 66.9428 30.5 66.6666H29.5ZM30 66.6666H30.5V63.3333H30H29.5V66.6666H30Z" fill="black"/>
<path d="M26.1665 66.6666C26.1665 66.9428 26.3904 67.1666 26.6665 67.1666C26.9426 67.1666 27.1665 66.9428 27.1665 66.6666H26.1665ZM26.6665 66.6666H27.1665V63.3333H26.6665H26.1665V66.6666H26.6665Z" fill="black"/>
<path d="M22.8335 66.6666C22.8335 66.9428 23.0574 67.1666 23.3335 67.1666C23.6096 67.1666 23.8335 66.9428 23.8335 66.6666H22.8335ZM23.3335 66.6666H23.8335V63.3333H23.3335H22.8335V66.6666H23.3335Z" fill="black"/>
<path d="M19.5 66.6666C19.5 66.9428 19.7239 67.1666 20 67.1666C20.2761 67.1666 20.5 66.9428 20.5 66.6666H19.5ZM20 66.6666H20.5V63.3333H20H19.5V66.6666H20Z" fill="black"/>
</svg>
