<svg width="24" height="24" viewBox="0 0 24 24" fill="none" xmlns="http://www.w3.org/2000/svg">
<path d="M5.13795 3.94663L7.98529 3C8.88682 3.54974 9.92627 3.5625 10.5 3.5625C11.0737 3.5625 12.1132 3.54974 13.0147 3L15.862 3.94663L20 8.57592L17.7051 10.6178L15.862 8.57592V18H5.13795V8.57592L3.2949 10.6178L1 8.57592L5.13795 3.94663Z" fill="#FAFAFA"/>
<path d="M7.98529 3L5.13795 3.94663L1 8.57592L3.2949 10.6178L5.13795 8.57592V18H15.862V8.57592L17.7051 10.6178L20 8.57592L15.862 3.94663L13.0147 3M7.98529 3C8.73039 4.125 9.47549 4.5 10.5 4.5C11.5245 4.5 12.2696 4.125 13.0147 3M7.98529 3C8.88682 3.54974 9.92627 3.5625 10.5 3.5625C11.0737 3.5625 12.1132 3.54974 13.0147 3" stroke="black" stroke-width="0.2" stroke-linecap="round"/>
<rect x="20.9" y="3.9" width="2.2" height="14.2" stroke="black" stroke-width="0.2"/>
<rect x="21" y="4" width="2" height="14" fill="white"/>
<path d="M22 5.1C22.0552 5.1 22.1 5.05523 22.1 5C22.1 4.94477 22.0552 4.9 22 4.9V5.1ZM22 5V4.9H21V5V5.1H22V5Z" fill="black"/>
<path d="M22 6.1C22.0552 6.1 22.1 6.05523 22.1 6C22.1 5.94477 22.0552 5.9 22 5.9V6.1ZM22 6V5.9H21V6V6.1H22V6Z" fill="black"/>
<path d="M22 7.1C22.0552 7.1 22.1 7.05523 22.1 7C22.1 6.94477 22.0552 6.9 22 6.9V7.1ZM22 7V6.9H21V7V7.1H22V7Z" fill="black"/>
<path d="M22 8.1C22.0552 8.1 22.1 8.05523 22.1 8C22.1 7.94477 22.0552 7.9 22 7.9V8.1ZM22 8V7.9H21V8V8.1H22V8Z" fill="black"/>
<path d="M22 9.1C22.0552 9.1 22.1 9.05523 22.1 9C22.1 8.94477 22.0552 8.9 22 8.9V9.1ZM22 9V8.9H21V9V9.1H22V9Z" fill="black"/>
<path d="M22 10.1C22.0552 10.1 22.1 10.0552 22.1 10C22.1 9.94477 22.0552 9.9 22 9.9V10.1ZM22 10V9.9H21V10V10.1H22V10Z" fill="black"/>
<path d="M22 11.1C22.0552 11.1 22.1 11.0552 22.1 11C22.1 10.9448 22.0552 10.9 22 10.9V11.1ZM22 11V10.9H21V11V11.1H22V11Z" fill="black"/>
<path d="M22 12.1C22.0552 12.1 22.1 12.0552 22.1 12C22.1 11.9448 22.0552 11.9 22 11.9V12.1ZM22 12V11.9H21V12V12.1H22V12Z" fill="black"/>
<path d="M22 13.1C22.0552 13.1 22.1 13.0552 22.1 13C22.1 12.9448 22.0552 12.9 22 12.9V13.1ZM22 13V12.9H21V13V13.1H22V13Z" fill="black"/>
<path d="M22 14.1C22.0552 14.1 22.1 14.0552 22.1 14C22.1 13.9448 22.0552 13.9 22 13.9V14.1ZM22 14V13.9H21V14V14.1H22V14Z" fill="black"/>
<path d="M22 15.1C22.0552 15.1 22.1 15.0552 22.1 15C22.1 14.9448 22.0552 14.9 22 14.9V15.1ZM22 15V14.9H21V15V15.1H22V15Z" fill="black"/>
<path d="M22 16.1C22.0552 16.1 22.1 16.0552 22.1 16C22.1 15.9448 22.0552 15.9 22 15.9V16.1ZM22 16V15.9H21V16V16.1H22V16Z" fill="black"/>
<path d="M22 17.1C22.0552 17.1 22.1 17.0552 22.1 17C22.1 16.9448 22.0552 16.9 22 16.9V17.1ZM22 17V16.9H21V17V17.1H22V17Z" fill="black"/>
<rect x="19.1" y="18.9" width="2.2" height="14.2" transform="rotate(90 19.1 18.9)" stroke="black" stroke-width="0.2"/>
<rect x="19" y="19" width="2" height="14" transform="rotate(90 19 19)" fill="white"/>
<path d="M17.9 20C17.9 20.0552 17.9448 20.1 18 20.1C18.0552 20.1 18.1 20.0552 18.1 20H17.9ZM18 20H18.1V19H18H17.9V20H18Z" fill="black"/>
<path d="M16.9 20C16.9 20.0552 16.9448 20.1 17 20.1C17.0552 20.1 17.1 20.0552 17.1 20H16.9ZM17 20H17.1V19H17H16.9V20H17Z" fill="black"/>
<path d="M15.9 20C15.9 20.0552 15.9448 20.1 16 20.1C16.0552 20.1 16.1 20.0552 16.1 20H15.9ZM16 20H16.1V19H16H15.9V20H16Z" fill="black"/>
<path d="M14.9 20C14.9 20.0552 14.9448 20.1 15 20.1C15.0552 20.1 15.1 20.0552 15.1 20H14.9ZM15 20H15.1V19H15H14.9V20H15Z" fill="black"/>
<path d="M13.9 20C13.9 20.0552 13.9448 20.1 14 20.1C14.0552 20.1 14.1 20.0552 14.1 20H13.9ZM14 20H14.1V19H14H13.9V20H14Z" fill="black"/>
<path d="M12.9 20C12.9 20.0552 12.9448 20.1 13 20.1C13.0552 20.1 13.1 20.0552 13.1 20H12.9ZM13 20H13.1V19H13H12.9V20H13Z" fill="black"/>
<path d="M11.9 20C11.9 20.0552 11.9448 20.1 12 20.1C12.0552 20.1 12.1 20.0552 12.1 20H11.9ZM12 20H12.1V19H12H11.9V20H12Z" fill="black"/>
<path d="M10.9 20C10.9 20.0552 10.9448 20.1 11 20.1C11.0552 20.1 11.1 20.0552 11.1 20H10.9ZM11 20H11.1V19H11H10.9V20H11Z" fill="black"/>
<path d="M9.9 20C9.9 20.0552 9.94477 20.1 10 20.1C10.0552 20.1 10.1 20.0552 10.1 20H9.9ZM10 20H10.1V19H10H9.9V20H10Z" fill="black"/>
<path d="M8.9 20C8.9 20.0552 8.94477 20.1 9 20.1C9.05523 20.1 9.1 20.0552 9.1 20H8.9ZM9 20H9.1V19H9H8.9V20H9Z" fill="black"/>
<path d="M7.9 20C7.9 20.0552 7.94477 20.1 8 20.1C8.05523 20.1 8.1 20.0552 8.1 20H7.9ZM8 20H8.1V19H8H7.9V20H8Z" fill="black"/>
<path d="M6.9 20C6.9 20.0552 6.94477 20.1 7 20.1C7.05523 20.1 7.1 20.0552 7.1 20H6.9ZM7 20H7.1V19H7H6.9V20H7Z" fill="black"/>
<path d="M5.9 20C5.9 20.0552 5.94477 20.1 6 20.1C6.05523 20.1 6.1 20.0552 6.1 20H5.9ZM6 20H6.1V19H6H5.9V20H6Z" fill="black"/>
</svg>
