<svg width="80" height="80" viewBox="0 0 80 80" fill="none" xmlns="http://www.w3.org/2000/svg">
<g clip-path="url(#clip0_272_120)">
<path d="M8 16L18.6667 64H61.3333L72 16" stroke="black" stroke-width="3" stroke-linecap="round"/>
<path d="M11 27.5C16.3953 24.1042 21.6408 26.0851 23.5891 27.5C24.9616 28.5798 26.4636 29.2518 28 29.6236M69 27.5C66.9018 29.3866 61.3566 32.0277 55.9612 27.5C55.0477 26.8611 53.6598 26.1357 52 25.6315M33.6471 13C29.4118 14.918 28 18.1148 28 19.3934C28 23.4446 28 26.4261 28 29.6236M37.8824 23.2295C37.4118 24.2951 35.6235 26.4262 32.2353 26.4262V36.6557C32.2353 39.2131 28 39.2131 28 36.6557C28 33.9655 28 31.747 28 29.6236M34.3529 30.9016V46.8852C34.3529 49.4426 39.2941 49.4426 39.2941 46.8852M39.2941 46.8852V30.9016M39.2941 46.8852V50.082C39.2941 52.6393 43.5294 52.6393 43.5294 50.082V47.5246M43.5294 47.5246V30.9016M43.5294 47.5246C43.5294 50.082 47.7647 50.082 47.7647 47.5246V41.7705M47.7647 41.7705V30.9016M47.7647 41.7705C47.7647 44.3279 52 44.3279 52 41.7705V25.6315M47.0588 13C48.7059 13 52 16.1967 52 19.3934V25.6315" stroke="black" stroke-width="2" stroke-linecap="round"/>
</g>
<defs>
<clipPath id="clip0_272_120">
<rect width="80" height="80" fill="white"/>
</clipPath>
</defs>
</svg>
