<svg width="80" height="80" viewBox="0 0 80 80" fill="none" xmlns="http://www.w3.org/2000/svg">
<path d="M59.6388 30C59.6388 35.3234 55.3234 39.6388 50 39.6388C44.6766 39.6388 40.3612 35.3234 40.3612 30C40.3612 24.6766 44.6766 20.3612 50 20.3612C55.3234 20.3612 59.6388 24.6766 59.6388 30Z" fill="white"/>
<path d="M49.2776 17.9515V10.7224C49.2776 10.3232 49.6007 10 50 10C50.3993 10 50.7224 10.3232 50.7224 10.7224V17.9515C50.7224 18.3508 50.3993 18.674 50 18.674C49.6007 18.674 49.2776 18.3508 49.2776 17.9515Z" fill="white"/>
<path d="M59.0307 38.0087L64.1424 43.1205C64.4247 43.4028 64.4247 43.8598 64.1424 44.1421C63.8601 44.4244 63.403 44.4244 63.1207 44.1421L58.009 39.0304C57.7267 38.7481 57.7267 38.291 58.009 38.0087C58.2913 37.7264 58.7483 37.7264 59.0307 38.0087Z" fill="white"/>
<path d="M49.2776 17.9515V10.7224C49.2776 10.3232 49.6007 10 50 10C50.3993 10 50.7224 10.3232 50.7224 10.7224V17.9515C50.7224 18.3508 50.3993 18.674 50 18.674C49.6007 18.674 49.2776 18.3508 49.2776 17.9515Z" fill="white"/>
<path d="M62.0485 29.2776H69.2776C69.6768 29.2776 70 29.6007 70 30C70 30.3993 69.6768 30.7224 69.2776 30.7224H62.0485C61.6492 30.7224 61.326 30.3993 61.326 30C61.326 29.6007 61.6492 29.2776 62.0485 29.2776Z" fill="white"/>
<path d="M58.0087 20.9696L63.1205 15.8579C63.4028 15.5756 63.8598 15.5756 64.1421 15.8579C64.4244 16.1402 64.4244 16.5973 64.1421 16.8796L59.0304 21.9913C58.7481 22.2736 58.291 22.2736 58.0087 21.9913C57.7264 21.709 57.7264 21.252 58.0087 20.9696Z" fill="white"/>
<path d="M50.7224 42.0485V49.2776C50.7224 49.6768 50.3993 50 50 50C49.6007 50 49.2776 49.6768 49.2776 49.2776V42.0485C49.2776 41.6492 49.6007 41.326 50 41.326C50.3993 41.326 50.7224 41.6492 50.7224 42.0485Z" fill="white"/>
<path d="M41.9913 39.0304L36.8795 44.1421C36.5972 44.4244 36.1402 44.4244 35.8579 44.1421C35.5755 43.8598 35.5755 43.4027 35.8579 43.1204L40.9696 38.0087C41.2519 37.7264 41.709 37.7264 41.9913 38.0087C42.2736 38.291 42.2736 38.748 41.9913 39.0304Z" fill="white"/>
<path d="M37.9515 30.7224H30.7224C30.3232 30.7224 30 30.3992 30 30C30 29.6007 30.3232 29.2776 30.7224 29.2776H37.9515C38.3508 29.2776 38.674 29.6007 38.674 30C38.674 30.3992 38.3508 30.7224 37.9515 30.7224Z" fill="white"/>
<path d="M40.9696 21.9913L35.8579 16.8795C35.5756 16.5972 35.5756 16.1402 35.8579 15.8579C36.1402 15.5756 36.5973 15.5756 36.8796 15.8579L41.9913 20.9696C42.2736 21.2519 42.2736 21.709 41.9913 21.9913C41.709 22.2736 41.252 22.2736 40.9696 21.9913Z" fill="white"/>
<path d="M59.6388 30C59.6388 35.3234 55.3234 39.6388 50 39.6388C44.6766 39.6388 40.3612 35.3234 40.3612 30C40.3612 24.6766 44.6766 20.3612 50 20.3612C55.3234 20.3612 59.6388 24.6766 59.6388 30Z" stroke="black" stroke-linecap="round"/>
<path d="M49.2776 17.9515V10.7224C49.2776 10.3232 49.6007 10 50 10C50.3993 10 50.7224 10.3232 50.7224 10.7224V17.9515C50.7224 18.3508 50.3993 18.674 50 18.674C49.6007 18.674 49.2776 18.3508 49.2776 17.9515Z" stroke="black" stroke-linecap="round"/>
<path d="M59.0307 38.0087L64.1424 43.1205C64.4247 43.4028 64.4247 43.8598 64.1424 44.1421C63.8601 44.4244 63.403 44.4244 63.1207 44.1421L58.009 39.0304C57.7267 38.7481 57.7267 38.291 58.009 38.0087C58.2913 37.7264 58.7483 37.7264 59.0307 38.0087Z" stroke="black" stroke-linecap="round"/>
<path d="M49.2776 17.9515V10.7224C49.2776 10.3232 49.6007 10 50 10C50.3993 10 50.7224 10.3232 50.7224 10.7224V17.9515C50.7224 18.3508 50.3993 18.674 50 18.674C49.6007 18.674 49.2776 18.3508 49.2776 17.9515Z" stroke="black" stroke-linecap="round"/>
<path d="M62.0485 29.2776H69.2776C69.6768 29.2776 70 29.6007 70 30C70 30.3993 69.6768 30.7224 69.2776 30.7224H62.0485C61.6492 30.7224 61.326 30.3993 61.326 30C61.326 29.6007 61.6492 29.2776 62.0485 29.2776Z" stroke="black" stroke-linecap="round"/>
<path d="M58.0087 20.9696L63.1205 15.8579C63.4028 15.5756 63.8598 15.5756 64.1421 15.8579C64.4244 16.1402 64.4244 16.5973 64.1421 16.8796L59.0304 21.9913C58.7481 22.2736 58.291 22.2736 58.0087 21.9913C57.7264 21.709 57.7264 21.252 58.0087 20.9696Z" stroke="black" stroke-linecap="round"/>
<path d="M50.7224 42.0485V49.2776C50.7224 49.6768 50.3993 50 50 50C49.6007 50 49.2776 49.6768 49.2776 49.2776V42.0485C49.2776 41.6492 49.6007 41.326 50 41.326C50.3993 41.326 50.7224 41.6492 50.7224 42.0485Z" stroke="black" stroke-linecap="round"/>
<path d="M41.9913 39.0304L36.8795 44.1421C36.5972 44.4244 36.1402 44.4244 35.8579 44.1421C35.5755 43.8598 35.5755 43.4027 35.8579 43.1204L40.9696 38.0087C41.2519 37.7264 41.709 37.7264 41.9913 38.0087C42.2736 38.291 42.2736 38.748 41.9913 39.0304Z" stroke="black" stroke-linecap="round"/>
<path d="M37.9515 30.7224H30.7224C30.3232 30.7224 30 30.3992 30 30C30 29.6007 30.3232 29.2776 30.7224 29.2776H37.9515C38.3508 29.2776 38.674 29.6007 38.674 30C38.674 30.3992 38.3508 30.7224 37.9515 30.7224Z" stroke="black" stroke-linecap="round"/>
<path d="M40.9696 21.9913L35.8579 16.8795C35.5756 16.5972 35.5756 16.1402 35.8579 15.8579C36.1402 15.5756 36.5973 15.5756 36.8796 15.8579L41.9913 20.9696C42.2736 21.2519 42.2736 21.709 41.9913 21.9913C41.709 22.2736 41.252 22.2736 40.9696 21.9913Z" stroke="black" stroke-linecap="round"/>
<path d="M45.444 66.6667H15.0174C9.31199 64.7619 7.41035 55.2381 15.0173 53.3333C15.017 45.7143 21.5269 40 28.3287 40C33.4765 40 39.7384 43.8095 39.7387 49.5238C51.1484 47.619 60.657 60.9524 45.444 66.6667Z" fill="white" stroke="black" stroke-linecap="round"/>
</svg>
