<svg width="24" height="24" viewBox="0 0 24 24" fill="none" xmlns="http://www.w3.org/2000/svg">
<path d="M17.8916 9C17.8916 10.597 16.597 11.8916 15 11.8916C13.403 11.8916 12.1084 10.597 12.1084 9C12.1084 7.40299 13.403 6.10837 15 6.10837C16.597 6.10837 17.8916 7.40299 17.8916 9Z" fill="white"/>
<path d="M14.7833 5.38546V3.21673C14.7833 3.09696 14.8802 3 15 3C15.1198 3 15.2167 3.09696 15.2167 3.21673V5.38546C15.2167 5.50523 15.1198 5.60219 15 5.60219C14.8802 5.60219 14.7833 5.50523 14.7833 5.38546Z" fill="white"/>
<path d="M17.7092 11.4026L19.2427 12.9361C19.3274 13.0208 19.3274 13.1579 19.2427 13.2426C19.158 13.3273 19.0209 13.3273 18.9362 13.2426L17.4027 11.7091C17.318 11.6244 17.318 11.4873 17.4027 11.4026C17.4874 11.3179 17.6245 11.3179 17.7092 11.4026Z" fill="white"/>
<path d="M14.7833 5.38546V3.21673C14.7833 3.09696 14.8802 3 15 3C15.1198 3 15.2167 3.09696 15.2167 3.21673V5.38546C15.2167 5.50523 15.1198 5.60219 15 5.60219C14.8802 5.60219 14.7833 5.50523 14.7833 5.38546Z" fill="white"/>
<path d="M18.6145 8.78327H20.7833C20.903 8.78327 21 8.88022 21 9C21 9.11978 20.903 9.21673 20.7833 9.21673H18.6145C18.4948 9.21673 18.3978 9.11978 18.3978 9C18.3978 8.88022 18.4948 8.78327 18.6145 8.78327Z" fill="white"/>
<path d="M17.4026 6.29089L18.9361 4.75737C19.0208 4.67268 19.1579 4.67268 19.2426 4.75737C19.3273 4.84207 19.3273 4.97918 19.2426 5.06388L17.7091 6.5974C17.6244 6.68209 17.4873 6.68209 17.4026 6.5974C17.3179 6.5127 17.3179 6.37559 17.4026 6.29089Z" fill="white"/>
<path d="M15.2167 12.6145V14.7833C15.2167 14.903 15.1198 15 15 15C14.8802 15 14.7833 14.903 14.7833 14.7833V12.6145C14.7833 12.4948 14.8802 12.3978 15 12.3978C15.1198 12.3978 15.2167 12.4948 15.2167 12.6145Z" fill="white"/>
<path d="M12.5974 11.7091L11.0639 13.2426C10.9792 13.3273 10.8421 13.3273 10.7574 13.2426C10.6727 13.1579 10.6727 13.0208 10.7574 12.9361L12.2909 11.4026C12.3756 11.3179 12.5127 11.3179 12.5974 11.4026C12.6821 11.4873 12.6821 11.6244 12.5974 11.7091Z" fill="white"/>
<path d="M11.3855 9.21673H9.21673C9.09696 9.21673 9 9.11977 9 9C9 8.88022 9.09696 8.78327 9.21673 8.78327H11.3855C11.5052 8.78327 11.6022 8.88022 11.6022 9C11.6022 9.11977 11.5052 9.21673 11.3855 9.21673Z" fill="white"/>
<path d="M12.2909 6.59738L10.7574 5.06386C10.6727 4.97917 10.6727 4.84205 10.7574 4.75736C10.8421 4.67267 10.9792 4.67267 11.0639 4.75736L12.5974 6.29088C12.6821 6.37557 12.6821 6.51269 12.5974 6.59738C12.5127 6.68208 12.3756 6.68208 12.2909 6.59738Z" fill="white"/>
<path d="M17.8916 9C17.8916 10.597 16.597 11.8916 15 11.8916C13.403 11.8916 12.1084 10.597 12.1084 9C12.1084 7.40299 13.403 6.10837 15 6.10837C16.597 6.10837 17.8916 7.40299 17.8916 9Z" stroke="black" stroke-width="0.2" stroke-linecap="round"/>
<path d="M14.7833 5.38546V3.21673C14.7833 3.09696 14.8802 3 15 3C15.1198 3 15.2167 3.09696 15.2167 3.21673V5.38546C15.2167 5.50523 15.1198 5.60219 15 5.60219C14.8802 5.60219 14.7833 5.50523 14.7833 5.38546Z" stroke="black" stroke-width="0.2" stroke-linecap="round"/>
<path d="M17.7092 11.4026L19.2427 12.9361C19.3274 13.0208 19.3274 13.1579 19.2427 13.2426C19.158 13.3273 19.0209 13.3273 18.9362 13.2426L17.4027 11.7091C17.318 11.6244 17.318 11.4873 17.4027 11.4026C17.4874 11.3179 17.6245 11.3179 17.7092 11.4026Z" stroke="black" stroke-width="0.2" stroke-linecap="round"/>
<path d="M14.7833 5.38546V3.21673C14.7833 3.09696 14.8802 3 15 3C15.1198 3 15.2167 3.09696 15.2167 3.21673V5.38546C15.2167 5.50523 15.1198 5.60219 15 5.60219C14.8802 5.60219 14.7833 5.50523 14.7833 5.38546Z" stroke="black" stroke-width="0.2" stroke-linecap="round"/>
<path d="M18.6145 8.78327H20.7833C20.903 8.78327 21 8.88022 21 9C21 9.11978 20.903 9.21673 20.7833 9.21673H18.6145C18.4948 9.21673 18.3978 9.11978 18.3978 9C18.3978 8.88022 18.4948 8.78327 18.6145 8.78327Z" stroke="black" stroke-width="0.2" stroke-linecap="round"/>
<path d="M17.4026 6.29089L18.9361 4.75737C19.0208 4.67268 19.1579 4.67268 19.2426 4.75737C19.3273 4.84207 19.3273 4.97918 19.2426 5.06388L17.7091 6.5974C17.6244 6.68209 17.4873 6.68209 17.4026 6.5974C17.3179 6.5127 17.3179 6.37559 17.4026 6.29089Z" stroke="black" stroke-width="0.2" stroke-linecap="round"/>
<path d="M15.2167 12.6145V14.7833C15.2167 14.903 15.1198 15 15 15C14.8802 15 14.7833 14.903 14.7833 14.7833V12.6145C14.7833 12.4948 14.8802 12.3978 15 12.3978C15.1198 12.3978 15.2167 12.4948 15.2167 12.6145Z" stroke="black" stroke-width="0.2" stroke-linecap="round"/>
<path d="M12.5974 11.7091L11.0639 13.2426C10.9792 13.3273 10.8421 13.3273 10.7574 13.2426C10.6727 13.1579 10.6727 13.0208 10.7574 12.9361L12.2909 11.4026C12.3756 11.3179 12.5127 11.3179 12.5974 11.4026C12.6821 11.4873 12.6821 11.6244 12.5974 11.7091Z" stroke="black" stroke-width="0.2" stroke-linecap="round"/>
<path d="M11.3855 9.21673H9.21673C9.09696 9.21673 9 9.11977 9 9C9 8.88022 9.09696 8.78327 9.21673 8.78327H11.3855C11.5052 8.78327 11.6022 8.88022 11.6022 9C11.6022 9.11977 11.5052 9.21673 11.3855 9.21673Z" stroke="black" stroke-width="0.2" stroke-linecap="round"/>
<path d="M12.2909 6.59738L10.7574 5.06386C10.6727 4.97917 10.6727 4.84205 10.7574 4.75736C10.8421 4.67267 10.9792 4.67267 11.0639 4.75736L12.5974 6.29088C12.6821 6.37557 12.6821 6.51269 12.5974 6.59738C12.5127 6.68208 12.3756 6.68208 12.2909 6.59738Z" stroke="black" stroke-width="0.2" stroke-linecap="round"/>
<path d="M13.6332 20H4.5052C2.7936 19.4286 2.22311 16.5714 4.5052 16C4.50511 13.7143 6.45806 12 8.49861 12C10.043 12 11.9215 13.1429 11.9216 14.8571C15.3445 14.2857 18.1971 18.2857 13.6332 20Z" fill="white" stroke="black" stroke-width="0.2" stroke-linecap="round"/>
</svg>
